<svg width="96" height="96" viewBox="0 0 96 96" fill="none" xmlns="http://www.w3.org/2000/svg">
<rect width="96" height="96" rx="10" fill="#094576"/>
<path d="M40.9916 38.3464C43.1723 38.8388 44.8958 39.9291 46.162 41.6174C47.4634 43.2706 48.1141 45.1699 48.1141 47.3154C48.1141 50.481 47.0237 52.9606 44.843 54.7544C42.6623 56.5483 39.6023 57.4452 35.6629 57.4452H17.25V20.25H35.0826C38.8812 20.25 41.8533 21.0941 43.9989 22.7824C46.1796 24.4707 47.2699 26.8449 47.2699 29.9049C47.2699 32.0856 46.6896 33.9146 45.5289 35.3919C44.4034 36.8339 42.8909 37.8188 40.9916 38.3464ZM27.5908 35.0225H32.8139C35.4167 35.0225 36.7181 33.9498 36.7181 31.8042C36.7181 29.5884 35.4167 28.4804 32.8139 28.4804H27.5908V35.0225ZM33.6053 49.1092C36.2081 49.1092 37.5095 48.0189 37.5095 45.8382C37.5095 44.7126 37.1578 43.8509 36.4543 43.253C35.786 42.655 34.8188 42.3561 33.5526 42.3561H27.5908V49.1092H33.6053Z" fill="white"/>
<path d="M65.3575 76.5C61.0313 76.5 57.4788 75.48 54.7002 73.44C51.9215 71.3648 50.4267 68.4103 50.2156 64.5764H61.2423C61.3478 65.8778 61.7347 66.8275 62.403 67.4254C63.0713 68.0234 63.933 68.3223 64.9882 68.3223C65.9378 68.3223 66.7116 68.0937 67.3096 67.6365C67.9427 67.144 68.2592 66.4758 68.2592 65.6316C68.2592 64.5413 67.7492 63.6971 66.7292 63.0992C65.7092 62.5012 64.0561 61.833 61.7699 61.0943C59.343 60.2854 57.3733 59.5116 55.8609 58.7729C54.3836 57.9991 53.0822 56.8912 51.9567 55.4491C50.8663 53.9719 50.3212 52.0549 50.3212 49.6984C50.3212 47.3066 50.9191 45.2666 52.115 43.5783C53.3108 41.8548 54.964 40.5535 57.0743 39.6741C59.1847 38.7948 61.5764 38.3552 64.2496 38.3552C68.5758 38.3552 72.0227 39.3752 74.5903 41.4152C77.1931 43.42 78.5824 46.2514 78.7583 49.9094H67.5206C67.4854 48.7839 67.1337 47.9397 66.4654 47.377C65.8323 46.8142 65.0058 46.5328 63.9858 46.5328C63.212 46.5328 62.5789 46.7614 62.0864 47.2187C61.594 47.6759 61.3478 48.3266 61.3478 49.1708C61.3478 49.8742 61.6116 50.4898 62.1392 51.0173C62.702 51.5098 63.3878 51.9494 64.1968 52.3363C65.0058 52.6881 66.2016 53.1453 67.7844 53.7081C70.141 54.517 72.0755 55.326 73.5879 56.135C75.1355 56.9088 76.4545 58.0167 77.5448 59.4588C78.6704 60.8657 79.2331 62.6595 79.2331 64.8402C79.2331 67.0561 78.6704 69.0434 77.5448 70.802C76.4545 72.5607 74.8541 73.95 72.7438 74.97C70.6686 75.99 68.2065 76.5 65.3575 76.5Z" fill="white"/>
</svg>
