<svg width="108" height="108" viewBox="0 0 108 108" fill="none" xmlns="http://www.w3.org/2000/svg">
<g clip-path="url(#clip0_11_2)">
<rect width="108" height="108" fill="#F8C8DC"/>
<path d="M159.991 167.35C159.966 166.812 159.935 166.255 159.91 165.692C159.895 165.411 159.88 165.119 159.865 164.833L159.84 164.396L159.78 163.959C159.488 161.608 159.051 159.051 158.167 156.469C157.946 155.826 157.75 155.163 157.494 154.51C157.218 153.872 156.937 153.219 156.655 152.561C156.505 152.24 156.384 151.893 156.208 151.582C156.037 151.26 155.867 150.939 155.696 150.617C155.339 149.979 155.028 149.311 154.631 148.683C153.109 146.137 151.25 143.695 149.216 141.359C147.131 139.074 144.871 136.889 142.5 134.859C140.114 132.855 137.657 130.936 135.171 129.168C132.694 127.395 130.218 125.707 127.807 124.125C125.406 122.542 123.085 121.015 120.885 119.564C118.694 118.122 116.665 116.72 114.827 115.399C113.912 114.731 113.053 114.078 112.24 113.455C111.456 112.807 110.677 112.225 110.004 111.627C109.351 111.064 108.758 110.522 108.216 110.009C98.2398 97.7676 101.354 88.0124 101.751 80.0255C102.228 70.411 102.947 61.5951 103.665 42.5319L30.5162 43.3406C30.5162 43.3406 30.5162 46.2039 30.5162 67.0856C30.5162 87.3042 21.8562 97.9384 9.09708 103.655C7.24853 104.278 5.33467 104.916 3.3756 105.574C0.632898 106.493 -2.21026 107.498 -5.08859 108.588C-7.97194 109.663 -10.8553 110.944 -13.7035 112.305C-16.5466 113.701 -19.3195 115.284 -21.9567 117.012C-24.5537 118.805 -27.0101 120.744 -29.1651 122.879C-29.7126 123.396 -30.1998 123.984 -30.7072 124.521C-30.9584 124.798 -31.2095 125.074 -31.4607 125.345C-31.7118 125.612 -31.9178 125.918 -32.1489 126.204C-32.5959 126.782 -33.038 127.355 -33.475 127.917C-33.8869 128.5 -34.2436 129.118 -34.6203 129.7C-36.1223 132.041 -37.1721 134.457 -38.0261 136.703L-38.1918 137.12L-38.3174 137.542C-38.4028 137.823 -38.4882 138.104 -38.5686 138.376C-38.7344 138.928 -38.8901 139.461 -39.0458 139.988C-39.2216 140.505 -39.312 141.028 -39.4175 141.53C-39.518 142.033 -39.6185 142.525 -39.7139 142.997C-39.8043 143.469 -39.9148 143.926 -39.9801 144.368C-40.0304 144.82 -40.0806 145.247 -40.1308 145.664C-40.2212 146.488 -40.3016 147.247 -40.377 147.93C-40.4423 149.306 -40.4523 150.386 -40.4774 151.115C-40.4925 151.848 -40.5076 152.24 -40.5076 152.24L-38.5284 152.31C-38.5284 152.31 -38.4932 151.938 -38.433 151.235C-38.3677 150.532 -38.3024 149.502 -38.1617 148.191C-38.0562 147.548 -37.9357 146.83 -37.8051 146.051C-37.7448 145.659 -37.6745 145.252 -37.6041 144.836C-37.5238 144.414 -37.3982 143.992 -37.2927 143.55C-37.1771 143.108 -37.0616 142.655 -36.9461 142.183C-36.8255 141.716 -36.72 141.229 -36.5292 140.757C-36.3634 140.274 -36.1876 139.782 -36.0118 139.28C-35.9213 139.029 -35.8359 138.772 -35.7455 138.516L-35.6099 138.124L-35.4341 137.748C-34.5399 135.708 -33.475 133.538 -31.9982 131.459C-31.6265 130.941 -31.2798 130.399 -30.878 129.886C-30.456 129.384 -30.0341 128.877 -29.6071 128.364C-29.3861 128.113 -29.1902 127.837 -28.9491 127.601C-28.7079 127.36 -28.4718 127.118 -28.2307 126.877C-27.7435 126.4 -27.2864 125.883 -26.7639 125.421C-24.7145 123.537 -22.3786 121.829 -19.9022 120.247C-18.4705 119.388 -16.9937 118.574 -15.4867 117.8C-25.6337 126.445 -30.3757 136.366 -32.5005 147.518C-35.841 165.059 -29.5167 169.711 -29.5167 169.711H-24.8601C-24.8601 169.711 -30.4711 162.909 -26.1762 147.277C-21.8763 131.644 -11.3777 122.336 4.89262 112.908C-7.12301 121.261 -19.9675 140.953 -15.7932 159.805C-11.6138 178.662 2.70248 187.252 2.70248 187.252L7.35904 185.212C2.9436 175.894 4.01857 163.266 4.01857 163.266C5.57076 178.421 16.1899 185.212 16.1899 185.212L18.4856 184.69L63.9561 200.101H87.1936C92.0863 194.214 94.2362 174.046 94.2362 174.046C94.2362 174.046 93.2818 197.278 92.2069 200.975C100.365 202.312 113.807 200.975 113.807 200.975C113.807 200.975 123.472 195.008 127.169 173.373C130.871 151.732 120.011 132.021 120.011 132.021C120.011 132.021 131.082 138.567 137.517 152.29C145.117 168.49 142.088 182.836 142.088 182.836L145.549 184.153C153.41 162.166 144.976 146.051 132.559 132.84C135.025 134.498 137.466 136.236 139.817 138.064C142.148 139.908 144.348 141.882 146.378 143.936C148.352 146.036 150.155 148.221 151.647 150.502C153.079 152.802 154.334 155.128 155.173 157.474C156.108 159.795 156.62 162.116 157.007 164.281L157.087 164.682L157.127 165.089C157.153 165.356 157.178 165.622 157.203 165.883C157.258 166.41 157.308 166.923 157.358 167.425C157.429 167.927 157.419 168.42 157.424 168.897C157.429 169.379 157.434 169.841 157.439 170.293C157.439 170.745 157.464 171.183 157.444 171.609C157.414 172.031 157.384 172.438 157.353 172.83C157.303 173.614 157.258 174.337 157.213 174.99C157.052 176.291 156.886 177.311 156.791 178.014C156.69 178.712 156.635 179.084 156.635 179.084L158.564 179.536C158.564 179.536 158.644 179.154 158.79 178.436C158.931 177.718 159.167 176.668 159.418 175.327C159.503 174.644 159.594 173.89 159.699 173.071C159.75 172.659 159.8 172.232 159.855 171.79C159.9 171.343 159.9 170.881 159.925 170.399C159.94 169.922 159.961 169.429 159.981 168.917C160.001 168.41 160.036 167.887 159.991 167.35Z" fill="#3F3230"/>
<path d="M86.1538 78.6993C84.8277 86.5758 77.4887 104.182 73.0482 109.954H69.0547V78.6993H86.1538Z" fill="#2B201F" fill-opacity="0.6"/>
<path d="M49.5393 84.7875H33.8567C33.8567 84.7875 30.9031 89.4742 26.3018 93.9299V108.995H50.2928L49.5393 84.7875Z" fill="#2B201F" fill-opacity="0.6"/>
<path d="M97.8329 125.119C94.839 115.183 92.2872 104.66 91.3629 94.3669C91.3629 94.3669 85.2144 104.494 86.1538 118.147L97.8329 125.119Z" fill="#2B201F" fill-opacity="0.6"/>
<path d="M30.4509 102.208C30.4509 102.208 12.0106 119.182 6.28406 124.461C-5.88728 133.794 -14.4821 142.866 -14.8387 143.936C-15.1954 145.011 -10.4233 156.108 -5.53063 161.96C-0.637982 167.807 9.74509 172.895 16.1899 174.051H45.6664V119.237L30.4509 102.208Z" fill="white" stroke="#292B2E" stroke-width="1.50698" stroke-linecap="round" stroke-linejoin="round"/>
<path d="M80.3971 82.3613C80.3971 82.3613 77.3028 88.8061 75.4492 94.8541C73.5906 100.897 72.4755 106.624 76.8105 112.114V124.843H43.4059V105.75C43.4059 105.75 49.5644 104.398 50.4384 100.34C51.3125 96.2858 52.7441 82.3613 52.7441 82.3613H80.3971Z" fill="#FBEBE1" stroke="#292B2E" stroke-width="1.50698"/>
<path d="M52.7441 82.3613C52.7441 82.3613 51.3125 96.2858 50.4384 100.34C50.2526 101.199 49.8306 101.937 49.2831 102.565C50.2978 104.117 51.8248 105.865 53.4624 105.594C55.9791 105.172 68.9742 97.9886 76.4991 91.7096C78.2823 86.7667 80.3971 82.3613 80.3971 82.3613H52.7441Z" fill="#292B2E"/>
<path d="M29.818 69.2908C27.0903 69.8182 23.4987 75.5899 24.7445 79.3724C21.7054 76.8909 21.1579 71.9732 23.8503 68.7181C26.5428 65.458 29.3407 66.3873 30.4509 68.2359L29.818 69.2908Z" fill="#2B201F"/>
<path d="M19.1135 54.0201C19.1135 54.0201 18.7166 68.6528 29.3559 70.8831H34.8664V53.8141L19.1135 54.0201Z" fill="#2B201F"/>
<path d="M27.4672 70.4311C27.3466 72.4002 25.5182 77.3933 26.99 80.573C30.6871 88.565 40.7738 99.3098 50.0819 99.3098C55.4517 99.3098 75.7959 95.251 81.643 81.8841C81.643 81.8841 87.3695 78.4833 89.8811 71.2649C92.3827 64.0415 102.108 43.9334 88.7459 25.6789C75.379 7.41934 45.3048 6.70604 29.4363 20.6657C13.5628 34.6253 21.2032 60.6407 27.4672 70.4311Z" fill="white"/>
<path d="M27.4672 70.4311C27.3466 72.4002 25.5182 77.3933 26.99 80.573C30.6871 88.565 40.7738 99.3098 50.0819 99.3098C55.4517 99.3098 75.7959 95.251 81.643 81.8841C81.643 81.8841 87.3695 78.4833 89.8811 71.2649C92.3827 64.0415 102.108 43.9334 88.7459 25.6789C75.379 7.41934 45.3048 6.70604 29.4363 20.6657C13.5628 34.6253 21.2032 60.6407 27.4672 70.4311Z" fill="#FBEBE1"/>
<path d="M95.1957 53.1008C96.3712 44.7823 95.5624 34.992 88.7459 25.6789C75.379 7.41934 45.3048 6.70604 29.4363 20.6657C14.688 33.6357 20.2337 57.0089 26.1209 68.1053C26.8292 68.5222 27.6078 68.8789 28.4668 69.1401C28.4668 69.1401 31.7821 65.4028 34.5801 65.4882C37.373 65.5686 40.2564 68.5323 44.928 68.467C49.6047 68.3966 54.3416 66.518 58.5109 66.0407C62.6802 65.5585 76.5896 66.0407 76.5896 66.0407L83.6121 62.6601L95.1957 53.1008Z" fill="#F4D2C9"/>
<path d="M27.4672 70.4311C27.3466 72.4002 25.5182 77.3933 26.99 80.573C30.6871 88.565 40.7738 99.3098 50.0819 99.3098C55.4517 99.3098 75.7959 95.251 81.643 81.8841C81.643 81.8841 87.3695 78.4833 89.8811 71.2649C92.3827 64.0415 102.108 43.9334 88.7459 25.6789C75.379 7.41934 45.3048 6.70604 29.4363 20.6657C13.5628 34.6253 21.2032 60.6407 27.4672 70.4311Z" stroke="#292B2E" stroke-width="1.50698"/>
<path d="M70.5064 71.8376C70.5064 71.8376 70.5316 71.8978 70.5717 71.9832C70.6119 72.0736 70.6672 72.1892 70.7074 72.3198C70.8028 72.5659 70.8932 72.8121 70.8932 72.8121C70.9033 72.8523 70.8782 72.8975 70.8329 72.9075C70.8028 72.9176 70.7677 72.9075 70.7425 72.8874L70.7325 72.8824C70.7325 72.8824 70.5416 72.7016 70.3507 72.5257C70.2603 72.4403 70.1548 72.355 70.0795 72.2896C69.9991 72.2243 69.9489 72.1842 69.9489 72.1842C69.8032 72.0686 69.7931 71.8727 69.9237 71.7421C70.0543 71.6165 70.2754 71.6065 70.416 71.722C70.4562 71.7572 70.4863 71.7974 70.5064 71.8376Z" fill="#292B2E"/>
<path d="M72.0887 71.1946C72.0887 71.1946 72.1339 71.2448 72.2042 71.3152C72.2746 71.3855 72.365 71.4809 72.4554 71.5914C72.6312 71.7974 72.802 72.0033 72.802 72.0033C72.8321 72.0385 72.8271 72.0887 72.7869 72.1139C72.7568 72.134 72.7216 72.134 72.6915 72.1239L72.6814 72.1189C72.6814 72.1189 72.4353 72.0033 72.1892 71.8928C72.0736 71.8376 71.9481 71.7873 71.8476 71.7472C71.7521 71.712 71.6868 71.6869 71.6868 71.6869C71.506 71.6166 71.4256 71.4357 71.506 71.275C71.5814 71.1193 71.7873 71.0439 71.9631 71.1142C72.0083 71.1293 72.0586 71.1645 72.0887 71.1946Z" fill="#292B2E"/>
<path d="M73.1587 70.4863C73.1587 70.4863 73.214 70.5265 73.2943 70.5868C73.3747 70.642 73.4902 70.7224 73.6007 70.8128C73.8117 70.9886 74.0277 71.1594 74.0277 71.1594C74.0629 71.1896 74.0679 71.2398 74.0327 71.275C74.0127 71.2951 73.9725 71.3051 73.9423 71.2951H73.9323C73.9323 71.2951 73.666 71.2247 73.3998 71.1544C73.2742 71.1192 73.1386 71.0891 73.0331 71.069C72.9327 71.0489 72.8623 71.0339 72.8623 71.0339C72.6714 70.9987 72.5559 70.8279 72.5961 70.6621C72.6413 70.4964 72.8272 70.3909 73.013 70.426C73.0683 70.4361 73.1185 70.4612 73.1587 70.4863Z" fill="#292B2E"/>
<path d="M66.2617 57.0843C62.4239 57.4911 59.7465 60.922 58.9378 62.9715C58.1341 65.016 58.1341 67.8642 59.4753 69.4565C60.8215 71.0539 64.3679 72.4353 68.9642 72.1992C73.5605 71.9581 76.6297 68.2108 76.8105 64.0314C75.4442 58.8525 71.6717 56.6221 66.2617 57.0843Z" fill="white"/>
<path d="M66.2617 57.0843C62.4239 57.4911 59.7466 60.922 58.9378 62.9715C58.4506 64.2123 58.2647 65.7444 58.4857 67.1157C60.3092 63.3684 63.9862 60.4097 70.5265 62.1176C73.5052 62.9012 75.2483 65.1165 76.2027 66.9148C76.5544 66.0056 76.7704 65.0311 76.8106 64.0314C75.4442 58.8525 71.6718 56.6221 66.2617 57.0843Z" fill="#292B2E" fill-opacity="0.1"/>
<path d="M69.6374 57.0843C66.7691 57.0843 64.3529 59.1438 63.5793 61.9669C63.4136 62.5847 63.3181 63.2327 63.3181 63.9058C63.3181 67.6783 66.1462 70.7324 69.6374 70.7324C72.2444 70.7324 74.4798 69.0245 75.4443 66.5832C75.7708 65.7594 75.9516 64.8552 75.9516 63.9058C75.9516 60.1384 73.1235 57.0843 69.6374 57.0843Z" fill="#292B2E"/>
<path d="M75.9516 63.9058C75.9516 60.1384 73.1235 57.0843 69.6374 57.0843C66.7691 57.0843 64.3529 59.1438 63.5793 61.9669C64.2273 61.7559 64.9758 61.6052 65.7846 61.5349C65.4882 62.2482 65.3124 63.0519 65.3124 63.9058C65.3124 66.7892 67.2463 69.12 69.6374 69.12C71.8878 69.12 73.7364 67.0454 73.9373 64.3931C73.9323 64.3881 73.9323 64.3831 73.9273 64.378C74.5049 64.9959 75.0223 65.7243 75.4443 66.5832C75.7708 65.7594 75.9516 64.8552 75.9516 63.9058Z" fill="#292B2E" fill-opacity="0.5"/>
<path d="M75.9516 63.9058C75.9516 61.2686 74.5652 58.9831 72.5358 57.8478C72.1691 57.6619 71.7773 57.4911 71.3704 57.3505C70.8179 57.1797 70.2352 57.0843 69.6374 57.0843C68.1304 57.0843 66.7591 57.6519 65.6741 58.6013C66.1312 58.5259 66.6034 58.4757 67.1057 58.4757C73.9072 58.4204 75.5196 64.2123 75.5498 65.7946C75.5498 65.9754 75.5498 66.1462 75.5397 66.312C75.801 65.5585 75.9516 64.7548 75.9516 63.9058Z" fill="#292B2E" fill-opacity="0.5"/>
<path d="M71.7722 63.9059C70.5516 64.5187 70.1397 65.011 69.6373 66.4828C69.13 65.011 68.7181 64.5187 67.5024 63.9059C68.7181 63.298 69.13 62.8058 69.6373 61.334C70.1397 62.8007 70.5516 63.298 71.7722 63.9059Z" fill="white" stroke="white" stroke-width="1.00465" stroke-linecap="round" stroke-linejoin="round"/>
<path d="M67.4773 60.3946C67.4773 61.0778 67.0202 61.6303 66.4526 61.6303C65.885 61.6303 65.4279 61.0778 65.4279 60.3946C65.4279 59.7114 65.885 59.1589 66.4526 59.1589C67.0202 59.1589 67.4773 59.7114 67.4773 60.3946Z" fill="white"/>
<path d="M72.6212 69.2606C72.6212 70.0895 72.0636 70.7626 71.3754 70.7626C70.6872 70.7626 70.1296 70.0895 70.1296 69.2606C70.1296 68.4268 70.6872 67.7537 71.3754 67.7537C72.0636 67.7537 72.6212 68.4268 72.6212 69.2606Z" fill="white"/>
<path d="M62.881 69.4566C64.4885 68.5825 66.5782 65.5937 66.2215 65.1567C65.8598 64.7247 62.9062 64.7498 61.3289 65.8398C61.3289 65.8398 60.8516 67.9144 62.881 69.4566Z" fill="white"/>
<path d="M78.7797 60.0329C78.7295 59.9425 78.6039 59.9023 78.4984 59.9475L78.4833 59.9576C78.4833 59.9576 78.423 59.9827 78.3226 60.0279C78.2723 60.048 78.2121 60.0781 78.1417 60.1033C78.0714 60.1233 77.986 60.1485 77.9006 60.1736C77.8152 60.2037 77.7097 60.2087 77.6093 60.2238C77.5088 60.2389 77.3983 60.2389 77.2878 60.2389C77.1823 60.2439 77.0617 60.2188 76.9462 60.2087C76.8357 60.1987 76.7201 60.1585 76.6046 60.1384C76.5795 60.1334 76.5544 60.1233 76.5293 60.1133C76.4037 59.9425 76.2731 59.7717 76.1375 59.611C76.248 59.5607 76.3535 59.5105 76.4489 59.4502C76.5946 59.3598 76.7352 59.2794 76.8508 59.179C76.9713 59.0785 77.0868 58.9881 77.1773 58.8826C77.2677 58.7821 77.3581 58.6967 77.4184 58.5963C77.4787 58.5008 77.5339 58.4154 77.5841 58.3401C77.6193 58.2547 77.6495 58.1844 77.6746 58.1291C77.7248 58.0186 77.7499 57.9533 77.7499 57.9533C77.7801 57.888 77.76 57.8076 77.6997 57.7524C77.6193 57.682 77.4887 57.682 77.4033 57.7524L77.3933 57.7624C77.3933 57.7624 77.3481 57.8026 77.2627 57.8779C77.2275 57.9131 77.1773 57.9533 77.122 57.9985C77.0617 58.0387 76.9914 58.0839 76.9161 58.1341C76.8457 58.1844 76.7503 58.2195 76.6599 58.2647C76.5694 58.3099 76.464 58.3351 76.3585 58.3652C76.258 58.4054 76.1375 58.4154 76.0269 58.4355C75.9164 58.4606 75.7908 58.4606 75.6803 58.4707C75.4392 58.4707 75.2031 58.4606 74.9771 58.4255C74.6958 58.1844 74.3944 57.9583 74.0779 57.7473C74.1734 57.682 74.2688 57.6167 74.3542 57.5364C74.4798 57.4259 74.6003 57.3304 74.7008 57.2099C74.8013 57.0993 74.8967 56.9939 74.962 56.8733C75.0374 56.7578 75.1077 56.6573 75.1479 56.5518C75.1881 56.4513 75.2282 56.3559 75.2634 56.2755C75.2785 56.1901 75.2986 56.1148 75.3136 56.0545C75.3387 55.939 75.3538 55.8686 75.3538 55.8686C75.3689 55.7983 75.3387 55.728 75.2684 55.6828C75.173 55.6225 75.0424 55.6426 74.9771 55.723L74.962 55.738C74.962 55.738 74.9268 55.7833 74.8615 55.8686C74.8264 55.9088 74.7862 55.954 74.746 56.0143C74.6908 56.0595 74.6305 56.1148 74.5652 56.1751C74.5049 56.2353 74.4195 56.2856 74.3341 56.3408C74.2587 56.3961 74.1583 56.4413 74.0578 56.4865C73.9674 56.5418 73.8519 56.5669 73.7464 56.6071C73.6409 56.6422 73.5203 56.6623 73.4098 56.6925C73.1737 56.7276 72.9376 56.7527 72.7116 56.7527C72.4855 56.7578 72.2746 56.7377 72.0937 56.7226C72.0435 56.7126 71.9983 56.7075 71.9531 56.7025C70.7174 56.2705 69.3058 56.0445 67.6833 56.0796C61.359 56.2152 56.165 61.4495 58.1944 67.7537C58.114 65.026 60.9069 57.888 67.7135 57.8327C74.5149 57.7825 76.1224 63.5693 76.1525 65.1566C76.1827 66.744 75.7657 67.7537 75.7657 67.7537C75.7657 67.7537 77.5892 66.4778 78.423 64.0566C78.1267 63.0619 77.7298 62.1075 77.2325 61.2234C77.3129 61.1983 77.3933 61.1732 77.4686 61.1431C77.6143 61.0828 77.7549 61.0326 77.8805 60.9572C78.0061 60.8869 78.1216 60.8266 78.2121 60.7513C78.3025 60.6759 78.3828 60.6106 78.4582 60.5553C78.5235 60.485 78.5787 60.4298 78.6189 60.3795C78.7043 60.2891 78.7546 60.2339 78.7546 60.2339C78.8048 60.1786 78.8148 60.1033 78.7797 60.0329Z" fill="#292B2E"/>
<path d="M63.3483 71.5311C63.3483 71.5311 63.5291 71.5713 63.8456 71.6316C64.0063 71.6668 64.1972 71.7019 64.4233 71.7371C64.6443 71.7773 64.8955 71.8074 65.1717 71.8526C65.448 71.8828 65.7444 71.923 66.0609 71.9481C66.3773 71.9682 66.7089 72.0033 67.0555 72.0134C67.4021 72.0335 67.7587 72.0285 68.1204 72.0234C68.4871 72.0285 68.8437 71.9682 69.2155 71.9531C69.5771 71.9029 69.9388 71.8577 70.2904 71.7873C70.4612 71.7472 70.637 71.707 70.8028 71.6618C70.9786 71.6266 71.1444 71.5814 71.2951 71.5161C71.6116 71.3955 71.9381 71.3202 72.1993 71.1695C72.3399 71.0991 72.4705 71.0338 72.6011 70.9736C72.6664 70.9434 72.7317 70.9083 72.792 70.8781C72.8473 70.843 72.9076 70.8028 72.9578 70.7676C73.1788 70.6219 73.3848 70.4863 73.5656 70.3708C73.7263 70.2351 73.862 70.1045 73.9775 70.0041C74.2086 69.8032 74.3392 69.6876 74.3392 69.6876L74.3492 69.6776C74.3844 69.6474 74.4346 69.6474 74.4698 69.6776C74.4999 69.7077 74.4999 69.7529 74.4748 69.778C74.4748 69.778 74.3543 69.9137 74.1433 70.1397C74.0328 70.2552 73.9122 70.3959 73.7515 70.5516C73.5757 70.6872 73.3747 70.8379 73.1587 71.0087C73.1035 71.0489 73.0482 71.0891 72.9879 71.1343C72.9277 71.1695 72.8623 71.2046 72.797 71.2398C72.6614 71.3152 72.5258 71.3905 72.3851 71.4659C72.1139 71.6366 71.7824 71.7421 71.4508 71.8727C71.2901 71.9431 71.1143 71.9983 70.9334 72.0385C70.7576 72.0837 70.5768 72.1289 70.3959 72.1792C70.0292 72.2595 69.6475 72.3148 69.2707 72.37C68.889 72.3952 68.5072 72.4404 68.1304 72.4353C67.7587 72.4353 67.387 72.4353 67.0304 72.4052C66.6737 72.3952 66.3321 72.3499 66.0106 72.3098C65.6891 72.2696 65.3877 72.2143 65.1064 72.1691C63.9963 71.9531 63.288 71.6919 63.288 71.6919C63.2378 71.6768 63.2127 71.6266 63.2328 71.5814C63.2529 71.5412 63.3031 71.5211 63.3483 71.5311Z" fill="#292B2E"/>
<path d="M55.6476 56.0796C55.6476 56.0796 65.3526 50.4888 76.253 53.1812C72.9126 51.5487 66.0709 50.8755 60.7814 52.2218C55.4869 53.573 55.6075 54.648 55.6476 56.0796Z" fill="#292B2E"/>
<path d="M58.7118 58.3049C58.7118 58.3049 58.8374 58.1241 59.0634 57.8126C59.2041 57.667 59.3698 57.4811 59.5708 57.2802C59.7868 57.0993 60.0128 56.8632 60.3092 56.6724C60.4549 56.5719 60.6005 56.4664 60.7563 56.3559C60.922 56.2604 61.0928 56.16 61.2686 56.0545C61.6152 55.8435 62.0121 55.6627 62.424 55.4818C62.6299 55.4015 62.8459 55.3161 63.0619 55.2307C63.2779 55.1503 63.509 55.095 63.7351 55.0197C63.9611 54.9494 64.1972 54.8891 64.4333 54.8389C64.6694 54.7886 64.9055 54.7283 65.1466 54.6932C65.6338 54.6279 66.1161 54.5475 66.5983 54.5324C67.0755 54.4923 67.5527 54.5174 68.0098 54.5324C68.467 54.5475 68.904 54.6329 69.3159 54.6781C69.7228 54.7635 70.1096 54.8489 70.4612 54.9243C70.8078 55.0297 71.1192 55.1352 71.3955 55.2257C71.6768 55.311 71.8978 55.4366 72.0887 55.512C72.4655 55.6828 72.6764 55.7782 72.6764 55.7782C72.7417 55.8084 72.7669 55.8787 72.7317 55.9339C72.7016 55.9842 72.6363 56.0093 72.576 55.9892L72.5659 55.9842C72.5659 55.9842 72.3449 55.9138 71.9531 55.7933C71.7572 55.733 71.5362 55.6325 71.2549 55.5773C70.9786 55.512 70.6671 55.4467 70.3356 55.3563C69.994 55.306 69.6223 55.2457 69.2255 55.1855C68.8286 55.1654 68.4117 55.1101 67.9797 55.1101C67.5477 55.1101 67.1006 55.1001 66.6485 55.1503C66.1914 55.1654 65.7393 55.2508 65.2822 55.311C65.0562 55.3512 64.8351 55.4115 64.6141 55.4517C64.3881 55.4969 64.1671 55.5522 63.9511 55.6175C63.7351 55.6828 63.5191 55.743 63.3131 55.8134C63.1071 55.8837 62.9012 55.959 62.7003 56.0294C62.4993 56.0997 62.3135 56.1951 62.1276 56.2755C61.9367 56.3559 61.7509 56.4312 61.5851 56.5217C61.4093 56.6121 61.2435 56.6975 61.0828 56.7829C60.9271 56.8733 60.7814 56.9687 60.6357 57.0541C60.4951 57.1395 60.3594 57.2299 60.2439 57.3204C60.1183 57.4108 60.0028 57.4911 59.8923 57.5715C59.6863 57.7373 59.5205 57.888 59.3698 58.0136C59.1036 58.2949 58.9479 58.4556 58.9479 58.4556C58.8977 58.5109 58.8072 58.5209 58.7419 58.4707C58.6867 58.4305 58.6766 58.3602 58.7118 58.3049Z" fill="#292B2E"/>
<path d="M31.0336 71.5211C31.0336 71.5211 30.9884 71.5713 30.9281 71.6517C30.8678 71.7271 30.7875 71.8275 30.7071 71.9431C30.5514 72.1641 30.4007 72.3851 30.4007 72.3851C30.3755 72.4203 30.3856 72.4705 30.4308 72.4906C30.4609 72.5107 30.4961 72.5057 30.5212 72.4906L30.5363 72.4856C30.5363 72.4856 30.7674 72.355 31.0035 72.2244C31.114 72.1591 31.2345 72.0988 31.33 72.0536C31.4204 72.0033 31.4807 71.9782 31.4807 71.9782C31.6515 71.8928 31.7168 71.707 31.6263 71.5513C31.5309 71.4006 31.3199 71.3453 31.1491 71.4307C31.1039 71.4508 31.0637 71.486 31.0336 71.5211Z" fill="#292B2E"/>
<path d="M32.1739 72.0084C32.1739 72.0084 32.1337 72.0636 32.0684 72.139C32.0081 72.2143 31.9227 72.3148 31.8474 72.4303C31.6917 72.6513 31.5359 72.8673 31.5359 72.8673C31.5058 72.9025 31.5209 72.9527 31.561 72.9779C31.5912 72.9929 31.6264 72.9929 31.6565 72.9779L31.6665 72.9678C31.6665 72.9678 31.9026 72.8422 32.1337 72.7116C32.2492 72.6463 32.3698 72.586 32.4652 72.5408C32.5607 72.4956 32.621 72.4655 32.621 72.4655C32.7917 72.3851 32.857 72.1992 32.7666 72.0486C32.6762 71.8928 32.4652 71.8376 32.2944 71.9179C32.2442 71.938 32.204 71.9732 32.1739 72.0084Z" fill="#292B2E"/>
<path d="M30.3153 70.8781C30.3153 70.8781 30.25 70.9083 30.1545 70.9484C30.0641 70.9937 29.9335 71.0489 29.8029 71.1192C29.5568 71.2498 29.3056 71.3804 29.3056 71.3804C29.2654 71.4056 29.2503 71.4508 29.2755 71.491C29.2905 71.5161 29.3257 71.5311 29.3558 71.5261H29.3709C29.3709 71.5261 29.6472 71.506 29.9235 71.4859C30.0541 71.4759 30.1947 71.4709 30.3002 71.4709C30.4057 71.4658 30.476 71.4658 30.476 71.4658C30.6719 71.4658 30.8276 71.3252 30.8226 71.1494C30.8176 70.9786 30.6619 70.843 30.466 70.843C30.4107 70.843 30.3605 70.858 30.3153 70.8781Z" fill="#292B2E"/>
<path d="M26.6584 63.0469L28.0901 67.7537C28.929 69.3008 30.9584 72.6463 34.4043 72.9125C37.8503 73.1838 39.7591 71.285 40.0856 70.1648C40.4121 69.0497 40.5126 62.5847 38.0261 59.832C35.5396 57.0742 29.3157 55.6024 26.6584 63.0469Z" fill="white"/>
<path d="M33.5202 64.2977C36.6497 64.1219 38.6891 66.8495 39.729 70.8631C39.9048 70.6169 40.0253 70.3758 40.0856 70.1648C40.4121 69.0446 40.5126 62.5847 38.0261 59.832C35.5396 57.0742 29.3157 55.6024 26.6584 63.0469L28.0901 67.7537C28.0901 67.7537 29.7277 64.5137 33.5202 64.2977Z" fill="#292B2E" fill-opacity="0.1"/>
<path d="M35.1929 59.0584C33.0429 59.0584 31.2295 61.0175 30.6468 63.6949C30.5213 64.2776 30.4509 64.8954 30.4509 65.5334C30.4509 69.115 32.5707 72.0134 35.1929 72.0134C37.1469 72.0134 38.8297 70.3909 39.5531 68.0752C39.7942 67.2966 39.9298 66.4376 39.9298 65.5334C39.9298 61.9568 37.81 59.0584 35.1929 59.0584Z" fill="#292B2E"/>
<path d="M39.9298 65.5334C39.9298 61.9568 37.81 59.0584 35.1879 59.0584C33.0379 59.0584 31.2295 61.0175 30.6469 63.6999C31.1291 63.4939 31.6967 63.3533 32.3045 63.283C32.0735 63.9611 31.9479 64.7246 31.9479 65.5334C31.9479 68.2711 33.3996 70.4863 35.1929 70.4863C36.8807 70.4863 38.2671 68.5172 38.4229 65.9955C38.4178 65.9955 38.4178 65.9955 38.4178 65.9955C38.8498 66.5782 39.2366 67.2664 39.5531 68.0752C39.7942 67.2966 39.9298 66.4376 39.9298 65.5334Z" fill="#292B2E" fill-opacity="0.5"/>
<path d="M39.9298 65.5334C39.9298 63.0318 38.89 60.8618 37.368 59.7868C37.0917 59.6059 36.8003 59.4502 36.4889 59.3096C36.077 59.1488 35.645 59.0584 35.1879 59.0584C34.0627 59.0584 33.0279 59.6009 32.2191 60.5001C32.5607 60.4247 32.9173 60.3845 33.2891 60.3795C38.3977 60.3293 39.6033 65.8247 39.6284 67.3317C39.6284 67.5025 39.6284 67.6632 39.6234 67.819C39.8193 67.1057 39.9298 66.3421 39.9298 65.5334Z" fill="#292B2E" fill-opacity="0.5"/>
<path d="M36.9158 65.232C35.9865 65.8247 35.6751 66.2969 35.2883 67.7185C34.9015 66.2969 34.5901 65.8247 33.6608 65.232C34.5901 64.6443 34.9015 64.167 35.2883 62.7505C35.6751 64.167 35.9865 64.6443 36.9158 65.232Z" fill="white" stroke="white" stroke-width="1.00465" stroke-linecap="round" stroke-linejoin="round"/>
<path d="M33.5704 62.203C33.5704 62.851 33.2289 63.3784 32.8019 63.3784C32.3799 63.3784 32.0333 62.851 32.0333 62.203C32.0333 61.555 32.3799 61.0326 32.8019 61.0326C33.2289 61.0326 33.5704 61.555 33.5704 62.203Z" fill="white"/>
<path d="M37.4282 70.6169C37.4282 71.4005 37.0113 72.0385 36.4939 72.0385C35.9815 72.0385 35.5596 71.4005 35.5596 70.6169C35.5596 69.8283 35.9815 69.1903 36.4939 69.1903C37.0113 69.1903 37.4282 69.8283 37.4282 70.6169Z" fill="white"/>
<path d="M30.5564 69.979C31.7671 69.1501 33.3343 66.312 33.0631 65.9001C32.7968 65.4882 30.5816 65.5133 29.3911 66.5481C29.3911 66.5481 29.0344 68.5172 30.5564 69.979Z" fill="white"/>
<path d="M34.5901 56.7929C33.1133 56.5568 31.7168 56.7578 30.461 57.2852C30.3103 57.2952 30.1496 57.3103 29.9788 57.3053C29.7477 57.3053 29.5166 57.2802 29.2806 57.245C29.17 57.2149 29.0445 57.1948 28.939 57.1596C28.8335 57.1194 28.7179 57.0893 28.6275 57.0441C28.5271 56.9938 28.4316 56.9486 28.3512 56.8934C28.2709 56.8381 28.1805 56.7879 28.1252 56.7276C28.0599 56.6673 27.9996 56.6121 27.9444 56.5669C27.8992 56.5116 27.859 56.4614 27.8288 56.4212C27.7585 56.3358 27.7233 56.2906 27.7233 56.2906L27.7133 56.2755C27.643 56.1952 27.5124 56.1751 27.4169 56.2353C27.3516 56.2805 27.3215 56.3509 27.3366 56.4212C27.3366 56.4212 27.3516 56.4915 27.3767 56.6071C27.3918 56.6673 27.4069 56.7427 27.427 56.8281C27.4621 56.9085 27.4973 57.0039 27.5425 57.1044C27.5827 57.2149 27.653 57.3153 27.7233 57.4258C27.7937 57.5464 27.8891 57.6519 27.9896 57.7674C28.085 57.883 28.2106 57.9834 28.3312 58.0939C28.4316 58.1793 28.5421 58.2547 28.6577 58.33C28.4065 58.5209 28.1654 58.7218 27.9293 58.9378C27.859 58.9529 27.7886 58.968 27.7083 58.978C27.4873 59.0132 27.2512 59.0232 27.01 59.0232C26.8945 59.0132 26.7739 59.0132 26.6584 58.9931C26.5479 58.968 26.4324 58.9579 26.3319 58.9228C26.2264 58.8926 26.1159 58.8625 26.0305 58.8173C25.9401 58.7721 25.8446 58.7419 25.7743 58.6867C25.699 58.6365 25.6286 58.5912 25.5684 58.5561C25.5131 58.5058 25.4629 58.4657 25.4227 58.4305C25.3423 58.3552 25.2971 58.32 25.2971 58.32L25.282 58.3049C25.2017 58.2346 25.066 58.2346 24.9857 58.3099C24.9254 58.3602 24.9103 58.4405 24.9405 58.5058C24.9405 58.5058 24.9656 58.5712 25.0108 58.6817C25.0409 58.7419 25.066 58.8123 25.1062 58.8926C25.1565 58.968 25.2117 59.0534 25.272 59.1488C25.3273 59.2493 25.4177 59.3347 25.5131 59.4352C25.6035 59.5457 25.714 59.6361 25.8346 59.7315C25.9552 59.837 26.0958 59.9124 26.2365 60.0028C26.3821 60.0932 26.5328 60.1535 26.6886 60.2288C26.7086 60.2389 26.7287 60.2439 26.7438 60.2539C26.6735 60.3444 26.6082 60.4398 26.5379 60.5352C26.3922 60.5955 26.2415 60.6458 26.0807 60.696C25.9702 60.7161 25.8547 60.7512 25.7392 60.7613C25.6236 60.7713 25.5081 60.7965 25.3976 60.7914C25.2871 60.7914 25.1766 60.7965 25.0761 60.7764C24.9756 60.7613 24.8752 60.7563 24.7898 60.7261C24.6993 60.701 24.619 60.6809 24.5436 60.6558C24.4733 60.6307 24.413 60.6005 24.3678 60.5805C24.2623 60.5352 24.2071 60.5101 24.2071 60.5101L24.192 60.5001C24.0865 60.4549 23.9609 60.4951 23.9107 60.5905C23.8705 60.6558 23.8856 60.7312 23.9358 60.7864C23.9358 60.7864 23.981 60.8417 24.0664 60.9371C24.1116 60.9823 24.1669 61.0426 24.2272 61.1079C24.3025 61.1682 24.3879 61.2335 24.4783 61.3038C24.5687 61.3842 24.6843 61.4394 24.8099 61.5098C24.9304 61.5851 25.0711 61.6404 25.2218 61.6956C25.3725 61.7609 25.5282 61.7961 25.6939 61.8413C25.709 61.8413 25.7191 61.8463 25.7341 61.8463C25.3624 62.5496 25.061 63.293 24.835 64.0616C25.6688 66.4828 28.09 67.7587 28.09 67.7587C28.09 67.7587 27.8539 66.8746 27.5274 65.1767C27.5526 63.5894 28.9339 58.0286 34.4093 58.7168C36.9209 59.0283 40.3217 63.4487 40.0554 70.2552C42.8584 61.992 37.3077 57.2249 34.5901 56.7929Z" fill="#292B2E"/>
<path d="M39.4275 56.7979C39.4275 56.7979 32.842 51.2071 25.4478 53.9045C27.7132 52.272 32.3547 51.5989 35.9464 52.9451C39.533 54.2913 39.4526 55.3663 39.4275 56.7979Z" fill="#292B2E"/>
<path d="M30.1194 70.5215C30.1194 70.5215 30.2098 70.6119 30.3655 70.7676C30.4409 70.853 30.5413 70.9334 30.6569 71.0338C30.7623 71.1343 30.908 71.2348 31.0487 71.3503C31.1943 71.4709 31.3752 71.5713 31.551 71.6919C31.7469 71.7924 31.9378 71.923 32.1538 72.0234C32.3648 72.1339 32.5958 72.2244 32.8269 72.3198C33.063 72.4002 33.3091 72.4856 33.5553 72.5458C33.8014 72.6212 34.0576 72.6664 34.3088 72.7066C34.5599 72.7417 34.8111 72.7719 35.0522 72.7769C35.1728 72.7769 35.2933 72.7769 35.4089 72.787C35.5244 72.7819 35.6399 72.7719 35.7555 72.7669C35.9765 72.7618 36.1824 72.7217 36.3783 72.6965C36.5743 72.6764 36.74 72.6212 36.9008 72.591C37.0565 72.5609 37.1871 72.5157 37.2926 72.4755C37.5136 72.4052 37.6392 72.37 37.6392 72.37L37.6492 72.365C37.6944 72.3499 37.7396 72.37 37.7597 72.4102C37.7698 72.4454 37.7547 72.4856 37.7196 72.5006C37.7196 72.5006 37.599 72.5609 37.383 72.6614C37.2775 72.7116 37.1469 72.7769 36.9912 72.8221C36.8304 72.8724 36.6597 72.9527 36.4537 72.9879C36.2528 73.0281 36.0317 73.0883 35.7957 73.1084C35.5596 73.1436 35.3034 73.1637 35.0422 73.1587C34.781 73.1637 34.5097 73.1336 34.2384 73.1084C33.9672 73.0683 33.6909 73.023 33.4247 72.9527C33.1534 72.8975 32.8972 72.787 32.6461 72.6965C32.3949 72.591 32.1538 72.4856 31.9328 72.365C31.7017 72.2545 31.5058 72.1088 31.3099 71.9883C31.129 71.8476 30.9532 71.727 30.8076 71.5864C30.6619 71.4558 30.5263 71.3403 30.4258 71.2147C30.3203 71.0941 30.2249 70.9937 30.1646 70.9032C30.039 70.7224 29.9637 70.6219 29.9637 70.6219C29.9385 70.5817 29.9486 70.5265 29.9938 70.5014C30.034 70.4813 30.0892 70.4863 30.1194 70.5215Z" fill="#292B2E"/>
<path d="M32.4151 55.517C32.4151 55.517 32.4603 55.512 32.5557 55.507C32.6512 55.5019 32.7868 55.4919 32.9576 55.4969C33.1284 55.4969 33.3343 55.507 33.5754 55.5271C33.8115 55.5471 34.0828 55.5723 34.3691 55.6325C34.6605 55.6777 34.9669 55.7631 35.2934 55.8435C35.6149 55.949 35.9565 56.0444 36.288 56.2002C36.4538 56.2755 36.6195 56.3509 36.7954 56.4262C36.9611 56.5116 37.1168 56.6121 37.2826 56.7025C37.6192 56.8833 37.9206 57.1194 38.227 57.3455C38.5234 57.5765 38.7846 57.8478 39.0558 58.0939C39.2869 58.3752 39.518 58.6465 39.739 58.9127C39.9248 59.1991 40.0906 59.4804 40.2564 59.7416C40.4121 60.0078 40.5126 60.2791 40.6281 60.5151C40.7436 60.7563 40.8391 60.9773 40.8893 61.1883C40.9496 61.3892 41.0048 61.57 41.045 61.7157C41.1254 62.0071 41.1706 62.1728 41.1706 62.1728C41.1907 62.2331 41.1505 62.2984 41.0802 62.3084C41.0199 62.3235 40.9546 62.2984 40.9295 62.2431L40.9245 62.2331C40.9245 62.2331 40.8491 62.0774 40.7235 61.8061C40.6582 61.6705 40.5829 61.5047 40.4975 61.3138C40.4221 61.123 40.2915 60.922 40.166 60.696C40.0354 60.475 39.9198 60.2238 39.749 59.9877C39.5732 59.7466 39.3823 59.5004 39.2015 59.2392C38.9855 58.9981 38.7594 58.752 38.5334 58.5008C38.2722 58.2798 38.0361 58.0286 37.7548 57.8177C37.4634 57.6217 37.2022 57.3907 36.8908 57.2249C36.7401 57.1395 36.5944 57.0441 36.4437 56.9637C36.288 56.8884 36.1323 56.813 35.9866 56.7377C35.8359 56.6573 35.6802 56.597 35.5295 56.5417C35.3788 56.4815 35.2331 56.4111 35.0874 56.3609C34.786 56.2655 34.5098 56.16 34.2385 56.0997C33.7061 55.9641 33.2489 55.8737 32.9274 55.8335C32.7667 55.8134 32.6411 55.7933 32.5557 55.7883C32.4703 55.7782 32.4201 55.7782 32.4201 55.7782C32.3397 55.7782 32.2744 55.7179 32.2794 55.6426C32.2794 55.5773 32.3347 55.527 32.405 55.517H32.4151Z" fill="#292B2E"/>
<path d="M66.0909 77.9057C66.0708 77.8805 66.0356 77.8655 66.0005 77.8755C65.9502 77.8856 65.9201 77.9358 65.9301 77.986L66.2567 79.3925C66.2717 79.4579 66.3019 79.5232 66.3471 79.5784C66.5028 79.7643 66.7791 79.7844 66.9649 79.6286C67.1508 79.4729 67.1759 79.1966 67.0202 79.0108L66.0909 77.9057Z" fill="#E88987"/>
<path d="M68.2509 77.7299C68.2258 77.6997 68.1907 77.6897 68.1555 77.6947C68.1053 77.7098 68.0751 77.755 68.0852 77.8052L68.4117 79.2117C68.4268 79.277 68.4569 79.3423 68.5071 79.3976C68.6629 79.5834 68.9391 79.6085 69.125 79.4478C69.3109 79.2921 69.336 79.0158 69.1752 78.8299L68.2509 77.7299Z" fill="#E88987"/>
<path d="M71.3353 78.6491L70.406 77.549C70.3859 77.5239 70.3507 77.5088 70.3155 77.5189C70.2653 77.5289 70.2352 77.5792 70.2452 77.6294L70.5717 79.0309C70.5818 79.0962 70.6169 79.1615 70.6621 79.2167C70.8179 79.4026 71.0941 79.4277 71.28 79.272C71.4659 79.1113 71.491 78.835 71.3353 78.6491Z" fill="#E88987"/>
<path d="M36.5743 77.9057C36.5944 77.8805 36.6296 77.8655 36.6647 77.8755C36.715 77.8856 36.7451 77.9358 36.7351 77.986L36.4086 79.3925C36.3935 79.4579 36.3633 79.5232 36.3181 79.5784C36.1624 79.7643 35.8861 79.7844 35.7003 79.6286C35.5094 79.4729 35.4893 79.1966 35.645 79.0108L36.5743 77.9057Z" fill="#E88987"/>
<path d="M34.4143 77.7299C34.4395 77.6997 34.4746 77.6897 34.5098 77.6947C34.56 77.7098 34.5902 77.755 34.5751 77.8052L34.2536 79.2117C34.2385 79.277 34.2084 79.3423 34.1582 79.3976C34.0024 79.5834 33.7262 79.6085 33.5403 79.4478C33.3544 79.2921 33.3293 79.0158 33.4901 78.8299L34.4143 77.7299Z" fill="#E88987"/>
<path d="M31.33 78.6491L32.2593 77.549C32.2794 77.5239 32.3145 77.5088 32.3497 77.5189C32.3999 77.5289 32.4301 77.5792 32.42 77.6294L32.0985 79.0309C32.0834 79.0962 32.0483 79.1615 32.0031 79.2167C31.8474 79.4026 31.5711 79.4277 31.3852 79.272C31.1943 79.1113 31.1742 78.835 31.33 78.6491Z" fill="#E88987"/>
<path d="M42.8533 78.9304C42.8533 78.9304 42.9237 79.0208 43.0342 79.1464C43.1447 79.267 43.2904 79.4327 43.4511 79.5784C43.5264 79.6538 43.6018 79.7291 43.6771 79.7944C43.7525 79.8497 43.8228 79.8999 43.8831 79.9451C43.9986 80.0255 44.074 80.0807 44.074 80.0807L44.1393 80.131C44.4105 80.3269 44.4708 80.7036 44.2749 80.9749C44.079 81.2411 43.7023 81.3014 43.431 81.1055C43.3657 81.0603 43.3155 81.005 43.2753 80.9447C43.2753 80.9447 43.205 80.8292 43.0944 80.6584C43.0442 80.578 42.9839 80.4776 42.9186 80.3771C42.8634 80.2716 42.8182 80.1561 42.7679 80.0456C42.6624 79.8296 42.5821 79.5985 42.5218 79.4327C42.4615 79.262 42.4314 79.1514 42.4314 79.1514L42.4264 79.1364C42.3912 79.0058 42.4665 78.8752 42.5971 78.84C42.6976 78.8149 42.793 78.8551 42.8533 78.9304Z" fill="#292B2E"/>
<path d="M55.1804 86.1137C55.1352 85.9881 55.0046 85.9228 54.879 85.968L54.8489 85.9781C54.8489 85.9781 54.236 86.189 53.372 86.5608C53.2615 86.606 53.151 86.6562 53.0355 86.7064C52.9149 86.7516 52.7843 86.7868 52.6587 86.827C52.4025 86.9124 52.1313 87.0028 51.85 87.0932C51.5687 87.1786 51.2924 87.3042 50.986 87.3645C50.6846 87.4398 50.3832 87.5152 50.0818 87.6006L49.6297 87.7211C49.474 87.7513 49.3233 87.7814 49.1726 87.8065C48.8662 87.8618 48.5698 87.9321 48.2835 87.9924C47.9921 88.0476 47.7158 88.0979 47.4496 88.1431C47.1834 88.1933 46.9322 88.2586 46.7011 88.2837C45.7618 88.4545 45.1339 88.565 45.1339 88.565L45.1288 88.5701C45.0384 88.5851 44.9581 88.6555 44.938 88.7559C44.9078 88.8865 44.9882 89.0171 45.1188 89.0422C45.1188 89.0422 45.159 89.0523 45.2394 89.0674C45.3097 89.0874 45.4252 89.1075 45.5709 89.1276C45.8622 89.1779 46.2792 89.203 46.7715 89.213C47.0226 89.2181 47.2889 89.203 47.5752 89.1829C47.8565 89.1528 48.1629 89.1477 48.4643 89.0975C48.7707 89.0372 49.0872 88.987 49.4087 88.9167C49.5644 88.8865 49.7251 88.8514 49.8859 88.8162L50.3631 88.6806C50.6846 88.5901 50.996 88.4847 51.3075 88.3892C51.6239 88.3038 51.9153 88.1581 52.1966 88.0376C52.4829 87.907 52.7542 87.7864 53.0154 87.6709C53.1409 87.6056 53.2665 87.5554 53.3871 87.4901C53.5026 87.4197 53.6131 87.3544 53.7186 87.2891C54.5625 86.7667 55.095 86.3849 55.095 86.3849C55.1804 86.3247 55.2155 86.2141 55.1804 86.1137Z" fill="#292B2E"/>
<path d="M102.705 30.3907C101.691 26.6936 93.4577 20.1282 89.0422 18.5207C84.1496 8.97153 79.0761 1.39143 68.8739 0.140643C58.6716 -1.11015 44.1142 3.42083 31.2246 11.4781C23.765 13.387 8.49432 23.4686 5.0333 40.834C4.49581 46.8017 10.5187 61.5499 26.3319 64.1118L27.3466 64.0817C27.3466 64.0817 25.2017 61.2988 24.5436 59.5105C25.6186 61.3591 29.3559 63.0268 29.3559 63.0268C26.8794 56.9587 26.9849 43.2954 34.565 35.2884C30.5565 45.4353 32.7818 58.5511 43.8128 62.0221C45.0686 63.7451 47.9922 64.2374 49.7805 64.0817C47.7511 61.776 41.7885 53.6634 44.1745 40.0002C45.4856 51.5135 50.3179 60.1786 61.8363 62.0221C59.2694 58.1392 56.0947 51.8099 57.8327 41.9643C59.3899 52.1715 61.6554 56.9587 65.0562 59.7566H65.9453C65.9453 59.7566 61.8363 52.1112 62.6701 40.3568C66.5481 49.6649 69.8132 60.7764 84.5615 64.1118H94.8843C94.8843 64.1118 100.616 57.6017 102.705 48.173C104.795 38.7444 103.72 34.0928 102.705 30.3907Z" fill="#3F3230"/>
<path d="M45.1741 36.7501C45.1741 36.7501 45.154 36.8506 45.1139 37.0465C45.0787 37.2474 45.0285 37.5488 44.9732 37.9356C44.8677 38.7092 44.7572 39.8294 44.7321 41.1806C44.702 42.5319 44.7673 44.1142 44.9782 45.797C45.0988 46.6309 45.2294 47.4999 45.4303 48.3689C45.6112 49.238 45.8573 50.107 46.1235 50.971C46.4099 51.83 46.7163 52.6839 47.078 53.4977C47.2588 53.9096 47.4346 54.3165 47.6355 54.7033C47.8314 55.0951 48.0223 55.4819 48.2383 55.8486C48.4443 56.2203 48.6502 56.587 48.8763 56.9286C49.0923 57.2752 49.2982 57.6218 49.5293 57.9332C49.9663 58.5812 50.4234 59.1639 50.8454 59.7014C51.2874 60.2188 51.6893 60.701 52.0761 61.1029C52.4629 61.4997 52.7844 61.8614 53.0858 62.1276C53.6685 62.6752 54 62.9866 54 62.9866L53.6785 63.3684C53.6785 63.3684 53.3269 63.067 52.709 62.5345C52.3976 62.2683 52.056 61.9116 51.6441 61.5248C51.2322 61.128 50.8052 60.6508 50.333 60.1334C49.8759 59.6009 49.3887 59.0233 48.9165 58.3753C48.6653 58.0588 48.4393 57.7122 48.2032 57.3606C47.957 57.019 47.731 56.6523 47.5049 56.2755C47.2688 55.9038 47.0528 55.512 46.8419 55.1152C46.6158 54.7233 46.4199 54.3064 46.214 53.8945C45.8121 53.0606 45.4605 52.1916 45.1289 51.3126C44.8175 50.4285 44.5312 49.5293 44.3051 48.6352C44.064 47.741 43.8932 46.8469 43.7375 45.9779C43.4512 44.2348 43.3256 42.5922 43.3005 41.1756C43.2804 39.7641 43.3507 38.5836 43.4311 37.7548C43.4713 37.3379 43.5165 37.0113 43.5466 36.7853C43.5868 36.5542 43.6069 36.4337 43.6069 36.4337L45.1741 36.7501Z" fill="#3F3230"/>
<path d="M35.9765 34.2084C35.9765 34.2084 35.8961 34.2837 35.7906 34.4043C35.6851 34.5198 35.5043 34.7358 35.3034 35.0121C35.2029 35.1527 35.0924 35.3084 34.9718 35.4792C34.8613 35.6551 34.7408 35.851 34.6102 36.0569C34.4745 36.2578 34.364 36.4939 34.2284 36.7351C34.0978 36.9762 33.9622 37.2324 33.8416 37.5086C33.721 37.7849 33.5804 38.0662 33.4548 38.3726C33.3393 38.6791 33.2187 38.9955 33.0931 39.317C32.9625 39.6435 32.8671 39.9901 32.7616 40.3417C32.6611 40.6934 32.5305 41.045 32.4451 41.4167C32.2894 42.1652 32.0634 42.9287 31.9579 43.7274C31.8926 44.1243 31.8323 44.5261 31.767 44.928C31.7017 45.3349 31.6816 45.7418 31.6364 46.1486C31.5962 46.5605 31.556 46.9674 31.5209 47.3743C31.5058 47.7862 31.4907 48.1931 31.4807 48.595C31.4656 49.0018 31.4556 49.4037 31.4405 49.8005C31.4304 50.1974 31.4556 50.5892 31.4656 50.971C31.4957 51.7445 31.4857 52.493 31.551 53.2013C31.6163 53.9045 31.6766 54.5726 31.7268 55.1905C31.767 55.8084 31.8574 56.371 31.9328 56.8683C32.0031 57.3656 32.0634 57.8026 32.1186 58.1592C32.2191 58.8725 32.2794 59.2844 32.2794 59.2844L31.7871 59.3749C31.7871 59.3749 31.7168 58.963 31.5962 58.2446C31.5309 57.888 31.4556 57.451 31.3752 56.9486C31.2848 56.4463 31.1843 55.8837 31.124 55.2608C31.0537 54.6379 30.9783 53.9648 30.898 53.2515C30.8076 52.5382 30.8025 51.7797 30.7473 50.9961C30.7322 50.6043 30.697 50.2074 30.692 49.8056C30.697 49.3987 30.7021 48.9918 30.7021 48.5799C30.7071 48.168 30.7071 47.7511 30.7121 47.3341C30.7422 46.9172 30.7724 46.4952 30.8025 46.0783C30.8327 45.6614 30.8477 45.2394 30.898 44.8225C30.9582 44.4106 31.0135 43.9937 31.0688 43.5868C31.1542 42.7579 31.3651 41.9643 31.5108 41.1907C31.5912 40.7989 31.7117 40.4271 31.8072 40.0604C31.9127 39.6938 31.9981 39.3271 32.1287 38.9855C32.2492 38.6439 32.3698 38.3073 32.4803 37.9808C32.6059 37.6593 32.7465 37.3579 32.8671 37.0616C32.9876 36.7652 33.1233 36.4889 33.2589 36.2327C33.3945 35.9715 33.5101 35.7204 33.6457 35.4943C33.7813 35.2683 33.9069 35.0573 34.0224 34.8614C34.148 34.6705 34.2686 34.4947 34.3741 34.339C34.5951 34.0225 34.7759 33.7914 34.9266 33.6206C35.0773 33.4448 35.1426 33.3795 35.1426 33.3795L35.9765 34.2084Z" fill="#3F3230"/>
<path d="M89.6701 51.8701C89.7605 47.7862 86.6863 40.9546 84.8126 36.4085C84.8126 36.4085 84.8176 36.4387 84.8277 36.4839C84.7222 36.0921 84.6217 35.7053 84.5062 35.3336C84.2399 34.4193 83.9737 33.5604 83.7125 32.7667C83.4714 31.973 83.2051 31.2547 82.9791 30.6218C82.743 29.9888 82.537 29.4363 82.3562 28.9842C82.1804 28.5321 82.0297 28.1805 81.9292 27.9393C81.8238 27.7032 81.7685 27.5777 81.7685 27.5777C81.7283 27.4822 81.6228 27.437 81.5224 27.4722C81.4219 27.5073 81.3717 27.6178 81.4068 27.7183C81.4068 27.7183 81.5877 28.2357 81.884 29.155C82.0347 29.6121 82.2005 30.1747 82.3964 30.8126C82.5772 31.4606 82.8033 32.184 83.0243 32.9777C83.2554 33.7713 83.4814 34.6353 83.7125 35.5496C83.833 36.0067 83.9486 36.4789 84.0591 36.9611C84.1746 37.4433 84.2952 37.9356 84.4208 38.4379C84.6368 39.4426 84.8779 40.4824 85.0838 41.5423C85.2798 42.6072 85.4957 43.6872 85.6615 44.7723C85.7519 45.3148 85.8424 45.8523 85.9328 46.3948C86.0182 46.9323 86.0734 47.4748 86.1488 48.0123C86.2191 48.5447 86.2894 49.0772 86.3547 49.6046C86.405 50.1321 86.4502 50.6545 86.4954 51.1669C86.5456 51.6792 86.5908 52.1816 86.641 52.6738C86.6662 53.1711 86.6963 53.6534 86.7214 54.1256C86.7767 55.0649 86.837 55.9591 86.8269 56.7829C86.837 57.6067 86.852 58.3602 86.8571 59.0333C86.8319 59.7014 86.8118 60.2841 86.7968 60.7663C86.7666 61.7308 86.7516 62.2833 86.7516 62.2833V62.2934C86.7465 62.3788 86.8118 62.4541 86.9023 62.4642C86.9977 62.4742 87.0831 62.4089 87.0931 62.3135C87.0931 62.3135 87.0931 62.3034 87.0931 62.2833H88.0224C89.002 60.7613 89.5797 55.9591 89.6701 51.8701Z" fill="#352727" fill-opacity="0.6"/>
<path d="M23.7751 57.9081C23.7751 57.9081 23.5741 57.6268 23.2175 57.1345C23.0316 56.9034 22.8458 56.587 22.6348 56.2203C22.5293 56.0394 22.4188 55.8486 22.2982 55.6476C22.1978 55.4366 22.0873 55.2156 21.9767 54.9795C21.8662 54.7485 21.7306 54.5174 21.6301 54.2562C21.5297 54 21.4242 53.7287 21.3187 53.4575C21.0776 52.915 20.947 52.2971 20.731 51.6943C20.6506 51.3829 20.5652 51.0664 20.4848 50.7449C20.3994 50.4234 20.3241 50.0969 20.2638 49.7604C20.1985 49.4288 20.1332 49.0973 20.0679 48.7607C20.0177 48.4192 19.9725 48.0776 19.9222 47.736C19.8218 47.0579 19.7766 46.3697 19.7213 45.6966C19.7012 45.0184 19.6459 44.3503 19.666 43.7073C19.661 43.0593 19.7012 42.4415 19.7313 41.8487C19.7665 41.256 19.8419 40.7034 19.9021 40.1911C19.9473 39.9349 19.9926 39.6938 20.0327 39.4627C20.0729 39.2316 20.1031 39.0056 20.1583 38.8097C20.2588 38.4078 20.3241 38.0562 20.4246 37.7648C20.6154 37.1821 20.7259 36.8506 20.7259 36.8506C20.7561 36.7552 20.7159 36.6497 20.6255 36.6095C20.525 36.5643 20.4095 36.6045 20.3643 36.7049C20.3643 36.7049 20.2136 37.0214 19.9524 37.579C19.8268 37.8552 19.7163 38.232 19.5706 38.6439C19.4149 39.0608 19.3245 39.538 19.1939 40.0605C19.0984 40.5879 18.9879 41.1606 18.9126 41.7684C18.8824 42.0698 18.8473 42.3862 18.8121 42.7077C18.7769 43.0242 18.7819 43.3557 18.7669 43.6872C18.7267 44.3553 18.7568 45.0486 18.7769 45.7468C18.792 46.0984 18.8322 46.45 18.8623 46.8067C18.8874 47.1583 18.9226 47.515 18.9829 47.8666C19.0381 48.2182 19.0884 48.5699 19.1436 48.9215C19.2139 49.2681 19.2893 49.6147 19.3596 49.9563C19.4299 50.3029 19.5204 50.6394 19.6208 50.971C19.7163 51.3025 19.8067 51.629 19.9021 51.9505C20.0177 52.2619 20.1332 52.5734 20.2437 52.8748C20.299 53.0255 20.3542 53.1762 20.4095 53.3219C20.4748 53.4675 20.5401 53.6082 20.6054 53.7488C20.736 54.0251 20.8616 54.2964 20.9821 54.5576C21.1027 54.8238 21.2534 55.0599 21.379 55.296C21.5146 55.5271 21.6402 55.7481 21.7658 55.9591C21.9064 56.16 22.042 56.3509 22.1676 56.5267C22.4188 56.8833 22.6398 57.1898 22.8608 57.4158C23.2828 57.8779 23.5189 58.1392 23.5189 58.1392C23.5792 58.1994 23.6746 58.2145 23.7449 58.1643C23.8203 58.109 23.8404 57.9985 23.7851 57.9232L23.7751 57.9081Z" fill="#352727" fill-opacity="0.6"/>
<path d="M86.2944 62.1929C86.2944 62.1929 86.0182 61.7559 85.5309 60.9974C85.2797 60.6206 84.9783 60.1736 84.692 59.611C84.3957 59.0534 84.034 58.4456 83.6924 57.7574C83.3609 57.0592 82.9791 56.3157 82.6124 55.507C82.2658 54.6932 81.8991 53.8342 81.5223 52.9451C81.1757 52.0459 80.7839 51.1267 80.4474 50.1672C80.1058 49.2078 79.7391 48.2433 79.4327 47.2588C79.2719 46.7715 79.1062 46.2792 78.9354 45.797C78.7796 45.3047 78.6239 44.8175 78.4682 44.3302C78.1517 43.3658 77.8704 42.4063 77.5992 41.477C77.3279 40.5427 77.0667 39.6435 76.8206 38.7896C76.5845 37.9356 76.3584 37.1269 76.1525 36.3784C75.9566 35.6249 75.7707 34.9418 75.61 34.3289C75.4543 33.7211 75.3136 33.1886 75.2031 32.7466C74.9821 31.8725 74.8565 31.3702 74.8565 31.3702C74.8314 31.2748 74.7359 31.2095 74.6355 31.2245C74.53 31.2396 74.4546 31.3401 74.4697 31.4456C74.4697 31.4456 74.545 31.9579 74.7058 32.8571C74.8766 33.7512 75.1077 35.0271 75.4543 36.5492C75.6301 37.3077 75.826 38.1315 76.0269 39.0005C76.2479 39.8696 76.4639 40.7838 76.7402 41.7231C77.0064 42.6575 77.2777 43.632 77.5841 44.6065C77.8755 45.5911 78.1869 46.5857 78.5385 47.5652C78.86 48.5548 79.2468 49.5243 79.6035 50.4837C79.9551 51.4482 80.367 52.3725 80.7337 53.2817C81.1104 54.1808 81.5424 55.0247 81.9192 55.8385C82.321 56.6422 82.738 57.3806 83.0996 58.0738C83.4714 58.7671 83.8833 59.3598 84.2148 59.9023C84.5413 60.4498 84.8829 60.8919 85.1542 61.2536C85.7117 61.9819 86.0232 62.3989 86.0232 62.3989C86.0784 62.4692 86.1789 62.4893 86.2543 62.4391C86.3296 62.3888 86.3547 62.2833 86.3045 62.203L86.2944 62.1929Z" fill="#352727" fill-opacity="0.6"/>
<path d="M81.5876 82.0097C82.9741 81.5274 85.762 82.3613 87.3543 80.6534C88.9417 78.9405 88.9417 78.624 90.2578 77.7851C91.5689 76.9513 95.9441 73.7715 96.0647 70.19C96.1852 66.6084 93.8745 59.9274 91.6894 59.7667C89.4993 59.611 86.5556 61.0426 84.7674 62.8711L81.5876 82.0097Z" fill="#FBEBE1"/>
<path d="M83.9386 63.6647C85.7269 61.8313 89.4993 59.611 91.6895 59.7667C93.8746 59.9274 96.1853 66.6084 96.0647 70.1899C95.9442 73.7715 91.5689 76.9513 90.2579 77.7851C88.9418 78.624 88.9418 78.9405 87.3544 80.6484C85.762 82.3613 83.0847 81.2964 81.6982 81.7786L81.2009 82.8234" stroke="#292B2E" stroke-width="1.50698" stroke-linecap="round" stroke-linejoin="round"/>
<path d="M91.6694 72.4454C91.6694 72.4454 91.6141 72.5207 91.5086 72.6614C91.4132 72.802 91.2575 73.013 91.0566 73.2692C90.8657 73.5254 90.6246 73.8368 90.3282 74.1533C90.1926 74.3241 90.0167 74.4496 89.856 74.6154C89.7656 74.6757 89.6752 74.736 89.5847 74.8013L89.5194 74.8465L89.4692 74.8666L89.2733 74.952C89.1176 75.0324 89.0724 74.9922 88.9819 75.0223C88.8915 75.0324 88.781 75.0273 88.6655 75.0123C88.5198 74.9972 88.344 74.9369 88.128 74.8766C88.7659 74.5652 89.3336 74.1583 89.5747 73.8268C89.8962 73.3797 90.4638 72.9628 90.288 71.5613C90.1172 70.1598 88.9418 68.9542 88.5349 68.6227C88.128 68.2911 87.9773 68.0852 88.1983 67.829C88.3289 67.6984 88.4696 67.603 88.5299 67.5929C88.5449 67.5829 88.5449 67.5929 88.5499 67.5879H88.555H88.5751L88.781 67.608C88.8614 67.608 88.8765 67.6331 88.9166 67.6431C88.9518 67.6532 88.992 67.6683 89.0272 67.6733C89.1125 67.7235 89.203 67.7637 89.2884 67.8089C89.3687 67.8642 89.4491 67.9244 89.5295 67.9797C89.8309 68.2409 90.0921 68.5222 90.288 68.7734C90.4939 69.0145 90.6497 69.2204 90.7501 69.3661C90.8606 69.5068 90.9159 69.5771 90.9159 69.5771L90.9259 69.5922C90.9912 69.6725 91.1018 69.7027 91.2022 69.6625C91.3278 69.6173 91.3881 69.4766 91.3379 69.351C91.3379 69.351 91.3027 69.2606 91.2374 69.0898C91.162 68.9241 91.0666 68.6729 90.8958 68.3665C90.7351 68.0601 90.4939 67.6934 90.1323 67.3116C90.0318 67.2212 89.9263 67.1308 89.8158 67.0404C89.6902 66.955 89.5546 66.8746 89.4139 66.7992C89.2532 66.739 89.0372 66.6586 88.8965 66.6385L88.6906 66.6084L88.6404 66.6033H88.6253C88.5248 66.5933 88.5901 66.5983 88.565 66.5983H88.555L88.5047 66.6033C88.4394 66.6083 88.3691 66.6083 88.3139 66.6284C87.8366 66.749 87.5805 67.0253 87.3343 67.2815C87.0982 67.5477 86.8973 67.834 86.7215 68.1455C86.6311 68.3012 86.5507 68.4519 86.4703 68.6277L86.3598 68.8638L86.2593 69.1803C86.1438 69.5972 86.1438 70.0643 86.2493 70.4712C86.3397 70.8932 86.5055 71.2599 86.7014 71.6165L86.8521 71.8777L86.9978 72.1138L87.0731 72.2294C87.0882 72.2696 87.0882 72.2696 87.0982 72.2846C87.1133 72.3047 87.1083 72.3097 87.1083 72.3148C87.1083 72.3198 87.1183 72.3298 87.1133 72.3298C87.1535 72.3248 86.9676 72.581 86.6863 72.7468C86.41 72.9276 86.0885 73.0884 85.747 73.2642L85.4707 73.4048L85.3451 73.4802L85.2798 73.5153C85.2346 73.5404 85.2195 73.5555 85.1894 73.5756C84.9633 73.7313 84.8026 73.9071 84.667 74.088C84.3857 74.4446 84.1948 74.8264 84.0541 75.2534C83.9888 75.4643 83.9386 75.6904 83.9386 75.9767C83.9386 76.042 83.9587 76.1375 83.9687 76.2128C83.9788 76.2882 84.0642 76.4841 84.1245 76.5594L84.1646 76.6096L84.1797 76.6247C84.1245 76.5695 84.2551 76.7101 84.25 76.7001L84.2752 76.7151C84.3053 76.7352 84.3354 76.7553 84.3706 76.7754C84.5113 76.8558 84.6067 76.8658 84.7172 76.8759C85.0939 76.8859 85.2698 76.7905 85.4757 76.7202C85.6666 76.6448 85.8374 76.5594 86.0032 76.474C86.3196 76.3133 86.6311 76.1525 86.9325 75.9918L87.1485 75.8913C87.2188 75.8562 87.2489 75.8411 87.3293 75.816C87.4247 75.7758 87.4298 75.7858 87.48 75.7808C87.5152 75.7758 87.5604 75.7657 87.6156 75.7808C87.8316 75.7909 88.1431 75.9265 88.5248 75.9767C88.7107 76.0018 88.9066 76.0069 89.1125 75.9817C89.3085 75.9416 89.5596 75.8964 89.6551 75.831L89.851 75.7456L89.8962 75.7256L89.9213 75.7155L89.9765 75.6854L89.9916 75.6753L90.0921 75.605C90.2177 75.5096 90.3432 75.4141 90.4688 75.3187C90.6647 75.1127 90.8707 74.9168 91.0063 74.7159C91.157 74.52 91.2926 74.3291 91.3931 74.1483C91.5086 73.9724 91.5991 73.8067 91.6744 73.651C91.8352 73.3445 91.9306 73.0934 92.0009 72.9226C92.0712 72.7468 92.0964 72.6563 92.0964 72.6563V72.6513C92.1265 72.5559 92.0913 72.4504 92.0059 72.3901C91.8954 72.3097 91.7447 72.3349 91.6694 72.4454Z" fill="#292B2E"/>
<path d="M93.533 66.2818C93.4929 66.0407 93.4326 65.7795 93.3271 65.5083C93.2819 65.3726 93.2317 65.232 93.1864 65.0863C93.1262 64.9457 93.0458 64.805 92.9755 64.6644C92.9051 64.5187 92.8298 64.373 92.7293 64.2374C92.6238 64.1018 92.5435 63.9511 92.4179 63.8205C92.2873 63.6949 92.1768 63.5643 92.0311 63.4437C91.8854 63.3332 91.6996 63.1825 91.569 63.1172L91.363 63.0017C91.2224 62.9364 91.152 62.9213 91.0415 62.8861C90.9411 62.8459 90.8205 62.8409 90.715 62.8309C90.6045 62.8108 90.489 62.8208 90.3684 62.8409C89.9012 62.9112 89.4944 63.2227 89.2884 63.6245C89.2382 63.73 89.1879 63.8606 89.1628 63.9511L89.1226 64.162L89.1025 64.2625V64.3378L89.1076 64.4785C89.1126 64.5739 89.1076 64.6744 89.1327 64.7548C89.208 65.0964 89.3286 65.3827 89.4743 65.5987C89.6099 65.8348 89.7656 66.0106 89.9012 66.1663C90.0369 66.317 90.1675 66.4376 90.278 66.538C90.494 66.7289 90.6246 66.8143 90.6246 66.8143L90.6397 66.8244C90.71 66.8746 90.8104 66.8846 90.8958 66.8344C91.0114 66.7691 91.0516 66.6184 90.9812 66.5029C90.9812 66.5029 90.9059 66.3672 90.7652 66.1261C90.6949 66.0106 90.6145 65.8699 90.5291 65.7142C90.509 65.6841 90.494 65.6439 90.4739 65.6137C90.278 65.1717 90.489 64.7347 91.0013 64.7447C91.4936 64.7548 92.3224 65.2571 92.6138 65.875C92.7092 66.0759 92.7745 66.2818 92.8398 66.4727C92.9051 66.6887 92.9956 66.8796 93.0257 67.0655C93.0709 67.2463 93.1061 67.4071 93.1362 67.5377C93.2065 67.7989 93.2467 67.9496 93.2467 67.9496L93.2517 67.9747C93.2769 68.0802 93.3824 68.1555 93.4979 68.1505C93.6285 68.1404 93.729 68.0299 93.7189 67.8943C93.7189 67.8943 93.7089 67.7386 93.6888 67.4523C93.6787 67.3116 93.6637 67.1408 93.6436 66.9449C93.6335 66.749 93.5732 66.528 93.533 66.2818Z" fill="#292B2E"/>
<path d="M84.5664 64.0817C82.2206 65.5736 80.9849 72.2595 83.5316 75.3237C79.7943 74.1282 77.4887 69.7529 78.7997 65.7343C80.1108 61.7157 83.0544 61.555 84.7674 62.8711L84.5664 64.0817Z" fill="#3F3230"/>
<path d="M22.5141 20.309C23.9357 19.6409 27.3465 21.8612 27.3465 22.2781C27.3465 22.6951 18.0987 33.0179 17.6215 33.7312C17.1443 34.4495 13.0855 33.9723 12.9649 33.1987C12.8494 32.4201 16.1899 23.2928 22.5141 20.309Z" fill="#6B5156" fill-opacity="0.4"/>
<path d="M29.7628 23.1421C28.8385 23.2727 24.0162 30.1245 23.8152 30.9282C23.6193 31.7319 24.9907 32.184 26.0657 32.1539C27.1406 32.1237 32.8671 27.2009 33.6106 26.4223C34.3591 25.6487 34.7157 24.9606 34.3289 24.4532C33.9421 23.9459 31.0487 22.9613 29.7628 23.1421Z" fill="#6B5156" fill-opacity="0.4"/>
<path d="M51.2724 23.4686C51.2724 23.4686 49.7202 33.4197 49.7202 36.5944C49.7202 36.9862 49.6298 37.4032 50.107 37.4333C50.5892 37.4634 52.4378 37.4634 53.0908 37.4333C53.7489 37.4032 54.0452 37.0766 54.0754 36.4487C54.1055 35.8208 55.301 24.5436 55.3312 24.0061C55.3613 23.4686 55.6577 23.0517 54.9695 22.906C54.2863 22.7553 52.8246 22.7855 52.3172 22.7553C51.8099 22.7252 51.3477 22.9864 51.2724 23.4686Z" fill="#6B5156" fill-opacity="0.4"/>
<path d="M58.0437 25.5885C57.4811 25.6487 57.3304 25.8547 57.3304 26.2766C57.3304 26.6936 57.2701 31.7922 57.3304 32.3598C57.3907 32.9274 57.6268 33.4046 58.4054 33.3142C59.1789 33.2238 60.6708 33.1334 61.2385 33.048C61.8061 32.9576 62.223 32.5105 62.1025 31.6465C61.9819 30.7775 61.2686 26.5429 61.1782 26.0958C61.0878 25.6487 60.7613 25.4076 60.3443 25.4076C59.9224 25.4076 58.0437 25.5885 58.0437 25.5885Z" fill="#6B5156" fill-opacity="0.4"/>
<path d="M73.1989 24.0363C72.8121 24.2473 72.7217 24.8149 72.9326 25.1113C73.1436 25.4076 75.2584 30.0943 75.4694 30.5414C75.6753 30.9885 76.2128 31.0789 76.8106 30.9282C77.4084 30.7825 78.7194 30.4811 79.1665 30.2701C79.6136 30.0642 80.0004 29.4966 79.704 28.8988C79.4076 28.306 77.4988 24.3929 77.107 24.0363C76.7202 23.6796 76.4238 23.5591 75.7658 23.5591C75.1077 23.5591 73.1989 24.0363 73.1989 24.0363Z" fill="#6B5156" fill-opacity="0.4"/>
<path d="M74.2437 113.209L78.4029 113.907C78.4029 113.907 97.8731 122.457 98.7672 122.994C99.6613 123.532 110.105 139.084 116.308 151.974C125.139 161.046 134.844 170.113 137.391 172.102C134.447 172.579 119.654 177.512 110.582 185.705C101.515 193.898 98.8878 198.911 98.8878 198.911L93.9549 192.868C89.2632 188.252 85.4455 184.193 85.4455 184.193L84.888 189.603C87.5101 193.34 87.7512 194.616 87.3544 195.731C86.9525 196.841 82.738 198.911 82.738 198.911C70.4059 200.343 38.8247 200.9 15.356 198.193C13.0453 196.686 12.6485 194.932 12.5681 194.455C12.4878 193.978 14.7985 188.809 14.7985 188.809C14.7985 188.809 8.99158 170.354 8.99158 159.689C15.356 141.631 24.0262 126.516 24.0262 126.516C25.6186 119.197 29.7175 102.083 30.4509 102.208C31.1843 102.329 43.4059 104.479 43.4059 104.479L50.5992 114.58L74.2437 113.209Z" fill="white"/>
<path d="M74.2437 113.209L78.4029 113.907C78.4029 113.907 97.8731 122.457 98.7672 122.994C99.6613 123.532 110.105 139.084 116.308 151.974C125.139 161.046 134.844 170.113 137.391 172.102C134.447 172.579 119.654 177.512 110.582 185.705C101.515 193.898 98.8878 198.911 98.8878 198.911L93.9549 192.868C89.2632 188.252 85.4455 184.193 85.4455 184.193L84.888 189.603C87.5101 193.34 87.7512 194.616 87.3544 195.731C86.9525 196.841 82.738 198.911 82.738 198.911C70.4059 200.343 38.8247 200.9 15.356 198.193C13.0453 196.686 12.6485 194.932 12.5681 194.455C12.4878 193.978 14.7985 188.809 14.7985 188.809C14.7985 188.809 8.99158 170.354 8.99158 159.689C15.356 141.631 24.0262 126.516 24.0262 126.516C25.6186 119.197 29.7175 102.083 30.4509 102.208C31.1843 102.329 43.4059 104.479 43.4059 104.479L50.5992 114.58L74.2437 113.209Z" stroke="#292B2E" stroke-width="1.50698" stroke-linecap="round" stroke-linejoin="round"/>
<path d="M50.5189 113.626C50.5189 113.626 63.8104 108.683 73.8318 104.393L73.8067 103.168C73.8067 103.168 74.5853 103.605 74.7812 103.961C74.9821 104.318 78.6792 113.028 78.7194 113.189C78.7596 113.35 78.403 113.907 78.403 113.907C78.403 113.907 61.3791 129.459 60.5001 130.173C59.626 130.891 58.752 131.248 58.1944 130.374C57.6368 129.5 49.4841 115.696 49.4841 115.696C49.4841 115.696 39.0206 118.122 37.8301 118.479C36.6346 118.84 35.8007 118.323 36.3181 117.208C36.8305 116.092 42.0044 105.157 42.2054 104.755C42.4013 104.358 42.5369 104.001 43.4009 103.605C44.275 103.208 49.6046 100.817 49.8809 100.661C50.1622 100.5 50.4385 100.34 50.4385 100.34L50.5189 113.626Z" fill="white" stroke="#292B2E" stroke-width="1.50698" stroke-linecap="round" stroke-linejoin="round"/>
<path d="M46.234 115.299C45.6362 111.747 42.2355 105.84 39.6987 104.976C37.162 104.112 34.4143 105.93 33.1032 107.839C31.7921 109.748 32.2995 112.641 32.1186 112.973C31.9378 113.3 29.2554 116.665 28.6275 119.443C28.0046 122.221 28.5119 123.828 28.6275 124.25C28.748 124.667 31.7017 126.008 32.7465 125.767C33.7914 125.531 43.5767 122.814 43.5767 122.814L46.234 115.299Z" fill="#646669" stroke="#292B2E" stroke-width="1.50698" stroke-linecap="round" stroke-linejoin="round"/>
<path d="M32.8069 96.4264C32.8069 96.4264 34.3289 99.5459 34.3289 99.9628C34.3289 100.38 33.6709 111.26 32.8069 113.907C31.9429 116.55 27.1708 121.834 26.1812 123.773C25.1866 125.707 8.83088 165.421 6.60055 170.113C4.37525 174.804 -1.35126 180.852 -4.69675 182.681C-8.03722 184.514 -10.7397 185.785 -12.091 185.705C-13.4473 185.624 -16.3105 184.991 -17.5814 181.41C-18.8573 177.828 -22.9914 168.364 -17.5814 159.373C-12.1714 150.381 6.60055 129.143 8.9866 125.325C11.3777 121.503 12.6486 119.754 12.2517 117.765C11.8549 115.776 10.1872 110.758 10.1872 110.758L22.5142 97.2804L32.8069 96.4264Z" fill="#FBEBE1" stroke="#292B2E" stroke-width="1.50698"/>
<path d="M31.0286 97.8832C31.0286 97.8832 28.7179 91.1671 27.7233 89.3285C26.7337 87.4951 24.3829 82.8636 23.5992 80.9699C22.8156 79.0761 21.8009 75.3187 19.45 73.1285C17.0991 70.9384 15.3309 71.0138 14.3514 71.1444C13.3769 71.2699 13.4723 71.8426 14.2509 73.7715C15.0296 75.7055 17.8225 83.5116 18.5257 85.0739C18.802 85.6917 19.4802 87.2941 20.1985 89.002C18.8221 86.9676 16.6671 83.6673 15.8333 82.1654C14.8387 80.3721 13.402 76.7553 10.8201 74.8465C8.23309 72.9377 6.485 73.2139 5.53058 73.4551C4.57616 73.6912 4.73188 74.2487 5.72648 76.0772C6.72109 77.9107 10.383 85.3451 11.2571 86.8169C12.1311 88.2887 16.2301 95.6478 16.2301 95.6478L16.4662 98.1192H25.1363L31.0286 97.8832Z" fill="#FBEBE1" stroke="#292B2E" stroke-width="1.50698"/>
<path d="M13.2513 102.173C13.2513 102.173 11.9754 100.5 11.9 99.7468C11.8196 98.9883 13.2915 96.763 13.849 95.8487C14.4066 94.9345 14.4569 94.814 15.8232 94.4171C17.1895 94.0153 18.6613 93.9399 19.3395 93.8194C20.0126 93.6988 21.2081 93.9399 21.7255 94.6532C22.2429 95.3715 24.3075 98.1946 24.6289 98.7873C24.9454 99.3851 25.1062 100.38 25.066 101.018C25.0258 101.656 24.6289 103.801 24.2321 104.122C23.8302 104.439 21.5246 105.157 21.5246 105.157H13.849L13.2513 102.173Z" fill="#FBEBE1" stroke="#292B2E" stroke-width="1.50698"/>
<path d="M11.6137 102.012C10.7799 102.289 10.2625 102.967 10.1017 103.364C9.94603 103.76 9.54417 108.377 9.58435 109.055C9.62454 109.728 10.383 111.14 10.383 111.14C10.383 111.14 15.3912 108.733 15.989 108.537C16.5868 108.337 17.3001 108.256 17.9782 108.537C18.6564 108.814 20.9218 109.768 21.2785 109.929C21.6402 110.085 22.5544 110.245 22.8709 109.688C23.1924 109.13 24.1468 107.543 24.3427 107.141C24.5436 106.744 24.6993 106.167 24.3427 105.619C23.986 105.076 20.6657 101.535 20.0177 101.018C19.3697 100.5 18.4253 99.7468 16.9284 100.023C15.4314 100.304 11.6137 102.012 11.6137 102.012Z" fill="#FBEBE1"/>
<path d="M21.2785 109.929C21.6402 110.085 22.5544 110.245 22.8709 109.688C23.1924 109.13 24.1468 107.543 24.3427 107.146C24.5436 106.744 24.6993 106.167 24.3427 105.619C23.986 105.076 20.6657 101.535 20.0177 101.018C19.3697 100.5 18.4253 99.7468 16.9284 100.023C15.4364 100.304 11.6137 102.012 11.6137 102.012C10.7799 102.289 10.2625 102.967 10.1017 103.364C9.94603 103.76 9.54417 108.377 9.58435 109.055C9.62454 109.728 10.383 111.14 10.383 111.14L10.6392 112.149" stroke="#292B2E" stroke-width="1.50698" stroke-linecap="round"/>
<path d="M15.8835 108.121C15.8835 108.121 15.9639 108.09 16.1096 108.045C16.19 108.02 16.2653 107.99 16.3859 107.96C16.5115 107.94 16.6571 107.915 16.8128 107.889C16.9736 107.854 17.1394 107.879 17.3202 107.874C17.501 107.864 17.6869 107.905 17.8828 107.955C17.9833 107.98 18.0837 108.005 18.1842 108.03C18.2696 108.06 18.35 108.085 18.4354 108.116C18.5961 108.176 18.7619 108.236 18.9276 108.291C20.2538 108.764 21.5799 109.236 21.5799 109.236C21.9717 109.376 22.1777 109.808 22.037 110.2C21.8964 110.592 21.4644 110.798 21.0726 110.657C21.0424 110.647 21.0173 110.637 20.9922 110.627L20.9872 110.622C20.9872 110.622 19.7213 110.004 18.4655 109.381C18.3048 109.306 18.149 109.226 17.9933 109.15L17.7673 109.04C17.707 109.02 17.6467 109 17.5864 108.98C17.4709 108.929 17.3503 108.884 17.2248 108.879C17.1092 108.874 16.9887 108.829 16.8882 108.849C16.7827 108.854 16.6873 108.854 16.6019 108.859C16.5115 108.864 16.411 108.894 16.3356 108.904C16.1849 108.934 16.0995 108.954 16.0995 108.954C15.8685 109 15.6374 108.849 15.5922 108.618C15.547 108.397 15.6776 108.186 15.8835 108.121Z" fill="#292B2E"/>
<path d="M32.1137 95.2158C30.6268 94.0856 29.1349 93.9098 28.5421 94.3267C27.9444 94.7436 25.3775 96.6223 24.5537 97.0995C23.7349 97.5768 22.906 98.3252 23.2476 99.3098C23.5892 100.294 24.7797 101.756 26.8694 101.756C28.9591 101.756 31.4657 100.204 32.2392 99.0687C33.0178 97.9334 33.1937 97.4863 33.048 96.979C32.8973 96.4716 32.1137 95.2158 32.1137 95.2158Z" fill="#FBEBE1"/>
<path d="M30.5816 100.525C29.4965 101.209 28.1101 101.756 26.8694 101.756C24.7797 101.756 23.5892 100.289 23.2476 99.3098C22.906 98.3252 23.7349 97.5768 24.5537 97.0995C25.3775 96.6223 27.9444 94.7436 28.5371 94.3267C29.1349 93.9098 30.6268 94.0856 32.1137 95.2158C32.1137 95.2158 32.8973 96.4716 33.043 96.979C33.043 96.979 33.3795 97.6119 33.6709 98.275" stroke="#292B2E" stroke-width="1.50698" stroke-linecap="round"/>
<path d="M83.5719 87.8467C79.267 106.016 63.3734 126.641 66.4275 154.124C68.8136 175.603 81.5274 182.43 81.5274 182.43L86.2141 180.762C79.4177 169.063 67.7989 142.083 80.3972 114.133C75.816 132.323 81.3868 161.442 98.8878 169.078C100.636 168.44 101.751 167.807 101.751 167.807C101.751 167.807 75.0474 155.239 86.3297 108.934V87.5855L83.5719 87.8467Z" fill="#3F3230"/>
<path d="M87.0228 106.227C87.0228 106.237 86.9676 106.453 86.8872 106.915C86.8018 107.377 86.6913 108.06 86.5808 108.939C86.4602 109.813 86.3597 110.888 86.2643 112.124C86.194 113.36 86.1136 114.761 86.1287 116.288C86.1136 117.052 86.1538 117.846 86.1638 118.669C86.2191 119.493 86.2342 120.342 86.3196 121.211C86.4401 122.959 86.7013 124.793 87.0027 126.676C87.3544 128.55 87.7462 130.489 88.3188 132.413C88.8463 134.347 89.5445 136.261 90.298 138.155C91.1017 140.023 91.9607 141.877 92.9603 143.615C93.2064 144.047 93.4576 144.484 93.7037 144.916C93.9549 145.343 94.2362 145.75 94.4974 146.167C94.7637 146.579 95.0299 146.99 95.2961 147.397C95.5825 147.789 95.8637 148.176 96.1451 148.563C96.4264 148.95 96.7077 149.331 96.9839 149.713C97.2803 150.075 97.5767 150.436 97.8731 150.788C98.1644 151.145 98.4507 151.496 98.7371 151.843C99.0284 152.19 99.3398 152.506 99.6362 152.828C99.9376 153.154 100.229 153.471 100.52 153.782C100.666 153.938 100.812 154.093 100.952 154.244C101.103 154.39 101.254 154.535 101.404 154.676C102.002 155.249 102.58 155.801 103.132 156.334C103.715 156.831 104.273 157.308 104.805 157.76C105.071 157.986 105.333 158.207 105.584 158.423C105.84 158.634 106.106 158.82 106.352 159.011C106.85 159.383 107.317 159.735 107.749 160.061C107.965 160.222 108.171 160.377 108.367 160.528C108.573 160.664 108.768 160.799 108.954 160.92C110.451 161.915 111.305 162.482 111.305 162.482L110.662 163.532C110.662 163.532 109.783 162.964 108.241 161.975C108.05 161.854 107.844 161.724 107.633 161.583C107.427 161.437 107.211 161.282 106.99 161.116C106.543 160.794 106.061 160.443 105.544 160.066C105.287 159.875 105.016 159.689 104.75 159.478C104.489 159.262 104.217 159.041 103.941 158.815C103.389 158.358 102.806 157.881 102.198 157.379C101.62 156.841 101.023 156.284 100.4 155.711C100.244 155.565 100.083 155.42 99.9276 155.274C99.7769 155.118 99.6262 154.962 99.4755 154.802C99.1691 154.485 98.8626 154.164 98.5512 153.837C98.2398 153.511 97.9132 153.189 97.6118 152.843C97.3105 152.486 97.004 152.129 96.6976 151.768C96.3912 151.406 96.0797 151.044 95.7683 150.673C95.4719 150.286 95.1806 149.899 94.8792 149.507C94.5828 149.11 94.2865 148.713 93.9851 148.312C93.7038 147.9 93.4224 147.478 93.1411 147.056C92.8598 146.634 92.5635 146.217 92.2972 145.78C92.036 145.338 91.7698 144.891 91.5036 144.449C90.4437 142.665 89.5244 140.767 88.6604 138.848C87.8517 136.904 87.0931 134.93 86.5155 132.94C85.8926 130.961 85.4505 128.967 85.0537 127.033C84.7121 125.089 84.4107 123.2 84.255 121.397C84.1545 120.498 84.1194 119.619 84.0541 118.765C84.0239 117.916 83.9687 117.092 83.9687 116.303C83.9335 114.721 83.9888 113.274 84.044 111.988C84.1194 110.708 84.2048 109.587 84.3153 108.663C84.4158 107.744 84.5263 107.02 84.6066 106.523C84.6518 106.267 84.682 106.076 84.7071 105.945C84.7322 105.815 84.7423 105.75 84.7423 105.75L87.0228 106.227Z" fill="#3F3230"/>
<path d="M26.8693 102.304C26.8693 102.304 26.8342 102.329 26.7739 102.384C26.7337 102.424 26.7086 102.474 26.6483 102.535C26.588 102.59 26.5026 102.751 26.4122 102.886C26.3067 103.022 26.2264 103.218 26.1309 103.424C26.0455 103.64 25.9099 103.846 25.8496 104.117C25.7692 104.378 25.6889 104.655 25.6035 104.941C25.498 105.217 25.4779 105.544 25.4126 105.855C25.3523 106.167 25.2971 106.488 25.2418 106.809C25.1916 107.136 25.1865 107.468 25.1564 107.789C25.1313 108.116 25.1062 108.432 25.0811 108.743C25.071 108.899 25.061 109.05 25.0459 109.201C25.0509 109.346 25.0509 109.497 25.0509 109.638C25.0559 109.924 25.0559 110.195 25.061 110.446C25.071 111.446 25.076 112.114 25.076 112.114V112.154C25.076 112.441 24.85 112.677 24.5637 112.677C24.2824 112.682 24.0513 112.461 24.0362 112.189C24.0362 112.189 24.001 111.501 23.9458 110.471C23.9357 110.215 23.9207 109.934 23.9056 109.643C23.8956 109.492 23.8905 109.341 23.8805 109.185C23.8855 109.03 23.8905 108.869 23.8956 108.708C23.9056 108.382 23.9157 108.05 23.9257 107.709C23.9458 107.367 23.9408 107.02 23.9759 106.669C24.0211 106.322 24.0664 105.976 24.1116 105.634C24.1718 105.287 24.1769 104.951 24.2773 104.624C24.3627 104.298 24.4431 103.981 24.5184 103.68C24.5787 103.379 24.7244 103.102 24.8198 102.846C24.9253 102.585 25.0107 102.349 25.1464 102.143C25.282 101.932 25.3523 101.766 25.493 101.595C25.6236 101.435 25.7441 101.299 25.8094 101.229C25.8697 101.173 25.8998 101.148 25.8998 101.148C26.2063 100.867 26.6835 100.887 26.9648 101.193C27.2461 101.5 27.226 101.977 26.9246 102.258C26.9145 102.263 26.9095 102.268 26.8995 102.279L26.8693 102.304Z" fill="#292B2E"/>
<path d="M20.8414 88.6052C20.8414 88.6052 20.9921 88.8865 21.2182 89.3085C21.3337 89.5194 21.4643 89.7606 21.61 90.0268C21.7556 90.283 21.8913 90.5844 22.0369 90.8757C22.6096 92.0311 23.1823 93.1915 23.1823 93.1915C23.2978 93.4275 23.2023 93.7139 22.9663 93.8294C22.7452 93.9399 22.484 93.8646 22.3534 93.6636L22.3283 93.6235C22.3283 93.6235 21.6502 92.5585 20.977 91.4986C20.8063 91.2374 20.6505 90.9712 20.4747 90.725C20.3039 90.4789 20.1432 90.2478 20.0076 90.0519C19.7363 89.6601 19.5555 89.3939 19.5555 89.3939C19.3194 89.0523 19.4048 88.5851 19.7463 88.344C20.0879 88.1079 20.5551 88.1933 20.7962 88.5349C20.8113 88.555 20.8263 88.5801 20.8414 88.6052Z" fill="#292B2E"/>
</g>
<defs>
<clipPath id="clip0_11_2">
<rect width="108" height="108" rx="10" fill="white"/>
</clipPath>
</defs>
</svg>
