<svg width="300" height="300" viewBox="0 0 300 300" fill="none" xmlns="http://www.w3.org/2000/svg">
<path fill-rule="evenodd" clip-rule="evenodd" d="M150.001 0C67.1687 0 0 68.8559 0 153.798C0 221.749 42.9799 279.399 102.58 299.736C110.077 301.159 112.829 296.399 112.829 292.337C112.829 288.67 112.69 276.554 112.625 263.703C70.8946 273.007 62.089 245.557 62.089 245.557C55.2656 227.78 45.4341 223.053 45.4341 223.053C31.8245 213.508 46.4599 213.704 46.4599 213.704C61.5227 214.786 69.4539 229.555 69.4539 229.555C82.8325 253.065 104.545 246.268 113.105 242.338C114.451 232.398 118.338 225.61 122.628 221.772C89.3107 217.883 54.2869 204.696 54.2869 145.765C54.2869 128.974 60.1466 115.254 69.7421 104.483C68.1846 100.607 63.0503 84.9671 71.1952 63.7826C71.1952 63.7826 83.7914 59.6492 112.456 79.5475C124.421 76.1398 137.254 74.4309 150.001 74.3723C162.749 74.4309 175.591 76.1398 187.579 79.5475C216.209 59.6492 228.787 63.7826 228.787 63.7826C236.952 84.9671 231.815 100.607 230.258 104.483C239.876 115.254 245.696 128.974 245.696 145.765C245.696 204.836 210.605 217.843 177.203 221.65C182.583 226.423 187.377 235.782 187.377 250.131C187.377 270.71 187.203 287.271 187.203 292.337C187.203 296.43 189.904 301.226 197.507 299.715C257.075 279.356 300 221.726 300 153.798C300 68.8559 232.841 0 150.001 0Z" fill="black"/>
</svg>
