<svg width="100" height="100" viewBox="0 0 100 100" fill="none" xmlns="http://www.w3.org/2000/svg">
<path d="M40.6426 37.0864C43.4572 37.7418 45.6817 39.1931 47.3159 41.4402C48.9956 43.6405 49.8354 46.1685 49.8354 49.0243C49.8354 53.2376 48.4281 56.5381 45.6136 58.9257C42.799 61.3132 38.8495 62.507 33.7651 62.507H12C10.8954 62.507 10 61.6116 10 60.507V15C10 13.8954 10.8954 13 12 13H33.016C37.9189 13 41.7549 14.1236 44.524 16.3707C47.3386 18.6178 48.7459 21.7778 48.7459 25.8508C48.7459 28.7533 47.9969 31.1877 46.4988 33.1539C45.0461 35.0734 43.0941 36.3842 40.6426 37.0864ZM23.3466 31.6624C23.3466 32.2146 23.7943 32.6624 24.3466 32.6624H30.088C33.4473 32.6624 35.127 31.2345 35.127 28.3788C35.127 25.4294 33.4473 23.9547 30.088 23.9547H24.3466C23.7943 23.9547 23.3466 24.4025 23.3466 24.9547V31.6624ZM31.1094 51.4118C34.4687 51.4118 36.1484 49.9606 36.1484 47.058C36.1484 45.5599 35.6944 44.413 34.7865 43.6171C33.924 42.8213 32.6756 42.4233 31.0413 42.4233H24.3466C23.7943 42.4233 23.3466 42.871 23.3466 43.4233V50.4118C23.3466 50.9641 23.7943 51.4118 24.3466 51.4118H31.1094Z" fill="white"/>
<path d="M72.0911 87.8692C66.5073 87.8692 61.9223 86.5115 58.3359 83.7963C55.2577 81.4255 53.4002 78.1925 52.7634 74.0972C52.5873 72.9644 53.511 71.9988 54.6575 71.9988H64.9308C65.9745 71.9988 66.799 72.8176 67.1058 73.8153C67.3617 74.6476 67.7524 75.3061 68.2778 75.7909C69.1403 76.5867 70.2525 76.9847 71.6144 76.9847C72.8401 76.9847 73.8388 76.6804 74.6106 76.0718C75.4277 75.4164 75.8363 74.5269 75.8363 73.4033C75.8363 71.952 75.178 70.8285 73.8615 70.0326C72.545 69.2368 70.4114 68.3473 67.4606 67.3641C64.3283 66.2874 61.7861 65.2575 59.834 64.2743C57.9274 63.2444 56.2477 61.7697 54.795 59.8503C53.3877 57.8841 52.6841 55.3326 52.6841 52.196C52.6841 49.0126 53.4558 46.2973 54.9993 44.0502C56.5428 41.7563 58.6764 40.0241 61.4002 38.8537C64.124 37.6833 67.211 37.0981 70.6611 37.0981C76.2449 37.0981 80.6937 38.4558 84.0077 41.1711C86.8709 43.4454 88.5964 46.519 89.1841 50.3918C89.3553 51.52 88.4329 52.4769 87.2917 52.4769H76.8233C75.7423 52.4769 74.9228 51.5861 74.5347 50.5772C74.3071 49.9858 73.9692 49.4954 73.5211 49.1062C72.7039 48.3572 71.6371 47.9827 70.3206 47.9827C69.3219 47.9827 68.5048 48.287 67.8692 48.8956C67.2336 49.5042 66.9159 50.3702 66.9159 51.4938C66.9159 52.4301 67.2563 53.2494 67.9373 53.9516C68.6636 54.607 69.5489 55.1922 70.593 55.7072C71.6371 56.1753 73.1806 56.7839 75.2234 57.533C78.265 58.6097 80.7618 59.6865 82.7139 60.7632C84.7113 61.7931 86.4137 63.2678 87.821 65.1872C89.2737 67.0598 90 69.4474 90 72.35C90 75.2993 89.2737 77.9444 87.821 80.2851C86.4137 82.6259 84.3481 84.4751 81.6243 85.8327C78.9459 87.1904 75.7682 87.8692 72.0911 87.8692Z" fill="white"/>
</svg>
