<svg width="300" height="300" viewBox="0 0 300 300" fill="none" xmlns="http://www.w3.org/2000/svg">
<g clip-path="url(#clip0_113:635)">
<rect width="300" height="300" fill="white"/>
<rect x="300" y="38" width="300" height="38" transform="rotate(-180 300 38)" fill="#EF4B4B"/>
<rect x="300" y="75" width="300" height="36.9999" transform="rotate(-180 300 75)" fill="white"/>
<rect x="300" y="114" width="300" height="39" transform="rotate(-180 300 114)" fill="#EF4B4B"/>
<rect x="300" y="151" width="300" height="36.9999" transform="rotate(-180 300 151)" fill="white"/>
<rect x="300" y="188" width="300" height="37" transform="rotate(-180 300 188)" fill="#EF4B4B"/>
<rect x="300" y="227" width="300" height="38.9999" transform="rotate(-180 300 227)" fill="white"/>
<rect x="300" y="263" width="300" height="36" transform="rotate(-180 300 263)" fill="#EF4B4B"/>
<rect x="300" y="300" width="300" height="36.9999" transform="rotate(-180 300 300)" fill="white"/>
<rect x="150" y="151" width="150" height="151" transform="rotate(-180 150 151)" fill="#4F60FF"/>
<path d="M17.0797 24.4025C17.5442 23.0539 19.4515 23.0539 19.9161 24.4025L22.23 31.1196C22.4385 31.7248 23.0081 32.1311 23.6482 32.1311H30.941C32.4152 32.1311 33.005 34.0351 31.7889 34.8684L26.0427 38.8062C25.486 39.1877 25.2526 39.894 25.4724 40.5321L27.7024 47.0053C28.1732 48.372 26.6286 49.5483 25.4362 48.7312L19.3458 44.5576C18.8347 44.2073 18.161 44.2073 17.6499 44.5576L11.5595 48.7312C10.3671 49.5483 8.82255 48.372 9.29335 47.0053L11.5233 40.5321C11.7431 39.894 11.5097 39.1877 10.953 38.8062L5.2068 34.8684C3.99071 34.0351 4.5805 32.1311 6.05473 32.1311H13.3475C13.9876 32.1311 14.5572 31.7248 14.7657 31.1196L17.0797 24.4025Z" fill="white"/>
<path d="M50.2138 -5.31341C50.6622 -6.69658 52.6191 -6.69658 53.0675 -5.31341L55.1448 1.09369C55.3454 1.71218 55.9215 2.13107 56.5717 2.13107H63.3009C64.7532 2.13107 65.3579 3.98884 64.1838 4.84369L58.7343 8.81158C58.2097 9.19354 57.9902 9.86953 58.1903 10.4868L60.2705 16.903C60.7188 18.2855 59.1357 19.4337 57.9607 18.5782L52.5236 14.6194C51.9973 14.2362 51.284 14.2362 50.7577 14.6194L45.3206 18.5782C44.1456 19.4337 42.5625 18.2855 43.0108 16.903L45.091 10.4868C45.2912 9.86953 45.0717 9.19354 44.5471 8.81158L39.0975 4.84369C37.9234 3.98884 38.5281 2.13107 39.9804 2.13107H46.7096C47.3598 2.13107 47.9359 1.71218 48.1365 1.09369L50.2138 -5.31341Z" fill="white"/>
<path d="M84.4257 24.6866C84.8741 23.3034 86.831 23.3034 87.2794 24.6866L89.3568 31.0937C89.5573 31.7122 90.1335 32.1311 90.7836 32.1311H97.5128C98.9651 32.1311 99.5698 33.9888 98.3958 34.8437L92.9462 38.8116C92.4216 39.1935 92.2021 39.8695 92.4022 40.4868L94.4825 46.903C94.9307 48.2855 93.3476 49.4337 92.1727 48.5782L86.7355 44.6194C86.2092 44.2362 85.4959 44.2362 84.9697 44.6194L79.5325 48.5782C78.3575 49.4337 76.7744 48.2855 77.2227 46.903L79.3029 40.4868C79.5031 39.8695 79.2836 39.1935 78.759 38.8116L73.3094 34.8437C72.1353 33.9888 72.74 32.1311 74.1923 32.1311H80.9215C81.5717 32.1311 82.1478 31.7122 82.3484 31.0937L84.4257 24.6866Z" fill="white"/>
<path d="M116.499 -5.31341C116.948 -6.69658 118.905 -6.69658 119.353 -5.31341L121.43 1.09369C121.631 1.71218 122.207 2.13107 122.857 2.13107H129.587C131.039 2.13107 131.644 3.98884 130.469 4.84369L125.02 8.81158C124.495 9.19354 124.276 9.86953 124.476 10.4868L126.556 16.903C127.004 18.2855 125.421 19.4337 124.246 18.5782L118.809 14.6194C118.283 14.2362 117.57 14.2362 117.043 14.6194L111.606 18.5782C110.431 19.4337 108.848 18.2855 109.296 16.903L111.377 10.4868C111.577 9.86953 111.357 9.19354 110.833 8.81158L105.383 4.84369C104.209 3.98884 104.814 2.13107 106.266 2.13107H112.995C113.645 2.13107 114.222 1.71218 114.422 1.09369L116.499 -5.31341Z" fill="white"/>
<path d="M17.0797 82.2597C17.5442 80.9111 19.4515 80.9111 19.9161 82.2597L22.23 88.9768C22.4385 89.582 23.0081 89.9882 23.6482 89.9882H30.941C32.4152 89.9882 33.005 91.8922 31.7889 92.7256L26.0427 96.6633C25.486 97.0448 25.2526 97.7511 25.4724 98.3892L27.7024 104.862C28.1732 106.229 26.6286 107.406 25.4362 106.588L19.3458 102.415C18.8347 102.065 18.161 102.065 17.6499 102.415L11.5595 106.588C10.3671 107.406 8.82255 106.229 9.29335 104.862L11.5233 98.3892C11.7431 97.7511 11.5097 97.0448 10.953 96.6633L5.2068 92.7256C3.99071 91.8922 4.5805 89.9882 6.05473 89.9882H13.3475C13.9876 89.9882 14.5572 89.582 14.7657 88.9768L17.0797 82.2597Z" fill="white"/>
<path d="M50.2135 52.5438C50.662 51.1606 52.6188 51.1606 53.0673 52.5438L55.1446 58.9509C55.3451 59.5694 55.9213 59.9882 56.5715 59.9882H63.3007C64.753 59.9882 65.3577 61.846 64.1836 62.7009L58.734 66.6688C58.2094 67.0507 57.9899 67.7267 58.1901 68.344L60.2703 74.7601C60.7185 76.1427 59.1354 77.2909 57.9605 76.4354L52.5233 72.4765C51.9971 72.0934 51.2837 72.0934 50.7575 72.4765L45.3203 76.4354C44.1454 77.2909 42.5623 76.1427 43.0105 74.7601L45.0908 68.344C45.2909 67.7267 45.0714 67.0507 44.5468 66.6688L39.0972 62.7009C37.9232 61.846 38.5278 59.9882 39.9801 59.9882H46.7093C47.3595 59.9882 47.9357 59.5694 48.1362 58.9509L50.2135 52.5438Z" fill="white"/>
<path d="M84.4257 82.5438C84.8741 81.1606 86.831 81.1606 87.2794 82.5438L89.3568 88.9509C89.5573 89.5694 90.1335 89.9882 90.7836 89.9882H97.5128C98.9651 89.9882 99.5698 91.846 98.3958 92.7009L92.9462 96.6688C92.4216 97.0507 92.2021 97.7267 92.4022 98.344L94.4825 104.76C94.9307 106.143 93.3476 107.291 92.1727 106.435L86.7355 102.477C86.2092 102.093 85.4959 102.093 84.9697 102.477L79.5325 106.435C78.3575 107.291 76.7744 106.143 77.2227 104.76L79.3029 98.344C79.5031 97.7267 79.2836 97.0507 78.759 96.6688L73.3094 92.7009C72.1353 91.846 72.74 89.9882 74.1923 89.9882H80.9215C81.5717 89.9882 82.1478 89.5694 82.3484 88.9509L84.4257 82.5438Z" fill="white"/>
<path d="M116.499 52.5438C116.948 51.1606 118.905 51.1606 119.353 52.5438L121.43 58.9509C121.631 59.5694 122.207 59.9882 122.857 59.9882H129.587C131.039 59.9882 131.644 61.846 130.469 62.7009L125.02 66.6688C124.495 67.0507 124.276 67.7267 124.476 68.344L126.556 74.7601C127.004 76.1427 125.421 77.2909 124.246 76.4354L118.809 72.4765C118.283 72.0934 117.57 72.0934 117.043 72.4765L111.606 76.4354C110.431 77.2909 108.848 76.1427 109.296 74.7601L111.377 68.344C111.577 67.7267 111.357 67.0507 110.833 66.6688L105.383 62.7009C104.209 61.846 104.814 59.9882 106.266 59.9882H112.995C113.645 59.9882 114.222 59.5694 114.422 58.9509L116.499 52.5438Z" fill="white"/>
<path d="M50.2138 112.544C50.6622 111.161 52.6191 111.161 53.0675 112.544L55.1448 118.951C55.3454 119.569 55.9215 119.988 56.5717 119.988H63.3009C64.7532 119.988 65.3579 121.846 64.1838 122.701L58.7343 126.669C58.2097 127.051 57.9902 127.727 58.1903 128.344L60.2705 134.76C60.7188 136.143 59.1357 137.291 57.9607 136.435L52.5236 132.477C51.9973 132.093 51.284 132.093 50.7577 132.477L45.3206 136.435C44.1456 137.291 42.5625 136.143 43.0108 134.76L45.091 128.344C45.2912 127.727 45.0717 127.051 44.5471 126.669L39.0975 122.701C37.9234 121.846 38.5281 119.988 39.9804 119.988H46.7096C47.3598 119.988 47.9359 119.569 48.1365 118.951L50.2138 112.544Z" fill="white"/>
<path d="M116.499 112.544C116.948 111.161 118.905 111.161 119.353 112.544L121.43 118.951C121.631 119.569 122.207 119.988 122.857 119.988H129.587C131.039 119.988 131.644 121.846 130.469 122.701L125.02 126.669C124.495 127.051 124.276 127.727 124.476 128.344L126.556 134.76C127.004 136.143 125.421 137.291 124.246 136.435L118.809 132.477C118.283 132.093 117.57 132.093 117.043 132.477L111.606 136.435C110.431 137.291 108.848 136.143 109.296 134.76L111.377 128.344C111.577 127.727 111.357 127.051 110.833 126.669L105.383 122.701C104.209 121.846 104.814 119.988 106.266 119.988H112.995C113.645 119.988 114.222 119.569 114.422 118.951L116.499 112.544Z" fill="white"/>
</g>
<defs>
<clipPath id="clip0_113:635">
<rect width="300" height="300" fill="white"/>
</clipPath>
</defs>
</svg>
