<svg width="128" height="128" viewBox="0 0 128 128" fill="none" xmlns="http://www.w3.org/2000/svg">
<rect width="128" height="128" rx="10" fill="#094576"/>
<path d="M54.6555 51.1285C57.5631 51.7851 59.861 53.2389 61.5493 55.4899C63.2845 57.6941 64.1521 60.2265 64.1521 63.0872C64.1521 67.308 62.6983 70.6142 59.7907 73.0059C56.8831 75.3977 52.803 76.5936 47.5506 76.5936H23V27H46.7768C51.8416 27 55.8044 28.1255 58.6652 30.3766C61.5728 32.6276 63.0266 35.7932 63.0266 39.8732C63.0266 42.7808 62.2528 45.2195 60.7052 47.1892C59.2045 49.1119 57.1879 50.425 54.6555 51.1285ZM36.7877 46.6967H43.7519C47.2223 46.6967 48.9575 45.2664 48.9575 42.4057C48.9575 39.4512 47.2223 37.9739 43.7519 37.9739H36.7877V46.6967ZM44.8071 65.479C48.2775 65.479 50.0127 64.0252 50.0127 61.1176C50.0127 59.6169 49.5437 58.4679 48.6058 57.6706C47.7147 56.8734 46.425 56.4748 44.7368 56.4748H36.7877V65.479H44.8071Z" fill="white"/>
<path d="M87.1433 102C81.375 102 76.6384 100.64 72.9336 97.9199C69.2287 95.153 67.2356 91.2137 66.9542 86.1019H81.6564C81.7971 87.8371 82.313 89.1033 83.204 89.9006C84.095 90.6978 85.244 91.0964 86.6509 91.0964C87.9171 91.0964 88.9489 90.7916 89.7461 90.1819C90.5903 89.5254 91.0123 88.6343 91.0123 87.5088C91.0123 86.055 90.3323 84.9295 88.9723 84.1322C87.6123 83.335 85.4082 82.4439 82.3599 81.4591C79.124 80.3805 76.4977 79.3487 74.4812 78.3639C72.5115 77.3322 70.7763 75.8549 69.2756 73.9321C67.8218 71.9625 67.0949 69.4066 67.0949 66.2645C67.0949 63.0755 67.8921 60.3555 69.4866 58.1044C71.0811 55.8064 73.2853 54.0713 76.0991 52.8988C78.9129 51.7264 82.1019 51.1402 85.6661 51.1402C91.4344 51.1402 96.0303 52.5002 99.4538 55.2202C102.924 57.8934 104.777 61.6686 105.011 66.5459H90.0275C89.9806 65.0452 89.5116 63.9196 88.6206 63.1693C87.7765 62.4189 86.6744 62.0437 85.3144 62.0437C84.2826 62.0437 83.4385 62.3486 82.7819 62.9582C82.1254 63.5679 81.7971 64.4355 81.7971 65.561C81.7971 66.499 82.1488 67.3197 82.8523 68.0231C83.6026 68.6797 84.5171 69.2659 85.5957 69.7818C86.6744 70.2507 88.2689 70.8604 90.3792 71.6107C93.5213 72.6894 96.1007 73.768 98.1172 74.8466C100.181 75.8784 101.939 77.3556 103.393 79.2784C104.894 81.1543 105.644 83.546 105.644 86.4536C105.644 89.4081 104.894 92.0578 103.393 94.4027C101.939 96.7475 99.8055 98.5999 96.9917 99.96C94.2248 101.32 90.942 102 87.1433 102Z" fill="white"/>
</svg>
