<svg width="48" height="48" viewBox="0 0 48 48" fill="none" xmlns="http://www.w3.org/2000/svg">
<rect width="48" height="48" rx="10" fill="#094576"/>
<path d="M20.4958 19.1732C21.5862 19.4194 22.4479 19.9646 23.081 20.8087C23.7317 21.6353 24.057 22.5849 24.057 23.6577C24.057 25.2405 23.5119 26.4803 22.4215 27.3772C21.3311 28.2741 19.8011 28.7226 17.8315 28.7226H8.625V10.125H17.5413C19.4406 10.125 20.9267 10.5471 21.9994 11.3912C23.0898 12.2354 23.635 13.4224 23.635 14.9525C23.635 16.0428 23.3448 16.9573 22.7644 17.6959C22.2017 18.417 21.4455 18.9094 20.4958 19.1732ZM13.7954 17.5113H16.407C17.7084 17.5113 18.3591 16.9749 18.3591 15.9021C18.3591 14.7942 17.7084 14.2402 16.407 14.2402H13.7954V17.5113ZM16.8027 24.5546C18.1041 24.5546 18.7547 24.0094 18.7547 22.9191C18.7547 22.3563 18.5789 21.9255 18.2272 21.6265C17.893 21.3275 17.4094 21.178 16.7763 21.178H13.7954V24.5546H16.8027Z" fill="white"/>
<path d="M32.6788 38.25C30.5157 38.25 28.7394 37.74 27.3501 36.72C25.9608 35.6824 25.2134 34.2051 25.1078 32.2882H30.6212C30.6739 32.9389 30.8674 33.4137 31.2015 33.7127C31.5357 34.0117 31.9665 34.1612 32.4941 34.1612C32.969 34.1612 33.3559 34.0469 33.6548 33.8182C33.9714 33.572 34.1297 33.2379 34.1297 32.8158C34.1297 32.2706 33.8747 31.8486 33.3646 31.5496C32.8546 31.2506 32.0281 30.9165 30.885 30.5472C29.6715 30.1427 28.6867 29.7558 27.9305 29.3865C27.1918 28.9996 26.5411 28.4456 25.9784 27.7246C25.4332 26.9859 25.1606 26.0275 25.1606 24.8492C25.1606 23.6533 25.4596 22.6333 26.0575 21.7892C26.6554 20.9274 27.482 20.2767 28.5372 19.8371C29.5924 19.3974 30.7882 19.1776 32.1248 19.1776C34.2879 19.1776 36.0114 19.6876 37.2952 20.7076C38.5966 21.71 39.2913 23.1257 39.3792 24.9547H33.7603C33.7428 24.3919 33.5669 23.9699 33.2328 23.6885C32.9162 23.4071 32.5029 23.2664 31.9929 23.2664C31.606 23.2664 31.2895 23.3807 31.0432 23.6093C30.797 23.838 30.6739 24.1633 30.6739 24.5854C30.6739 24.9371 30.8058 25.2449 31.0696 25.5087C31.351 25.7549 31.6939 25.9747 32.0984 26.1682C32.5029 26.344 33.1009 26.5726 33.8922 26.854C35.0705 27.2585 36.0378 27.663 36.794 28.0675C37.5678 28.4544 38.2273 29.0084 38.7725 29.7294C39.3352 30.4329 39.6166 31.3298 39.6166 32.4201C39.6166 33.5281 39.3352 34.5217 38.7725 35.401C38.2273 36.2803 37.4271 36.975 36.3719 37.485C35.3343 37.995 34.1033 38.25 32.6788 38.25Z" fill="white"/>
</svg>
