<svg width="16" height="16" viewBox="0 0 16 16" fill="none" xmlns="http://www.w3.org/2000/svg">
<rect width="16" height="16" rx="8" fill="#094576"/>
<path d="M6.83193 6.39106C7.19538 6.47313 7.48263 6.65486 7.69366 6.93624C7.91056 7.21176 8.01901 7.52831 8.01901 7.8859C8.01901 8.41349 7.83729 8.82677 7.47384 9.12574C7.11038 9.42471 6.60038 9.57419 5.94382 9.57419H2.875V3.375H5.8471C6.48021 3.375 6.97555 3.51569 7.33314 3.79707C7.6966 4.07845 7.87832 4.47415 7.87832 4.98415C7.87832 5.3476 7.7816 5.65243 7.58815 5.89864C7.40056 6.13899 7.14849 6.30313 6.83193 6.39106ZM4.59846 5.83709H5.46899C5.90279 5.83709 6.11968 5.6583 6.11968 5.30071C6.11968 4.93139 5.90279 4.74674 5.46899 4.74674H4.59846V5.83709ZM5.60089 8.18487C6.03468 8.18487 6.25158 8.00315 6.25158 7.63969C6.25158 7.45211 6.19296 7.30848 6.07572 7.20883C5.96434 7.10917 5.80313 7.05934 5.59209 7.05934H4.59846V8.18487H5.60089Z" fill="white"/>
<path d="M10.8929 12.75C10.1719 12.75 9.57979 12.58 9.11668 12.24C8.65358 11.8941 8.40444 11.4017 8.36926 10.7627H10.207C10.2246 10.9796 10.2891 11.1379 10.4005 11.2376C10.5119 11.3372 10.6555 11.387 10.8314 11.387C10.9896 11.387 11.1186 11.3489 11.2183 11.2727C11.3238 11.1907 11.3765 11.0793 11.3765 10.9386C11.3765 10.7569 11.2915 10.6162 11.1215 10.5165C10.9515 10.4169 10.676 10.3055 10.295 10.1824C9.89048 10.0476 9.5622 9.91858 9.31013 9.79548C9.06392 9.66651 8.84703 9.48186 8.65944 9.24151C8.47771 8.9953 8.38685 8.67581 8.38685 8.28305C8.38685 7.88443 8.48651 7.54442 8.68582 7.26304C8.88513 6.9758 9.16065 6.7589 9.51238 6.61235C9.8641 6.46579 10.2627 6.39252 10.7082 6.39252C11.4293 6.39252 12.0038 6.56252 12.4317 6.90252C12.8655 7.23666 13.0971 7.70856 13.1264 8.31822H11.2534C11.2476 8.13064 11.1889 7.98995 11.0776 7.89615C10.972 7.80236 10.8343 7.75546 10.6643 7.75546C10.5353 7.75546 10.4298 7.79356 10.3477 7.86977C10.2657 7.94598 10.2246 8.05443 10.2246 8.19512C10.2246 8.31236 10.2686 8.41495 10.3565 8.50288C10.4503 8.58495 10.5646 8.65823 10.6995 8.72271C10.8343 8.78133 11.0336 8.85754 11.2974 8.95133C11.6902 9.08616 12.0126 9.22099 12.2646 9.35582C12.5226 9.48479 12.7424 9.66944 12.9241 9.90979C13.1117 10.1443 13.2055 10.4432 13.2055 10.8067C13.2055 11.176 13.1117 11.5072 12.9241 11.8003C12.7424 12.0934 12.4757 12.325 12.124 12.495C11.7781 12.665 11.3677 12.75 10.8929 12.75Z" fill="white"/>
</svg>
