<svg width="64" height="64" viewBox="0 0 64 64" fill="none" xmlns="http://www.w3.org/2000/svg">
<rect width="64" height="64" rx="10" fill="#094576"/>
<path d="M27.3277 25.5642C28.7815 25.8925 29.9305 26.6194 30.7747 27.745C31.6423 28.847 32.0761 30.1133 32.0761 31.5436C32.0761 33.654 31.3491 35.3071 29.8953 36.503C28.4415 37.6988 26.4015 38.2968 23.7753 38.2968H11.5V13.5H23.3884C25.9208 13.5 27.9022 14.0628 29.3326 15.1883C30.7864 16.3138 31.5133 17.8966 31.5133 19.9366C31.5133 21.3904 31.1264 22.6097 30.3526 23.5946C29.6022 24.556 28.5939 25.2125 27.3277 25.5642ZM18.3939 23.3484H21.876C23.6111 23.3484 24.4787 22.6332 24.4787 21.2028C24.4787 19.7256 23.6111 18.9869 21.876 18.9869H18.3939V23.3484ZM22.4035 32.7395C24.1387 32.7395 25.0063 32.0126 25.0063 30.5588C25.0063 29.8084 24.7718 29.2339 24.3029 28.8353C23.8574 28.4367 23.2125 28.2374 22.3684 28.2374H18.3939V32.7395H22.4035Z" fill="white"/>
<path d="M43.5717 51C40.6875 51 38.3192 50.32 36.4668 48.96C34.6144 47.5765 33.6178 45.6068 33.4771 43.0509H40.8282C40.8986 43.9185 41.1565 44.5517 41.602 44.9503C42.0475 45.3489 42.622 45.5482 43.3255 45.5482C43.9586 45.5482 44.4745 45.3958 44.8731 45.091C45.2951 44.7627 45.5062 44.3172 45.5062 43.7544C45.5062 43.0275 45.1662 42.4647 44.4862 42.0661C43.8062 41.6675 42.7041 41.222 41.1799 40.7295C39.562 40.1902 38.2489 39.6744 37.2406 39.1819C36.2558 38.6661 35.3882 37.9275 34.6378 36.9661C33.9109 35.9812 33.5475 34.7033 33.5475 33.1322C33.5475 31.5377 33.9461 30.1777 34.7433 29.0522C35.5406 27.9032 36.6427 27.0356 38.0496 26.4494C39.4565 25.8632 41.051 25.5701 42.8331 25.5701C45.7172 25.5701 48.0152 26.2501 49.7269 27.6101C51.4621 28.9467 52.3883 30.8343 52.5056 33.2729H45.0138C44.9903 32.5226 44.7558 31.9598 44.3103 31.5846C43.8882 31.2095 43.3372 31.0219 42.6572 31.0219C42.1413 31.0219 41.7193 31.1743 41.391 31.4791C41.0627 31.7839 40.8986 32.2177 40.8986 32.7805C40.8986 33.2495 41.0744 33.6598 41.4261 34.0116C41.8013 34.3398 42.2586 34.6329 42.7979 34.8909C43.3372 35.1254 44.1345 35.4302 45.1896 35.8054C46.7607 36.3447 48.0503 36.884 49.0586 37.4233C50.0904 37.9392 50.9697 38.6778 51.6966 39.6392C52.4469 40.5771 52.8221 41.773 52.8221 43.2268C52.8221 44.7041 52.4469 46.0289 51.6966 47.2013C50.9697 48.3738 49.9028 49.3 48.4959 49.98C47.1124 50.66 45.471 51 43.5717 51Z" fill="white"/>
</svg>
