<svg width="32" height="32" viewBox="0 0 32 32" fill="none" xmlns="http://www.w3.org/2000/svg">
<rect width="32" height="32" rx="10" fill="#094576"/>
<path d="M13.6639 12.7821C14.3908 12.9463 14.9653 13.3097 15.3873 13.8725C15.8211 14.4235 16.038 15.0566 16.038 15.7718C16.038 16.827 15.6746 17.6535 14.9477 18.2515C14.2208 18.8494 13.2008 19.1484 11.8876 19.1484H5.75V6.75H11.6942C12.9604 6.75 13.9511 7.03138 14.6663 7.59415C15.3932 8.15691 15.7566 8.9483 15.7566 9.96831C15.7566 10.6952 15.5632 11.3049 15.1763 11.7973C14.8011 12.278 14.297 12.6063 13.6639 12.7821ZM9.19693 11.6742H10.938C11.8056 11.6742 12.2394 11.3166 12.2394 10.6014C12.2394 9.86279 11.8056 9.49347 10.938 9.49347H9.19693V11.6742ZM11.2018 16.3697C12.0694 16.3697 12.5032 16.0063 12.5032 15.2794C12.5032 14.9042 12.3859 14.617 12.1514 14.4177C11.9287 14.2183 11.6063 14.1187 11.1842 14.1187H9.19693V16.3697H11.2018Z" fill="white"/>
<path d="M21.7858 25.5C20.3437 25.5 19.1596 25.16 18.2334 24.48C17.3072 23.7883 16.8089 22.8034 16.7385 21.5255H20.4141C20.4492 21.9593 20.5782 22.2758 20.801 22.4752C21.0237 22.6745 21.311 22.7741 21.6627 22.7741C21.9793 22.7741 22.2372 22.6979 22.4365 22.5455C22.6475 22.3814 22.7531 22.1586 22.7531 21.8772C22.7531 21.5138 22.5831 21.2324 22.2431 21.0331C21.9031 20.8338 21.352 20.611 20.5899 20.3648C19.781 20.0951 19.1244 19.8372 18.6203 19.591C18.1278 19.3331 17.6941 18.9637 17.3189 18.483C16.9554 17.9906 16.7737 17.3517 16.7737 16.5661C16.7737 15.7689 16.973 15.0889 17.3716 14.5261C17.7703 13.9516 18.3213 13.5178 19.0248 13.2247C19.7282 12.9316 20.5255 12.7851 21.4165 12.7851C22.8586 12.7851 24.0076 13.1251 24.8634 13.8051C25.731 14.4734 26.1941 15.4172 26.2527 16.6365H22.5069C22.4951 16.2613 22.3779 15.9799 22.1551 15.7923C21.9441 15.6047 21.6686 15.511 21.3286 15.511C21.0706 15.511 20.8596 15.5872 20.6955 15.7396C20.5313 15.892 20.4492 16.1089 20.4492 16.3903C20.4492 16.6248 20.5372 16.8299 20.713 17.0058C20.9006 17.1699 21.1293 17.3165 21.3989 17.4455C21.6686 17.5627 22.0672 17.7151 22.5948 17.9027C23.3803 18.1724 24.0251 18.442 24.5293 18.7117C25.0452 18.9696 25.4848 19.3389 25.8483 19.8196C26.2234 20.2886 26.411 20.8865 26.411 21.6134C26.411 22.352 26.2234 23.0145 25.8483 23.6007C25.4848 24.1869 24.9514 24.65 24.2479 24.99C23.5562 25.33 22.7355 25.5 21.7858 25.5Z" fill="white"/>
</svg>
