<svg width="300" height="300" viewBox="0 0 300 300" fill="none" xmlns="http://www.w3.org/2000/svg">
<g clip-path="url(#clip0_118:14)">
<rect width="300" height="300" fill="white"/>
<rect x="500" y="300" width="500" height="300" transform="rotate(-180 500 300)" fill="white"/>
<rect x="300" y="142" width="300" height="142" transform="rotate(-180 300 142)" fill="#161616"/>
<path d="M148.709 74.8333C148.891 73.3051 151.109 73.3051 151.291 74.8333L155.34 108.817C155.489 110.066 157.149 110.397 157.765 109.299L174.511 79.4521C175.264 78.1098 177.313 78.9584 176.896 80.44L167.632 113.386C167.292 114.598 168.699 115.538 169.688 114.76L196.581 93.5932C197.791 92.6413 199.359 94.2094 198.407 95.4188L177.24 122.312C176.462 123.301 177.402 124.708 178.614 124.368L211.56 115.104C213.042 114.687 213.89 116.736 212.548 117.489L182.701 134.235C181.603 134.851 181.934 136.511 183.183 136.66L217.167 140.709C218.695 140.891 218.695 143.109 217.167 143.291L183.183 147.34C181.934 147.489 181.603 149.149 182.701 149.765L212.548 166.511C213.89 167.264 213.042 169.313 211.56 168.896L178.614 159.632C177.402 159.292 176.462 160.699 177.24 161.688L198.407 188.581C199.359 189.791 197.791 191.359 196.581 190.407L169.688 169.24C168.699 168.462 167.292 169.402 167.632 170.614L176.896 203.56C177.313 205.042 175.264 205.89 174.511 204.548L157.765 174.701C157.149 173.603 155.489 173.934 155.34 175.183L151.291 209.167C151.109 210.695 148.891 210.695 148.709 209.167L144.66 175.183C144.511 173.934 142.851 173.603 142.235 174.701L125.489 204.548C124.736 205.89 122.687 205.042 123.104 203.56L132.368 170.614C132.708 169.402 131.301 168.462 130.312 169.24L103.419 190.407C102.209 191.359 100.641 189.791 101.593 188.581L122.76 161.688C123.538 160.699 122.598 159.292 121.386 159.632L88.4401 168.896C86.9585 169.313 86.1098 167.264 87.4521 166.511L117.299 149.765C118.397 149.149 118.066 147.489 116.817 147.34L82.8333 143.291C81.3051 143.109 81.3051 140.891 82.8333 140.709L116.817 136.66C118.066 136.511 118.397 134.851 117.299 134.235L87.4521 117.489C86.1098 116.736 86.9584 114.687 88.4401 115.104L121.386 124.368C122.598 124.708 123.538 123.301 122.76 122.312L101.593 95.4188C100.641 94.2094 102.209 92.6413 103.419 93.5932L130.312 114.76C131.301 115.538 132.708 114.598 132.368 113.386L123.104 80.4401C122.687 78.9585 124.736 78.1098 125.489 79.4521L142.235 109.299C142.851 110.397 144.511 110.066 144.66 108.817L148.709 74.8333Z" fill="#FFB84F"/>
<rect x="300" y="329" width="300" height="133" transform="rotate(-180 300 329)" fill="white"/>
<rect x="300" y="196" width="300" height="54" transform="rotate(-180 300 196)" fill="#3661F6"/>
<path d="M150 300L-0.000148748 300L0.000154961 0.000265073L150 300Z" fill="#EF4B4B"/>
<path d="M150 300.403L300 300.404L300 0.403585L150 300.403Z" fill="#EF4B4B"/>
</g>
<defs>
<clipPath id="clip0_118:14">
<rect width="300" height="300" fill="white"/>
</clipPath>
</defs>
</svg>
