<svg width="300" height="300" viewBox="0 0 300 300" fill="none" xmlns="http://www.w3.org/2000/svg">
<rect width="300" height="300" fill="#EF4B4B"/>
<rect width="300" height="300" fill="#EF4B4B"/>
<path fill-rule="evenodd" clip-rule="evenodd" d="M161.089 227.916C158.4 225.594 155.141 220.893 155.187 216.361C155.428 212.981 157.755 211.018 159.258 215.143C161.384 219.696 165.942 227.226 172.224 222.809C174.968 220.802 174.926 217.849 171.163 218.187C166.516 217.87 163.661 215.324 161.582 208.767C161.203 205.16 162.709 205.251 164.811 207.57C167.512 210.658 172.888 215.324 178.82 212.823C182.116 211.447 183.046 208.608 178.067 207.909C173.352 207.978 169.504 204.934 165.673 200.29C163.573 197.721 166.671 195.128 168.531 197.315C170.19 198.734 172.513 201.349 174.505 201.71C176.807 202.16 179.661 201.936 182.824 200.268C186.233 197.426 185.126 195.376 180.988 194.904C177.78 195.063 176.032 196.277 171.895 193.528C164.457 188.521 158.544 181.831 157.621 173.783C157.014 168.49 159.871 166.887 162.246 167.497C168.708 169.152 172.934 181.178 177.405 187.785C178.868 189.689 180.213 189.72 181.164 189.133C182.957 187.602 184.389 186.343 186.183 184.631C186.183 184.631 199.334 186.985 206.496 189.31L198.522 192.133C195.502 190.472 191.858 192.262 191.858 195.144C189.001 197.112 189.231 199.419 190.464 201.646C190.84 200.095 191.161 198.081 193.418 197.814C196.639 199.141 200.392 197.247 200.392 194.741L209.799 191.058L219.303 196.417C219.303 200.04 222.749 201.188 226.335 200.21C228.024 201.255 229.111 203.068 229.683 205.007C230.741 202.21 230.52 200.236 228.863 198.864C229.814 195.249 224.728 191.773 220.79 194.088L213.953 190.178L225.656 189.851C227.014 192.246 231.923 192.378 233.355 189.851C234.579 189.517 235.614 189.305 238 191.072C237.248 188.213 235.785 186.99 233.589 186.99C231.921 184.046 225.884 184.06 225.012 187.374L212.824 187.712L220.056 182.583C222.755 184.171 226.543 182.406 227.302 179.522C228.378 178.248 229.705 177.649 232.317 178.514C230.971 176.139 229.074 175.43 225.647 177.042C222.522 174.683 218.402 177.544 219.027 179.92L209.405 186.44C202.422 184.364 189.773 181.132 189.773 181.132C191.279 179.554 192.807 178.088 194.31 176.488C194.853 175.551 194.023 174.46 192.871 174.233C181.585 171.913 175.124 167.382 171.208 155.864C169.571 151.041 173.111 149.6 174.328 152.55C176.011 156.653 177.868 161.138 182.936 164.611C184.683 165.828 189.886 164.834 186.809 161.927C183.622 159.312 182.25 158.188 180.68 151.83C180.68 148.608 183.976 147.164 185.815 150.252C187.782 156.585 187.983 159.312 191.544 163.393C194.243 166.481 197.762 168.556 199.509 168.509C202.653 168.465 205.818 165.082 201.613 162.626C195.438 160.169 193.182 156.812 192.273 153.609C191.279 148.022 192.365 145.316 195.749 148.065C200.549 153.497 209.712 163.617 214.512 168.329C219.891 172.432 226.063 172.565 230.975 168.397C233.787 165.173 232.789 161.704 228.387 162.446C218.452 163.281 210.929 158.368 202.675 145.089C201.059 142.092 200.616 137.787 204.181 140.99C208.294 146.534 214.292 151.245 219.87 153.274C225.468 155.277 230.091 154.171 231.883 152.417C234.044 150.265 233.476 144.844 229.737 146.151C226.66 147.233 222.324 147.503 217.811 145.767C213.295 144.008 208.605 140.222 203.626 133.799C201.921 130.171 202.476 127.105 205.928 128.975C214.093 135.874 224.627 141.462 230.002 138.104C233.964 135.647 234.031 129.336 229.008 129.742C218.894 131.115 215.067 128.885 205.352 120.344C203.141 118.697 203.294 114.526 206.812 117.188C214.978 122.44 226.13 124.49 230.512 121.741C234.452 119.284 233.875 111.777 227.237 114.436C221.925 117.66 216.061 117.57 204.312 109.208C201.348 106.752 203.559 103.549 205.992 104.925C215.442 110.289 229.207 112.588 232.79 101.679C234.183 97.5107 231.662 95.0758 227.966 97.9609C219.845 105.444 210.639 101.769 205.486 98.0044C204.01 97.138 201.302 92.7524 206.059 93.5662C218.363 96.3616 230.533 93.9267 232.747 85.2484C234.031 82.4312 231.505 77.4491 227.014 81.6205C221.108 87.4351 214.844 87.6367 206.968 87.5931C202.961 86.758 202.919 82.3628 206.282 81.7106C212.499 81.8438 218.629 79.1386 223.541 76.3898C228.344 73.641 232.326 69.7862 233.589 64.444C234.362 59.6666 229.737 54.5948 226.95 59.6666C222.833 67.0809 213.716 74.0694 203.58 75.3308C203.052 74.4513 201.723 72.1967 200.085 72.8302C197.109 73.9797 193.563 75.5176 189.912 77.2449C182.042 80.9673 178.762 82.7613 179.707 89.1928C180.693 95.904 175.499 100.145 171.208 98.9737C167.466 97.9705 165.402 94.6038 166.073 88.7644C166.61 84.1115 171.3 78.4833 176.585 75.532C180.006 73.6248 185.171 72.5816 191.389 71.2056C195.173 70.4633 197.1 68.9972 197.32 67.4628C197.32 67.4628 194.733 69.3481 190.593 69.0651C188.636 68.9258 187.324 68.068 186.83 67.1928C188.27 66.9011 190.88 67.2394 193.225 67.2394C196.344 67.2146 203.586 66.5188 205.507 62.145C206.105 59.2599 204.202 58.7413 202.431 60.5892C200.528 62.5865 199.744 64.3818 195.926 65.0523C193.603 65.4594 191.279 65.9318 188.291 65.2112C189.974 63.22 192.648 61.1827 194.929 61.5581C195.679 61.6826 196.676 62.3723 197.475 63.6115C197.963 60.4556 197.097 56.893 188.623 58.3808C188.757 55.9925 183.71 54.9549 180.68 55.0015C178.954 55.045 175.435 56.0609 172.892 57.2753C168.864 58.5175 164.881 59.4184 160.188 59.7572C162.911 62.0771 163.421 62.2138 166.14 64.1736C162.027 65.705 158.84 68.8609 157.401 70.9357C157.401 70.9357 162.204 70.802 163.421 71.3424C158.395 72.8054 156.138 73.6845 153.483 76.3898C154.413 76.5483 155.806 76.8182 156.404 77.0451C157.026 77.2689 156.864 77.6755 156.361 78.0578C155.279 78.8808 150.806 84.0553 149.5 85.2945C148.195 84.0553 143.722 78.8808 142.64 78.0578C142.137 77.6755 141.975 77.2689 142.597 77.0451C143.195 76.8186 144.588 76.5483 145.518 76.3898C142.862 73.6845 140.606 72.8054 135.58 71.3424C136.797 70.802 141.6 70.9357 141.6 70.9357C140.16 68.8609 136.974 65.705 132.86 64.1736C135.58 62.2138 136.09 62.0771 138.813 59.7567C134.12 59.4184 130.137 58.5175 126.109 57.2748C123.566 56.0609 120.047 55.045 118.321 55.0015C115.29 54.9549 110.243 55.9925 110.378 58.3804C101.904 56.893 101.038 60.4556 101.526 63.6115C102.324 62.3723 103.321 61.6826 104.072 61.5585C106.353 61.1827 109.027 63.22 110.71 65.2112C107.722 65.9318 105.398 65.4594 103.075 65.0527C99.2569 64.3822 98.4731 62.5865 96.5697 60.5897C94.7988 58.7413 92.8959 59.2599 93.4935 62.1454C95.4147 66.5188 102.656 67.2146 105.776 67.2394C108.121 67.2394 110.731 66.9007 112.171 67.1928C111.677 68.0689 110.365 68.9258 108.408 69.0651C104.267 69.3481 101.681 67.4628 101.681 67.4628C101.901 68.9972 103.827 70.4628 107.612 71.2056C113.83 72.5816 118.995 73.6253 122.416 75.5324C127.701 78.4833 132.391 84.1115 132.928 88.7644C133.598 94.6034 131.534 97.9705 127.792 98.9737C123.502 100.145 118.307 95.904 119.294 89.1928C120.239 82.7613 116.959 80.9673 109.089 77.2449C105.438 75.5176 101.892 73.9793 98.9155 72.8298C97.2779 72.1967 95.9485 74.4517 95.4209 75.3308C85.2846 74.0694 76.1674 67.0809 72.0507 59.6666C69.2635 54.5948 64.638 59.6666 65.4122 64.444C66.6747 69.7866 70.6571 73.641 75.4597 76.3898C80.3724 79.1386 86.5017 81.8438 92.7193 81.7106C96.0823 82.3628 96.0399 86.758 92.0329 87.5931C84.1563 87.6367 77.8933 87.4351 71.9865 81.6205C67.4952 77.4491 64.9702 82.4312 66.2541 85.2484C68.4678 93.9263 80.6377 96.3616 92.9418 93.5662C97.698 92.752 94.9907 97.1384 93.5144 98.0049C88.3617 101.769 79.1558 105.444 71.0352 97.9613C67.3396 95.0758 64.8172 97.5107 66.2113 101.679C69.7942 112.588 83.5588 110.289 93.0087 104.925C95.4423 103.549 97.653 106.752 94.6891 109.208C82.9398 117.57 77.0762 117.66 71.764 114.436C65.1258 111.777 64.5492 119.284 68.4893 121.741C72.8708 124.49 84.0226 122.44 92.1886 117.188C95.7076 114.526 95.8598 118.697 93.6487 120.344C83.9338 128.885 80.107 131.115 69.9926 129.742C64.9698 129.336 65.0371 135.646 68.9986 138.104C74.3742 141.461 84.9065 135.874 93.0725 128.975C96.5247 127.105 97.0794 130.171 95.375 133.799C90.3958 140.222 85.7052 144.008 81.1894 145.767C76.6767 147.503 72.3406 147.233 69.2639 146.151C65.525 144.844 64.9566 150.265 67.1171 152.417C68.9107 154.171 73.5327 155.277 79.1313 153.274C84.7085 151.245 90.7066 146.533 94.8202 140.99C98.3848 137.787 97.9424 142.092 96.3262 145.089C88.0719 158.368 80.5494 163.281 70.6143 162.446C66.2113 161.704 65.2141 165.173 68.0255 168.397C72.9382 172.565 79.1099 172.432 84.4886 168.329C89.2885 163.617 98.4512 153.497 103.251 148.065C106.636 145.316 107.722 148.022 106.728 153.609C105.819 156.812 103.563 160.169 97.3876 162.626C93.1822 165.083 96.3472 168.465 99.4916 168.508C101.239 168.556 104.758 166.481 107.457 163.393C111.018 159.312 111.22 156.585 113.186 150.252C115.025 147.164 118.321 148.608 118.321 151.829C116.751 158.188 115.379 159.312 112.192 161.927C109.115 164.834 114.318 165.828 116.065 164.611C121.133 161.138 122.989 156.653 124.672 152.55C125.889 149.6 129.43 151.041 127.792 155.864C123.877 167.381 117.416 171.913 106.13 174.233C104.977 174.46 104.148 175.551 104.69 176.488C106.194 178.088 107.722 179.554 109.228 181.132C109.228 181.132 96.5789 184.364 89.5949 186.44L79.9732 179.92C80.5984 177.544 76.4791 174.683 73.353 177.041C69.9262 175.43 68.0294 176.139 66.683 178.514C69.2954 177.649 70.6226 178.248 71.6988 179.522C72.4573 182.406 76.2452 184.171 78.9446 182.583L86.1764 187.712L73.9886 187.374C73.1165 184.06 67.0795 184.046 65.4109 186.99C63.2164 186.99 61.7519 188.213 61 191.072C63.3868 189.305 64.4216 189.517 65.6452 189.851C67.0773 192.378 71.9865 192.246 73.3443 189.851L85.0473 190.178L78.2102 194.088C74.2728 191.773 69.1865 195.249 70.1373 198.864C68.4805 200.236 68.2593 202.21 69.3177 205.007C69.8895 203.068 70.9762 201.255 72.6663 200.209C76.2509 201.188 79.6974 200.04 79.6974 196.417L89.2011 191.058L98.6086 194.741C98.6086 197.247 102.362 199.141 105.583 197.814C107.84 198.081 108.161 200.095 108.537 201.645C109.769 199.419 109.999 197.112 107.142 195.144C107.142 192.262 103.498 190.471 100.479 192.133L92.5042 189.31C99.666 186.985 112.818 184.631 112.818 184.631C114.611 186.342 116.043 187.602 117.837 189.133C118.788 189.72 120.133 189.689 121.596 187.785C126.066 181.178 130.293 169.152 136.754 167.497C139.13 166.887 141.987 168.49 141.38 173.783C140.456 181.831 134.543 188.521 127.106 193.528C122.968 196.277 121.221 195.063 118.013 194.904C113.875 195.376 112.768 197.426 116.177 200.268C119.34 201.936 122.194 202.16 124.496 201.71C126.487 201.349 128.811 198.734 130.47 197.315C132.33 195.128 135.428 197.721 133.327 200.29C129.497 204.934 125.649 207.978 120.934 207.909C115.955 208.608 116.885 211.447 120.181 212.823C126.112 215.324 131.488 210.658 134.19 207.57C136.291 205.251 137.797 205.16 137.419 208.767C135.339 215.324 132.485 217.87 127.838 218.187C124.075 217.849 124.032 220.802 126.777 222.809C133.059 227.226 137.617 219.696 139.743 215.143C141.246 211.019 143.572 212.981 143.814 216.361C143.859 220.893 140.6 225.594 137.912 227.916C135.224 230.238 149.5 245 149.5 245C149.5 245 163.776 230.238 161.089 227.916ZM180.22 60.7408C177.998 60.7408 176.625 61.5158 176.625 62.4563C176.625 63.4116 177.998 64.1902 180.22 64.1902C182.429 64.1902 183.832 63.3411 183.832 62.3845C183.832 61.444 182.428 60.7408 180.22 60.7408ZM118.781 60.7408C121.003 60.7408 122.376 61.5158 122.376 62.4563C122.376 63.4116 121.003 64.1902 118.781 64.1902C116.572 64.1902 115.169 63.3411 115.169 62.3845C115.169 61.444 116.572 60.7408 118.781 60.7408Z" fill="#252525" stroke="#252525" stroke-width="4" stroke-linejoin="round"/>
</svg>
