<svg width="300" height="300" viewBox="0 0 300 300" fill="none" xmlns="http://www.w3.org/2000/svg">
<g clip-path="url(#clip0_118:23)">
<rect width="300" height="300" fill="white"/>
<rect x="300" y="100" width="300" height="100" transform="rotate(-180 300 100)" fill="#3661F6"/>
<rect x="300" y="300" width="300" height="100" transform="rotate(-180 300 300)" fill="#3661F6"/>
<path d="M164.352 116.01C165.699 114.43 168.265 115.695 167.83 117.726L163.593 137.531C163.332 138.749 164.238 139.907 165.483 139.948L185.725 140.608C187.801 140.676 188.411 143.471 186.552 144.397L168.427 153.432C167.311 153.988 166.97 155.418 167.715 156.417L179.82 172.655C181.061 174.32 179.256 176.539 177.373 175.664L159.008 167.126C157.878 166.6 156.547 167.225 156.231 168.431L151.083 188.018C150.555 190.027 147.694 190 147.205 187.982L142.43 168.3C142.136 167.088 140.818 166.438 139.678 166.942L121.154 175.13C119.254 175.969 117.492 173.716 118.765 172.075L131.175 156.07C131.939 155.085 131.626 153.649 130.521 153.072L112.57 143.695C110.729 142.733 111.392 139.95 113.469 139.922L133.72 139.646C134.966 139.629 135.893 138.489 135.656 137.265L131.795 117.384C131.399 115.345 133.988 114.129 135.305 115.735L148.147 131.395C148.937 132.359 150.407 132.373 151.215 131.425L164.352 116.01Z" fill="#DAA75B"/>
<path d="M147.561 112.998C148.07 110.985 150.93 110.985 151.439 112.998L156.401 132.634C156.706 133.842 158.03 134.48 159.166 133.965L177.611 125.602C179.502 124.745 181.286 126.981 180.029 128.634L167.771 144.756C167.016 145.748 167.343 147.181 168.454 147.748L186.493 156.954C188.343 157.898 187.706 160.687 185.63 160.735L165.383 161.203C164.136 161.232 163.22 162.381 163.469 163.603L167.518 183.446C167.934 185.481 165.356 186.722 164.024 185.129L151.034 169.591C150.235 168.635 148.765 168.635 147.966 169.591L134.976 185.129C133.644 186.722 131.066 185.481 131.482 183.446L135.531 163.603C135.78 162.381 134.864 161.232 133.617 161.203L113.37 160.735C111.294 160.687 110.657 157.898 112.507 156.954L130.546 147.748C131.657 147.181 131.984 145.748 131.229 144.756L118.971 128.634C117.714 126.981 119.498 124.745 121.389 125.602L139.834 133.965C140.97 134.48 142.294 133.842 142.599 132.634L147.561 112.998Z" fill="#F0F359"/>
</g>
<defs>
<clipPath id="clip0_118:23">
<rect width="300" height="300" fill="white"/>
</clipPath>
</defs>
</svg>
