<svg width="300" height="300" viewBox="0 0 300 300" fill="none" xmlns="http://www.w3.org/2000/svg">
<g clip-path="url(#clip0_118:53)">
<rect width="300" height="300" fill="#003EBA"/>
<rect x="300" y="300" width="300" height="300" transform="rotate(-180 300 300)" fill="#003EBA"/>
<mask id="mask0_118:53" style="mask-type:alpha" maskUnits="userSpaceOnUse" x="0" y="0" width="137" height="83">
<rect x="137" y="82.2002" width="137" height="82.2" transform="rotate(-180 137 82.2002)" fill="#3662D5"/>
</mask>
<g mask="url(#mask0_118:53)">
<rect x="137" y="82.2002" width="137" height="82.2" transform="rotate(-180 137 82.2002)" fill="#3662D5"/>
<rect x="-15.5999" y="80.1401" width="235.649" height="16.5549" transform="rotate(-30 -15.5999 80.1401)" fill="white"/>
<rect width="235.649" height="16.5549" transform="matrix(-0.866025 -0.5 -0.5 0.866025 182.215 97.5483)" fill="white"/>
<rect x="-0.478109" y="0.128109" width="94.0374" height="7.94375" transform="matrix(-0.866025 -0.5 -0.5 0.866025 152.982 80.927)" fill="#EF4B4B" stroke="white" stroke-width="0.7"/>
<rect x="-2.9519" y="0.790958" width="90.4155" height="4.32188" transform="matrix(-0.866025 -0.5 -0.5 0.866025 61.2522 38.6007)" fill="#EF4B4B" stroke="white" stroke-width="4.32188"/>
<rect x="-0.478109" y="0.128109" width="94.0374" height="7.94375" transform="matrix(-0.866025 -0.5 -0.5 0.866025 65.5369 39.7488)" fill="#EF4B4B" stroke="white" stroke-width="0.7"/>
<rect x="57.7442" y="38.4548" width="94.0374" height="7.94375" transform="rotate(-30 57.7442 38.4548)" fill="#EF4B4B" stroke="white" stroke-width="0.7"/>
<rect x="-20.3459" y="92.4328" width="114.437" height="7.94375" transform="rotate(-30 -20.3459 92.4328)" fill="#EF4B4B" stroke="white" stroke-width="0.7"/>
<rect x="-1.5" y="1.5" width="232.649" height="13.5549" transform="matrix(-1 8.74228e-08 8.74228e-08 1 191.001 32.8799)" fill="#EF4B4B" stroke="white" stroke-width="3"/>
<rect x="-4.11" y="-4.11" width="73.98" height="8.22" transform="matrix(1.19249e-08 -1 -1 -1.19249e-08 68.5 27.1262)" fill="#EF4B4B" stroke="white" stroke-width="8.22"/>
<rect x="-4.11" y="-4.11" width="73.98" height="8.22" transform="matrix(1.19249e-08 -1 -1 -1.19249e-08 68.5 121.108)" fill="#EF4B4B" stroke="white" stroke-width="8.22"/>
<rect width="95" height="11" transform="matrix(1.19249e-08 -1 -1 -1.19249e-08 74 93)" fill="#EF4B4B"/>
</g>
<path d="M68.0246 154.318C68.2594 153.279 69.7406 153.279 69.9754 154.318L74.9734 176.444C75.1256 177.118 75.8987 177.438 76.4827 177.07L95.6624 164.958C96.5635 164.389 97.6109 165.436 97.0419 166.338L84.9304 185.517C84.5616 186.101 84.8818 186.874 85.5556 187.027L107.682 192.025C108.721 192.259 108.721 193.741 107.682 193.975L85.5556 198.973C84.8818 199.126 84.5616 199.899 84.9304 200.483L97.0419 219.662C97.6109 220.564 96.5635 221.611 95.6624 221.042L76.4827 208.93C75.8987 208.562 75.1256 208.882 74.9734 209.556L69.9754 231.682C69.7406 232.721 68.2594 232.721 68.0246 231.682L63.0266 209.556C62.8744 208.882 62.1013 208.562 61.5173 208.93L42.3376 221.042C41.4365 221.611 40.3891 220.564 40.9581 219.662L53.0696 200.483C53.4384 199.899 53.1182 199.126 52.4444 198.973L30.3182 193.975C29.2787 193.741 29.2787 192.259 30.3182 192.025L52.4444 187.027C53.1182 186.874 53.4384 186.101 53.0696 185.517L40.9581 166.338C40.3891 165.436 41.4365 164.389 42.3376 164.958L61.5173 177.07C62.1013 177.438 62.8744 177.118 63.0266 176.444L68.0246 154.318Z" fill="white"/>
<path d="M218.03 28.8368C218.285 27.8302 219.715 27.8302 219.97 28.8368L221.359 34.334C221.511 34.9383 222.173 35.2572 222.741 34.9998L227.905 32.6584C228.851 32.2296 229.742 33.3479 229.114 34.1744L225.682 38.6879C225.305 39.184 225.469 39.9005 226.024 40.1838L231.074 42.7613C231.999 43.2333 231.681 44.6278 230.642 44.6518L224.974 44.7828C224.351 44.7972 223.893 45.3718 224.017 45.9825L225.151 51.538C225.359 52.5553 224.07 53.1759 223.404 52.3793L219.767 48.0292C219.367 47.551 218.633 47.551 218.233 48.0292L214.596 52.3793C213.93 53.1759 212.641 52.5553 212.849 51.538L213.983 45.9825C214.107 45.3718 213.649 44.7972 213.026 44.7828L207.358 44.6518C206.319 44.6278 206.001 43.2333 206.926 42.7613L211.976 40.1838C212.531 39.9005 212.695 39.184 212.318 38.6879L208.886 34.1744C208.258 33.3479 209.149 32.2296 210.095 32.6584L215.259 34.9998C215.827 35.2572 216.489 34.9383 216.641 34.334L218.03 28.8368Z" fill="white"/>
<path d="M176.53 94.8368C176.785 93.8302 178.215 93.8302 178.47 94.8368L179.444 98.6944C179.597 99.2986 180.259 99.6175 180.827 99.3602L184.45 97.7171C185.396 97.2883 186.288 98.4066 185.659 99.2331L183.251 102.4C182.874 102.896 183.038 103.613 183.593 103.896L187.137 105.705C188.061 106.177 187.743 107.571 186.705 107.595L182.727 107.687C182.104 107.702 181.646 108.276 181.771 108.887L182.566 112.786C182.774 113.803 181.485 114.423 180.819 113.627L178.267 110.574C177.867 110.096 177.133 110.096 176.733 110.574L174.181 113.627C173.515 114.423 172.226 113.803 172.434 112.786L173.229 108.887C173.354 108.276 172.896 107.702 172.273 107.687L168.295 107.595C167.257 107.571 166.939 106.177 167.863 105.705L171.407 103.896C171.962 103.613 172.126 102.896 171.749 102.4L169.341 99.2331C168.712 98.4066 169.604 97.2883 170.55 97.7171L174.173 99.3602C174.741 99.6175 175.403 99.2986 175.556 98.6944L176.53 94.8368Z" fill="white"/>
<path d="M217.53 146.837C217.785 145.83 219.215 145.83 219.47 146.837L220.444 150.694C220.597 151.299 221.259 151.618 221.827 151.36L225.45 149.717C226.396 149.288 227.288 150.407 226.659 151.233L224.251 154.4C223.874 154.896 224.038 155.613 224.593 155.896L228.137 157.705C229.061 158.177 228.743 159.571 227.705 159.595L223.727 159.687C223.104 159.702 222.646 160.276 222.771 160.887L223.566 164.786C223.774 165.803 222.485 166.423 221.819 165.627L219.267 162.574C218.867 162.096 218.133 162.096 217.733 162.574L215.181 165.627C214.515 166.423 213.226 165.803 213.434 164.786L214.229 160.887C214.354 160.276 213.896 159.702 213.273 159.687L209.295 159.595C208.257 159.571 207.939 158.177 208.863 157.705L212.407 155.896C212.962 155.613 213.126 154.896 212.749 154.4L210.341 151.233C209.712 150.407 210.604 149.288 211.55 149.717L215.173 151.36C215.741 151.618 216.403 151.299 216.556 150.694L217.53 146.837Z" fill="white"/>
<path d="M233.549 113.927C233.848 113.006 235.152 113.006 235.451 113.927L235.959 115.491C236.093 115.903 236.477 116.182 236.91 116.182H238.555C239.524 116.182 239.927 117.422 239.143 117.991L237.812 118.958C237.462 119.213 237.315 119.664 237.449 120.076L237.957 121.641C238.257 122.562 237.202 123.328 236.418 122.759L235.088 121.792C234.737 121.537 234.263 121.537 233.912 121.792L232.582 122.759C231.798 123.328 230.743 122.562 231.043 121.641L231.551 120.076C231.685 119.664 231.538 119.213 231.188 118.958L229.857 117.991C229.073 117.422 229.476 116.182 230.445 116.182H232.09C232.523 116.182 232.907 115.903 233.041 115.491L233.549 113.927Z" fill="white"/>
<path d="M253.53 78.8368C253.785 77.8302 255.215 77.8302 255.47 78.8368L256.941 84.662C257.094 85.2662 257.756 85.5851 258.324 85.3277L263.796 82.8466C264.742 82.4179 265.633 83.5361 265.005 84.3626L261.368 89.1454C260.991 89.6415 261.155 90.358 261.71 90.6413L267.061 93.3726C267.986 93.8446 267.668 95.239 266.63 95.263L260.623 95.4019C260 95.4163 259.542 95.9909 259.667 96.6015L260.868 102.488C261.075 103.506 259.787 104.126 259.121 103.33L255.267 98.7202C254.867 98.242 254.133 98.242 253.733 98.7202L249.879 103.33C249.213 104.126 247.925 103.506 248.132 102.488L249.333 96.6015C249.458 95.9909 249 95.4163 248.377 95.4019L242.37 95.263C241.332 95.239 241.014 93.8446 241.939 93.3726L247.29 90.6413C247.845 90.358 248.009 89.6415 247.632 89.1454L243.995 84.3627C243.367 83.5361 244.258 82.4179 245.204 82.8466L250.676 85.3277C251.244 85.5851 251.906 85.2662 252.059 84.662L253.53 78.8368Z" fill="white"/>
</g>
<defs>
<clipPath id="clip0_118:53">
<rect width="300" height="300" fill="white"/>
</clipPath>
</defs>
</svg>
