<svg width="300" height="300" viewBox="0 0 300 300" fill="none" xmlns="http://www.w3.org/2000/svg">
<g clip-path="url(#clip0_118:2)">
<rect width="300" height="300" fill="#EB5757"/>
<circle cx="147" cy="150" r="39" fill="white"/>
<circle cx="156" cy="150" r="33" fill="#EB5757"/>
<path d="M171.921 138.12C172.082 137.531 172.918 137.531 173.079 138.12L174.518 143.39C174.621 143.768 175.053 143.947 175.394 143.753L180.138 141.044C180.668 140.741 181.259 141.332 180.956 141.862L178.247 146.606C178.053 146.947 178.232 147.379 178.61 147.482L183.88 148.921C184.469 149.082 184.469 149.918 183.88 150.079L178.61 151.518C178.232 151.621 178.053 152.053 178.247 152.394L180.956 157.138C181.259 157.668 180.668 158.259 180.138 157.956L175.394 155.247C175.053 155.053 174.621 155.232 174.518 155.61L173.079 160.88C172.918 161.469 172.082 161.469 171.921 160.88L170.482 155.61C170.379 155.232 169.947 155.053 169.606 155.247L164.862 157.956C164.332 158.259 163.741 157.668 164.044 157.138L166.753 152.394C166.947 152.053 166.768 151.621 166.39 151.518L161.12 150.079C160.531 149.918 160.531 149.082 161.12 148.921L166.39 147.482C166.768 147.379 166.947 146.947 166.753 146.606L164.044 141.862C163.741 141.332 164.332 140.741 164.862 141.044L169.606 143.753C169.947 143.947 170.379 143.768 170.482 143.39L171.921 138.12Z" fill="white"/>
<rect x="300" y="300" width="300" height="100" transform="rotate(-180 300 300)" fill="#4DBB58"/>
<rect x="300" y="99" width="300" height="100" transform="rotate(-180 300 99)" fill="#59AFFF"/>
</g>
<defs>
<clipPath id="clip0_118:2">
<rect width="300" height="300" fill="white"/>
</clipPath>
</defs>
</svg>
