<svg width="300" height="300" viewBox="0 0 300 300" fill="none" xmlns="http://www.w3.org/2000/svg">
<g clip-path="url(#clip0_118:65)">
<rect width="300" height="300" fill="#003EBA"/>
<rect x="300" y="300" width="300" height="300" transform="rotate(-180 300 300)" fill="#003EBA"/>
<path d="M132.049 129.927C132.348 129.006 133.652 129.006 133.951 129.927L137.939 142.202C138.073 142.614 138.457 142.893 138.89 142.893H151.797C152.765 142.893 153.168 144.132 152.384 144.702L141.943 152.288C141.593 152.542 141.446 152.994 141.58 153.406L145.568 165.68C145.867 166.602 144.813 167.368 144.029 166.798L133.588 159.212C133.237 158.958 132.763 158.958 132.412 159.212L121.971 166.798C121.187 167.368 120.133 166.602 120.432 165.68L124.42 153.406C124.554 152.994 124.407 152.542 124.057 152.288L113.616 144.702C112.832 144.132 113.235 142.893 114.203 142.893H127.11C127.543 142.893 127.927 142.614 128.061 142.202L132.049 129.927Z" fill="white"/>
<path d="M164.049 179.927C164.348 179.006 165.652 179.006 165.951 179.927L169.939 192.202C170.073 192.614 170.457 192.893 170.89 192.893H183.797C184.765 192.893 185.168 194.132 184.384 194.702L173.943 202.288C173.593 202.542 173.446 202.994 173.58 203.406L177.568 215.68C177.867 216.602 176.813 217.368 176.029 216.798L165.588 209.212C165.237 208.958 164.763 208.958 164.412 209.212L153.971 216.798C153.187 217.368 152.133 216.602 152.432 215.68L156.42 203.406C156.554 202.994 156.407 202.542 156.057 202.288L145.616 194.702C144.832 194.132 145.235 192.893 146.203 192.893H159.11C159.543 192.893 159.927 192.614 160.061 192.202L164.049 179.927Z" fill="white"/>
<path d="M196.049 229.927C196.348 229.006 197.652 229.006 197.951 229.927L201.939 242.202C202.073 242.614 202.457 242.893 202.89 242.893H215.797C216.765 242.893 217.168 244.132 216.384 244.702L205.943 252.288C205.593 252.542 205.446 252.994 205.58 253.406L209.568 265.68C209.867 266.602 208.813 267.368 208.029 266.798L197.588 259.212C197.237 258.958 196.763 258.958 196.412 259.212L185.971 266.798C185.187 267.368 184.133 266.602 184.432 265.68L188.42 253.406C188.554 252.994 188.407 252.542 188.057 252.288L177.616 244.702C176.832 244.132 177.235 242.893 178.203 242.893H191.11C191.543 242.893 191.927 242.614 192.061 242.202L196.049 229.927Z" fill="white"/>
<path d="M228.049 279.927C228.348 279.006 229.652 279.006 229.951 279.927L233.939 292.202C234.073 292.614 234.457 292.893 234.89 292.893H247.797C248.765 292.893 249.168 294.132 248.384 294.702L237.943 302.288C237.593 302.542 237.446 302.994 237.58 303.406L241.568 315.68C241.867 316.602 240.813 317.368 240.029 316.798L229.588 309.212C229.237 308.958 228.763 308.958 228.412 309.212L217.971 316.798C217.187 317.368 216.133 316.602 216.432 315.68L220.42 303.406C220.554 302.994 220.407 302.542 220.057 302.288L209.616 294.702C208.832 294.132 209.235 292.893 210.203 292.893H223.11C223.543 292.893 223.927 292.614 224.061 292.202L228.049 279.927Z" fill="white"/>
<path d="M36.0489 -20.0729C36.3483 -20.9943 37.6517 -20.9943 37.9511 -20.0729L41.9393 -7.79838C42.0732 -7.38635 42.4571 -7.10739 42.8904 -7.10739H55.7966C56.7653 -7.10739 57.1681 -5.86778 56.3844 -5.29837L45.943 2.28773C45.5925 2.54238 45.4459 2.99374 45.5798 3.40577L49.568 15.6803C49.8674 16.6017 48.8129 17.3678 48.0292 16.7984L37.5878 9.21227C37.2373 8.95762 36.7627 8.95762 36.4122 9.21227L25.9708 16.7984C25.1871 17.3678 24.1326 16.6017 24.432 15.6803L28.4202 3.40577C28.5541 2.99374 28.4075 2.54238 28.057 2.28773L17.6156 -5.29837C16.8319 -5.86777 17.2347 -7.10739 18.2034 -7.10739H31.1096C31.5429 -7.10739 31.9268 -7.38635 32.0607 -7.79837L36.0489 -20.0729Z" fill="white"/>
<path d="M68.0489 29.9271C68.3483 29.0057 69.6517 29.0057 69.9511 29.9271L73.9393 42.2016C74.0732 42.6136 74.4571 42.8926 74.8904 42.8926H87.7966C88.7653 42.8926 89.1681 44.1322 88.3844 44.7016L77.943 52.2877C77.5925 52.5424 77.4459 52.9937 77.5798 53.4058L81.568 65.6803C81.8674 66.6017 80.8129 67.3678 80.0292 66.7984L69.5878 59.2123C69.2373 58.9576 68.7627 58.9576 68.4122 59.2123L57.9708 66.7984C57.1871 67.3678 56.1326 66.6017 56.432 65.6803L60.4202 53.4058C60.5541 52.9937 60.4075 52.5424 60.057 52.2877L49.6156 44.7016C48.8319 44.1322 49.2347 42.8926 50.2034 42.8926H63.1096C63.5429 42.8926 63.9268 42.6136 64.0607 42.2016L68.0489 29.9271Z" fill="white"/>
<path d="M100.049 79.9271C100.348 79.0057 101.652 79.0057 101.951 79.9271L105.939 92.2016C106.073 92.6136 106.457 92.8926 106.89 92.8926H119.797C120.765 92.8926 121.168 94.1322 120.384 94.7016L109.943 102.288C109.593 102.542 109.446 102.994 109.58 103.406L113.568 115.68C113.867 116.602 112.813 117.368 112.029 116.798L101.588 109.212C101.237 108.958 100.763 108.958 100.412 109.212L89.9708 116.798C89.1871 117.368 88.1326 116.602 88.432 115.68L92.4202 103.406C92.5541 102.994 92.4075 102.542 92.057 102.288L81.6156 94.7016C80.8319 94.1322 81.2347 92.8926 82.2034 92.8926H95.1096C95.5429 92.8926 95.9268 92.6136 96.0607 92.2016L100.049 79.9271Z" fill="white"/>
<path d="M79.5 0H279V300L79.5 0Z" fill="#FFB84F"/>
</g>
<defs>
<clipPath id="clip0_118:65">
<rect width="300" height="300" fill="white"/>
</clipPath>
</defs>
</svg>
