<svg width="300" height="300" viewBox="0 0 300 300" fill="none" xmlns="http://www.w3.org/2000/svg">
<g clip-path="url(#clip0_118:101)">
<rect width="300" height="300" fill="white"/>
<rect x="100" y="300" width="100" height="300" transform="rotate(-180 100 300)" fill="#003EBA"/>
<rect x="300" y="300" width="100" height="300" transform="rotate(-180 300 300)" fill="#003EBA"/>
<path d="M200 300L100 300L100 -8.74228e-06L200 0L200 300Z" fill="#FFB84F"/>
<rect x="143" y="121" width="14" height="90" fill="#3C3C3C"/>
<path d="M185 164.765L185 173C185 173 163.681 171.235 150 171.235C136.319 171.235 115 173 115 173L115 164.765C115 164.765 136.319 163 150 163C163.681 163 185 164.765 185 164.765Z" fill="#3C3C3C"/>
<path d="M148.609 90.7564C148.979 90.0266 150.022 90.0266 150.392 90.7564L170.707 130.773C171.075 131.497 170.477 132.34 169.672 132.231C165.657 131.685 156.167 130.5 149.5 130.5C142.834 130.5 133.344 131.685 129.329 132.231C128.524 132.34 127.926 131.497 128.294 130.773L148.609 90.7564Z" fill="#3C3C3C"/>
<rect x="109.488" y="128.302" width="7.73793" height="44.9933" transform="rotate(-6.25386 109.488 128.302)" fill="#3C3C3C"/>
<path d="M110.438 112.173C110.727 111.407 111.763 111.293 112.211 111.978L124.826 131.278C125.27 131.958 124.763 132.863 123.951 132.847C121.407 132.797 116.881 132.774 113.632 133.13C110.383 133.487 105.969 134.489 103.497 135.089C102.707 135.28 102.016 134.506 102.303 133.747L110.438 112.173Z" fill="#3C3C3C"/>
<rect width="7.73793" height="44.9933" transform="matrix(-0.994049 -0.108934 -0.108934 0.994049 189.606 128.302)" fill="#3C3C3C"/>
<path d="M188.656 112.173C188.367 111.407 187.331 111.293 186.883 111.978L174.269 131.278C173.824 131.958 174.331 132.863 175.144 132.847C177.687 132.797 182.213 132.774 185.462 133.13C188.711 133.487 193.125 134.489 195.598 135.089C196.387 135.28 197.078 134.506 196.792 133.747L188.656 112.173Z" fill="#3C3C3C"/>
</g>
<defs>
<clipPath id="clip0_118:101">
<rect width="300" height="300" fill="white"/>
</clipPath>
</defs>
</svg>
