<svg width="300" height="300" viewBox="0 0 300 300" fill="none" xmlns="http://www.w3.org/2000/svg">
<g clip-path="url(#clip0_118:132)">
<rect width="300" height="300" fill="#EF4B4B"/>
<rect y="300" width="150" height="300" transform="rotate(-90 0 300)" fill="#3B9644"/>
<path d="M146.196 105.708C147.393 102.023 152.607 102.023 153.804 105.708L161.675 129.931C162.21 131.579 163.746 132.695 165.479 132.695H190.948C194.823 132.695 196.434 137.654 193.3 139.931L172.694 154.902C171.292 155.92 170.706 157.726 171.241 159.374L179.112 183.597C180.309 187.282 176.091 190.346 172.956 188.069L152.351 173.098C150.949 172.08 149.051 172.08 147.649 173.098L127.044 188.069C123.909 190.346 119.691 187.282 120.888 183.597L128.759 159.374C129.294 157.726 128.708 155.92 127.306 154.902L106.7 139.931C103.566 137.654 105.177 132.695 109.052 132.695H134.521C136.254 132.695 137.79 131.579 138.325 129.931L146.196 105.708Z" fill="#FFB84F"/>
</g>
<defs>
<clipPath id="clip0_118:132">
<rect width="300" height="300" fill="white"/>
</clipPath>
</defs>
</svg>
