<svg width="300" height="300" viewBox="0 0 300 300" fill="none" xmlns="http://www.w3.org/2000/svg">
<g clip-path="url(#clip0_118:1530)">
<rect width="300" height="300" fill="#EF4B4B"/>
<rect width="300" height="300" fill="#EF4B4B"/>
<rect width="43" height="300" fill="white"/>
<path d="M129.798 22.5683C131.774 23.0982 131.774 25.9018 129.798 26.4317L44.2681 49.3723C42.9978 49.7131 41.75 48.7559 41.75 47.4406L41.75 1.55938C41.75 0.244115 42.9978 -0.713082 44.2681 -0.372348L129.798 22.5683Z" fill="white"/>
<path d="M130.17 73.075C132.114 73.6227 132.114 76.3773 130.17 76.925L44.2926 101.13C43.0165 101.49 41.75 100.531 41.75 99.2052L41.75 50.7948C41.75 49.4691 43.0165 48.5102 44.2926 48.8698L130.17 73.075Z" fill="white"/>
<path d="M129.926 123.07C131.891 123.606 131.891 126.394 129.926 126.93L44.2763 150.292C43.004 150.639 41.75 149.681 41.75 148.362L41.75 101.638C41.75 100.319 43.004 99.3613 44.2763 99.7083L129.926 123.07Z" fill="white"/>
<path d="M129.926 173.07C131.891 173.606 131.891 176.394 129.926 176.93L44.2763 200.292C43.004 200.639 41.75 199.681 41.75 198.362L41.75 151.638C41.75 150.319 43.004 149.361 44.2763 149.708L129.926 173.07Z" fill="white"/>
<path d="M130.05 222.573C132.004 223.115 132.004 225.885 130.05 226.427L44.2845 250.211C43.0103 250.564 41.75 249.606 41.75 248.284L41.75 200.716C41.75 199.394 43.0103 198.436 44.2845 198.789L130.05 222.573Z" fill="white"/>
<path d="M129.798 273.568C131.774 274.098 131.774 276.902 129.798 277.432L44.2681 300.372C42.9978 300.713 41.75 299.756 41.75 298.441L41.75 252.559C41.75 251.244 42.9978 250.287 44.2681 250.628L129.798 273.568Z" fill="white"/>
</g>
<defs>
<clipPath id="clip0_118:1530">
<rect width="300" height="300" fill="white"/>
</clipPath>
</defs>
</svg>
