<svg width="300" height="300" viewBox="0 0 300 300" fill="none" xmlns="http://www.w3.org/2000/svg">
<g clip-path="url(#clip0_118:135)">
<rect width="300" height="300" fill="white"/>
<rect x="22" y="300.25" width="181.373" height="181.373" transform="rotate(-45 22 300.25)" fill="#EF4B4B"/>
<rect x="22" y="0.25" width="181.373" height="181.373" transform="rotate(-45 22 0.25)" fill="#EF4B4B"/>
<rect x="-128" y="150.25" width="181.373" height="181.373" transform="rotate(-45 -128 150.25)" fill="#3B9644"/>
<rect x="172" y="150.25" width="181.373" height="181.373" transform="rotate(-45 172 150.25)" fill="#3B9644"/>
<rect x="81" y="81" width="138" height="138" rx="69" fill="white"/>
<path d="M146.468 108.334L150 102.058L153.532 108.334C153.98 109.13 154.826 109.618 155.738 109.608L162.94 109.529L159.271 115.726C158.806 116.512 158.806 117.488 159.271 118.274L162.94 124.471L155.738 124.392C154.826 124.382 153.98 124.87 153.532 125.666L150 131.942L146.468 125.666C146.02 124.87 145.174 124.382 144.262 124.392L137.06 124.471L140.729 118.274L139.438 117.509L140.729 118.274C141.194 117.488 141.194 116.512 140.729 115.726L137.06 109.529L144.262 109.608C145.174 109.618 146.02 109.13 146.468 108.334Z" fill="#EF4B4B" stroke="#3B9644" stroke-width="3"/>
<path d="M179.468 163.334L183 157.058L186.532 163.334C186.98 164.13 187.826 164.618 188.738 164.608L195.94 164.529L192.271 170.726C191.806 171.512 191.806 172.488 192.271 173.274L195.94 179.471L188.738 179.392C187.826 179.382 186.98 179.87 186.532 180.666L183 186.942L179.468 180.666C179.02 179.87 178.174 179.382 177.262 179.392L170.06 179.471L173.729 173.274L172.438 172.509L173.729 173.274C174.194 172.488 174.194 171.512 173.729 170.726L170.06 164.529L177.262 164.608C178.174 164.618 179.02 164.13 179.468 163.334Z" fill="#EF4B4B" stroke="#3B9644" stroke-width="3"/>
<path d="M113.468 164.334L117 158.058L120.532 164.334C120.98 165.13 121.826 165.618 122.738 165.608L129.94 165.529L126.271 171.726C125.806 172.512 125.806 173.488 126.271 174.274L129.94 180.471L122.738 180.392C121.826 180.382 120.98 180.87 120.532 181.666L117 187.942L113.468 181.666C113.02 180.87 112.174 180.382 111.262 180.392L104.06 180.471L107.729 174.274L106.438 173.509L107.729 174.274C108.194 173.488 108.194 172.512 107.729 171.726L104.06 165.529L111.262 165.608C112.174 165.618 113.02 165.13 113.468 164.334Z" fill="#EF4B4B" stroke="#3B9644" stroke-width="3"/>
</g>
<defs>
<clipPath id="clip0_118:135">
<rect width="300" height="300" fill="white"/>
</clipPath>
</defs>
</svg>
