<svg width="300" height="300" viewBox="0 0 300 300" fill="none" xmlns="http://www.w3.org/2000/svg">
<g clip-path="url(#clip0_118:707)">
<rect width="300" height="300" fill="#FF4A4A"/>
<rect width="300" height="300" fill="#FF4A4A"/>
<rect y="218" width="300" height="81.9999" fill="#3B9644"/>
<rect x="51" width="300" height="51" transform="rotate(90 51 0)" fill="white"/>
<rect x="6" width="300" height="2.99999" transform="rotate(90 6 0)" fill="#FF4A4A"/>
<rect x="48" width="300" height="2.99999" transform="rotate(90 48 0)" fill="#FF4A4A"/>
<path d="M18.0143 14.762C18.2039 13.6535 19.7961 13.6535 19.9857 14.762L25.7283 48.3314C25.8328 48.9422 25.3623 49.5 24.7426 49.5H13.2574C12.6377 49.5 12.1672 48.9422 12.2717 48.3314L18.0143 14.762Z" fill="#FF4A4A"/>
<path d="M19.9857 82.238C19.796 83.3465 18.2039 83.3465 18.0143 82.238L12.2717 48.6686C12.1672 48.0578 12.6377 47.5 13.2574 47.5L24.7426 47.5C25.3623 47.5 25.8328 48.0578 25.7283 48.6686L19.9857 82.238Z" fill="#FF4A4A"/>
<path d="M32.0143 14.762C32.2039 13.6535 33.7961 13.6535 33.9857 14.762L39.7283 48.3314C39.8328 48.9422 39.3623 49.5 38.7426 49.5H27.2574C26.6377 49.5 26.1672 48.9422 26.2717 48.3314L32.0143 14.762Z" fill="#FF4A4A"/>
<path d="M33.9857 82.238C33.796 83.3465 32.2039 83.3465 32.0143 82.238L26.2717 48.6686C26.1672 48.0578 26.6377 47.5 27.2574 47.5L38.7426 47.5C39.3623 47.5 39.8328 48.0578 39.7283 48.6686L33.9857 82.238Z" fill="#FF4A4A"/>
<path d="M18.0143 81.762C18.2039 80.6535 19.7961 80.6535 19.9857 81.762L25.7283 115.331C25.8328 115.942 25.3623 116.5 24.7426 116.5H13.2574C12.6377 116.5 12.1672 115.942 12.2717 115.331L18.0143 81.762Z" fill="#FF4A4A"/>
<path d="M19.9857 149.238C19.796 150.347 18.2039 150.347 18.0143 149.238L12.2717 115.669C12.1672 115.058 12.6377 114.5 13.2574 114.5L24.7426 114.5C25.3623 114.5 25.8328 115.058 25.7283 115.669L19.9857 149.238Z" fill="#FF4A4A"/>
<path d="M32.0143 81.762C32.2039 80.6535 33.7961 80.6535 33.9857 81.762L39.7283 115.331C39.8328 115.942 39.3623 116.5 38.7426 116.5H27.2574C26.6377 116.5 26.1672 115.942 26.2717 115.331L32.0143 81.762Z" fill="#FF4A4A"/>
<path d="M33.9857 149.238C33.796 150.347 32.2039 150.347 32.0143 149.238L26.2717 115.669C26.1672 115.058 26.6377 114.5 27.2574 114.5L38.7426 114.5C39.3623 114.5 39.8328 115.058 39.7283 115.669L33.9857 149.238Z" fill="#FF4A4A"/>
<path d="M18.0143 149.762C18.2039 148.653 19.7961 148.653 19.9857 149.762L25.7283 183.331C25.8328 183.942 25.3623 184.5 24.7426 184.5H13.2574C12.6377 184.5 12.1672 183.942 12.2717 183.331L18.0143 149.762Z" fill="#FF4A4A"/>
<path d="M19.9857 217.238C19.796 218.347 18.2039 218.347 18.0143 217.238L12.2717 183.669C12.1672 183.058 12.6377 182.5 13.2574 182.5L24.7426 182.5C25.3623 182.5 25.8328 183.058 25.7283 183.669L19.9857 217.238Z" fill="#FF4A4A"/>
<path d="M32.0143 149.762C32.2039 148.653 33.7961 148.653 33.9857 149.762L39.7283 183.331C39.8328 183.942 39.3623 184.5 38.7426 184.5H27.2574C26.6377 184.5 26.1672 183.942 26.2717 183.331L32.0143 149.762Z" fill="#FF4A4A"/>
<path d="M33.9857 217.238C33.796 218.347 32.2039 218.347 32.0143 217.238L26.2717 183.669C26.1672 183.058 26.6377 182.5 27.2574 182.5L38.7426 182.5C39.3623 182.5 39.8328 183.058 39.7283 183.669L33.9857 217.238Z" fill="#FF4A4A"/>
<path d="M18.0143 216.762C18.2039 215.653 19.7961 215.653 19.9857 216.762L25.7283 250.331C25.8328 250.942 25.3623 251.5 24.7426 251.5H13.2574C12.6377 251.5 12.1672 250.942 12.2717 250.331L18.0143 216.762Z" fill="#FF4A4A"/>
<path d="M19.9857 284.238C19.796 285.347 18.2039 285.347 18.0143 284.238L12.2717 250.669C12.1672 250.058 12.6377 249.5 13.2574 249.5L24.7426 249.5C25.3623 249.5 25.8328 250.058 25.7283 250.669L19.9857 284.238Z" fill="#FF4A4A"/>
<path d="M32.0143 216.762C32.2039 215.653 33.7961 215.653 33.9857 216.762L39.7283 250.331C39.8328 250.942 39.3623 251.5 38.7426 251.5H27.2574C26.6377 251.5 26.1672 250.942 26.2717 250.331L32.0143 216.762Z" fill="#FF4A4A"/>
<path d="M33.9857 284.238C33.796 285.347 32.2039 285.347 32.0143 284.238L26.2717 250.669C26.1672 250.058 26.6377 249.5 27.2574 249.5L38.7426 249.5C39.3623 249.5 39.8328 250.058 39.7283 250.669L33.9857 284.238Z" fill="#FF4A4A"/>
</g>
<defs>
<clipPath id="clip0_118:707">
<rect width="300" height="300" fill="white"/>
</clipPath>
</defs>
</svg>
