<svg width="300" height="300" viewBox="0 0 300 300" fill="none" xmlns="http://www.w3.org/2000/svg">
<g clip-path="url(#clip0_118:1496)">
<rect width="300" height="300" fill="white"/>
<rect x="309.869" y="-25.0811" width="485.991" height="227.066" transform="rotate(135 309.869 -25.0811)" fill="#3661F6"/>
<rect x="473.208" y="153.56" width="485.991" height="227.066" transform="rotate(135 473.208 153.56)" fill="#3661F6"/>
<rect x="352.585" y="-3.13281" width="513.753" height="73" transform="rotate(135 352.585 -3.13281)" fill="#EF4B4B" stroke="#FFB84F" stroke-width="10"/>
<path d="M59.669 33.0144C60.494 30.8857 63.506 30.8857 64.331 33.0144L71.2746 50.9297C71.6293 51.8449 72.4867 52.4678 73.4667 52.5224L92.6508 53.5899C94.9303 53.7168 95.8611 56.5814 94.0915 58.0238L79.1987 70.1637C78.438 70.7838 78.1104 71.7918 78.3614 72.7407L83.2743 91.3158C83.8581 93.5229 81.4213 95.2933 79.5026 94.0561L63.3548 83.6436C62.5299 83.1117 61.4701 83.1117 60.6452 83.6436L44.4974 94.0561C42.5787 95.2933 40.1419 93.5229 40.7257 91.3158L45.6386 72.7407C45.8896 71.7918 45.5621 70.7838 44.8013 70.1637L29.9085 58.0238C28.1389 56.5814 29.0697 53.7168 31.3492 53.5899L50.5333 52.5224C51.5133 52.4678 52.3707 51.8449 52.7254 50.9297L59.669 33.0144Z" fill="#FFB84F"/>
</g>
<defs>
<clipPath id="clip0_118:1496">
<rect width="300" height="300" fill="white"/>
</clipPath>
</defs>
</svg>
