<svg width="300" height="300" viewBox="0 0 300 300" fill="none" xmlns="http://www.w3.org/2000/svg">
<g clip-path="url(#clip0_118:181)">
<rect width="300" height="300" fill="#003EBA"/>
<rect x="300" y="300" width="300" height="300" transform="rotate(-180 300 300)" fill="#003EBA"/>
<mask id="mask0_118:181" style="mask-type:alpha" maskUnits="userSpaceOnUse" x="0" y="0" width="137" height="83">
<rect x="137" y="82.2002" width="137" height="82.2" transform="rotate(-180 137 82.2002)" fill="#3662D5"/>
</mask>
<g mask="url(#mask0_118:181)">
<rect x="137" y="82.2002" width="137" height="82.2" transform="rotate(-180 137 82.2002)" fill="#3662D5"/>
<rect x="-15.5999" y="80.1401" width="235.649" height="16.5549" transform="rotate(-30 -15.5999 80.1401)" fill="white"/>
<rect width="235.649" height="16.5549" transform="matrix(-0.866025 -0.5 -0.5 0.866025 182.215 97.5483)" fill="white"/>
<rect x="-0.478109" y="0.128109" width="94.0374" height="7.94375" transform="matrix(-0.866025 -0.5 -0.5 0.866025 152.982 80.927)" fill="#EF4B4B" stroke="white" stroke-width="0.7"/>
<rect x="-2.9519" y="0.790958" width="90.4155" height="4.32188" transform="matrix(-0.866025 -0.5 -0.5 0.866025 61.2522 38.6007)" fill="#EF4B4B" stroke="white" stroke-width="4.32188"/>
<rect x="-0.478109" y="0.128109" width="94.0374" height="7.94375" transform="matrix(-0.866025 -0.5 -0.5 0.866025 65.5369 39.7488)" fill="#EF4B4B" stroke="white" stroke-width="0.7"/>
<rect x="57.7442" y="38.4548" width="94.0374" height="7.94375" transform="rotate(-30 57.7442 38.4548)" fill="#EF4B4B" stroke="white" stroke-width="0.7"/>
<rect x="-20.3459" y="92.4328" width="114.437" height="7.94375" transform="rotate(-30 -20.3459 92.4328)" fill="#EF4B4B" stroke="white" stroke-width="0.7"/>
<rect x="-1.5" y="1.5" width="232.649" height="13.5549" transform="matrix(-1 8.74228e-08 8.74228e-08 1 191.001 32.8799)" fill="#EF4B4B" stroke="white" stroke-width="3"/>
<rect x="-4.11" y="-4.11" width="73.98" height="8.22" transform="matrix(1.19249e-08 -1 -1 -1.19249e-08 68.5 27.1262)" fill="#EF4B4B" stroke="white" stroke-width="8.22"/>
<rect x="-4.11" y="-4.11" width="73.98" height="8.22" transform="matrix(1.19249e-08 -1 -1 -1.19249e-08 68.5 121.108)" fill="#EF4B4B" stroke="white" stroke-width="8.22"/>
<rect width="95" height="11" transform="matrix(1.19249e-08 -1 -1 -1.19249e-08 74 93)" fill="#EF4B4B"/>
</g>
<path d="M194.066 100.138C194.366 99.2167 195.669 99.2167 195.968 100.138L198.79 108.824C198.924 109.236 199.308 109.515 199.741 109.515L208.874 109.515C209.843 109.515 210.246 110.754 209.462 111.324L202.073 116.692C201.723 116.946 201.576 117.398 201.71 117.81L204.532 126.495C204.832 127.417 203.777 128.183 202.993 127.613L195.605 122.245C195.255 121.991 194.78 121.991 194.429 122.245L187.041 127.613C186.257 128.183 185.203 127.417 185.502 126.495L188.324 117.81C188.458 117.398 188.311 116.946 187.961 116.692L180.573 111.324C179.789 110.754 180.192 109.515 181.16 109.515L190.293 109.515C190.726 109.515 191.11 109.236 191.244 108.824L194.066 100.138Z" fill="white"/>
<path d="M132.066 162.138C132.366 161.217 133.669 161.217 133.968 162.138L136.79 170.824C136.924 171.236 137.308 171.515 137.741 171.515L146.874 171.515C147.843 171.515 148.246 172.754 147.462 173.324L140.073 178.692C139.723 178.946 139.576 179.398 139.71 179.81L142.532 188.495C142.832 189.417 141.777 190.183 140.993 189.613L133.605 184.245C133.255 183.991 132.78 183.991 132.429 184.245L125.041 189.613C124.257 190.183 123.203 189.417 123.502 188.495L126.324 179.81C126.458 179.398 126.311 178.946 125.961 178.692L118.573 173.324C117.789 172.754 118.192 171.515 119.16 171.515L128.293 171.515C128.726 171.515 129.11 171.236 129.244 170.824L132.066 162.138Z" fill="white"/>
<path d="M256.066 162.138C256.366 161.217 257.669 161.217 257.968 162.138L260.79 170.824C260.924 171.236 261.308 171.515 261.741 171.515L270.874 171.515C271.843 171.515 272.246 172.754 271.462 173.324L264.073 178.692C263.723 178.946 263.576 179.398 263.71 179.81L266.532 188.495C266.832 189.417 265.777 190.183 264.993 189.613L257.605 184.245C257.255 183.991 256.78 183.991 256.429 184.245L249.041 189.613C248.257 190.183 247.203 189.417 247.502 188.495L250.324 179.81C250.458 179.398 250.311 178.946 249.961 178.692L242.573 173.324C241.789 172.754 242.192 171.515 243.16 171.515L252.293 171.515C252.726 171.515 253.11 171.236 253.244 170.824L256.066 162.138Z" fill="white"/>
<path d="M194.066 224.138C194.366 223.217 195.669 223.217 195.968 224.138L198.79 232.824C198.924 233.236 199.308 233.515 199.741 233.515L208.874 233.515C209.843 233.515 210.246 234.754 209.462 235.324L202.073 240.692C201.723 240.946 201.576 241.398 201.71 241.81L204.532 250.495C204.832 251.417 203.777 252.183 202.993 251.613L195.605 246.245C195.255 245.991 194.78 245.991 194.429 246.245L187.041 251.613C186.257 252.183 185.203 251.417 185.502 250.495L188.324 241.81C188.458 241.398 188.311 240.946 187.961 240.692L180.573 235.324C179.789 234.754 180.192 233.515 181.16 233.515L190.293 233.515C190.726 233.515 191.11 233.236 191.244 232.824L194.066 224.138Z" fill="white"/>
<path d="M232.633 109.962C233.353 109.314 234.482 109.966 234.28 110.913L232.382 119.846C232.291 120.27 232.485 120.704 232.86 120.92L240.769 125.487C241.608 125.971 241.337 127.246 240.373 127.347L231.291 128.302C230.86 128.347 230.507 128.665 230.417 129.089L228.518 138.022C228.317 138.969 227.021 139.105 226.627 138.22L222.912 129.877C222.736 129.482 222.325 129.244 221.894 129.29L212.811 130.244C211.848 130.345 211.318 129.155 212.038 128.506L218.825 122.396C219.147 122.106 219.245 121.641 219.069 121.246L215.354 112.903C214.96 112.018 215.929 111.146 216.768 111.63L224.677 116.196C225.052 116.413 225.524 116.363 225.846 116.073L232.633 109.962Z" fill="white"/>
<path d="M147.939 132.656C148.659 132.008 149.788 132.659 149.587 133.607L147.688 142.54C147.598 142.964 147.791 143.397 148.166 143.614L156.075 148.18C156.914 148.664 156.643 149.939 155.68 150.041L146.597 150.995C146.166 151.041 145.814 151.358 145.724 151.782L143.825 160.715C143.623 161.662 142.327 161.799 141.933 160.914L138.218 152.571C138.042 152.175 137.631 151.938 137.2 151.983L128.118 152.938C127.154 153.039 126.624 151.848 127.344 151.2L134.131 145.089C134.453 144.799 134.552 144.335 134.375 143.939L130.661 135.596C130.267 134.711 131.235 133.839 132.074 134.323L139.983 138.89C140.359 139.106 140.831 139.057 141.153 138.767L147.939 132.656Z" fill="white"/>
<path d="M255.327 194.656C256.047 194.008 257.175 194.659 256.974 195.607L255.075 204.54C254.985 204.964 255.178 205.397 255.553 205.614L263.462 210.18C264.301 210.664 264.03 211.939 263.067 212.041L253.984 212.995C253.553 213.041 253.201 213.358 253.111 213.782L251.212 222.715C251.011 223.662 249.714 223.799 249.32 222.914L245.606 214.571C245.429 214.175 245.018 213.938 244.588 213.983L235.505 214.938C234.542 215.039 234.011 213.848 234.731 213.2L241.518 207.089C241.84 206.799 241.939 206.335 241.763 205.939L238.048 197.596C237.654 196.711 238.623 195.839 239.462 196.323L247.371 200.89C247.746 201.106 248.218 201.057 248.54 200.767L255.327 194.656Z" fill="white"/>
<path d="M170.633 217.35C171.353 216.701 172.482 217.353 172.28 218.301L170.382 227.234C170.291 227.657 170.485 228.091 170.86 228.308L178.769 232.874C179.608 233.358 179.337 234.633 178.373 234.734L169.291 235.689C168.86 235.734 168.507 236.052 168.417 236.476L166.518 245.409C166.317 246.356 165.021 246.493 164.627 245.608L160.912 237.265C160.736 236.869 160.325 236.631 159.894 236.677L150.811 237.631C149.848 237.733 149.318 236.542 150.038 235.894L156.825 229.783C157.147 229.493 157.245 229.029 157.069 228.633L153.354 220.29C152.96 219.405 153.929 218.533 154.768 219.017L162.677 223.583C163.052 223.8 163.524 223.75 163.846 223.461L170.633 217.35Z" fill="white"/>
<path d="M261.121 137.754C262.068 137.552 262.72 138.681 262.072 139.401L255.961 146.188C255.671 146.51 255.621 146.982 255.838 147.357L260.404 155.266C260.889 156.105 260.016 157.074 259.131 156.68L250.788 152.965C250.393 152.789 249.928 152.888 249.638 153.209L243.528 159.996C242.879 160.716 241.689 160.186 241.79 159.223L242.745 150.14C242.79 149.709 242.553 149.298 242.157 149.122L233.814 145.407C232.929 145.013 233.065 143.717 234.012 143.516L242.946 141.617C243.369 141.527 243.687 141.174 243.732 140.743L244.687 131.661C244.788 130.697 246.063 130.426 246.547 131.265L251.114 139.174C251.33 139.55 251.764 139.743 252.188 139.653L261.121 137.754Z" fill="white"/>
<path d="M176.427 115.06C177.375 114.859 178.026 115.988 177.378 116.708L171.267 123.495C170.977 123.816 170.928 124.288 171.144 124.664L175.711 132.573C176.195 133.412 175.323 134.38 174.438 133.986L166.095 130.272C165.699 130.095 165.235 130.194 164.945 130.516L158.834 137.303C158.186 138.023 156.995 137.493 157.096 136.529L158.051 127.447C158.096 127.016 157.859 126.605 157.463 126.429L149.12 122.714C148.235 122.32 148.371 121.024 149.319 120.822L158.252 118.924C158.676 118.834 158.993 118.481 159.039 118.05L159.993 108.967C160.094 108.004 161.369 107.733 161.854 108.572L166.42 116.481C166.637 116.856 167.07 117.049 167.494 116.959L176.427 115.06Z" fill="white"/>
<path d="M238.427 222.448C239.375 222.246 240.026 223.375 239.378 224.095L233.267 230.882C232.977 231.204 232.928 231.676 233.144 232.051L237.711 239.96C238.195 240.799 237.323 241.767 236.438 241.373L228.095 237.659C227.699 237.483 227.235 237.581 226.945 237.903L220.834 244.69C220.186 245.41 218.995 244.88 219.096 243.917L220.051 234.834C220.096 234.403 219.859 233.992 219.463 233.816L211.12 230.101C210.235 229.707 210.371 228.411 211.319 228.21L220.252 226.311C220.676 226.221 220.993 225.868 221.039 225.437L221.993 216.355C222.094 215.391 223.369 215.12 223.854 215.959L228.42 223.868C228.637 224.243 229.07 224.436 229.494 224.346L238.427 222.448Z" fill="white"/>
<path d="M153.733 199.754C154.681 199.552 155.333 200.681 154.684 201.401L148.574 208.188C148.284 208.51 148.234 208.982 148.451 209.357L153.017 217.266C153.501 218.105 152.629 219.074 151.744 218.68L143.401 214.965C143.005 214.789 142.541 214.888 142.251 215.209L136.14 221.996C135.492 222.716 134.301 222.186 134.403 221.223L135.357 212.14C135.403 211.709 135.165 211.298 134.77 211.122L126.426 207.407C125.541 207.013 125.678 205.717 126.625 205.516L135.558 203.617C135.982 203.527 136.3 203.174 136.345 202.743L137.3 193.661C137.401 192.697 138.676 192.426 139.16 193.265L143.726 201.174C143.943 201.55 144.377 201.743 144.8 201.653L153.733 199.754Z" fill="white"/>
</g>
<defs>
<clipPath id="clip0_118:181">
<rect width="300" height="300" fill="white"/>
</clipPath>
</defs>
</svg>
