<svg width="300" height="300" viewBox="0 0 300 300" fill="none" xmlns="http://www.w3.org/2000/svg">
<g clip-path="url(#clip0_114:717)">
<rect width="300" height="300" fill="white"/>
<rect x="300" y="300" width="300" height="300" transform="rotate(-180 300 300)" fill="white"/>
<rect x="300" y="300" width="300" height="150" transform="rotate(-180 300 300)" fill="#FF4A4A"/>
<rect x="150" y="150" width="150" height="150" transform="rotate(-180 150 150)" fill="#4A72FF"/>
<path d="M72.1468 38.7812C73.0449 36.0172 76.9551 36.0172 77.8532 38.7812L84.4296 59.0213C84.8312 60.2574 85.9831 61.0942 87.2828 61.0942H108.564C111.471 61.0942 112.679 64.8131 110.328 66.5213L93.1106 79.0304C92.0591 79.7943 91.6191 81.1484 92.0207 82.3845L98.5972 102.625C99.4952 105.389 96.3318 107.687 93.9806 105.979L76.7634 93.4696C75.7119 92.7057 74.2881 92.7057 73.2366 93.4696L56.0194 105.979C53.6682 107.687 50.5048 105.389 51.4028 102.625L57.9792 82.3845C58.3809 81.1484 57.9409 79.7943 56.8894 79.0304L39.6722 66.5213C37.321 64.8131 38.5293 61.0942 41.4355 61.0942H62.7172C64.0169 61.0942 65.1688 60.2574 65.5704 59.0213L72.1468 38.7812Z" fill="white"/>
</g>
<defs>
<clipPath id="clip0_114:717">
<rect width="300" height="300" fill="white"/>
</clipPath>
</defs>
</svg>
