<svg width="300" height="300" viewBox="0 0 300 300" fill="none" xmlns="http://www.w3.org/2000/svg">
<g clip-path="url(#clip0_118:1478)">
<rect width="300" height="300" fill="white"/>
<rect width="100" height="300" fill="#3B9644"/>
<rect x="200" width="100" height="300" fill="#FFB84F"/>
<rect x="100" width="100" height="300" fill="#EF4B4B"/>
<path d="M147.147 108.781C148.045 106.017 151.955 106.017 152.853 108.781L160.552 132.476C160.954 133.712 162.106 134.549 163.405 134.549H188.32C191.226 134.549 192.434 138.268 190.083 139.976L169.927 154.621C168.875 155.384 168.435 156.739 168.837 157.975L176.536 181.67C177.434 184.434 174.271 186.732 171.92 185.024L151.763 170.379C150.712 169.616 149.288 169.616 148.237 170.379L128.08 185.024C125.729 186.732 122.566 184.434 123.464 181.67L131.163 157.975C131.565 156.739 131.125 155.384 130.073 154.621L109.917 139.976C107.566 138.268 108.774 134.549 111.68 134.549H136.595C137.894 134.549 139.046 133.712 139.448 132.476L147.147 108.781Z" fill="#FFB84F"/>
</g>
<defs>
<clipPath id="clip0_118:1478">
<rect width="300" height="300" fill="white"/>
</clipPath>
</defs>
</svg>
