<svg width="300" height="300" viewBox="0 0 300 300" fill="none" xmlns="http://www.w3.org/2000/svg">
<g clip-path="url(#clip0_113:658)">
<rect width="300" height="300" fill="#EF4B4B"/>
<rect x="500" y="300" width="500" height="300" transform="rotate(-180 500 300)" fill="#EF4B4B"/>
<path d="M65.5979 69.8541C66.1966 68.0115 68.8034 68.0115 69.4021 69.8541L74.7967 86.4569C75.0645 87.281 75.8324 87.8389 76.6988 87.8389H94.1561C96.0935 87.8389 96.8991 90.3181 95.3317 91.4569L81.2084 101.718C80.5075 102.227 80.2141 103.13 80.4819 103.954L85.8765 120.557C86.4752 122.4 84.3662 123.932 82.7988 122.793L68.6756 112.532C67.9746 112.023 67.0254 112.023 66.3244 112.532L52.2012 122.793C50.6338 123.932 48.5248 122.4 49.1235 120.557L54.5181 103.954C54.7859 103.13 54.4925 102.227 53.7916 101.718L39.6683 91.4569C38.1009 90.3181 38.9065 87.8389 40.8439 87.8389H58.3012C59.1676 87.8389 59.9355 87.281 60.2033 86.4569L65.5979 69.8541Z" fill="#FFB84F"/>
<path d="M147.549 104.927C147.848 104.006 149.152 104.006 149.451 104.927L151.755 112.019C151.889 112.431 152.273 112.71 152.707 112.71H160.164C161.132 112.71 161.535 113.95 160.751 114.519L154.718 118.902C154.368 119.157 154.221 119.608 154.355 120.021L156.66 127.113C156.959 128.034 155.904 128.8 155.121 128.231L149.088 123.848C148.737 123.593 148.263 123.593 147.912 123.848L141.879 128.231C141.096 128.8 140.041 128.034 140.34 127.113L142.645 120.021C142.779 119.608 142.632 119.157 142.282 118.902L136.249 114.519C135.465 113.95 135.868 112.71 136.836 112.71H144.293C144.727 112.71 145.111 112.431 145.245 112.019L147.549 104.927Z" fill="#FFB84F"/>
<path d="M144.811 67.0852C144.861 66.1178 146.12 65.7805 146.648 66.5929L150.71 72.847C150.946 73.2104 151.389 73.3804 151.807 73.2683L159.01 71.3383C159.946 71.0875 160.656 72.1807 160.046 72.9335L155.353 78.7288C155.08 79.0655 155.056 79.5394 155.292 79.9028L159.353 86.1569C159.881 86.9693 159.06 87.9823 158.156 87.6351L151.194 84.9627C150.79 84.8074 150.331 84.9303 150.059 85.267L145.366 91.0623C144.756 91.8151 143.539 91.348 143.59 90.3806L143.98 82.9337C144.003 82.501 143.744 82.103 143.34 81.9477L136.378 79.2753C135.474 78.9282 135.542 77.6265 136.478 77.3758L143.681 75.4458C144.099 75.3336 144.398 74.9648 144.42 74.5322L144.811 67.0852Z" fill="#FFB84F"/>
<path d="M108.063 41.7604C107.862 40.8129 108.991 40.1612 109.711 40.8094L115.252 45.7992C115.574 46.0891 116.046 46.1387 116.421 45.9221L122.88 42.1935C123.719 41.7091 124.687 42.5813 124.293 43.4663L121.26 50.2787C121.084 50.6745 121.182 51.1387 121.504 51.4286L127.046 56.4184C127.766 57.0666 127.236 58.2574 126.273 58.1561L118.856 57.3766C118.425 57.3313 118.014 57.5686 117.838 57.9644L114.805 64.7769C114.411 65.6619 113.115 65.5256 112.913 64.5781L111.363 57.2838C111.273 56.8601 110.92 56.5425 110.489 56.4972L103.073 55.7177C102.11 55.6165 101.839 54.3415 102.677 53.8572L109.136 50.1286C109.511 49.912 109.704 49.4784 109.614 49.0547L108.063 41.7604Z" fill="#FFB84F"/>
<path d="M117.319 137.593C117.847 136.78 119.106 137.118 119.156 138.085L119.547 145.532C119.569 145.965 119.868 146.334 120.286 146.446L127.49 148.376C128.425 148.626 128.493 149.928 127.589 150.275L120.627 152.948C120.223 153.103 119.964 153.501 119.987 153.934L120.377 161.381C120.428 162.348 119.211 162.815 118.601 162.062L113.908 156.267C113.636 155.93 113.177 155.807 112.773 155.963L105.811 158.635C104.907 158.982 104.086 157.969 104.614 157.157L108.676 150.903C108.911 150.539 108.887 150.065 108.614 149.729L103.921 143.933C103.311 143.181 104.021 142.087 104.957 142.338L112.16 144.268C112.579 144.38 113.022 144.21 113.258 143.847L117.319 137.593Z" fill="#FFB84F"/>
</g>
<defs>
<clipPath id="clip0_113:658">
<rect width="300" height="300" fill="white"/>
</clipPath>
</defs>
</svg>
