<svg width="300" height="300" viewBox="0 0 300 300" fill="none" xmlns="http://www.w3.org/2000/svg">
<g clip-path="url(#clip0_113:561)">
<rect width="300" height="300" fill="white"/>
<rect x="300" y="200" width="300" height="100" transform="rotate(-180 300 200)" fill="white"/>
<rect x="300" y="100" width="300" height="100" transform="rotate(-180 300 100)" fill="#FFAE4F"/>
<rect x="300" y="300" width="300" height="100" transform="rotate(-180 300 300)" fill="#4DBB58"/>
<path d="M149.025 111.266C149.262 110.229 150.738 110.229 150.975 111.266L155.972 133.133C156.126 133.803 156.894 134.123 157.477 133.759L176.65 121.792C177.554 121.228 178.596 122.281 178.022 123.179L165.943 142.084C165.569 142.669 165.891 143.448 166.568 143.599L188.629 148.524C189.671 148.757 189.671 150.243 188.629 150.476L166.568 155.401C165.891 155.552 165.569 156.331 165.943 156.916L178.022 175.821C178.596 176.719 177.554 177.772 176.65 177.208L157.477 165.241C156.894 164.877 156.126 165.197 155.972 165.867L150.975 187.734C150.738 188.771 149.262 188.771 149.025 187.734L144.028 165.867C143.874 165.197 143.106 164.877 142.523 165.241L123.35 177.208C122.446 177.772 121.404 176.719 121.978 175.821L134.057 156.916C134.431 156.331 134.109 155.552 133.432 155.401L111.371 150.476C110.329 150.243 110.329 148.757 111.371 148.524L133.432 143.599C134.109 143.448 134.431 142.669 134.057 142.084L121.978 123.179C121.404 122.281 122.446 121.228 123.35 121.792L142.523 133.759C143.106 134.123 143.874 133.803 144.028 133.133L149.025 111.266Z" fill="#3661F6"/>
<circle cx="150" cy="150" r="39.5" stroke="#3661F6" stroke-width="11"/>
</g>
<defs>
<clipPath id="clip0_113:561">
<rect width="300" height="300" fill="white"/>
</clipPath>
</defs>
</svg>
