<svg width="300" height="300" viewBox="0 0 300 300" fill="none" xmlns="http://www.w3.org/2000/svg">
<g clip-path="url(#clip0_118:156)">
<rect width="300" height="300" fill="white"/>
<rect x="173" y="-76" width="203" height="204" fill="#EF4B4B"/>
<rect x="-77" y="173" width="204" height="204" fill="#EF4B4B"/>
<rect x="376" y="377" width="203" height="204" transform="rotate(-180 376 377)" fill="#3661F6"/>
<rect x="127" y="128" width="204" height="204" transform="rotate(-180 127 128)" fill="#3661F6"/>
<rect x="151" y="134" width="13" height="16" fill="#EF4B4B"/>
<path d="M135 153H149V169H138C136.343 169 135 167.657 135 166V153Z" fill="#EF4B4B"/>
<path d="M164 166C164 167.657 162.657 169 161 169L151 169L151 153L164 153L164 166Z" fill="#3661F6"/>
<rect x="149" y="150" width="14" height="16" transform="rotate(-180 149 150)" fill="#3661F6"/>
<path d="M125.168 135.261C125.186 135.111 125.314 135 125.465 135H129.661C129.841 135 129.981 135.152 129.96 135.331C129.752 137.083 128.8 145.409 128.8 151C128.8 156.591 129.752 164.917 129.96 166.669C129.981 166.848 129.841 167 129.661 167H125.465C125.314 167 125.186 166.889 125.168 166.739C124.979 165.15 124 156.669 124 151C124 145.331 124.979 136.85 125.168 135.261Z" fill="#4DBB58"/>
<path d="M174.832 135.261C174.814 135.111 174.686 135 174.535 135H170.339C170.159 135 170.019 135.152 170.04 135.331C170.248 137.083 171.2 145.409 171.2 151C171.2 156.591 170.248 164.917 170.04 166.669C170.019 166.848 170.159 167 170.339 167H174.535C174.686 167 174.814 166.889 174.832 166.739C175.021 165.15 176 156.669 176 151C176 145.331 175.021 136.85 174.832 135.261Z" fill="#4DBB58"/>
<path d="M135.264 175.972C135.111 175.988 135 176.116 135 176.269L135 179.665C135 179.844 135.15 179.984 135.327 179.965C137.006 179.788 144.776 179 150 179C155.224 179 162.994 179.788 164.673 179.965C164.85 179.984 165 179.844 165 179.665L165 176.269C165 176.116 164.889 175.988 164.736 175.972C163.201 175.809 155.293 175 150 175C144.707 175 136.799 175.809 135.264 175.972Z" fill="#EF4B4B"/>
<path d="M135.264 124.972C135.111 124.988 135 125.116 135 125.269L135 128.665C135 128.844 135.15 128.984 135.327 128.965C137.006 128.788 144.776 128 150 128C155.224 128 162.994 128.788 164.673 128.965C164.85 128.984 165 128.844 165 128.665L165 125.269C165 125.116 164.889 124.988 164.736 124.972C163.201 124.809 155.293 124 150 124C144.707 124 136.799 124.809 135.264 124.972Z" fill="#3661F6"/>
</g>
<defs>
<clipPath id="clip0_118:156">
<rect width="300" height="300" fill="white"/>
</clipPath>
</defs>
</svg>
