<svg width="300" height="300" viewBox="0 0 300 300" fill="none" xmlns="http://www.w3.org/2000/svg">
<g clip-path="url(#clip0_118:250)">
<rect width="300" height="300" fill="white"/>
<rect x="300" y="300" width="300" height="60" transform="rotate(-180 300 300)" fill="#003EBA"/>
<rect x="300" y="180" width="300" height="60" transform="rotate(-180 300 180)" fill="#003EBA"/>
<rect x="300" y="60" width="300" height="60" transform="rotate(-180 300 60)" fill="#003EBA"/>
<path d="M-121.711 359.047C-124.099 360.819 -127.425 360.574 -129.529 358.471L-333.757 154.242C-336.101 151.899 -336.101 148.1 -333.757 145.757L-129.529 -58.4715C-127.426 -60.5747 -124.099 -60.8196 -121.711 -59.0472L153.507 145.182C156.74 147.581 156.74 152.42 153.507 154.818L-121.711 359.047Z" fill="#FF4A4A"/>
<path d="M52.1224 115.318C52.8707 113.014 56.1293 113.014 56.8776 115.318L63.4806 135.639C63.8152 136.669 64.7751 137.367 65.8582 137.367H87.2257C89.6475 137.367 90.6544 140.466 88.6952 141.889L71.4085 154.449C70.5323 155.085 70.1656 156.214 70.5003 157.244L77.1032 177.566C77.8516 179.869 75.2154 181.784 73.2561 180.361L55.9695 167.801C55.0932 167.165 53.9068 167.165 53.0305 167.801L35.7439 180.361C33.7846 181.784 31.1484 179.869 31.8968 177.566L38.4997 157.244C38.8344 156.214 38.4677 155.085 37.5915 154.449L20.3048 141.889C18.3456 140.466 19.3525 137.367 21.7743 137.367H43.1418C44.2249 137.367 45.1848 136.669 45.5194 135.639L52.1224 115.318Z" fill="white"/>
</g>
<defs>
<clipPath id="clip0_118:250">
<rect width="300" height="300" fill="white"/>
</clipPath>
</defs>
</svg>
