<svg width="300" height="300" viewBox="0 0 300 300" fill="none" xmlns="http://www.w3.org/2000/svg">
<g clip-path="url(#clip0_121:51)">
<rect width="300" height="300" fill="#3661F6"/>
<rect x="300" y="300" width="300" height="300" transform="rotate(-180 300 300)" fill="#3661F6"/>
<rect x="300" y="189" width="300" height="25" transform="rotate(-180 300 189)" fill="white"/>
<rect x="300" y="214" width="300" height="25" transform="rotate(-180 300 214)" fill="#EF4B4B"/>
<rect x="300" y="239" width="300" height="25" transform="rotate(-180 300 239)" fill="white"/>
<path d="M102.764 133.805C103.153 132.607 104.847 132.607 105.236 133.805L107.418 140.521C107.592 141.056 108.092 141.419 108.655 141.419L115.716 141.419C116.975 141.419 117.499 143.031 116.48 143.771L110.767 147.921C110.312 148.252 110.121 148.839 110.295 149.375L112.477 156.09C112.866 157.288 111.496 158.284 110.477 157.544L104.764 153.393C104.308 153.062 103.691 153.062 103.236 153.393L97.5232 157.544C96.5044 158.284 95.1335 157.288 95.5227 156.09L97.7047 149.375C97.8788 148.839 97.6881 148.252 97.2325 147.921L91.5198 143.771C90.501 143.031 91.0246 141.419 92.2839 141.419L99.3452 141.419C99.9084 141.419 100.408 141.056 100.582 140.521L102.764 133.805Z" fill="#FFB84F"/>
<path d="M102.764 242.754C103.153 241.556 104.847 241.556 105.236 242.754L107.418 249.469C107.592 250.005 108.092 250.368 108.655 250.368L115.716 250.368C116.975 250.368 117.499 251.979 116.48 252.719L110.767 256.87C110.312 257.201 110.121 257.788 110.295 258.323L112.477 265.039C112.866 266.237 111.496 267.233 110.477 266.492L104.764 262.342C104.308 262.011 103.691 262.011 103.236 262.342L97.5232 266.492C96.5044 267.233 95.1335 266.237 95.5227 265.039L97.7047 258.323C97.8788 257.788 97.6881 257.201 97.2325 256.87L91.5198 252.719C90.501 251.979 91.0246 250.368 92.2839 250.368L99.3452 250.368C99.9084 250.368 100.408 250.005 100.582 249.469L102.764 242.754Z" fill="#FFB84F"/>
<path d="M171.195 199.764C172.393 200.153 172.393 201.847 171.195 202.236L164.479 204.418C163.944 204.592 163.581 205.092 163.581 205.655L163.581 212.716C163.581 213.975 161.969 214.499 161.229 213.48L157.079 207.767C156.748 207.312 156.161 207.121 155.625 207.295L148.91 209.477C147.712 209.866 146.716 208.496 147.456 207.477L151.607 201.764C151.938 201.308 151.938 200.691 151.607 200.236L147.456 194.523C146.716 193.504 147.712 192.134 148.91 192.523L155.625 194.705C156.161 194.879 156.748 194.688 157.079 194.232L161.229 188.52C161.969 187.501 163.581 188.025 163.581 189.284L163.581 196.345C163.581 196.908 163.944 197.408 164.479 197.582L171.195 199.764Z" fill="#FFB84F"/>
<path d="M62.2466 199.764C63.4443 200.153 63.4443 201.847 62.2466 202.236L55.5309 204.418C54.9953 204.592 54.6327 205.092 54.6327 205.655L54.6327 212.716C54.6327 213.975 53.0212 214.499 52.2809 213.48L48.1304 207.767C47.7994 207.312 47.2126 207.121 46.677 207.295L39.9614 209.477C38.7637 209.866 37.7677 208.496 38.5079 207.477L42.6584 201.764C42.9894 201.308 42.9894 200.691 42.6584 200.236L38.5079 194.523C37.7677 193.504 38.7637 192.134 39.9614 192.523L46.677 194.705C47.2126 194.879 47.7994 194.688 48.1304 194.232L52.2809 188.52C53.0212 187.501 54.6327 188.025 54.6327 189.284L54.6327 196.345C54.6327 196.908 54.9953 197.408 55.5309 197.582L62.2466 199.764Z" fill="#FFB84F"/>
<path d="M150.64 152.612C151.762 152.04 152.96 153.238 152.388 154.36L149.182 160.652C148.927 161.154 149.023 161.763 149.422 162.161L154.415 167.154C155.305 168.045 154.536 169.555 153.292 169.358L146.318 168.253C145.761 168.165 145.212 168.445 144.956 168.947L141.75 175.238C141.179 176.361 139.505 176.095 139.308 174.852L138.203 167.877C138.115 167.321 137.679 166.885 137.123 166.797L130.148 165.692C128.905 165.495 128.639 163.821 129.762 163.25L136.053 160.044C136.555 159.788 136.835 159.239 136.747 158.682L135.642 151.708C135.445 150.464 136.955 149.695 137.846 150.585L142.839 155.578C143.237 155.977 143.846 156.073 144.348 155.818L150.64 152.612Z" fill="#FFB84F"/>
<path d="M73.6016 229.65C74.7237 229.078 75.9218 230.276 75.3501 231.398L72.1444 237.69C71.8887 238.192 71.9852 238.801 72.3834 239.199L77.3765 244.193C78.267 245.083 77.4977 246.593 76.2539 246.396L69.2796 245.291C68.7233 245.203 68.1736 245.483 67.9179 245.985L64.7122 252.277C64.1404 253.399 62.4669 253.134 62.2699 251.89L61.1652 244.915C61.0771 244.359 60.6409 243.923 60.0846 243.835L53.1103 242.73C51.8664 242.533 51.6014 240.86 52.7235 240.288L59.0151 237.082C59.5169 236.826 59.797 236.277 59.7089 235.72L58.6043 228.746C58.4073 227.502 59.917 226.733 60.8075 227.624L65.8006 232.617C66.1988 233.015 66.8082 233.111 67.31 232.856L73.6016 229.65Z" fill="#FFB84F"/>
<path d="M152.388 247.64C152.96 248.762 151.762 249.96 150.64 249.388L144.348 246.183C143.846 245.927 143.237 246.024 142.839 246.422L137.846 251.415C136.955 252.305 135.445 251.536 135.642 250.292L136.747 243.318C136.835 242.762 136.555 242.212 136.053 241.956L129.762 238.75C128.639 238.179 128.905 236.505 130.148 236.308L137.123 235.204C137.679 235.115 138.115 234.679 138.203 234.123L139.308 227.149C139.505 225.905 141.179 225.64 141.75 226.762L144.956 233.053C145.212 233.555 145.761 233.835 146.318 233.747L153.292 232.643C154.536 232.446 155.305 233.955 154.415 234.846L149.422 239.839C149.023 240.237 148.927 240.847 149.182 241.348L152.388 247.64Z" fill="#FFB84F"/>
<path d="M75.3503 170.601C75.9221 171.723 74.7239 172.922 73.6018 172.35L67.3102 169.144C66.8084 168.888 66.199 168.985 65.8008 169.383L60.8077 174.376C59.9173 175.267 58.4075 174.497 58.6045 173.254L59.7091 166.279C59.7972 165.723 59.5171 165.173 59.0153 164.918L52.7237 161.712C51.6016 161.14 51.8667 159.467 53.1105 159.27L60.0848 158.165C60.6411 158.077 61.0774 157.641 61.1655 157.084L62.2701 150.11C62.4671 148.866 64.1407 148.601 64.7124 149.723L67.9181 156.015C68.1738 156.517 68.7235 156.797 69.2798 156.709L76.2541 155.604C77.498 155.407 78.2672 156.917 77.3767 157.807L72.3837 162.8C71.9854 163.199 71.8889 163.808 72.1446 164.31L75.3503 170.601Z" fill="#FFB84F"/>
</g>
<defs>
<clipPath id="clip0_121:51">
<rect width="300" height="300" fill="white"/>
</clipPath>
</defs>
</svg>
