<svg width="300" height="300" viewBox="0 0 300 300" fill="none" xmlns="http://www.w3.org/2000/svg">
<g clip-path="url(#clip0_118:1598)">
<rect width="300" height="300" fill="white"/>
<rect x="500" y="300" width="500" height="300" transform="rotate(-180 500 300)" fill="white"/>
<rect x="300" y="300" width="300" height="150" transform="rotate(-180 300 300)" fill="#3B9644"/>
<rect x="300" y="150" width="300" height="150" transform="rotate(-180 300 150)" fill="#59AFFF"/>
<path d="M-125.868 362.132L-338 150L-125.868 -62.1323L160 150L-125.868 362.132Z" fill="white"/>
<path d="M65.6352 122.812C66.2952 121.109 68.7048 121.109 69.3648 122.812L75.2482 137.992C75.532 138.724 76.2179 139.222 77.0019 139.266L93.257 140.17C95.0806 140.272 95.8252 142.563 94.4096 143.717L81.7906 154.004C81.182 154.5 80.92 155.306 81.1208 156.065L85.2836 171.804C85.7506 173.57 83.8012 174.986 82.2662 173.997L68.5839 165.174C67.9239 164.748 67.0761 164.748 66.4161 165.174L52.7338 173.997C51.1988 174.986 49.2494 173.57 49.7164 171.804L53.8792 156.065C54.08 155.306 53.818 154.5 53.2094 154.004L40.5904 143.717C39.1748 142.563 39.9194 140.272 41.743 140.17L57.9981 139.266C58.7821 139.222 59.468 138.724 59.7518 137.992L65.6352 122.812Z" fill="#FF4A4A"/>
</g>
<defs>
<clipPath id="clip0_118:1598">
<rect width="300" height="300" fill="white"/>
</clipPath>
</defs>
</svg>
