<svg width="300" height="300" viewBox="0 0 300 300" fill="none" xmlns="http://www.w3.org/2000/svg">
<rect width="300" height="300" fill="white"/>
<rect width="150" height="300" fill="#3B9644"/>
<circle cx="143.5" cy="150.5" r="77.5" fill="#EB5757"/>
<mask id="mask0_117:2" style="mask-type:alpha" maskUnits="userSpaceOnUse" x="94" y="82" width="140" height="137">
<ellipse cx="163.5" cy="150.5" rx="69.5" ry="68.5" fill="#3B9644"/>
</mask>
<g mask="url(#mask0_117:2)">
<ellipse cx="163.5" cy="150.5" rx="69.5" ry="68.5" fill="#3B9644"/>
<rect x="150" y="56" width="88" height="207" fill="white"/>
</g>
<path d="M181.549 110.894C183.436 108.314 187.509 109.405 187.853 112.583L190.276 134.938C190.424 136.305 191.358 137.458 192.663 137.886L214.027 144.904C217.063 145.902 217.284 150.113 214.368 151.422L193.855 160.635C192.602 161.198 191.794 162.442 191.789 163.816L191.717 186.302C191.706 189.499 187.77 191.01 185.623 188.641L170.523 171.98C169.6 170.961 168.167 170.577 166.859 170.998L145.451 177.877C142.408 178.855 139.754 175.578 141.343 172.805L152.523 153.295C153.207 152.103 153.129 150.621 152.325 149.506L139.166 131.272C137.296 128.68 139.593 125.144 142.721 125.798L164.731 130.402C166.076 130.683 167.462 130.152 168.273 129.043L181.549 110.894Z" fill="#EB5757"/>
</svg>
