<svg width="300" height="300" viewBox="0 0 300 300" fill="none" xmlns="http://www.w3.org/2000/svg">
<g clip-path="url(#clip0_142:35)">
<rect width="300" height="300" fill="white"/>
<rect width="300" height="100" fill="#FF4A4A"/>
<rect y="100" width="300" height="100" fill="white"/>
<rect y="200" width="300" height="100" fill="#252525"/>
<path d="M151.109 152.797L219.597 216.376L214.721 100.907C214.005 83.4064 198.797 87.4214 187.75 93.7343C176.559 100.907 163.792 100.907 150.304 96.1711C136.819 100.906 124.051 100.906 112.86 93.7341C101.814 87.4219 86.608 83.4062 85.8901 100.906L81.0112 216.376L151.109 152.797Z" fill="white" stroke="#FFB84F" stroke-width="1.27036" stroke-linejoin="round"/>
<path d="M93.769 96.8872L89.035 209.207L81 216.375L85.879 100.905C88.173 99.3272 92.192 96.8882 93.769 96.8882V96.8872ZM103.389 104.927L99.372 198.882L91.34 207.102L96.217 98.6122C97.796 100.189 102.531 104.062 103.389 104.922V104.927ZM112.139 112.097L108.984 190.459L102.529 196.769L106.547 107.363C108.121 108.941 111.277 111.237 112.139 112.097ZM121.609 116.117L118.453 182.904L112.14 188.024L115.296 113.679C116.875 114.396 120.031 116.117 121.609 116.117ZM130.359 116.117L128.062 171.774L121.607 178.087L124.047 116.835C125.622 116.835 129.64 116.835 130.359 116.117Z" fill="#FFB84F"/>
<path d="M207.031 96.8901L211.765 209.21L219.8 216.378L214.921 100.908C212.627 99.3301 208.608 96.8901 207.031 96.8901ZM197.411 104.93L201.428 198.885L209.46 207.105L204.583 98.6151C203.004 100.192 198.269 104.065 197.411 104.925V104.93ZM188.661 112.1L191.816 190.462L198.271 196.772L194.253 107.366C192.679 108.944 189.523 111.24 188.661 112.1ZM179.191 116.12L182.347 182.907L188.66 188.027L185.504 113.682C183.925 114.399 180.769 116.12 179.191 116.12ZM170.441 116.12L172.5 172L179.193 178.09L176.753 116.838C175.178 116.838 171.16 116.838 170.441 116.12Z" fill="#FFB84F"/>
<path d="M153.459 165.457C153.459 165.457 153.459 165.457 153.459 165.457L162.954 208.677C163.028 209.011 162.926 209.358 162.684 209.599L160.523 211.759C160.173 212.109 159.62 212.15 159.222 211.856L156.953 210.178C156.737 210.019 156.594 209.779 156.557 209.513L151.163 170.911L153.436 209.55C153.451 209.794 153.375 210.035 153.224 210.227L151.088 212.944C150.687 213.454 149.916 213.454 149.516 212.944L147.38 210.227C147.229 210.035 147.153 209.794 147.168 209.55L149.442 170.911L144.049 209.512C144.012 209.779 143.869 210.019 143.653 210.178L141.381 211.856C140.983 212.15 140.43 212.109 140.08 211.759L137.921 209.599C137.68 209.358 137.578 209.011 137.652 208.678L146.973 166.242C147.074 165.784 147.48 165.457 147.95 165.457H153.459C153.459 165.457 153.459 165.457 153.459 165.457Z" fill="#FFB84F" stroke="#FFB84F" stroke-width="1.07386"/>
<path d="M122.5 169.5L121.5 179L138 164" fill="#FFB84F"/>
<path d="M150.299 244.207C170.242 244.207 189.323 242.629 200.512 239.473C205.247 238.614 205.247 236.176 205.247 233.018C209.983 231.44 207.542 225.847 210.842 225.847C207.542 226.71 206.826 220.253 202.809 221.116C202.809 215.519 197.213 214.803 192.479 216.378C183.009 219.536 166.224 220.253 150.299 220.253C134.375 219.536 117.732 219.536 108.12 216.378C103.386 214.803 97.7928 215.519 97.7928 221.116C93.7745 220.253 93.0575 226.71 89.7588 225.848C93.0575 225.848 90.6182 231.44 95.353 233.018C95.353 236.176 95.353 238.614 100.231 239.473C111.276 242.629 130.359 244.207 150.299 244.207H150.299Z" fill="white" stroke="#FFB84F" stroke-width="2.37802" stroke-linecap="round" stroke-linejoin="round"/>
<path d="M123.189 213.937C129.644 214.798 136.817 215.515 142.414 214.798C145.568 214.798 147.864 220.249 141.552 221.111C135.959 221.826 127.207 221.111 122.472 220.249C118.455 219.531 109.704 217.954 104.108 216.374C98.5128 213.937 102.532 209.206 105.685 209.922C110.564 211.498 116.877 213.078 123.19 213.937L123.189 213.937ZM177.419 213.937C170.962 214.798 163.791 215.515 158.338 214.798C155.037 214.798 152.742 220.249 159.055 221.111C164.651 221.826 173.402 221.111 178.133 220.249C182.152 219.531 190.902 217.954 196.497 216.374C202.094 213.937 198.078 209.206 194.92 209.922C190.042 211.498 183.73 213.078 177.419 213.937V213.937Z" fill="white" stroke="#FFB84F" stroke-width="1.26989" stroke-linecap="round" stroke-linejoin="round"/>
<path d="M103.389 210.787C98.5119 209.926 96.2166 215.519 97.7963 218.674C98.5126 217.096 101.812 217.096 102.531 215.519C103.389 213.082 101.812 213.082 103.389 210.787ZM122.469 225.457C122.469 222.304 125.623 222.692 125.623 219.536C125.623 217.959 124.764 215.519 123.187 215.519C121.608 215.519 120.029 217.096 120.029 218.674C119.311 221.831 122.469 222.305 122.469 225.457ZM145.179 216.377C149.909 216.377 149.441 222.691 147.144 225.847C147.144 223.552 143.128 222.691 143.128 221.115C143.128 218.674 146.754 218.674 145.179 216.377ZM197.209 210.787C202.087 209.926 204.383 215.519 202.804 218.674C202.086 217.096 198.787 217.096 198.07 215.519C197.209 213.082 198.788 213.082 197.209 210.787ZM178.129 225.457C178.129 222.304 174.976 222.692 174.976 219.536C174.976 217.959 175.835 215.519 177.414 215.519C178.991 215.519 180.57 217.096 180.57 218.674C181.288 221.831 178.129 222.305 178.129 225.457ZM155.419 216.377C150.687 216.377 151.156 222.691 153.452 225.847C153.452 223.552 157.467 222.691 157.467 221.115C157.468 218.674 153.841 218.674 155.419 216.377Z" fill="white" stroke="#FFB84F" stroke-width="1.26989" stroke-linecap="round" stroke-linejoin="round"/>
<path d="M162.609 103.487C163.276 103.527 161.707 99.9191 161.707 99.9191C163.472 101.723 170.137 102.154 170.137 102.154C166.137 100.388 162.139 87.0581 162.609 76.4331C163.041 65.7691 161.081 61.5731 159.512 60.0051C157.512 58.0051 151.082 56.2411 146.848 56.0051C144.456 55.8881 144.848 57.8091 144.848 57.8091C140.418 56.6721 135.988 56.2411 133.988 57.5741C132.105 58.8291 131.713 65.1021 133.086 64.0041C136.418 61.3381 139.32 63.7691 141.319 66.6701C143.083 69.2191 142.966 76.4331 140.417 84.8621C137.751 93.7231 130.458 102.584 130.458 102.584C134.418 102.584 139.986 99.0561 139.986 99.0561L138.653 104.584C142.848 102.584 146.181 99.4871 146.181 99.4871L150.18 103.682C151.513 101.918 154.18 99.4871 154.18 99.4871C154.18 99.4871 157.512 103.016 162.609 103.487Z" fill="white" stroke="#FFB84F" stroke-width="1.218"/>
<path d="M157.039 79.1071C157.039 79.1071 157.941 94.3981 161.705 99.9261M146.419 77.9671C146.419 77.9671 144.184 94.3951 139.989 99.0611L146.419 77.9671ZM149.949 77.5371C149.949 77.5371 149.086 94.1601 146.185 99.4931L149.949 77.5371ZM153.079 78.2071C153.079 78.2071 153.079 96.3991 154.177 99.4961L153.079 78.2071Z" stroke="#FFB84F" stroke-width="1.27"/>
<path d="M142.35 69.191C142.28 69.3896 142.283 69.3821 142.242 69.1753C142.035 68.1177 141.728 67.2701 141.32 66.6741C139.429 63.9309 136.733 61.608 133.627 63.6176C133.46 63.7253 133.25 63.5726 133.33 63.3914C133.782 62.3743 134.87 60.4481 136.655 60.3622C138.497 60.2466 142.632 61.7098 146.338 67.8056C146.429 67.955 146.296 68.1447 146.124 68.1133C145.307 67.9644 143.623 67.7242 143.125 68.1641C142.675 68.5578 142.451 68.9061 142.35 69.191Z" fill="#FFB84F" stroke="#FFB84F" stroke-width="0.353999"/>
<path d="M132.739 59.6571C133.013 58.7551 133.445 57.9321 133.994 57.5791C135.994 56.2461 140.424 56.6771 144.854 57.8141C144.854 57.8141 144.462 55.8931 146.854 56.0111C151.088 56.2461 157.518 58.0111 159.517 60.0101C159.987 60.5201 160.537 61.2651 161.007 62.4011H160.929C159.949 61.0291 157.165 61.1081 156.498 61.1861C155.439 61.3041 154.773 61.2641 153.361 61.6171C152.695 61.7741 151.675 61.9701 151.126 62.4011C150.696 62.7541 150.342 64.0481 149.676 64.0481C148.617 64.0481 148.696 63.7741 148.421 63.4601C148.068 63.0291 147.872 62.4011 147.519 62.4401C146.422 62.6371 144.657 61.7741 142.423 60.0101C140.188 58.2451 139.325 57.8141 136.424 58.0101C133.562 58.2451 132.66 59.8531 132.66 59.8531L132.739 59.6571Z" fill="#FFB84F" stroke="#FFB84F" stroke-width="0.353999"/>
<path d="M149.123 62.2451C149.772 62.2451 150.299 61.7185 150.299 61.0691C150.299 60.4196 149.772 59.8931 149.123 59.8931C148.473 59.8931 147.947 60.4196 147.947 61.0691C147.947 61.7185 148.473 62.2451 149.123 62.2451Z" fill="white"/>
<path d="M150.279 177.627C182.921 152.521 180.122 115.744 180.122 115.744C179.261 115.916 178.443 116.003 177.581 116.003C170.734 116.003 154.403 112.085 150.593 107.11C146.512 111.613 129.823 116.003 123.019 116.003C122.158 116.003 121.297 115.916 120.479 115.744C120.479 115.744 117.636 152.52 150.279 177.627H150.279Z" fill="white" stroke="#FFB84F" stroke-width="1.15"/>
<path d="M177.519 118.437C177.238 118.454 176.956 118.463 176.671 118.463C170.466 118.463 156.052 115.279 150.496 110.506C144.677 114.915 130.025 118.463 123.92 118.463C123.634 118.463 123.351 118.428 123.071 118.377C123.056 119.767 123.129 121.209 123.215 122.52C123.538 127.421 124.398 132.339 125.703 137.072C129.811 151.967 138.219 164.625 150.275 174.227C162.341 164.617 170.759 151.947 174.876 137.041C176.183 132.309 177.045 127.392 177.371 122.491C177.448 121.119 177.524 119.439 177.519 118.437V118.437Z" stroke="#FFB84F" stroke-width="0.916003"/>
<path fill-rule="evenodd" clip-rule="evenodd" d="M123 113C123 111.343 124.343 110 126 110H175C176.657 110 178 111.343 178 113V171C178 172.657 176.657 174 175 174H126C124.343 174 123 172.657 123 171V113Z" fill="#FFB84F"/>
<path fill-rule="evenodd" clip-rule="evenodd" d="M141 110H159V174H141V110Z" fill="white"/>
</g>
<defs>
<clipPath id="clip0_142:35">
<rect width="300" height="300" fill="white"/>
</clipPath>
</defs>
</svg>
