<svg width="300" height="300" viewBox="0 0 300 300" fill="none" xmlns="http://www.w3.org/2000/svg">
<rect width="300" height="300" fill="#003EBA"/>
<path d="M148.526 38.5369C148.99 37.1089 151.01 37.1089 151.474 38.5369L154.203 46.9365C154.411 47.5751 155.006 48.0075 155.677 48.0075H164.509C166.011 48.0075 166.635 49.9289 165.42 50.8115L158.275 56.0027C157.732 56.3974 157.505 57.097 157.712 57.7356L160.441 66.1352C160.905 67.5632 159.271 68.7507 158.056 67.8681L150.911 62.6769C150.368 62.2822 149.632 62.2822 149.089 62.6769L141.944 67.8681C140.729 68.7507 139.095 67.5632 139.559 66.1352L142.288 57.7356C142.495 57.097 142.268 56.3974 141.725 56.0027L134.58 50.8115C133.365 49.9289 133.989 48.0075 135.491 48.0075H144.322C144.994 48.0075 145.589 47.5751 145.797 46.9365L148.526 38.5369Z" fill="#FFB84F"/>
<path d="M148.526 38.5369C148.99 37.1089 151.01 37.1089 151.474 38.5369L154.203 46.9365C154.411 47.5751 155.006 48.0075 155.677 48.0075H164.509C166.011 48.0075 166.635 49.9289 165.42 50.8115L158.275 56.0027C157.732 56.3974 157.505 57.097 157.712 57.7356L160.441 66.1352C160.905 67.5632 159.271 68.7507 158.056 67.8681L150.911 62.6769C150.368 62.2822 149.632 62.2822 149.089 62.6769L141.944 67.8681C140.729 68.7507 139.095 67.5632 139.559 66.1352L142.288 57.7356C142.495 57.097 142.268 56.3974 141.725 56.0027L134.58 50.8115C133.365 49.9289 133.989 48.0075 135.491 48.0075H144.322C144.994 48.0075 145.589 47.5751 145.797 46.9365L148.526 38.5369Z" stroke="#FFB84F"/>
<path d="M148.526 229.993C148.99 228.565 151.01 228.565 151.474 229.993L154.203 238.393C154.411 239.031 155.006 239.464 155.677 239.464H164.509C166.011 239.464 166.635 241.385 165.42 242.268L158.275 247.459C157.732 247.853 157.505 248.553 157.712 249.192L160.441 257.591C160.905 259.019 159.271 260.207 158.056 259.324L150.911 254.133C150.368 253.738 149.632 253.738 149.089 254.133L141.944 259.324C140.729 260.207 139.095 259.019 139.559 257.591L142.288 249.192C142.495 248.553 142.268 247.853 141.725 247.459L134.58 242.268C133.365 241.385 133.989 239.464 135.491 239.464H144.322C144.994 239.464 145.589 239.031 145.797 238.393L148.526 229.993Z" fill="#FFB84F"/>
<path d="M148.526 229.993C148.99 228.565 151.01 228.565 151.474 229.993L154.203 238.393C154.411 239.031 155.006 239.464 155.677 239.464H164.509C166.011 239.464 166.635 241.385 165.42 242.268L158.275 247.459C157.732 247.853 157.505 248.553 157.712 249.192L160.441 257.591C160.905 259.019 159.271 260.207 158.056 259.324L150.911 254.133C150.368 253.738 149.632 253.738 149.089 254.133L141.944 259.324C140.729 260.207 139.095 259.019 139.559 257.591L142.288 249.192C142.495 248.553 142.268 247.853 141.725 247.459L134.58 242.268C133.365 241.385 133.989 239.464 135.491 239.464H144.322C144.994 239.464 145.589 239.031 145.797 238.393L148.526 229.993Z" stroke="#FFB84F"/>
<path d="M148.526 38.5369C148.99 37.1089 151.01 37.1089 151.474 38.5369L154.203 46.9365C154.411 47.5751 155.006 48.0075 155.677 48.0075H164.509C166.011 48.0075 166.635 49.9289 165.42 50.8115L158.275 56.0027C157.732 56.3974 157.505 57.097 157.712 57.7356L160.441 66.1352C160.905 67.5632 159.271 68.7507 158.056 67.8681L150.911 62.6769C150.368 62.2822 149.632 62.2822 149.089 62.6769L141.944 67.8681C140.729 68.7507 139.095 67.5632 139.559 66.1352L142.288 57.7356C142.495 57.097 142.268 56.3974 141.725 56.0027L134.58 50.8115C133.365 49.9289 133.989 48.0075 135.491 48.0075H144.322C144.994 48.0075 145.589 47.5751 145.797 46.9365L148.526 38.5369Z" fill="#FFB84F"/>
<path d="M148.526 38.5369C148.99 37.1089 151.01 37.1089 151.474 38.5369L154.203 46.9365C154.411 47.5751 155.006 48.0075 155.677 48.0075H164.509C166.011 48.0075 166.635 49.9289 165.42 50.8115L158.275 56.0027C157.732 56.3974 157.505 57.097 157.712 57.7356L160.441 66.1352C160.905 67.5632 159.271 68.7507 158.056 67.8681L150.911 62.6769C150.368 62.2822 149.632 62.2822 149.089 62.6769L141.944 67.8681C140.729 68.7507 139.095 67.5632 139.559 66.1352L142.288 57.7356C142.495 57.097 142.268 56.3974 141.725 56.0027L134.58 50.8115C133.365 49.9289 133.989 48.0075 135.491 48.0075H144.322C144.994 48.0075 145.589 47.5751 145.797 46.9365L148.526 38.5369Z" stroke="#FFB84F"/>
<path d="M52.7977 134.265C53.2617 132.837 55.282 132.837 55.746 134.265L58.4752 142.665C58.6827 143.304 59.2778 143.736 59.9493 143.736H68.7811C70.2826 143.736 70.9069 145.657 69.6922 146.54L62.5471 151.731C62.0038 152.126 61.7765 152.826 61.984 153.464L64.7132 161.864C65.1772 163.292 63.5427 164.479 62.328 163.597L55.1829 158.405C54.6397 158.011 53.904 158.011 53.3608 158.405L46.2157 163.597C45.0009 164.479 43.3665 163.292 43.8305 161.864L46.5597 153.464C46.7672 152.826 46.5399 152.126 45.9966 151.731L38.8515 146.54C37.6368 145.657 38.2611 143.736 39.7626 143.736H48.5944C49.2659 143.736 49.861 143.304 50.0685 142.665L52.7977 134.265Z" fill="#FFB84F"/>
<path d="M52.7977 134.265C53.2617 132.837 55.282 132.837 55.746 134.265L58.4752 142.665C58.6827 143.304 59.2778 143.736 59.9493 143.736H68.7811C70.2826 143.736 70.9069 145.657 69.6922 146.54L62.5471 151.731C62.0038 152.126 61.7765 152.826 61.984 153.464L64.7132 161.864C65.1772 163.292 63.5427 164.479 62.328 163.597L55.1829 158.405C54.6397 158.011 53.904 158.011 53.3608 158.405L46.2157 163.597C45.0009 164.479 43.3665 163.292 43.8305 161.864L46.5597 153.464C46.7672 152.826 46.5399 152.126 45.9966 151.731L38.8515 146.54C37.6368 145.657 38.2611 143.736 39.7626 143.736H48.5944C49.2659 143.736 49.861 143.304 50.0685 142.665L52.7977 134.265Z" stroke="#FFB84F"/>
<path d="M244.254 134.265C244.718 132.837 246.738 132.837 247.202 134.265L249.931 142.665C250.139 143.304 250.734 143.736 251.405 143.736H260.237C261.739 143.736 262.363 145.657 261.148 146.54L254.003 151.731C253.46 152.126 253.233 152.826 253.44 153.464L256.169 161.864C256.633 163.292 254.999 164.479 253.784 163.597L246.639 158.405C246.096 158.011 245.36 158.011 244.817 158.405L237.672 163.597C236.457 164.479 234.823 163.292 235.287 161.864L238.016 153.464C238.223 152.826 237.996 152.126 237.453 151.731L230.308 146.54C229.093 145.657 229.717 143.736 231.219 143.736H240.05C240.722 143.736 241.317 143.304 241.525 142.665L244.254 134.265Z" fill="#FFB84F"/>
<path d="M244.254 134.265C244.718 132.837 246.738 132.837 247.202 134.265L249.931 142.665C250.139 143.304 250.734 143.736 251.405 143.736H260.237C261.739 143.736 262.363 145.657 261.148 146.54L254.003 151.731C253.46 152.126 253.233 152.826 253.44 153.464L256.169 161.864C256.633 163.292 254.999 164.479 253.784 163.597L246.639 158.405C246.096 158.011 245.36 158.011 244.817 158.405L237.672 163.597C236.457 164.479 234.823 163.292 235.287 161.864L238.016 153.464C238.223 152.826 237.996 152.126 237.453 151.731L230.308 146.54C229.093 145.657 229.717 143.736 231.219 143.736H240.05C240.722 143.736 241.317 143.304 241.525 142.665L244.254 134.265Z" stroke="#FFB84F"/>
<path d="M101.225 50.9256C101.689 49.4976 103.709 49.4976 104.173 50.9256L106.902 59.3251C107.11 59.9638 107.705 60.3962 108.377 60.3962H117.208C118.71 60.3962 119.334 62.3176 118.119 63.2001L110.974 68.3913C110.431 68.786 110.204 69.4857 110.411 70.1243L113.14 78.5238C113.604 79.9519 111.97 81.1394 110.755 80.2568L103.61 75.0656C103.067 74.6709 102.331 74.6709 101.788 75.0656L94.6429 80.2568C93.4282 81.1394 91.7937 79.9519 92.2577 78.5238L94.9869 70.1243C95.1944 69.4857 94.9671 68.786 94.4238 68.3913L87.2788 63.2001C86.064 62.3176 86.6883 60.3962 88.1898 60.3962H97.0216C97.6931 60.3962 98.2883 59.9638 98.4958 59.3251L101.225 50.9256Z" fill="#FFB84F"/>
<path d="M101.225 50.9256C101.689 49.4976 103.709 49.4976 104.173 50.9256L106.902 59.3251C107.11 59.9638 107.705 60.3962 108.377 60.3962H117.208C118.71 60.3962 119.334 62.3176 118.119 63.2001L110.974 68.3913C110.431 68.786 110.204 69.4857 110.411 70.1243L113.14 78.5238C113.604 79.9519 111.97 81.1394 110.755 80.2568L103.61 75.0656C103.067 74.6709 102.331 74.6709 101.788 75.0656L94.6429 80.2568C93.4282 81.1394 91.7937 79.9519 92.2577 78.5238L94.9869 70.1243C95.1944 69.4857 94.9671 68.786 94.4238 68.3913L87.2788 63.2001C86.064 62.3176 86.6883 60.3962 88.1898 60.3962H97.0216C97.6931 60.3962 98.2883 59.9638 98.4958 59.3251L101.225 50.9256Z" stroke="#FFB84F"/>
<path d="M101.225 215.352C101.689 213.924 103.709 213.924 104.173 215.352L106.902 223.752C107.11 224.391 107.705 224.823 108.377 224.823H117.208C118.71 224.823 119.334 226.744 118.119 227.627L110.974 232.818C110.431 233.213 110.204 233.912 110.411 234.551L113.14 242.951C113.604 244.379 111.97 245.566 110.755 244.684L103.61 239.492C103.067 239.098 102.331 239.098 101.788 239.492L94.6429 244.684C93.4282 245.566 91.7937 244.379 92.2577 242.951L94.9869 234.551C95.1944 233.912 94.9671 233.213 94.4238 232.818L87.2788 227.627C86.064 226.744 86.6883 224.823 88.1898 224.823H97.0216C97.6931 224.823 98.2883 224.391 98.4958 223.752L101.225 215.352Z" fill="#FFB84F"/>
<path d="M101.225 215.352C101.689 213.924 103.709 213.924 104.173 215.352L106.902 223.752C107.11 224.391 107.705 224.823 108.377 224.823H117.208C118.71 224.823 119.334 226.744 118.119 227.627L110.974 232.818C110.431 233.213 110.204 233.912 110.411 234.551L113.14 242.951C113.604 244.379 111.97 245.566 110.755 244.684L103.61 239.492C103.067 239.098 102.331 239.098 101.788 239.492L94.6429 244.684C93.4282 245.566 91.7937 244.379 92.2577 242.951L94.9869 234.551C95.1944 233.912 94.9671 233.213 94.4238 232.818L87.2788 227.627C86.064 226.744 86.6883 224.823 88.1898 224.823H97.0216C97.6931 224.823 98.2883 224.391 98.4958 223.752L101.225 215.352Z" stroke="#FFB84F"/>
<path d="M195.827 215.352C196.291 213.924 198.311 213.924 198.775 215.352L201.504 223.752C201.712 224.391 202.307 224.823 202.979 224.823H211.81C213.312 224.823 213.936 226.744 212.721 227.627L205.576 232.818C205.033 233.213 204.806 233.912 205.013 234.551L207.742 242.951C208.206 244.379 206.572 245.566 205.357 244.684L198.212 239.492C197.669 239.098 196.933 239.098 196.39 239.492L189.245 244.684C188.03 245.566 186.396 244.379 186.86 242.951L189.589 234.551C189.796 233.912 189.569 233.213 189.026 232.818L181.881 227.627C180.666 226.744 181.29 224.823 182.792 224.823H191.624C192.295 224.823 192.89 224.391 193.098 223.752L195.827 215.352Z" fill="#FFB84F"/>
<path d="M195.827 215.352C196.291 213.924 198.311 213.924 198.775 215.352L201.504 223.752C201.712 224.391 202.307 224.823 202.979 224.823H211.81C213.312 224.823 213.936 226.744 212.721 227.627L205.576 232.818C205.033 233.213 204.806 233.912 205.013 234.551L207.742 242.951C208.206 244.379 206.572 245.566 205.357 244.684L198.212 239.492C197.669 239.098 196.933 239.098 196.39 239.492L189.245 244.684C188.03 245.566 186.396 244.379 186.86 242.951L189.589 234.551C189.796 233.912 189.569 233.213 189.026 232.818L181.881 227.627C180.666 226.744 181.29 224.823 182.792 224.823H191.624C192.295 224.823 192.89 224.391 193.098 223.752L195.827 215.352Z" stroke="#FFB84F"/>
<path d="M230.739 181.566C231.203 180.138 233.223 180.138 233.687 181.566L236.417 189.966C236.624 190.604 237.219 191.037 237.891 191.037H246.723C248.224 191.037 248.848 192.958 247.634 193.841L240.488 199.032C239.945 199.427 239.718 200.126 239.925 200.765L242.655 209.164C243.119 210.593 241.484 211.78 240.269 210.897L233.124 205.706C232.581 205.312 231.845 205.312 231.302 205.706L224.157 210.897C222.942 211.78 221.308 210.593 221.772 209.164L224.501 200.765C224.709 200.126 224.481 199.427 223.938 199.032L216.793 193.841C215.578 192.958 216.202 191.037 217.704 191.037H226.536C227.207 191.037 227.802 190.604 228.01 189.966L230.739 181.566Z" fill="#FFB84F"/>
<path d="M230.739 181.566C231.203 180.138 233.223 180.138 233.687 181.566L236.417 189.966C236.624 190.604 237.219 191.037 237.891 191.037H246.723C248.224 191.037 248.848 192.958 247.634 193.841L240.488 199.032C239.945 199.427 239.718 200.126 239.925 200.765L242.655 209.164C243.119 210.593 241.484 211.78 240.269 210.897L233.124 205.706C232.581 205.312 231.845 205.312 231.302 205.706L224.157 210.897C222.942 211.78 221.308 210.593 221.772 209.164L224.501 200.765C224.709 200.126 224.481 199.427 223.938 199.032L216.793 193.841C215.578 192.958 216.202 191.037 217.704 191.037H226.536C227.207 191.037 227.802 190.604 228.01 189.966L230.739 181.566Z" stroke="#FFB84F"/>
<path d="M66.3124 86.9637C66.7763 85.5357 68.7966 85.5357 69.2606 86.9637L71.9898 95.3632C72.1973 96.0019 72.7924 96.4343 73.4639 96.4343H82.2957C83.7973 96.4343 84.4216 98.3557 83.2068 99.2382L76.0617 104.429C75.5185 104.824 75.2912 105.524 75.4987 106.162L78.2278 114.562C78.6918 115.99 77.0574 117.177 75.8426 116.295L68.6976 111.104C68.1543 110.709 67.4187 110.709 66.8754 111.104L59.7303 116.295C58.5156 117.177 56.8811 115.99 57.3451 114.562L60.0743 106.162C60.2818 105.524 60.0545 104.824 59.5112 104.429L52.3662 99.2382C51.1514 98.3557 51.7757 96.4343 53.2772 96.4343H62.109C62.7805 96.4343 63.3757 96.0019 63.5832 95.3632L66.3124 86.9637Z" fill="#FFB84F"/>
<path d="M66.3124 86.9637C66.7763 85.5357 68.7966 85.5357 69.2606 86.9637L71.9898 95.3632C72.1973 96.0019 72.7924 96.4343 73.4639 96.4343H82.2957C83.7973 96.4343 84.4216 98.3557 83.2068 99.2382L76.0617 104.429C75.5185 104.824 75.2912 105.524 75.4987 106.162L78.2278 114.562C78.6918 115.99 77.0574 117.177 75.8426 116.295L68.6976 111.104C68.1543 110.709 67.4187 110.709 66.8754 111.104L59.7303 116.295C58.5156 117.177 56.8811 115.99 57.3451 114.562L60.0743 106.162C60.2818 105.524 60.0545 104.824 59.5112 104.429L52.3662 99.2382C51.1514 98.3557 51.7757 96.4343 53.2772 96.4343H62.109C62.7805 96.4343 63.3757 96.0019 63.5832 95.3632L66.3124 86.9637Z" stroke="#FFB84F"/>
<path d="M66.3124 181.566C66.7763 180.138 68.7966 180.138 69.2606 181.566L71.9898 189.966C72.1973 190.604 72.7924 191.037 73.4639 191.037H82.2957C83.7973 191.037 84.4216 192.958 83.2068 193.841L76.0617 199.032C75.5185 199.427 75.2912 200.126 75.4987 200.765L78.2278 209.164C78.6918 210.593 77.0574 211.78 75.8426 210.897L68.6976 205.706C68.1543 205.312 67.4187 205.312 66.8754 205.706L59.7303 210.897C58.5156 211.78 56.8811 210.593 57.3451 209.164L60.0743 200.765C60.2818 200.126 60.0545 199.427 59.5112 199.032L52.3662 193.841C51.1514 192.958 51.7757 191.037 53.2772 191.037H62.109C62.7805 191.037 63.3757 190.604 63.5832 189.966L66.3124 181.566Z" fill="#FFB84F"/>
<path d="M66.3124 181.566C66.7763 180.138 68.7966 180.138 69.2606 181.566L71.9898 189.966C72.1973 190.604 72.7924 191.037 73.4639 191.037H82.2957C83.7973 191.037 84.4216 192.958 83.2068 193.841L76.0617 199.032C75.5185 199.427 75.2912 200.126 75.4987 200.765L78.2278 209.164C78.6918 210.593 77.0574 211.78 75.8426 210.897L68.6976 205.706C68.1543 205.312 67.4187 205.312 66.8754 205.706L59.7303 210.897C58.5156 211.78 56.8811 210.593 57.3451 209.164L60.0743 200.765C60.2818 200.126 60.0545 199.427 59.5112 199.032L52.3662 193.841C51.1514 192.958 51.7757 191.037 53.2772 191.037H62.109C62.7805 191.037 63.3757 190.604 63.5832 189.966L66.3124 181.566Z" stroke="#FFB84F"/>
<path d="M230.739 86.9637C231.203 85.5357 233.223 85.5357 233.687 86.9637L236.417 95.3632C236.624 96.0019 237.219 96.4343 237.891 96.4343H246.723C248.224 96.4343 248.848 98.3557 247.634 99.2382L240.488 104.429C239.945 104.824 239.718 105.524 239.925 106.162L242.655 114.562C243.119 115.99 241.484 117.177 240.269 116.295L233.124 111.104C232.581 110.709 231.845 110.709 231.302 111.104L224.157 116.295C222.942 117.177 221.308 115.99 221.772 114.562L224.501 106.162C224.709 105.524 224.481 104.824 223.938 104.429L216.793 99.2382C215.578 98.3557 216.202 96.4343 217.704 96.4343H226.536C227.207 96.4343 227.802 96.0019 228.01 95.3632L230.739 86.9637Z" fill="#FFB84F"/>
<path d="M230.739 86.9637C231.203 85.5357 233.223 85.5357 233.687 86.9637L236.417 95.3632C236.624 96.0019 237.219 96.4343 237.891 96.4343H246.723C248.224 96.4343 248.848 98.3557 247.634 99.2382L240.488 104.429C239.945 104.824 239.718 105.524 239.925 106.162L242.655 114.562C243.119 115.99 241.484 117.177 240.269 116.295L233.124 111.104C232.581 110.709 231.845 110.709 231.302 111.104L224.157 116.295C222.942 117.177 221.308 115.99 221.772 114.562L224.501 106.162C224.709 105.524 224.481 104.824 223.938 104.429L216.793 99.2382C215.578 98.3557 216.202 96.4343 217.704 96.4343H226.536C227.207 96.4343 227.802 96.0019 228.01 95.3632L230.739 86.9637Z" stroke="#FFB84F"/>
<path d="M195.827 50.9256C196.291 49.4976 198.311 49.4976 198.775 50.9256L201.504 59.3251C201.712 59.9638 202.307 60.3962 202.979 60.3962H211.81C213.312 60.3962 213.936 62.3176 212.721 63.2001L205.576 68.3913C205.033 68.786 204.806 69.4857 205.013 70.1243L207.742 78.5238C208.206 79.9519 206.572 81.1394 205.357 80.2568L198.212 75.0656C197.669 74.6709 196.933 74.6709 196.39 75.0656L189.245 80.2568C188.03 81.1394 186.396 79.9519 186.86 78.5238L189.589 70.1243C189.796 69.4857 189.569 68.786 189.026 68.3913L181.881 63.2001C180.666 62.3176 181.29 60.3962 182.792 60.3962H191.624C192.295 60.3962 192.89 59.9638 193.098 59.3251L195.827 50.9256Z" fill="#FFB84F"/>
<path d="M195.827 50.9256C196.291 49.4976 198.311 49.4976 198.775 50.9256L201.504 59.3251C201.712 59.9638 202.307 60.3962 202.979 60.3962H211.81C213.312 60.3962 213.936 62.3176 212.721 63.2001L205.576 68.3913C205.033 68.786 204.806 69.4857 205.013 70.1243L207.742 78.5238C208.206 79.9519 206.572 81.1394 205.357 80.2568L198.212 75.0656C197.669 74.6709 196.933 74.6709 196.39 75.0656L189.245 80.2568C188.03 81.1394 186.396 79.9519 186.86 78.5238L189.589 70.1243C189.796 69.4857 189.569 68.786 189.026 68.3913L181.881 63.2001C180.666 62.3176 181.29 60.3962 182.792 60.3962H191.624C192.295 60.3962 192.89 59.9638 193.098 59.3251L195.827 50.9256Z" stroke="#FFB84F"/>
</svg>
