<svg width="300" height="300" viewBox="0 0 300 300" fill="none" xmlns="http://www.w3.org/2000/svg">
<g clip-path="url(#clip0_118:1194)">
<rect width="300" height="300" fill="white"/>
<rect width="300" height="300" fill="#59AFFF"/>
<path d="M147.975 47.7879C148.449 46.3019 150.551 46.3019 151.025 47.7879L154.646 59.16C154.857 59.8238 155.474 60.2746 156.17 60.2746H167.956C169.498 60.2746 170.148 62.2415 168.909 63.1599L159.319 70.2698C158.769 70.6771 158.54 71.3888 158.747 72.0405L162.397 83.5032C162.868 84.983 161.167 86.1988 159.92 85.2739L150.453 78.2556C149.887 77.836 149.113 77.836 148.547 78.2556L139.08 85.2739C137.833 86.1988 136.132 84.983 136.603 83.5032L140.253 72.0405C140.46 71.3888 140.231 70.6771 139.681 70.2698L130.091 63.1599C128.852 62.2415 129.502 60.2746 131.044 60.2746H142.83C143.526 60.2746 144.143 59.8238 144.354 59.16L147.975 47.7879Z" fill="white"/>
<path d="M156.156 212.5C157.178 211.335 159.094 212.158 158.952 213.702L157.859 225.599C157.796 226.289 158.184 226.942 158.821 227.216L169.798 231.932C171.222 232.543 171.031 234.62 169.52 234.962L157.867 237.599C157.191 237.752 156.69 238.323 156.627 239.013L155.534 250.911C155.392 252.454 153.358 252.915 152.565 251.583L146.456 241.315C146.102 240.719 145.404 240.419 144.728 240.572L133.075 243.209C131.564 243.552 130.497 241.759 131.519 240.594L139.397 231.611C139.854 231.09 139.923 230.334 139.569 229.738L133.46 219.47C132.667 218.138 134.042 216.57 135.466 217.182L146.444 221.898C147.081 222.172 147.821 222.004 148.278 221.483L156.156 212.5Z" fill="white"/>
<path d="M61.754 130.583C61.8832 129.039 63.9134 128.562 64.7168 129.887L70.9093 140.105C71.2686 140.698 71.9687 140.992 72.6435 140.833L84.2745 138.101C85.7834 137.747 86.8643 139.53 85.8519 140.704L78.0481 149.75C77.5953 150.275 77.532 151.032 77.8913 151.625L84.0838 161.842C84.8872 163.168 83.525 164.747 82.096 164.147L71.0804 159.521C70.4413 159.252 69.7021 159.426 69.2493 159.951L61.4455 168.998C60.4331 170.171 58.5103 169.364 58.6395 167.819L59.6354 155.913C59.6932 155.222 59.2996 154.573 58.6605 154.305L47.6449 149.678C46.2159 149.078 46.3897 147 47.8986 146.645L59.5296 143.913C60.2044 143.755 60.7004 143.18 60.7582 142.489L61.754 130.583Z" fill="white"/>
<path d="M235.749 130.33C236.579 129.021 238.599 129.54 238.696 131.087L239.447 143.011C239.491 143.703 239.975 144.288 240.646 144.46L252.218 147.431C253.72 147.816 253.851 149.898 252.41 150.468L241.301 154.867C240.657 155.122 240.25 155.763 240.293 156.455L241.044 168.379C241.141 169.926 239.202 170.694 238.214 169.499L230.598 160.294C230.156 159.76 229.421 159.571 228.776 159.826L217.668 164.225C216.227 164.795 214.897 163.189 215.728 161.88L222.129 151.792C222.501 151.207 222.453 150.449 222.011 149.915L214.395 140.709C213.407 139.515 214.525 137.754 216.026 138.14L227.598 141.11C228.27 141.283 228.976 141.003 229.347 140.418L235.749 130.33Z" fill="white"/>
</g>
<defs>
<clipPath id="clip0_118:1194">
<rect width="300" height="300" fill="white"/>
</clipPath>
</defs>
</svg>
