<svg width="300" height="300" viewBox="0 0 300 300" fill="none" xmlns="http://www.w3.org/2000/svg">
<g clip-path="url(#clip0_118:1667)">
<rect width="300" height="300" fill="white"/>
<rect x="300" y="200" width="300" height="100" transform="rotate(-180 300 200)" fill="#FFB84F"/>
<rect x="300" y="100" width="300" height="100" transform="rotate(-180 300 100)" fill="#EF4B4B"/>
<rect x="300" y="300" width="300" height="100" transform="rotate(-180 300 300)" fill="#3B9644"/>
<path d="M145.696 110.708C146.893 107.023 152.107 107.023 153.304 110.708L160.164 131.822C160.7 133.47 162.236 134.586 163.969 134.586H186.169C190.044 134.586 191.655 139.544 188.52 141.822L170.56 154.871C169.158 155.889 168.571 157.695 169.107 159.343L175.967 180.456C177.164 184.141 172.946 187.206 169.811 184.928L151.851 171.879C150.449 170.861 148.551 170.861 147.149 171.879L129.189 184.928C126.054 187.206 121.836 184.141 123.033 180.456L129.893 159.343C130.429 157.695 129.842 155.889 128.44 154.871L110.48 141.822C107.345 139.544 108.956 134.586 112.831 134.586H135.031C136.764 134.586 138.3 133.47 138.836 131.822L145.696 110.708Z" fill="#252525"/>
</g>
<defs>
<clipPath id="clip0_118:1667">
<rect width="300" height="300" fill="white"/>
</clipPath>
</defs>
</svg>
