<svg width="300" height="300" viewBox="0 0 300 300" fill="none" xmlns="http://www.w3.org/2000/svg">
<g clip-path="url(#clip0_118:1672)">
<rect width="300" height="300" fill="#FFB84F"/>
<rect y="300" width="150" height="300" transform="rotate(-90 0 300)" fill="#3B9644"/>
<rect y="300" width="300" height="93" transform="rotate(-90 0 300)" fill="#EF4B4B"/>
<path d="M43.2664 121.952C44.2842 118.82 48.7158 118.82 49.7336 121.952L54.3804 136.254C54.8356 137.654 56.1411 138.603 57.614 138.603L72.6515 138.603C75.9452 138.603 77.3147 142.818 74.65 144.754L62.4844 153.592C61.2928 154.458 60.7941 155.993 61.2493 157.394L65.8961 171.695C66.9139 174.828 63.3287 177.432 60.6641 175.496L48.4985 166.658C47.3068 165.792 45.6932 165.792 44.5015 166.658L32.3359 175.496C29.6713 177.432 26.0861 174.828 27.1039 171.695L31.7507 157.394C32.2059 155.993 31.7072 154.458 30.5156 153.592L18.35 144.754C15.6854 142.818 17.0548 138.603 20.3484 138.603L35.386 138.603C36.8589 138.603 38.1644 137.654 38.6196 136.254L43.2664 121.952Z" fill="#252525"/>
</g>
<defs>
<clipPath id="clip0_118:1672">
<rect width="300" height="300" fill="white"/>
</clipPath>
</defs>
</svg>
