<svg width="300" height="300" viewBox="0 0 300 300" fill="none" xmlns="http://www.w3.org/2000/svg">
<rect width="300" height="300" fill="#EF4B4B"/>
<path fill-rule="evenodd" clip-rule="evenodd" d="M154.851 143.933C154.3 144.531 153.602 144.09 153.996 143.378C158.579 135.096 169.431 118.108 182.232 116.201C195.495 114.225 205.828 117.679 214.516 127.893C218.093 132.098 219.453 136.111 221.097 140.43C221.333 141.049 220.649 141.65 220.045 141.378C218.953 140.887 217.855 140.553 216.689 140.493C213.437 140.243 210.903 141.944 208.572 144.306C205.924 147.208 202.929 149.371 198.706 151.068C192.82 153.635 186.141 152.829 181.101 149.107C177.815 146.778 175.903 143.425 172.319 141.307C169.379 139.716 166.71 139.007 162.657 139.686C158.295 140.976 156.348 142.312 154.851 143.933Z" fill="white" stroke="white" stroke-width="0.6" stroke-linecap="round" stroke-linejoin="round"/>
<path fill-rule="evenodd" clip-rule="evenodd" d="M146.854 145.812C147.267 146.513 146.644 147.054 146.077 146.471C139.45 139.656 126.219 124.219 128.164 111.332C130.179 97.993 136.609 89.114 149 83.7787C154.123 81.5729 158.4 81.4547 163.059 81.1479C163.721 81.1044 164.095 81.9362 163.656 82.4334C162.857 83.3389 162.208 84.2958 161.804 85.3993C160.601 88.448 161.494 91.3809 163.084 94.3136C165.102 97.7096 166.304 101.221 166.692 105.775C167.429 112.181 164.675 118.356 159.592 122.099C156.371 124.569 152.57 125.418 149.465 128.235C147.06 130.589 145.586 132.943 145.042 137.033C144.997 141.629 145.72 143.891 146.854 145.812Z" fill="white" stroke="white" stroke-width="0.6" stroke-linecap="round" stroke-linejoin="round"/>
<path fill-rule="evenodd" clip-rule="evenodd" d="M158.264 151.595C157.522 151.262 157.718 150.46 158.518 150.608C167.828 152.323 187.383 157.217 193.256 168.75C199.342 180.699 199.349 191.594 192.423 203.076C189.571 207.804 186.199 210.368 182.625 213.298C182.113 213.718 181.326 213.261 181.392 212.602C181.511 211.41 181.479 210.263 181.166 209.139C180.37 205.975 177.952 204.113 174.972 202.653C171.379 201.064 168.377 198.911 165.427 195.445C161.123 190.679 159.766 184.09 161.694 178.129C162.86 174.273 165.432 171.395 166.302 167.324C166.877 164.031 166.701 161.275 164.771 157.648C162.162 153.921 160.276 152.499 158.264 151.595Z" fill="white" stroke="white" stroke-width="0.6" stroke-linecap="round" stroke-linejoin="round"/>
<path fill-rule="evenodd" clip-rule="evenodd" d="M145.096 153.38C145.893 153.218 146.202 153.983 145.466 154.33C136.906 158.372 118.172 165.814 106.671 159.879C94.7546 153.73 88.3886 144.888 87.3091 131.522C86.8646 126.019 88.1061 121.969 89.2965 117.503C89.4672 116.863 90.3733 116.775 90.7046 117.349C91.3038 118.386 91.999 119.299 92.91 120.029C95.4028 122.132 98.453 122.233 101.725 121.679C105.57 120.872 109.264 120.867 113.683 121.959C119.959 123.316 124.907 127.874 126.821 133.839C128.127 137.651 127.718 141.489 129.388 145.302C130.843 148.311 132.595 150.447 136.28 152.264C140.574 153.768 142.935 153.821 145.096 153.38Z" fill="white" stroke="white" stroke-width="0.6" stroke-linecap="round" stroke-linejoin="round"/>
<path fill-rule="evenodd" clip-rule="evenodd" d="M152.564 157.62C152.675 156.815 153.5 156.778 153.583 157.587C154.551 167.004 155.345 187.146 145.926 196.022C136.167 205.218 125.712 208.285 112.747 204.862C107.409 203.453 104.001 200.936 100.185 198.329C99.6381 197.956 99.8559 197.072 100.507 196.95C101.684 196.729 102.776 196.377 103.768 195.76C106.58 194.108 107.688 191.265 108.253 187.994C108.769 184.1 109.992 180.614 112.49 176.809C115.855 171.34 121.799 168.188 128.061 168.364C132.089 168.4 135.574 170.06 139.725 169.752C143.047 169.379 145.643 168.437 148.582 165.565C151.426 162.015 152.261 159.806 152.564 157.62Z" fill="white" stroke="white" stroke-width="0.6" stroke-linecap="round" stroke-linejoin="round"/>
</svg>
