<svg width="300" height="300" viewBox="0 0 300 300" fill="none" xmlns="http://www.w3.org/2000/svg">
<g clip-path="url(#clip0_118:1681)">
<rect width="300" height="300" fill="white"/>
<rect x="300" y="100" width="300" height="100" transform="rotate(-180 300 100)" fill="#003EBA"/>
<rect x="326.5" y="192.5" width="341" height="85" transform="rotate(-180 326.5 192.5)" fill="white" stroke="white" stroke-width="15"/>
<rect x="300" y="300" width="300" height="100" transform="rotate(-180 300 300)" fill="#003EBA"/>
<path d="M147.908 135.44C148.566 133.413 151.434 133.413 152.092 135.44L154.221 141.99C154.515 142.897 155.36 143.511 156.313 143.511H163.201C165.332 143.511 166.219 146.238 164.494 147.49L158.922 151.539C158.151 152.099 157.828 153.092 158.123 153.999L160.251 160.55C160.91 162.577 158.59 164.262 156.866 163.01L151.293 158.961C150.522 158.401 149.478 158.401 148.707 158.961L143.134 163.01C141.41 164.262 139.09 162.577 139.749 160.55L141.877 153.999C142.172 153.092 141.849 152.099 141.078 151.539L135.506 147.49C133.781 146.238 134.668 143.511 136.799 143.511H143.687C144.64 143.511 145.485 142.897 145.779 141.99L147.908 135.44Z" fill="#003EBA"/>
<path d="M232.908 113.44C233.566 111.413 236.434 111.413 237.092 113.44L239.221 119.99C239.515 120.897 240.36 121.511 241.313 121.511H248.201C250.332 121.511 251.219 124.238 249.494 125.49L243.922 129.539C243.151 130.099 242.828 131.092 243.123 131.999L245.251 138.55C245.91 140.577 243.59 142.262 241.866 141.01L236.293 136.961C235.522 136.401 234.478 136.401 233.707 136.961L228.134 141.01C226.41 142.262 224.09 140.577 224.749 138.55L226.877 131.999C227.172 131.092 226.849 130.099 226.078 129.539L220.506 125.49C218.781 124.238 219.668 121.511 221.799 121.511H228.687C229.64 121.511 230.485 120.897 230.779 119.99L232.908 113.44Z" fill="#003EBA"/>
<path d="M232.908 158.44C233.566 156.413 236.434 156.413 237.092 158.44L239.221 164.99C239.515 165.897 240.36 166.511 241.313 166.511H248.201C250.332 166.511 251.219 169.238 249.494 170.49L243.922 174.539C243.151 175.099 242.828 176.092 243.123 176.999L245.251 183.55C245.91 185.577 243.59 187.262 241.866 186.01L236.293 181.961C235.522 181.401 234.478 181.401 233.707 181.961L228.134 186.01C226.41 187.262 224.09 185.577 224.749 183.55L226.877 176.999C227.172 176.092 226.849 175.099 226.078 174.539L220.506 170.49C218.781 169.238 219.668 166.511 221.799 166.511H228.687C229.64 166.511 230.485 165.897 230.779 164.99L232.908 158.44Z" fill="#003EBA"/>
<path d="M62.9077 113.44C63.5662 111.413 66.4338 111.413 67.0923 113.44L69.2209 119.99C69.5154 120.897 70.3601 121.511 71.3132 121.511H78.2013C80.3325 121.511 81.2186 124.238 79.4944 125.49L73.9218 129.539C73.1508 130.099 72.8281 131.092 73.1226 131.999L75.2512 138.55C75.9097 140.577 73.5899 142.262 71.8657 141.01L66.2931 136.961C65.5221 136.401 64.4779 136.401 63.7069 136.961L58.1343 141.01C56.4101 142.262 54.0903 140.577 54.7488 138.55L56.8774 131.999C57.1719 131.092 56.8492 130.099 56.0782 129.539L50.5056 125.49C48.7814 124.238 49.6675 121.511 51.7987 121.511H58.6868C59.6399 121.511 60.4846 120.897 60.7791 119.99L62.9077 113.44Z" fill="#003EBA"/>
<path d="M62.9077 158.44C63.5662 156.413 66.4338 156.413 67.0923 158.44L69.2209 164.99C69.5154 165.897 70.3601 166.511 71.3132 166.511H78.2013C80.3325 166.511 81.2186 169.238 79.4944 170.49L73.9218 174.539C73.1508 175.099 72.8281 176.092 73.1226 176.999L75.2512 183.55C75.9097 185.577 73.5899 187.262 71.8657 186.01L66.2931 181.961C65.5221 181.401 64.4779 181.401 63.7069 181.961L58.1343 186.01C56.4101 187.262 54.0903 185.577 54.7488 183.55L56.8774 176.999C57.1719 176.092 56.8492 175.099 56.0782 174.539L50.5056 170.49C48.7814 169.238 49.6675 166.511 51.7987 166.511H58.6868C59.6399 166.511 60.4846 165.897 60.7791 164.99L62.9077 158.44Z" fill="#003EBA"/>
</g>
<defs>
<clipPath id="clip0_118:1681">
<rect width="300" height="300" fill="white"/>
</clipPath>
</defs>
</svg>
