<svg width="300" height="300" viewBox="0 0 300 300" fill="none" xmlns="http://www.w3.org/2000/svg">
<g clip-path="url(#clip0_118:263)">
<rect width="300" height="300" fill="white"/>
<rect x="300" y="300" width="300" height="100" transform="rotate(-180 300 300)" fill="#3661F6"/>
<rect x="300" y="100" width="300" height="100" transform="rotate(-180 300 100)" fill="#FF4A4A"/>
<mask id="path-4-outside-1_118:263" maskUnits="userSpaceOnUse" x="96.6287" y="76" width="107" height="41" fill="black">
<rect fill="white" x="96.6287" y="76" width="107" height="41"/>
<path fill-rule="evenodd" clip-rule="evenodd" d="M137.681 84.8944C137.985 80.5311 141.626 77 146.161 77H154.15C158.449 77 161.933 80.1689 162.553 84.1976C163.583 80.1919 167.413 77.4331 171.652 77.8685L175.007 78.213C179.677 78.6926 183.073 82.8671 182.594 87.537L181.734 95.9037L182.52 89.7484C183.149 84.8193 187.855 81.4787 192.716 82.5098L195.72 83.147C200.082 84.0723 202.987 88.2115 202.375 92.6286L199.303 114.806L180.404 108.854L180.401 108.883L160.155 106.804L160.136 106.959H139.764L139.751 106.822L119.684 108.883L119.681 108.854L100.783 114.806L97.7099 92.6286C97.0979 88.2115 100.003 84.0723 104.366 83.147L107.37 82.5098C112.231 81.4787 116.936 84.8193 117.565 89.7484L118.351 95.9039L117.492 87.537C117.012 82.8671 120.409 78.6926 125.079 78.213L128.433 77.8685C132.913 77.4083 136.938 80.5168 137.681 84.8944Z"/>
</mask>
<path fill-rule="evenodd" clip-rule="evenodd" d="M137.681 84.8944C137.985 80.5311 141.626 77 146.161 77H154.15C158.449 77 161.933 80.1689 162.553 84.1976C163.583 80.1919 167.413 77.4331 171.652 77.8685L175.007 78.213C179.677 78.6926 183.073 82.8671 182.594 87.537L181.734 95.9037L182.52 89.7484C183.149 84.8193 187.855 81.4787 192.716 82.5098L195.72 83.147C200.082 84.0723 202.987 88.2115 202.375 92.6286L199.303 114.806L180.404 108.854L180.401 108.883L160.155 106.804L160.136 106.959H139.764L139.751 106.822L119.684 108.883L119.681 108.854L100.783 114.806L97.7099 92.6286C97.0979 88.2115 100.003 84.0723 104.366 83.147L107.37 82.5098C112.231 81.4787 116.936 84.8193 117.565 89.7484L118.351 95.9039L117.492 87.537C117.012 82.8671 120.409 78.6926 125.079 78.213L128.433 77.8685C132.913 77.4083 136.938 80.5168 137.681 84.8944Z" fill="white"/>
<path d="M137.681 84.8944L136.695 85.0616L138.678 84.964L137.681 84.8944ZM162.553 84.1976L161.565 84.3498L163.522 84.4465L162.553 84.1976ZM171.652 77.8685L171.755 76.8737V76.8737L171.652 77.8685ZM175.007 78.213L174.905 79.2078L175.007 78.213ZM182.594 87.537L183.589 87.6392V87.6392L182.594 87.537ZM181.734 95.9037L180.74 95.8015L182.726 96.0303L181.734 95.9037ZM182.52 89.7484L181.528 89.6218L182.52 89.7484ZM192.716 82.5098L192.508 83.488L192.716 82.5098ZM195.72 83.147L195.512 84.1253L195.72 83.147ZM202.375 92.6286L203.366 92.7658V92.7658L202.375 92.6286ZM199.303 114.806L199.002 115.759L200.131 116.115L200.293 114.943L199.303 114.806ZM180.404 108.854L180.705 107.9L179.535 107.532L179.409 108.752L180.404 108.854ZM180.401 108.883L180.299 109.878L181.294 109.98L181.396 108.985L180.401 108.883ZM160.155 106.804L160.257 105.809L159.279 105.709L159.162 106.685L160.155 106.804ZM160.136 106.959V107.959H161.023L161.129 107.078L160.136 106.959ZM139.764 106.959L138.769 107.058L138.859 107.959H139.764V106.959ZM139.751 106.822L140.746 106.723L140.646 105.725L139.648 105.828L139.751 106.822ZM119.684 108.883L118.689 108.986L118.791 109.98L119.786 109.878L119.684 108.883ZM119.681 108.854L120.676 108.752L120.55 107.532L119.381 107.9L119.681 108.854ZM100.783 114.806L99.7922 114.943L99.9545 116.115L101.083 115.759L100.783 114.806ZM97.7099 92.6286L96.7194 92.7658L97.7099 92.6286ZM104.366 83.147L104.158 82.1688L104.366 83.147ZM107.37 82.5098L107.577 83.488L107.37 82.5098ZM117.565 89.7484L118.557 89.6218L117.565 89.7484ZM118.351 95.9039L117.359 96.0305L119.346 95.8017L118.351 95.9039ZM117.492 87.537L116.497 87.6392L117.492 87.537ZM125.079 78.213L124.976 77.2182L125.079 78.213ZM128.433 77.8685L128.535 78.8632L128.433 77.8685ZM146.161 76C141.091 76 137.023 79.9472 136.683 84.8248L138.678 84.964C138.947 81.1151 142.161 78 146.161 78V76ZM154.15 76H146.161V78H154.15V76ZM163.541 84.0454C162.848 79.5432 158.957 76 154.15 76V78C157.941 78 161.017 80.7946 161.565 84.3498L163.541 84.0454ZM163.522 84.4465C164.43 80.913 167.811 78.4792 171.55 78.8632L171.755 76.8737C167.016 76.387 162.735 79.4709 161.585 83.9487L163.522 84.4465ZM171.55 78.8632L174.905 79.2078L175.109 77.2182L171.755 76.8737L171.55 78.8632ZM174.905 79.2078C179.025 79.631 182.022 83.3144 181.599 87.4348L183.589 87.6392C184.125 82.4199 180.328 77.7543 175.109 77.2182L174.905 79.2078ZM181.599 87.4348L180.74 95.8015L182.729 96.0059L183.589 87.6392L181.599 87.4348ZM182.726 96.0303L183.512 89.8751L181.528 89.6218L180.742 95.7771L182.726 96.0303ZM183.512 89.8751C184.067 85.5258 188.219 82.5782 192.508 83.488L192.923 81.5316C187.49 80.3791 182.232 84.1127 181.528 89.6218L183.512 89.8751ZM192.508 83.488L195.512 84.1253L195.927 82.1688L192.923 81.5316L192.508 83.488ZM195.512 84.1253C199.361 84.9417 201.925 88.5939 201.385 92.4913L203.366 92.7658C204.05 87.8291 200.803 83.203 195.927 82.1688L195.512 84.1253ZM201.385 92.4913L198.312 114.668L200.293 114.943L203.366 92.7658L201.385 92.4913ZM199.603 113.852L180.705 107.9L180.104 109.808L199.002 115.759L199.603 113.852ZM179.409 108.752L179.406 108.781L181.396 108.985L181.399 108.956L179.409 108.752ZM180.503 107.889L160.257 105.809L160.053 107.799L180.299 109.878L180.503 107.889ZM161.129 107.078L161.148 106.923L159.162 106.685L159.143 106.84L161.129 107.078ZM139.764 107.959H160.136V105.959H139.764V107.959ZM138.756 106.922L138.769 107.058L140.759 106.859L140.746 106.723L138.756 106.922ZM119.786 109.878L139.853 107.817L139.648 105.828L119.582 107.889L119.786 109.878ZM118.686 108.956L118.689 108.986L120.679 108.781L120.676 108.752L118.686 108.956ZM101.083 115.759L119.981 109.808L119.381 107.9L100.482 113.852L101.083 115.759ZM96.7194 92.7658L99.7922 114.943L101.773 114.668L98.7005 92.4913L96.7194 92.7658ZM104.158 82.1688C99.2828 83.203 96.0354 87.8291 96.7194 92.7658L98.7005 92.4913C98.1605 88.5939 100.724 84.9417 104.573 84.1253L104.158 82.1688ZM107.162 81.5316L104.158 82.1688L104.573 84.1253L107.577 83.488L107.162 81.5316ZM118.557 89.6218C117.854 84.1127 112.595 80.3791 107.162 81.5316L107.577 83.488C111.866 82.5782 116.018 85.5258 116.573 89.8751L118.557 89.6218ZM119.343 95.7772L118.557 89.6218L116.573 89.8751L117.359 96.0305L119.343 95.7772ZM116.497 87.6392L117.356 96.006L119.346 95.8017L118.486 87.4348L116.497 87.6392ZM124.976 77.2182C119.757 77.7543 115.961 82.4199 116.497 87.6392L118.486 87.4348C118.063 83.3144 121.06 79.631 125.181 79.2078L124.976 77.2182ZM128.331 76.8737L124.976 77.2182L125.181 79.2078L128.535 78.8632L128.331 76.8737ZM138.666 84.7272C137.837 79.8336 133.339 76.3593 128.331 76.8737L128.535 78.8632C132.488 78.4572 136.04 81.2 136.695 85.0616L138.666 84.7272Z" fill="white" mask="url(#path-4-outside-1_118:263)"/>
<path d="M137.703 86.3458C137.203 81.342 141.132 77 146.161 77H154.15C159.246 77 163.197 81.4531 162.59 86.5127L160.136 106.959H139.764L137.703 86.3458Z" fill="#7392FF"/>
<path d="M97.7099 92.6286C97.0979 88.2115 100.003 84.0723 104.366 83.147L107.37 82.5098C112.231 81.4787 116.936 84.8192 117.565 89.7484L119.992 108.756L100.783 114.806L97.7099 92.6286Z" fill="#7392FF"/>
<path d="M137.757 85.4555C137.277 80.7857 133.103 77.3888 128.433 77.8685L125.078 78.213C120.409 78.6927 117.012 82.8671 117.491 87.537L119.684 108.883L139.949 106.802L137.757 85.4555Z" fill="#3661F6"/>
<path d="M202.375 92.6286C202.987 88.2115 200.082 84.0723 195.72 83.147L192.716 82.5098C187.855 81.4787 183.149 84.8192 182.52 89.7484L180.094 108.756L199.303 114.806L202.375 92.6286Z" fill="#7392FF"/>
<path d="M162.329 85.4555C162.808 80.7857 166.983 77.3888 171.653 77.8685L175.007 78.213C179.677 78.6927 183.073 82.8671 182.594 87.537L180.401 108.883L160.136 106.802L162.329 85.4555Z" fill="#3661F6"/>
<ellipse cx="150" cy="119" rx="60" ry="13" fill="white"/>
<mask id="mask0_118:263" style="mask-type:alpha" maskUnits="userSpaceOnUse" x="100" y="116" width="101" height="106">
<path d="M101.19 117.545H199.852V171.669C199.852 198.914 177.766 221 150.521 221C123.276 221 101.19 198.914 101.19 171.669V117.545Z" fill="#C4C4C4" stroke="#FF4A4A" stroke-width="2"/>
</mask>
<g mask="url(#mask0_118:263)">
<path d="M101.19 117.545H199.852V171.669C199.852 198.914 177.766 221 150.521 221C123.276 221 101.19 198.914 101.19 171.669V117.545Z" fill="white" stroke="#FF4A4A" stroke-width="2"/>
<rect x="141.504" y="122.537" width="18.0323" height="18.0323" fill="#FF4A4A"/>
<rect x="159.536" y="140.569" width="18.0323" height="18.0323" fill="#FF4A4A"/>
<rect x="123.472" y="140.569" width="18.0323" height="18.0323" fill="#FF4A4A"/>
<rect x="177.569" y="194.666" width="18.0323" height="18.0323" fill="#FF4A4A"/>
<rect x="105.441" y="122.537" width="18.0323" height="18.0323" fill="#FF4A4A"/>
<rect x="177.569" y="122.537" width="18.0323" height="18.0323" fill="#FF4A4A"/>
<rect x="141.504" y="158.602" width="18.0323" height="18.0323" fill="#FF4A4A"/>
<rect x="159.536" y="176.634" width="18.0323" height="18.0323" fill="#FF4A4A"/>
<rect x="123.472" y="176.634" width="18.0323" height="18.0323" fill="#FF4A4A"/>
<rect x="105.44" y="158.602" width="18.0323" height="18.0323" fill="#FF4A4A"/>
<rect x="177.569" y="158.602" width="18.0323" height="18.0323" fill="#FF4A4A"/>
<rect x="141.504" y="194.666" width="18.0323" height="22.5403" fill="#FF4A4A"/>
<rect x="105.44" y="194.666" width="18.0323" height="18.0323" fill="#FF4A4A"/>
<path d="M103 120H198V172.066C198 197.987 176.987 219 151.066 219H149.934C124.013 219 103 197.987 103 172.066V120Z" stroke="white" stroke-width="2"/>
</g>
</g>
<defs>
<clipPath id="clip0_118:263">
<rect width="300" height="300" fill="white"/>
</clipPath>
</defs>
</svg>
