<svg width="300" height="300" viewBox="0 0 300 300" fill="none" xmlns="http://www.w3.org/2000/svg">
<g clip-path="url(#clip0_118:1578)">
<rect width="300" height="300" fill="white"/>
<rect x="500" y="300" width="500" height="300" transform="rotate(-180 500 300)" fill="white"/>
<rect x="500" y="300" width="500" height="100" transform="rotate(-180 500 300)" fill="#3B9644"/>
<rect x="500" y="200" width="500" height="100" transform="rotate(-180 500 200)" fill="white"/>
<rect x="500" y="100" width="500" height="100" transform="rotate(-180 500 100)" fill="#252525"/>
<path d="M-125.868 362.132L-338 150L-125.868 -62.1323L160 150L-125.868 362.132Z" fill="#FF4A4A"/>
<path d="M62.0434 132.141C62.3312 131.196 63.6688 131.196 63.9566 132.141L66.6017 140.826C66.772 141.385 67.3836 141.68 67.927 141.464L76.3663 138.117C77.2845 137.753 78.1185 138.799 77.5592 139.613L72.4183 147.096C72.0872 147.578 72.2383 148.24 72.7456 148.53L80.6242 153.041C81.4813 153.532 81.1836 154.836 80.1984 154.907L71.1427 155.553C70.5596 155.594 70.1364 156.125 70.2255 156.703L71.6106 165.675C71.7613 166.652 70.5561 167.232 69.8869 166.506L63.7355 159.828C63.3394 159.398 62.6606 159.398 62.2645 159.828L56.1131 166.506C55.4439 167.232 54.2387 166.652 54.3894 165.675L55.7745 156.703C55.8636 156.125 55.4404 155.594 54.8573 155.553L45.8016 154.907C44.8164 154.836 44.5187 153.532 45.3758 153.041L53.2544 148.53C53.7617 148.24 53.9128 147.578 53.5817 147.096L48.4408 139.613C47.8815 138.799 48.7155 137.753 49.6337 138.117L58.073 141.464C58.6164 141.68 59.228 141.385 59.3983 140.826L62.0434 132.141Z" fill="white"/>
</g>
<defs>
<clipPath id="clip0_118:1578">
<rect width="300" height="300" fill="white"/>
</clipPath>
</defs>
</svg>
