<svg width="300" height="300" viewBox="0 0 300 300" fill="none" xmlns="http://www.w3.org/2000/svg">
<g clip-path="url(#clip0_118:1471)">
<rect width="300" height="300" fill="white"/>
<rect x="300" y="150" width="300" height="75" transform="rotate(-180 300 150)" fill="white"/>
<rect x="300" y="225" width="300" height="75" transform="rotate(-180 300 225)" fill="#EF4B4B"/>
<rect x="300" y="75" width="300" height="75" transform="rotate(-180 300 75)" fill="#FFB84F"/>
<rect x="300" y="300" width="300" height="75" transform="rotate(-180 300 300)" fill="#3661F6"/>
<path d="M-125.868 362.132L-338 150L-125.868 -62.1323L160 150L-125.868 362.132Z" fill="#3B9644"/>
<mask id="mask0_118:1471" style="mask-type:alpha" maskUnits="userSpaceOnUse" x="21" y="101" width="71" height="99">
<rect x="21" y="101" width="71" height="99" fill="#C4C4C4"/>
</mask>
<g mask="url(#mask0_118:1471)">
<circle cx="71.7557" cy="150.31" r="48.5333" fill="white"/>
<ellipse cx="93" cy="149.5" rx="48" ry="49.5" fill="#3B9644"/>
</g>
<path d="M79.5489 110.927C79.8483 110.006 81.1517 110.006 81.4511 110.927L82.6329 114.564C82.7668 114.976 83.1507 115.255 83.5839 115.255H87.4084C88.3771 115.255 88.7799 116.495 87.9962 117.064L84.9021 119.312C84.5516 119.567 84.405 120.018 84.5389 120.43L85.7207 124.068C86.02 124.989 84.9656 125.755 84.1818 125.186L81.0878 122.938C80.7373 122.683 80.2627 122.683 79.9122 122.938L76.8182 125.186C76.0344 125.755 74.98 124.989 75.2793 124.068L76.4611 120.43C76.595 120.018 76.4484 119.567 76.0979 119.312L73.0038 117.064C72.2201 116.495 72.6229 115.255 73.5916 115.255H77.4161C77.8493 115.255 78.2332 114.976 78.3671 114.564L79.5489 110.927Z" fill="white"/>
<path d="M79.5489 173.927C79.8483 173.006 81.1517 173.006 81.4511 173.927L82.6329 177.564C82.7668 177.976 83.1507 178.255 83.5839 178.255H87.4084C88.3771 178.255 88.7799 179.495 87.9962 180.064L84.9021 182.312C84.5516 182.567 84.405 183.018 84.5389 183.43L85.7207 187.068C86.02 187.989 84.9656 188.755 84.1818 188.186L81.0878 185.938C80.7373 185.683 80.2627 185.683 79.9122 185.938L76.8182 188.186C76.0344 188.755 74.98 187.989 75.2793 187.068L76.4611 183.43C76.595 183.018 76.4484 182.567 76.0979 182.312L73.0038 180.064C72.2201 179.495 72.6229 178.255 73.5916 178.255H77.4161C77.8493 178.255 78.2332 177.976 78.3671 177.564L79.5489 173.927Z" fill="white"/>
<path d="M79.5489 131.927C79.8483 131.006 81.1517 131.006 81.4511 131.927L82.6329 135.564C82.7668 135.976 83.1507 136.255 83.5839 136.255H87.4084C88.3771 136.255 88.7799 137.495 87.9962 138.064L84.9021 140.312C84.5516 140.567 84.405 141.018 84.5389 141.43L85.7207 145.068C86.02 145.989 84.9656 146.755 84.1818 146.186L81.0878 143.938C80.7373 143.683 80.2627 143.683 79.9122 143.938L76.8182 146.186C76.0344 146.755 74.98 145.989 75.2793 145.068L76.4611 141.43C76.595 141.018 76.4484 140.567 76.0979 140.312L73.0038 138.064C72.2201 137.495 72.6229 136.255 73.5916 136.255H77.4161C77.8493 136.255 78.2332 135.976 78.3671 135.564L79.5489 131.927Z" fill="white"/>
<path d="M79.5489 152.927C79.8483 152.006 81.1517 152.006 81.4511 152.927L82.6329 156.564C82.7668 156.976 83.1507 157.255 83.5839 157.255H87.4084C88.3771 157.255 88.7799 158.495 87.9962 159.064L84.9021 161.312C84.5516 161.567 84.405 162.018 84.5389 162.43L85.7207 166.068C86.02 166.989 84.9656 167.755 84.1818 167.186L81.0878 164.938C80.7373 164.683 80.2627 164.683 79.9122 164.938L76.8182 167.186C76.0344 167.755 74.98 166.989 75.2793 166.068L76.4611 162.43C76.595 162.018 76.4484 161.567 76.0979 161.312L73.0038 159.064C72.2201 158.495 72.6229 157.255 73.5916 157.255H77.4161C77.8493 157.255 78.2332 156.976 78.3671 156.564L79.5489 152.927Z" fill="white"/>
</g>
<defs>
<clipPath id="clip0_118:1471">
<rect width="300" height="300" fill="white"/>
</clipPath>
</defs>
</svg>
