<svg width="300" height="300" viewBox="0 0 300 300" fill="none" xmlns="http://www.w3.org/2000/svg">
<g clip-path="url(#clip0_118:1105)">
<rect width="300" height="300" fill="white"/>
<rect x="309.869" y="-25.0811" width="485.991" height="227.066" transform="rotate(135 309.869 -25.0811)" fill="#3B9644"/>
<rect x="473.208" y="153.56" width="485.991" height="227.066" transform="rotate(135 473.208 153.56)" fill="#EF4B4B"/>
<rect x="328.27" y="27.5474" width="425.315" height="82" transform="rotate(135 328.27 27.5474)" fill="#242424" stroke="#FFB84F"/>
<path d="M172.112 93.2418C171.264 91.3203 173.224 89.3609 175.145 90.209L186.595 95.2624C187.421 95.627 188.384 95.4745 189.057 94.8724L198.384 86.5282C199.95 85.1278 202.419 86.3859 202.206 88.4754L200.938 100.926C200.847 101.825 201.289 102.693 202.07 103.147L212.888 109.44C214.704 110.496 214.27 113.233 212.217 113.676L199.984 116.318C199.101 116.508 198.412 117.198 198.221 118.081L195.58 130.314C195.136 132.367 192.399 132.8 191.343 130.985L185.051 120.167C184.597 119.386 183.728 118.943 182.829 119.035L170.379 120.303C168.289 120.516 167.031 118.047 168.431 116.481L176.776 107.154C177.378 106.481 177.53 105.518 177.166 104.691L172.112 93.2418Z" fill="white"/>
<path d="M91.502 173.852C90.654 171.931 92.6134 169.971 94.5349 170.819L105.985 175.873C106.811 176.237 107.774 176.085 108.447 175.483L117.774 167.139C119.34 165.738 121.809 166.996 121.596 169.086L120.328 181.537C120.236 182.435 120.679 183.304 121.46 183.758L132.278 190.05C134.093 191.106 133.66 193.843 131.607 194.287L119.374 196.928C118.491 197.119 117.802 197.808 117.611 198.691L114.969 210.924C114.526 212.977 111.789 213.411 110.733 211.595L104.44 200.777C103.986 199.996 103.118 199.554 102.219 199.645L89.7685 200.913C87.6789 201.126 86.4209 198.657 87.8213 197.092L96.1655 187.764C96.7675 187.091 96.9201 186.128 96.5555 185.302L91.502 173.852Z" fill="white"/>
</g>
<defs>
<clipPath id="clip0_118:1105">
<rect width="300" height="300" fill="white"/>
</clipPath>
</defs>
</svg>
