<svg width="300" height="300" viewBox="0 0 300 300" fill="none" xmlns="http://www.w3.org/2000/svg">
<g clip-path="url(#clip0_113:924)">
<rect width="300" height="300" fill="#3661F6"/>
<rect x="500" y="300" width="500" height="300" transform="rotate(-180 500 300)" fill="#EF4B4B"/>
<rect x="500" y="55" width="500" height="55" transform="rotate(-180 500 55)" fill="#3661F6"/>
<rect x="500" y="55" width="500" height="11" transform="rotate(-180 500 55)" fill="white"/>
<rect y="245" width="500" height="55" fill="#3661F6"/>
<rect y="245" width="500" height="11" fill="white"/>
<circle cx="105" cy="150" r="63" fill="white"/>
<path d="M103.098 92.8541C103.697 91.0115 106.303 91.0115 106.902 92.8541L118.695 129.15C118.963 129.974 119.731 130.532 120.597 130.532H158.761C160.699 130.532 161.504 133.011 159.937 134.15L129.062 156.582C128.361 157.091 128.067 157.994 128.335 158.818L140.128 195.114C140.727 196.957 138.618 198.489 137.051 197.35L106.176 174.918C105.475 174.409 104.525 174.409 103.824 174.918L72.9493 197.35C71.3819 198.489 69.2729 196.957 69.8716 195.114L81.6649 158.818C81.9326 157.994 81.6393 157.091 80.9383 156.582L50.0632 134.15C48.4958 133.011 49.3014 130.532 51.2388 130.532H89.4025C90.269 130.532 91.0369 129.974 91.3046 129.15L103.098 92.8541Z" fill="#EF4B4B"/>
</g>
<defs>
<clipPath id="clip0_113:924">
<rect width="300" height="300" fill="white"/>
</clipPath>
</defs>
</svg>
