<svg width="300" height="300" viewBox="0 0 300 300" fill="none" xmlns="http://www.w3.org/2000/svg">
<g clip-path="url(#clip0)">
<rect width="300" height="300" fill="white"/>
<rect x="300" y="300" width="300" height="100" transform="rotate(-180 300 300)" fill="#4DBB58"/>
<rect x="300" y="100" width="300" height="100" transform="rotate(-180 300 100)" fill="#EF4B4B"/>
<path d="M147.017 85.0579C147.397 81.4808 152.603 81.4809 152.983 85.058L155.067 104.66C155.386 107.654 159.422 108.366 160.745 105.662L169.408 87.9541C170.989 84.7228 175.881 86.5033 175.015 89.9948L170.269 109.128C169.544 112.05 173.094 114.099 175.262 112.011L189.459 98.334C192.049 95.8382 196.037 99.1844 194.029 102.169L183.026 118.525C181.345 121.023 183.98 124.163 186.732 122.942L204.75 114.945C208.038 113.486 210.641 117.995 207.733 120.113L191.799 131.719C189.366 133.491 190.768 137.343 193.771 137.136L213.437 135.785C217.026 135.538 217.93 140.665 214.473 141.661L195.531 147.117C192.638 147.95 192.638 152.05 195.531 152.883L214.473 158.339C217.93 159.335 217.026 164.462 213.437 164.215L193.771 162.864C190.768 162.657 189.366 166.509 191.799 168.281L207.733 179.888C210.641 182.005 208.038 186.514 204.75 185.055L186.732 177.058C183.98 175.837 181.345 178.977 183.026 181.475L194.029 197.831C196.037 200.816 192.049 204.162 189.459 201.666L175.262 187.989C173.094 185.901 169.544 187.95 170.269 190.872L175.015 210.005C175.881 213.497 170.989 215.277 169.408 212.046L160.745 194.338C159.422 191.634 155.386 192.346 155.067 195.34L152.983 214.942C152.603 218.519 147.397 218.519 147.017 214.942L144.933 195.34C144.614 192.346 140.578 191.634 139.255 194.338L130.592 212.046C129.011 215.277 124.119 213.497 124.985 210.005L129.731 190.872C130.456 187.95 126.906 185.901 124.738 187.989L110.541 201.666C107.951 204.162 103.963 200.816 105.971 197.831L116.974 181.475C118.655 178.977 116.02 175.837 113.268 177.058L95.2501 185.055C91.9621 186.514 89.3593 182.005 92.267 179.887L108.201 168.281C110.634 166.509 109.232 162.657 106.229 162.864L86.5626 164.215C82.9738 164.462 82.0699 159.335 85.5266 158.339L104.469 152.883C107.362 152.05 107.362 147.95 104.469 147.117L85.5266 141.661C82.0698 140.665 82.9738 135.538 86.5626 135.785L106.229 137.136C109.232 137.343 110.634 133.491 108.201 131.719L92.267 120.112C89.3593 117.995 91.9621 113.486 95.2502 114.945L113.268 122.942C116.02 124.163 118.655 121.023 116.974 118.525L105.971 102.169C103.963 99.1844 107.951 95.8382 110.541 98.334L124.738 112.011C126.906 114.099 130.456 112.05 129.731 109.128L124.985 89.9948C124.119 86.5033 129.011 84.7229 130.592 87.9542L139.255 105.662C140.578 108.366 144.614 107.654 144.933 104.66L147.017 85.0579Z" fill="#FFB84F"/>
</g>
<defs>
<clipPath id="clip0">
<rect width="300" height="300" fill="white"/>
</clipPath>
</defs>
</svg>
