<svg width="300" height="300" viewBox="0 0 300 300" fill="none" xmlns="http://www.w3.org/2000/svg">
<g clip-path="url(#clip0_114:36)">
<rect width="300" height="300" fill="#EF4B4B"/>
<rect x="300" y="300" width="300" height="300" transform="rotate(-180 300 300)" fill="#EF4B4B"/>
<path d="M140.419 136.162L149.511 108.18L158.602 136.162C159.673 139.458 162.745 141.69 166.211 141.69L195.633 141.69L171.83 158.984C169.026 161.021 167.853 164.632 168.924 167.928L178.016 195.91L154.213 178.616C151.409 176.579 147.612 176.579 144.808 178.616L121.006 195.91L130.097 167.928C131.168 164.632 129.995 161.021 127.191 158.984L103.388 141.69L132.81 141.69C136.276 141.69 139.348 139.458 140.419 136.162ZM116.026 199.528C116.027 199.527 116.027 199.527 116.028 199.526L116.026 199.528Z" stroke="#18842F" stroke-width="10"/>
<path d="M160.399 141.69L167.128 162.4L149.511 175.2L131.893 162.4L138.623 141.69H160.399Z" stroke="#18842F" stroke-width="10"/>
</g>
<defs>
<clipPath id="clip0_114:36">
<rect width="300" height="300" fill="white"/>
</clipPath>
</defs>
</svg>
