<svg width="300" height="300" viewBox="0 0 300 300" fill="none" xmlns="http://www.w3.org/2000/svg">
<g clip-path="url(#clip0_118:1204)">
<rect width="300" height="300" fill="white"/>
<rect width="300" height="300" fill="#003EBA"/>
<path d="M80.9185 51.3076C81.1962 49.4978 83.8038 49.4978 84.0815 51.3076L86.6384 67.9725C86.8504 69.3545 88.6082 69.8189 89.4752 68.722L99.8498 55.5956C100.983 54.1614 103.248 55.4432 102.602 57.1533L96.6055 73.0231C96.1149 74.3216 97.3971 75.586 98.6886 75.0773L114.231 68.955C115.926 68.2871 117.241 70.5197 115.835 71.6785L102.761 82.4506C101.698 83.3267 102.166 85.0477 103.526 85.2653L120.123 87.9201C121.919 88.2074 121.919 90.7926 120.123 91.0799L103.526 93.7347C102.166 93.9523 101.698 95.6733 102.761 96.5494L115.835 107.322C117.241 108.48 115.926 110.713 114.231 110.045L98.6886 103.923C97.3971 103.414 96.1149 104.678 96.6055 105.977L102.602 121.847C103.248 123.557 100.983 124.839 99.8498 123.404L89.4752 110.278C88.6082 109.181 86.8504 109.646 86.6384 111.027L84.0815 127.692C83.8038 129.502 81.1962 129.502 80.9185 127.692L78.3616 111.027C78.1496 109.646 76.3918 109.181 75.5248 110.278L65.1502 123.404C64.0167 124.839 61.7521 123.557 62.3982 121.847L68.3945 105.977C68.8851 104.678 67.6029 103.414 66.3114 103.923L50.7693 110.045C49.0739 110.713 47.7591 108.48 49.1654 107.322L62.2385 96.5494C63.3018 95.6733 62.8343 93.9523 61.4738 93.7347L44.8771 91.0799C43.0807 90.7926 43.0807 88.2074 44.8771 87.9201L61.4738 85.2653C62.8343 85.0477 63.3018 83.3267 62.2385 82.4506L49.1654 71.6785C47.7591 70.5197 49.0739 68.2871 50.7693 68.955L66.3114 75.0773C67.6029 75.586 68.8851 74.3216 68.3945 73.0231L62.3983 57.1533C61.7521 55.4432 64.0167 54.1614 65.1502 55.5956L75.5248 68.722C76.3918 69.8189 78.1496 69.3545 78.3616 67.9725L80.9185 51.3076Z" fill="white"/>
<path d="M-35.445 312.491L314.649 24.5008L345.305 66.4555L-35.445 312.491Z" fill="#E3AA3B"/>
<path d="M-35.1635 312.295L345.39 65.9559L371.08 111.123L-35.1635 312.295Z" fill="white"/>
</g>
<defs>
<clipPath id="clip0_118:1204">
<rect width="300" height="300" fill="white"/>
</clipPath>
</defs>
</svg>
