<svg width="300" height="300" viewBox="0 0 300 300" fill="none" xmlns="http://www.w3.org/2000/svg">
<g clip-path="url(#clip0_116:7)">
<rect width="300" height="300" fill="white"/>
<rect x="300" y="200" width="300" height="100" transform="rotate(-180 300 200)" fill="#4DBB58"/>
<rect x="300" y="100" width="300" height="100" transform="rotate(-180 300 100)" fill="#FFB84F"/>
<rect x="300" y="300" width="300" height="100" transform="rotate(-180 300 300)" fill="#EF4B4B"/>
<path d="M146.196 59.7082C147.393 56.0229 152.607 56.023 153.804 59.7082L172.002 115.716C172.538 117.364 174.074 118.48 175.807 118.48L234.697 118.48C238.572 118.48 240.183 123.439 237.048 125.716L189.405 160.331C188.003 161.35 187.416 163.155 187.952 164.803L206.15 220.812C207.347 224.497 203.129 227.561 199.995 225.284L152.351 190.669C150.949 189.65 149.051 189.65 147.649 190.669L100.005 225.284C96.8706 227.561 92.6527 224.497 93.8501 220.812L112.048 164.803C112.584 163.155 111.997 161.35 110.595 160.331L62.9518 125.716C59.817 123.439 61.4281 118.48 65.303 118.48L124.193 118.48C125.926 118.48 127.462 117.364 127.998 115.716L146.196 59.7082Z" fill="white"/>
</g>
<defs>
<clipPath id="clip0_116:7">
<rect width="300" height="300" fill="white"/>
</clipPath>
</defs>
</svg>
