<svg width="300" height="300" viewBox="0 0 300 300" fill="none" xmlns="http://www.w3.org/2000/svg">
<g clip-path="url(#clip0_118:1172)">
<rect width="300" height="300" fill="white"/>
<rect x="300" y="247" width="300" height="194" transform="rotate(-180 300 247)" fill="#3B9644"/>
<rect x="300" y="300" width="300" height="53" transform="rotate(-180 300 300)" fill="#FF4A4A"/>
<circle cx="151" cy="130.6" r="62.4" transform="rotate(-90 151 130.6)" fill="#FFB84F"/>
<ellipse cx="150.2" cy="102.6" rx="69.6" ry="71.2" transform="rotate(-90 150.2 102.6)" fill="#3B9644"/>
<path d="M149.347 108.989C149.842 107.712 151.65 107.712 152.145 108.99L156.655 120.627C156.868 121.176 157.382 121.55 157.97 121.582L170.432 122.276C171.799 122.352 172.358 124.071 171.296 124.936L161.622 132.822C161.166 133.194 160.969 133.799 161.12 134.368L164.311 146.434C164.661 147.758 163.199 148.821 162.048 148.078L151.559 141.315C151.064 140.995 150.428 140.995 149.933 141.315L139.444 148.078C138.293 148.821 136.831 147.758 137.181 146.434L140.372 134.368C140.523 133.799 140.326 133.194 139.87 132.822L130.196 124.936C129.134 124.071 129.693 122.352 131.06 122.276L143.522 121.582C144.11 121.55 144.624 121.176 144.837 120.627L149.347 108.989Z" fill="#FFB84F"/>
<rect x="300" y="53" width="300" height="53" transform="rotate(-180 300 53)" fill="#FF4A4A"/>
</g>
<defs>
<clipPath id="clip0_118:1172">
<rect width="300" height="300" fill="white"/>
</clipPath>
</defs>
</svg>
