<svg width="300" height="300" viewBox="0 0 300 300" fill="none" xmlns="http://www.w3.org/2000/svg">
<g clip-path="url(#clip0_118:1240)">
<rect width="300" height="300" fill="white"/>
<rect x="300" y="38" width="300" height="38" transform="rotate(-180 300 38)" fill="#EF4B4B"/>
<rect x="659" y="75" width="818" height="36.9999" transform="rotate(-180 659 75)" fill="white"/>
<rect x="300" y="114" width="300" height="39" transform="rotate(-180 300 114)" fill="#EF4B4B"/>
<rect x="659" y="151" width="818" height="36.9999" transform="rotate(-180 659 151)" fill="white"/>
<rect x="300" y="188" width="300" height="37" transform="rotate(-180 300 188)" fill="#EF4B4B"/>
<rect x="659" y="227" width="818" height="38.9999" transform="rotate(-180 659 227)" fill="white"/>
<rect x="300" y="263" width="300" height="36" transform="rotate(-180 300 263)" fill="#EF4B4B"/>
<rect x="659" y="300" width="818" height="36.9999" transform="rotate(-180 659 300)" fill="white"/>
<rect x="150" y="151" width="150" height="151" transform="rotate(-180 150 151)" fill="#4F60FF"/>
<ellipse cx="70" cy="76.5" rx="54" ry="54.5" fill="#FFB84F"/>
<ellipse cx="81.5" cy="76" rx="47.5" ry="48" fill="#4F60FF"/>
<path d="M99.0114 49.4767C99.1842 48.3446 100.816 48.3446 100.989 49.4767L103.022 62.7982C103.15 63.6396 104.204 63.9461 104.764 63.3048L113.571 53.2118C114.323 52.35 115.699 53.2216 115.241 54.2697L109.829 66.6565C109.49 67.4317 110.207 68.251 111.02 68.0183L123.873 64.3414C124.97 64.0276 125.653 65.5004 124.704 66.1343L113.503 73.6184C112.803 74.0859 112.959 75.1558 113.762 75.405L126.588 79.383C127.677 79.7208 127.443 81.3254 126.303 81.3381L112.913 81.4865C112.07 81.4959 111.617 82.4802 112.157 83.1274L120.812 93.4937C121.544 94.3705 120.471 95.5917 119.507 94.9781L108.229 87.7958C107.513 87.3398 106.59 87.9271 106.7 88.7688L108.45 102.162C108.599 103.297 107.032 103.75 106.551 102.711L100.907 90.5203C100.55 89.7471 99.4505 89.7471 99.0925 90.5203L93.4488 102.711C92.9678 103.75 91.4014 103.297 91.5497 102.162L93.2997 88.7688C93.4097 87.9271 92.487 87.3398 91.771 87.7958L80.493 94.9781C79.5295 95.5917 78.4561 94.3705 79.1882 93.4937L87.8431 83.1274C88.3835 82.4802 87.9296 81.4959 87.0866 81.4865L73.697 81.3381C72.557 81.3254 72.323 79.7208 73.4119 79.383L86.2377 75.405C87.0413 75.1558 87.1966 74.0859 86.497 73.6184L75.2962 66.1343C74.3475 65.5004 75.0298 64.0276 76.1268 64.3414L88.9801 68.0183C89.7934 68.251 90.5102 67.4317 90.1715 66.6565L84.7593 54.2697C84.3014 53.2216 85.6771 52.35 86.4291 53.2118L95.2361 63.3048C95.7958 63.9461 96.8497 63.6396 96.9782 62.7982L99.0114 49.4767Z" fill="#FFB84F"/>
</g>
<defs>
<clipPath id="clip0_118:1240">
<rect width="300" height="300" fill="white"/>
</clipPath>
</defs>
</svg>
