<svg width="300" height="300" viewBox="0 0 300 300" fill="none" xmlns="http://www.w3.org/2000/svg">
<g clip-path="url(#clip0_118:1149)">
<rect width="300" height="300" fill="white"/>
<rect x="309.869" y="-25.0811" width="485.991" height="227.066" transform="rotate(135 309.869 -25.0811)" fill="#003EBA"/>
<rect x="473.208" y="153.56" width="485.991" height="227.066" transform="rotate(135 473.208 153.56)" fill="#3B9644"/>
<rect x="345.291" y="4.86865" width="505.297" height="74" transform="rotate(135 345.291 4.86865)" fill="#EF4B4B" stroke="white" stroke-width="9"/>
<path d="M66.8472 27.864C67.2653 26.128 69.7347 26.128 70.1528 27.864L73.2849 40.8721C73.6004 42.1822 75.2418 42.622 76.1701 41.6452L85.3867 31.9459C86.6167 30.6515 88.7553 31.8862 88.2493 33.5987L84.4578 46.4301C84.076 47.7224 85.2776 48.924 86.5699 48.5422L99.4013 44.7507C101.114 44.2447 102.349 46.3833 101.054 47.6133L91.3548 56.8299C90.378 57.7582 90.8178 59.3996 92.1279 59.7151L105.136 62.8472C106.872 63.2653 106.872 65.7347 105.136 66.1528L92.1279 69.2849C90.8178 69.6004 90.378 71.2418 91.3548 72.1701L101.054 81.3867C102.349 82.6167 101.114 84.7553 99.4013 84.2493L86.5699 80.4578C85.2776 80.076 84.076 81.2776 84.4578 82.5699L88.2493 95.4013C88.7553 97.1138 86.6167 98.3485 85.3867 97.0541L76.1701 87.3548C75.2418 86.378 73.6004 86.8178 73.2849 88.1279L70.1528 101.136C69.7347 102.872 67.2653 102.872 66.8472 101.136L63.7151 88.1279C63.3996 86.8178 61.7582 86.378 60.8299 87.3548L51.6133 97.0541C50.3833 98.3485 48.2447 97.1138 48.7507 95.4013L52.5422 82.5699C52.924 81.2776 51.7224 80.076 50.4301 80.4578L37.5987 84.2493C35.8862 84.7553 34.6515 82.6167 35.9459 81.3867L45.6452 72.1701C46.622 71.2418 46.1822 69.6004 44.8721 69.2849L31.864 66.1528C30.128 65.7347 30.128 63.2653 31.864 62.8472L44.8721 59.7151C46.1822 59.3996 46.622 57.7582 45.6452 56.8299L35.9459 47.6133C34.6515 46.3833 35.8862 44.2447 37.5987 44.7507L50.4301 48.5422C51.7224 48.924 52.924 47.7224 52.5422 46.4301L48.7507 33.5987C48.2447 31.8862 50.3833 30.6515 51.6133 31.9459L60.8299 41.6452C61.7582 42.622 63.3996 42.1822 63.7151 40.8721L66.8472 27.864Z" fill="#FFB84F"/>
<circle cx="68" cy="64" r="17.6" stroke="#003EBA" stroke-width="2.8"/>
</g>
<defs>
<clipPath id="clip0_118:1149">
<rect width="300" height="300" fill="white"/>
</clipPath>
</defs>
</svg>
