<svg width="300" height="300" viewBox="0 0 300 300" fill="none" xmlns="http://www.w3.org/2000/svg">
<g clip-path="url(#clip0)">
<rect width="300" height="300" fill="white"/>
<rect x="500" y="300" width="500" height="300" transform="rotate(-180 500 300)" fill="white"/>
<rect x="300" y="300" width="300" height="100" transform="rotate(-180 300 300)" fill="#FFB84F"/>
<rect x="300" y="200" width="300" height="100" transform="rotate(-180 300 200)" fill="#3661F6"/>
<rect x="300" y="100" width="300" height="100" transform="rotate(-180 300 100)" fill="#EF4B4B"/>
<rect x="300" y="33" width="72" height="33" transform="rotate(-180 300 33)" fill="white"/>
<rect x="264" y="66" width="72" height="33" transform="rotate(-180 264 66)" fill="white"/>
<rect x="228" y="100" width="72" height="34" transform="rotate(-180 228 100)" fill="white"/>
<rect x="192" y="133" width="72" height="33" transform="rotate(-180 192 133)" fill="white"/>
<rect width="72" height="33" transform="matrix(-1 8.74228e-08 8.74228e-08 1 300 267)" fill="white"/>
<rect width="72" height="33" transform="matrix(-1 8.74228e-08 8.74228e-08 1 264 234)" fill="white"/>
<rect width="72" height="34" transform="matrix(-1 8.74228e-08 8.74228e-08 1 228 200)" fill="white"/>
<rect width="72" height="33" transform="matrix(-1 8.74228e-08 8.74228e-08 1 192 167)" fill="white"/>
<rect x="156" y="167" width="72" height="34" transform="rotate(-180 156 167)" fill="white"/>
</g>
<defs>
<clipPath id="clip0">
<rect width="300" height="300" fill="white"/>
</clipPath>
</defs>
</svg>
