<svg width="300" height="300" viewBox="0 0 300 300" fill="none" xmlns="http://www.w3.org/2000/svg">
<g clip-path="url(#clip0_115:9)">
<rect width="300" height="300" fill="#EF4B4B"/>
<rect x="300" y="300" width="300" height="300" transform="rotate(-180 300 300)" fill="#EF4B4B"/>
<mask id="path-3-inside-1_115:9" fill="white">
<path fill-rule="evenodd" clip-rule="evenodd" d="M72 183L72 363H138V183L446 183V117L138 117V-40L72 -40L72 117L-54 117L-54 183L72 183Z"/>
</mask>
<path fill-rule="evenodd" clip-rule="evenodd" d="M72 183L72 363H138V183L446 183V117L138 117V-40L72 -40L72 117L-54 117L-54 183L72 183Z" fill="#003EBA"/>
<path d="M72 363H58V377H72V363ZM72 183H86L86 169H72V183ZM138 363V377H152V363H138ZM138 183V169H124V183H138ZM446 183V197H460V183H446ZM446 117H460V103H446V117ZM138 117H124V131H138V117ZM138 -40H152V-54L138 -54V-40ZM72 -40V-54L58 -54V-40L72 -40ZM72 117V131H86L86 117H72ZM-54 117L-54 103H-68L-68 117H-54ZM-54 183H-68L-68 197H-54L-54 183ZM86 363V183H58L58 363H86ZM138 349H72V377H138V349ZM124 183V363H152V183H124ZM446 169L138 169V197L446 197V169ZM432 117V183H460V117H432ZM138 131L446 131V103L138 103V131ZM124 -40V117H152V-40H124ZM72 -26L138 -26V-54L72 -54V-26ZM86 117V-40L58 -40L58 117H86ZM-54 131L72 131V103L-54 103L-54 131ZM-40 183L-40 117H-68L-68 183H-40ZM72 169L-54 169L-54 197L72 197V169Z" fill="white" mask="url(#path-3-inside-1_115:9)"/>
</g>
<defs>
<clipPath id="clip0_115:9">
<rect width="300" height="300" fill="white"/>
</clipPath>
</defs>
</svg>
