<svg width="300" height="300" viewBox="0 0 300 300" fill="none" xmlns="http://www.w3.org/2000/svg">
<g clip-path="url(#clip0_116:0)">
<rect width="300" height="300" fill="white"/>
<rect x="300" y="300" width="300" height="300" transform="rotate(-180 300 300)" fill="#3661F6"/>
<rect x="300" y="166" width="300" height="32" transform="rotate(-180 300 166)" fill="#FFB84F"/>
<path d="M80.0241 178.613C80.3772 176.359 83.6228 176.359 83.9759 178.613L85.8492 190.57C86.1177 192.284 88.2919 192.867 89.3815 191.517L96.9825 182.098C98.4152 180.322 101.226 181.945 100.405 184.074L96.0484 195.366C95.4239 196.984 97.0156 198.576 98.6342 197.952L109.926 193.595C112.055 192.774 113.678 195.585 111.902 197.018L102.483 204.619C101.133 205.708 101.716 207.882 103.43 208.151L115.387 210.024C117.641 210.377 117.641 213.623 115.387 213.976L103.43 215.849C101.716 216.118 101.133 218.292 102.483 219.381L111.902 226.982C113.678 228.415 112.055 231.226 109.926 230.405L98.6342 226.048C97.0156 225.424 95.4239 227.016 96.0484 228.634L100.405 239.926C101.226 242.055 98.4152 243.678 96.9825 241.902L89.3815 232.483C88.2919 231.133 86.1177 231.716 85.8492 233.43L83.9759 245.387C83.6228 247.641 80.3772 247.641 80.0241 245.387L78.1508 233.43C77.8823 231.716 75.7081 231.133 74.6185 232.483L67.0175 241.902C65.5847 243.678 62.774 242.055 63.5952 239.926L67.9516 228.634C68.5761 227.016 66.9844 225.424 65.3658 226.048L54.0737 230.405C51.9452 231.226 50.3224 228.415 52.0978 226.982L61.5166 219.381C62.8668 218.292 62.2842 216.118 60.5701 215.849L48.6127 213.976C46.3587 213.623 46.3587 210.377 48.6127 210.024L60.5701 208.151C62.2842 207.882 62.8668 205.708 61.5166 204.619L52.0978 197.018C50.3224 195.585 51.9452 192.774 54.0737 193.595L65.3658 197.952C66.9844 198.576 68.5761 196.984 67.9516 195.366L63.5952 184.074C62.774 181.945 65.5848 180.322 67.0175 182.098L74.6185 191.517C75.7081 192.867 77.8823 192.284 78.1508 190.57L80.0241 178.613Z" fill="white"/>
</g>
<defs>
<clipPath id="clip0_116:0">
<rect width="300" height="300" fill="white"/>
</clipPath>
</defs>
</svg>
