<svg width="300" height="300" viewBox="0 0 300 300" fill="none" xmlns="http://www.w3.org/2000/svg">
<g clip-path="url(#clip0_121:12)">
<rect width="300" height="300" fill="#FFB84F"/>
<rect x="300" y="300" width="300" height="300" transform="rotate(-180 300 300)" fill="#FFB84F"/>
<mask id="mask0_121:12" style="mask-type:alpha" maskUnits="userSpaceOnUse" x="0" y="0" width="137" height="83">
<rect x="137" y="82.2002" width="137" height="82.2" transform="rotate(-180 137 82.2002)" fill="#3662D5"/>
</mask>
<g mask="url(#mask0_121:12)">
<rect x="137" y="82.2002" width="137" height="82.2" transform="rotate(-180 137 82.2002)" fill="#3662D5"/>
<rect x="-15.5999" y="80.1401" width="235.649" height="16.5549" transform="rotate(-30 -15.5999 80.1401)" fill="white"/>
<rect width="235.649" height="16.5549" transform="matrix(-0.866025 -0.5 -0.5 0.866025 182.215 97.5483)" fill="white"/>
<rect x="-0.478109" y="0.128109" width="94.0374" height="7.94375" transform="matrix(-0.866025 -0.5 -0.5 0.866025 152.982 80.927)" fill="#EF4B4B" stroke="white" stroke-width="0.7"/>
<rect x="-2.9519" y="0.790958" width="90.4155" height="4.32188" transform="matrix(-0.866025 -0.5 -0.5 0.866025 61.2519 38.6007)" fill="#EF4B4B" stroke="white" stroke-width="4.32188"/>
<rect x="-0.478109" y="0.128109" width="94.0374" height="7.94375" transform="matrix(-0.866025 -0.5 -0.5 0.866025 65.5366 39.7488)" fill="#EF4B4B" stroke="white" stroke-width="0.7"/>
<rect x="57.7442" y="38.4548" width="94.0374" height="7.94375" transform="rotate(-30 57.7442 38.4548)" fill="#EF4B4B" stroke="white" stroke-width="0.7"/>
<rect x="-20.3459" y="92.4328" width="114.437" height="7.94375" transform="rotate(-30 -20.3459 92.4328)" fill="#EF4B4B" stroke="white" stroke-width="0.7"/>
<rect x="-1.5" y="1.5" width="232.649" height="13.5549" transform="matrix(-1 8.74228e-08 8.74228e-08 1 191.001 32.8799)" fill="#EF4B4B" stroke="white" stroke-width="3"/>
<rect x="-4.11" y="-4.11" width="73.98" height="8.22" transform="matrix(1.19249e-08 -1 -1 -1.19249e-08 68.5002 27.1262)" fill="#EF4B4B" stroke="white" stroke-width="8.22"/>
<rect x="-4.11" y="-4.11" width="73.98" height="8.22" transform="matrix(1.19249e-08 -1 -1 -1.19249e-08 68.5002 121.108)" fill="#EF4B4B" stroke="white" stroke-width="8.22"/>
<rect width="95" height="11" transform="matrix(1.19249e-08 -1 -1 -1.19249e-08 74 93)" fill="#EF4B4B"/>
</g>
<circle cx="68.5" cy="41" r="11.5" fill="#3662D4"/>
<path d="M67.5489 31.9271C67.8483 31.0057 69.1517 31.0057 69.4511 31.9271L70.9697 36.6008C71.1035 37.0128 71.4875 37.2918 71.9207 37.2918H76.835C77.8037 37.2918 78.2065 38.5314 77.4228 39.1008L73.447 41.9894C73.0966 42.244 72.9499 42.6954 73.0838 43.1074L74.6024 47.7812C74.9017 48.7025 73.8472 49.4686 73.0635 48.8992L69.0878 46.0106C68.7373 45.756 68.2627 45.756 67.9122 46.0106L63.9365 48.8992C63.1528 49.4686 62.0983 48.7025 62.3976 47.7812L63.9162 43.1074C64.0501 42.6954 63.9034 42.244 63.553 41.9894L59.5772 39.1008C58.7935 38.5314 59.1963 37.2918 60.165 37.2918H65.0793C65.5125 37.2918 65.8965 37.0128 66.0303 36.6008L67.5489 31.9271Z" fill="#FFB84F"/>
<path d="M29.0489 36.927C29.3483 36.0057 30.6517 36.0057 30.9511 36.927L31.3471 38.1459C31.481 38.5579 31.8649 38.8369 32.2981 38.8369H33.5797C34.5484 38.8369 34.9512 40.0765 34.1675 40.6459L33.1307 41.3992C32.7802 41.6538 32.6335 42.1052 32.7674 42.5172L33.1634 43.7361C33.4628 44.6574 32.4083 45.4235 31.6246 44.8541L30.5878 44.1008C30.2373 43.8462 29.7627 43.8462 29.4122 44.1008L28.3754 44.8541C27.5917 45.4235 26.5372 44.6574 26.8366 43.7361L27.2326 42.5172C27.3665 42.1052 27.2198 41.6538 26.8693 41.3992L25.8325 40.6459C25.0488 40.0765 25.4516 38.8369 26.4203 38.8369H27.7019C28.1351 38.8369 28.519 38.5579 28.6529 38.1459L29.0489 36.927Z" fill="#FFB84F"/>
<path d="M105.049 36.927C105.348 36.0057 106.652 36.0057 106.951 36.927L107.347 38.1459C107.481 38.5579 107.865 38.8369 108.298 38.8369H109.58C110.548 38.8369 110.951 40.0765 110.167 40.6459L109.131 41.3992C108.78 41.6538 108.634 42.1052 108.767 42.5172L109.163 43.7361C109.463 44.6574 108.408 45.4235 107.625 44.8541L106.588 44.1008C106.237 43.8462 105.763 43.8462 105.412 44.1008L104.375 44.8541C103.592 45.4235 102.537 44.6574 102.837 43.7361L103.233 42.5172C103.366 42.1052 103.22 41.6538 102.869 41.3992L101.833 40.6459C101.049 40.0765 101.452 38.8369 102.42 38.8369H103.702C104.135 38.8369 104.519 38.5579 104.653 38.1459L105.049 36.927Z" fill="#FFB84F"/>
<path d="M67.5489 61.927C67.8483 61.0057 69.1517 61.0057 69.4511 61.927L69.8471 63.1459C69.981 63.5579 70.3649 63.8369 70.7981 63.8369H72.0797C73.0484 63.8369 73.4512 65.0765 72.6675 65.6459L71.6307 66.3992C71.2802 66.6538 71.1335 67.1052 71.2674 67.5172L71.6634 68.7361C71.9628 69.6574 70.9083 70.4235 70.1246 69.8541L69.0878 69.1008C68.7373 68.8462 68.2627 68.8462 67.9122 69.1008L66.8754 69.8541C66.0917 70.4235 65.0372 69.6574 65.3366 68.7361L65.7326 67.5172C65.8665 67.1052 65.7198 66.6538 65.3693 66.3992L64.3325 65.6459C63.5488 65.0765 63.9516 63.8369 64.9203 63.8369H66.2019C66.6351 63.8369 67.019 63.5579 67.1529 63.1459L67.5489 61.927Z" fill="#FFB84F"/>
<path d="M67.5489 11.927C67.8483 11.0057 69.1517 11.0057 69.4511 11.927L69.8471 13.1459C69.981 13.5579 70.3649 13.8369 70.7981 13.8369H72.0797C73.0484 13.8369 73.4512 15.0765 72.6675 15.6459L71.6307 16.3992C71.2802 16.6538 71.1335 17.1052 71.2674 17.5172L71.6634 18.7361C71.9628 19.6574 70.9083 20.4235 70.1246 19.8541L69.0878 19.1008C68.7373 18.8462 68.2627 18.8462 67.9122 19.1008L66.8754 19.8541C66.0917 20.4235 65.0372 19.6574 65.3366 18.7361L65.7326 17.5172C65.8665 17.1052 65.7198 16.6538 65.3693 16.3992L64.3325 15.6459C63.5488 15.0765 63.9516 13.8369 64.9203 13.8369H66.2019C66.6351 13.8369 67.019 13.5579 67.1529 13.1459L67.5489 11.927Z" fill="#FFB84F"/>
</g>
<defs>
<clipPath id="clip0_121:12">
<rect width="300" height="300" fill="white"/>
</clipPath>
</defs>
</svg>
