<svg width="300" height="300" viewBox="0 0 300 300" fill="none" xmlns="http://www.w3.org/2000/svg">
<g clip-path="url(#clip0_118:1124)">
<rect width="300" height="300" fill="#003EBA"/>
<rect x="300" y="300" width="300" height="300" transform="rotate(-180 300 300)" fill="#003EBA"/>
<mask id="mask0_118:1124" style="mask-type:alpha" maskUnits="userSpaceOnUse" x="0" y="0" width="137" height="83">
<rect x="137" y="82.2002" width="137" height="82.2" transform="rotate(-180 137 82.2002)" fill="#3662D5"/>
</mask>
<g mask="url(#mask0_118:1124)">
<rect x="137" y="82.2002" width="137" height="82.2" transform="rotate(-180 137 82.2002)" fill="#3662D5"/>
<rect x="-15.5999" y="80.1401" width="235.649" height="16.5549" transform="rotate(-30 -15.5999 80.1401)" fill="white"/>
<rect width="235.649" height="16.5549" transform="matrix(-0.866025 -0.5 -0.5 0.866025 182.215 97.5483)" fill="white"/>
<rect x="-0.478109" y="0.128109" width="94.0374" height="7.94375" transform="matrix(-0.866025 -0.5 -0.5 0.866025 152.982 80.927)" fill="#EF4B4B" stroke="white" stroke-width="0.7"/>
<rect x="-2.9519" y="0.790958" width="90.4155" height="4.32188" transform="matrix(-0.866025 -0.5 -0.5 0.866025 61.2522 38.6007)" fill="#EF4B4B" stroke="white" stroke-width="4.32188"/>
<rect x="-0.478109" y="0.128109" width="94.0374" height="7.94375" transform="matrix(-0.866025 -0.5 -0.5 0.866025 65.5369 39.7488)" fill="#EF4B4B" stroke="white" stroke-width="0.7"/>
<rect x="57.7442" y="38.4548" width="94.0374" height="7.94375" transform="rotate(-30 57.7442 38.4548)" fill="#EF4B4B" stroke="white" stroke-width="0.7"/>
<rect x="-20.3459" y="92.4328" width="114.437" height="7.94375" transform="rotate(-30 -20.3459 92.4328)" fill="#EF4B4B" stroke="white" stroke-width="0.7"/>
<rect x="-1.5" y="1.5" width="232.649" height="13.5549" transform="matrix(-1 8.74228e-08 8.74228e-08 1 191.001 32.8799)" fill="#EF4B4B" stroke="white" stroke-width="3"/>
<rect x="-4.11" y="-4.11" width="73.98" height="8.22" transform="matrix(1.19249e-08 -1 -1 -1.19249e-08 68.5 27.1262)" fill="#EF4B4B" stroke="white" stroke-width="8.22"/>
<rect x="-4.11" y="-4.11" width="73.98" height="8.22" transform="matrix(1.19249e-08 -1 -1 -1.19249e-08 68.5 121.108)" fill="#EF4B4B" stroke="white" stroke-width="8.22"/>
<rect width="95" height="11" transform="matrix(1.19249e-08 -1 -1 -1.19249e-08 74 93)" fill="#EF4B4B"/>
</g>
<path d="M213.598 51.8541C214.197 50.0115 216.803 50.0115 217.402 51.8541L221.225 63.6201C221.493 64.4441 222.261 65.002 223.127 65.002H235.499C237.436 65.002 238.242 67.4813 236.674 68.6201L226.666 75.8918C225.965 76.4011 225.671 77.3039 225.939 78.1279L229.762 89.8939C230.361 91.7365 228.252 93.2687 226.684 92.1299L216.676 84.8582C215.975 84.3489 215.025 84.3489 214.324 84.8582L204.316 92.1299C202.748 93.2687 200.639 91.7365 201.238 89.8939L205.061 78.1279C205.329 77.3039 205.035 76.4011 204.334 75.8918L194.326 68.6201C192.758 67.4813 193.564 65.002 195.501 65.002H207.873C208.739 65.002 209.507 64.4441 209.775 63.6201L213.598 51.8541Z" fill="#EF4B4B" stroke="white" stroke-width="3"/>
<path d="M165.598 117.854C166.197 116.011 168.803 116.011 169.402 117.854L173.225 129.62C173.493 130.444 174.261 131.002 175.127 131.002H187.499C189.436 131.002 190.242 133.481 188.674 134.62L178.666 141.892C177.965 142.401 177.671 143.304 177.939 144.128L181.762 155.894C182.361 157.736 180.252 159.269 178.684 158.13L168.676 150.858C167.975 150.349 167.025 150.349 166.324 150.858L156.316 158.13C154.748 159.269 152.639 157.736 153.238 155.894L157.061 144.128C157.329 143.304 157.035 142.401 156.334 141.892L146.326 134.62C144.758 133.481 145.564 131.002 147.501 131.002H159.873C160.739 131.002 161.507 130.444 161.775 129.62L165.598 117.854Z" fill="#EF4B4B" stroke="white" stroke-width="3"/>
<path d="M213.598 204.854C214.197 203.011 216.803 203.011 217.402 204.854L221.225 216.62C221.493 217.444 222.261 218.002 223.127 218.002H235.499C237.436 218.002 238.242 220.481 236.674 221.62L226.666 228.892C225.965 229.401 225.671 230.304 225.939 231.128L229.762 242.894C230.361 244.736 228.252 246.269 226.684 245.13L216.676 237.858C215.975 237.349 215.025 237.349 214.324 237.858L204.316 245.13C202.748 246.269 200.639 244.736 201.238 242.894L205.061 231.128C205.329 230.304 205.035 229.401 204.334 228.892L194.326 221.62C192.758 220.481 193.564 218.002 195.501 218.002H207.873C208.739 218.002 209.507 217.444 209.775 216.62L213.598 204.854Z" fill="#EF4B4B" stroke="white" stroke-width="3"/>
<path d="M265.098 108.854C265.697 107.011 268.303 107.011 268.902 108.854L271.49 116.82C271.758 117.644 272.526 118.202 273.392 118.202H281.768C283.705 118.202 284.511 120.681 282.943 121.82L276.168 126.743C275.467 127.252 275.173 128.155 275.441 128.979L278.029 136.944C278.628 138.787 276.519 140.319 274.951 139.18L268.176 134.257C267.475 133.748 266.525 133.748 265.824 134.257L259.049 139.18C257.481 140.319 255.372 138.787 255.971 136.944L258.559 128.979C258.827 128.155 258.533 127.252 257.832 126.743L251.057 121.82C249.489 120.681 250.295 118.202 252.232 118.202H260.608C261.474 118.202 262.242 117.644 262.51 116.82L265.098 108.854Z" fill="#EF4B4B" stroke="white" stroke-width="3"/>
</g>
<defs>
<clipPath id="clip0_118:1124">
<rect width="300" height="300" fill="white"/>
</clipPath>
</defs>
</svg>
