<svg width="300" height="300" viewBox="0 0 300 300" fill="none" xmlns="http://www.w3.org/2000/svg">
<g clip-path="url(#clip0_116:28)">
<rect width="300" height="300" fill="white"/>
<rect width="150" height="150" fill="white"/>
<rect x="150" width="150" height="150" fill="#EF4B4B"/>
<path d="M72.5979 46.8541C73.1966 45.0115 75.8034 45.0115 76.4021 46.8541L81.7967 63.4569C82.0645 64.281 82.8324 64.8389 83.6988 64.8389H101.156C103.094 64.8389 103.899 67.3181 102.332 68.4569L88.2084 78.7181C87.5075 79.2274 87.2141 80.1301 87.4819 80.9541L92.8765 97.557C93.4752 99.3996 91.3662 100.932 89.7988 99.7931L75.6756 89.5319C74.9746 89.0226 74.0254 89.0226 73.3244 89.5319L59.2012 99.7931C57.6338 100.932 55.5248 99.3996 56.1235 97.557L61.5181 80.9541C61.7859 80.1301 61.4925 79.2274 60.7916 78.7181L46.6683 68.4569C45.1009 67.3181 45.9065 64.8389 47.8439 64.8389H65.3012C66.1676 64.8389 66.9355 64.281 67.2033 63.4569L72.5979 46.8541Z" fill="#3661F6"/>
<rect x="300" y="300" width="150" height="150" transform="rotate(-180 300 300)" fill="white"/>
<rect x="150" y="300" width="150" height="150" transform="rotate(-180 150 300)" fill="#3661F6"/>
<path d="M223.598 195.854C224.197 194.011 226.803 194.011 227.402 195.854L232.797 212.457C233.064 213.281 233.832 213.839 234.699 213.839L252.156 213.839C254.094 213.839 254.899 216.318 253.332 217.457L239.208 227.718C238.507 228.227 238.214 229.13 238.482 229.954L243.876 246.557C244.475 248.4 242.366 249.932 240.799 248.793L226.676 238.532C225.975 238.023 225.025 238.023 224.324 238.532L210.201 248.793C208.634 249.932 206.525 248.4 207.124 246.557L212.518 229.954C212.786 229.13 212.493 228.227 211.792 227.718L197.668 217.457C196.101 216.318 196.906 213.839 198.844 213.839L216.301 213.839C217.168 213.839 217.936 213.281 218.203 212.457L223.598 195.854Z" fill="#EF4B4B"/>
</g>
<defs>
<clipPath id="clip0_116:28">
<rect width="300" height="300" fill="white"/>
</clipPath>
</defs>
</svg>
