<svg width="300" height="300" viewBox="0 0 300 300" fill="none" xmlns="http://www.w3.org/2000/svg">
<g clip-path="url(#clip0_126:1041)">
<rect width="300" height="300" fill="#EF4B4B"/>
<rect x="-209" y="128.7" width="238.778" height="503.19" transform="rotate(-45 -209 128.7)" fill="#252525"/>
<path d="M189.69 79.3359C187.684 81.9323 182.936 76.7242 177.249 76.6052C171.561 76.4862 167.533 82.0662 165.874 83.9659C164.215 85.8657 158.884 95.8378 159.002 96.9062C159.12 97.9747 162.32 93.9384 163.505 93.2261C163.623 94.6507 162.201 96.3129 162.557 96.7876C162.912 97.2624 166.703 93.9384 168.007 93.8198C168.362 94.7696 167.296 95.7192 167.651 97.1438C168.126 97.6186 170.258 94.7693 171.68 94.1759C171.917 95.2444 170.377 97.2627 171.206 98.5684C171.799 98.687 175.353 94.5321 176.538 94.057C177.723 93.5819 175.945 97.9747 176.538 98.3309C177.604 97.6186 180.922 93.8194 181.989 93.3447C183.055 92.8699 181.87 98.2123 182.344 98.2123C183.647 97.2624 186.965 92.7513 187.32 92.039C187.676 91.3267 186.965 98.9246 190.638 102.961C194.311 106.998 199.88 111.628 200.473 111.628C201.183 110.322 200.236 107.591 200.828 107.71C202.487 109.491 205.567 112.102 206.278 112.102C206.989 112.102 205.804 109.253 206.752 109.253C208.648 111.034 214.098 118.039 224.762 121.244C224.051 119.226 222.511 117.445 222.392 116.495C223.103 116.614 225.592 117.801 226.066 117.682C226.54 117.563 220.852 110.559 221.208 109.609C222.511 109.491 223.104 110.322 223.578 109.728C222.985 108.778 218.008 103.198 218.008 101.892C218.008 100.586 219.549 102.13 220.023 101.892C220.497 101.655 218.127 96.6687 218.601 96.0753C219.075 95.482 224.288 99.2807 225.592 99.2807C226.895 99.2807 225.947 94.6507 226.54 94.4131C227.132 94.1756 231.516 96.9062 232.464 96.9062C233.412 96.9062 233.293 94.8879 233.649 95.1254C234.004 95.363 244.313 105.692 240.758 117.801C237.203 126.468 230.095 131.098 219.667 127.299C220.26 128.249 225.829 132.879 231.871 131.216C237.914 129.554 245.26 124.806 244.431 112.934C243.602 101.062 239.691 99.3997 239.099 97.6189C238.507 95.8381 240.047 98.0937 241.351 98.5688C242.654 99.0439 241.113 96.0753 240.758 94.7693C240.403 93.4633 244.668 97.5 245.734 97.8561C246.801 98.2123 243.246 88.1212 242.18 87.4089C241.113 86.6966 243.246 87.6461 243.957 87.8837C244.668 88.1212 237.44 76.8428 235.9 76.8428C234.36 76.8428 237.203 76.249 238.033 76.249C238.862 76.249 229.739 68.8883 228.199 68.8883C226.658 68.8883 231.516 66.9886 231.99 66.87C232.819 66.9886 221.445 60.8153 211.255 66.9886C210.662 66.5142 216.054 62.7745 216.231 61.1718C216.291 60.7562 214.454 59.8658 214.336 59.391C214.217 58.9162 217.179 57.4916 217.298 56.4231C216.587 55.4733 215.283 55.8294 214.572 55.5922C214.395 54.7018 217.061 52.5054 216.824 51.5559C216.646 51.0216 214.691 50.8436 214.217 51.1997C213.743 51.5559 215.461 48.7066 215.165 47.8757C214.928 47.5195 213.98 47.7571 213.032 47.9943C212.439 47.8757 216.113 42.7705 215.402 42.0582C214.691 41.3459 204.738 47.2816 201.065 53.93C197.392 60.5784 200.236 65.9208 199.762 68.1764C199.287 70.4319 198.695 72.6878 197.155 72.6878C195.614 72.6878 192.06 70.3133 190.875 69.1262C189.69 67.9392 189.453 67.1079 187.794 66.6331C186.135 66.1584 182.344 67.583 180.922 67.7016C179.5 67.8202 173.931 66.6331 173.576 66.9893C173.22 67.3454 179.026 69.4824 180.33 70.1947C181.633 70.907 181.752 71.8569 182.699 72.4503C183.647 73.0436 192.534 75.6557 189.69 79.3359ZM224.407 96.0753C227.25 98.9246 246.445 111.746 246.445 127.417C246.445 143.088 232.464 142.614 228.435 142.139C232.938 145.938 250 145.225 250 127.417C250 111.746 227.961 96.0753 225.118 94.6507C222.274 93.2261 221.563 93.2261 224.407 96.0753Z" fill="#FFB84F" stroke="#FFB84F" stroke-width="1.5" stroke-linejoin="round"/>
<path d="M64.8832 117.976C65.3921 116.41 67.6079 116.41 68.1168 117.976L70.9454 126.681C71.173 127.382 71.8257 127.856 72.5622 127.856H81.7157C83.3625 127.856 84.0472 129.963 82.7149 130.931L75.3096 136.312C74.7137 136.745 74.4644 137.512 74.692 138.212L77.5206 146.918C78.0295 148.484 76.2369 149.787 74.9046 148.819L67.4992 143.438C66.9034 143.005 66.0966 143.005 65.5008 143.438L58.0954 148.819C56.7631 149.787 54.9705 148.484 55.4794 146.918L58.308 138.212C58.5356 137.512 58.2863 136.745 57.6904 136.312L50.2851 130.931C48.9528 129.963 49.6375 127.856 51.2843 127.856H60.4378C61.1743 127.856 61.827 127.382 62.0546 126.681L64.8832 117.976Z" fill="white"/>
<path d="M64.8832 234.976C65.3921 233.41 67.6079 233.41 68.1168 234.976L70.9454 243.681C71.173 244.382 71.8257 244.856 72.5622 244.856H81.7157C83.3625 244.856 84.0472 246.963 82.7149 247.931L75.3096 253.312C74.7137 253.745 74.4644 254.512 74.692 255.212L77.5206 263.918C78.0295 265.484 76.2369 266.787 74.9046 265.819L67.4992 260.438C66.9034 260.005 66.0966 260.005 65.5008 260.438L58.0954 265.819C56.7631 266.787 54.9705 265.484 55.4794 263.918L58.308 255.212C58.5356 254.512 58.2863 253.745 57.6904 253.312L50.2851 247.931C48.9528 246.963 49.6375 244.856 51.2843 244.856H60.4378C61.1743 244.856 61.827 244.382 62.0546 243.681L64.8832 234.976Z" fill="white"/>
<path d="M79.3832 209.976C79.8921 208.41 82.1079 208.41 82.6168 209.976L83.7615 213.499C83.9891 214.2 84.6418 214.674 85.3783 214.674H89.0827C90.7296 214.674 91.4143 216.781 90.082 217.749L87.085 219.926C86.4892 220.359 86.2399 221.127 86.4675 221.827L87.6122 225.35C88.1211 226.916 86.3285 228.219 84.9962 227.251L81.9992 225.074C81.4034 224.641 80.5966 224.641 80.0008 225.074L77.0038 227.251C75.6715 228.219 73.8789 226.916 74.3878 225.35L75.5325 221.827C75.7601 221.127 75.5108 220.359 74.915 219.926L71.918 217.749C70.5857 216.781 71.2704 214.674 72.9173 214.674H76.6217C77.3582 214.674 78.0109 214.2 78.2385 213.499L79.3832 209.976Z" fill="white"/>
<path d="M34.8832 163.976C35.3921 162.41 37.6079 162.41 38.1168 163.976L40.9454 172.681C41.173 173.382 41.8257 173.856 42.5622 173.856H51.7157C53.3625 173.856 54.0472 175.963 52.7149 176.931L45.3096 182.312C44.7137 182.745 44.4644 183.512 44.692 184.212L47.5206 192.918C48.0295 194.484 46.2369 195.787 44.9046 194.819L37.4992 189.438C36.9034 189.005 36.0966 189.005 35.5008 189.438L28.0954 194.819C26.7631 195.787 24.9705 194.484 25.4794 192.918L28.308 184.212C28.5356 183.512 28.2863 182.745 27.6904 182.312L20.2851 176.931C18.9528 175.963 19.6375 173.856 21.2843 173.856H30.4378C31.1743 173.856 31.827 173.382 32.0546 172.681L34.8832 163.976Z" fill="white"/>
<path d="M95.8832 163.976C96.3921 162.41 98.6079 162.41 99.1168 163.976L101.945 172.681C102.173 173.382 102.826 173.856 103.562 173.856H112.716C114.362 173.856 115.047 175.963 113.715 176.931L106.31 182.312C105.714 182.745 105.464 183.512 105.692 184.212L108.521 192.918C109.029 194.484 107.237 195.787 105.905 194.819L98.4992 189.438C97.9034 189.005 97.0966 189.005 96.5008 189.438L89.0954 194.819C87.7631 195.787 85.9705 194.484 86.4794 192.918L89.308 184.212C89.5356 183.512 89.2863 182.745 88.6904 182.312L81.2851 176.931C79.9528 175.963 80.6375 173.856 82.2843 173.856H91.4378C92.1743 173.856 92.827 173.382 93.0546 172.681L95.8832 163.976Z" fill="white"/>
</g>
<defs>
<clipPath id="clip0_126:1041">
<rect width="300" height="300" fill="white"/>
</clipPath>
</defs>
</svg>
