<svg width="300" height="300" viewBox="0 0 300 300" fill="none" xmlns="http://www.w3.org/2000/svg">
<g clip-path="url(#clip0_126:1025)">
<rect width="300" height="300" fill="#4A72FF"/>
<rect x="500" y="300" width="500" height="300" transform="rotate(-180 500 300)" fill="#4A72FF"/>
<rect x="500" y="300" width="500" height="150" transform="rotate(-180 500 300)" fill="#FF4A4A"/>
<path d="M-125.868 362.132L-338 150L-125.868 -62.1323L160 150L-125.868 362.132Z" fill="white"/>
<path d="M136.863 140.046C137.553 138.879 139.334 139.277 139.461 140.628L139.916 145.452C139.973 146.056 140.413 146.554 141.004 146.687L145.733 147.745C147.057 148.041 147.228 149.857 145.983 150.396L141.536 152.319C140.979 152.56 140.641 153.132 140.698 153.736L141.153 158.56C141.28 159.91 139.605 160.635 138.709 159.617L135.505 155.982C135.104 155.527 134.455 155.382 133.899 155.622L129.451 157.546C128.206 158.084 127 156.715 127.691 155.548L130.158 151.378C130.467 150.856 130.405 150.194 130.004 149.739L126.8 146.104C125.903 145.086 126.832 143.516 128.156 143.812L132.885 144.87C133.476 145.002 134.086 144.738 134.395 144.216L136.863 140.046Z" fill="#FFB84F"/>
<path d="M52.1578 113.481C52.7169 110.979 56.2831 110.979 56.8422 113.481L60.5501 130.072C60.9132 131.697 62.7801 132.468 64.1836 131.572L78.4239 122.483C80.58 121.106 83.1058 123.608 81.7506 125.777L72.6966 140.269C71.8221 141.669 72.5888 143.513 74.1978 143.881L90.7518 147.66C93.2396 148.228 93.2396 151.772 90.7518 152.34L74.1978 156.119C72.5888 156.487 71.8221 158.331 72.6966 159.731L81.7506 174.223C83.1058 176.392 80.58 178.894 78.4239 177.517L64.1836 168.428C62.7801 167.533 60.9132 168.303 60.5501 169.928L56.8422 186.519C56.2831 189.021 52.7169 189.021 52.1578 186.519L48.4499 169.928C48.0868 168.303 46.2199 167.532 44.8164 168.428L30.5761 177.517C28.42 178.894 25.8942 176.392 27.2494 174.223L36.3034 159.731C37.1779 158.331 36.4112 156.487 34.8022 156.119L18.2482 152.34C15.7604 151.772 15.7604 148.228 18.2482 147.66L34.8022 143.881C36.4112 143.513 37.1779 141.669 36.3034 140.269L27.2494 125.777C25.8942 123.608 28.42 121.106 30.5761 122.483L44.8164 131.572C46.2199 132.468 48.0868 131.697 48.4499 130.072L52.1578 113.481Z" fill="#FFB84F"/>
<path d="M10.5881 226.609C10.7225 225.26 12.5054 224.871 13.1898 226.042L15.6353 230.225C15.9414 230.749 16.5498 231.016 17.1424 230.886L21.8767 229.853C23.2017 229.564 24.1226 231.139 23.2206 232.152L19.9977 235.771C19.5943 236.224 19.5284 236.885 19.8345 237.408L22.28 241.592C22.9644 242.762 21.7507 244.125 20.5088 243.58L16.0715 241.633C15.5161 241.39 14.8669 241.531 14.4635 241.984L11.2406 245.603C10.3386 246.615 8.66761 245.882 8.80209 244.533L9.28256 239.711C9.3427 239.107 9.00738 238.534 8.45197 238.29L4.01464 236.343C2.77272 235.798 2.95365 233.982 4.27869 233.693L9.01297 232.66C9.60554 232.531 10.0475 232.035 10.1076 231.431L10.5881 226.609Z" fill="#FFB84F"/>
<path d="M18.0047 54.8464C19.0327 53.9618 20.5921 54.9095 20.2804 56.2294L19.1667 60.9454C19.0273 61.5356 19.2838 62.1485 19.8022 62.4635L23.9432 64.98C25.1021 65.6844 24.6827 67.4603 23.3311 67.5717L18.5018 67.9698C17.8973 68.0197 17.3937 68.453 17.2543 69.0433L16.1406 73.7593C15.8289 75.0792 14.0103 75.2291 13.4867 73.9781L11.6157 69.5082C11.3815 68.9487 10.8137 68.6036 10.2092 68.6535L5.37994 69.0516C4.02831 69.163 3.32375 67.4797 4.35174 66.5951L8.02471 63.4344C8.48445 63.0388 8.63715 62.3922 8.40297 61.8327L6.532 57.3628C6.00835 56.1118 7.39151 54.9215 8.55049 55.6258L12.6915 58.1423C13.2098 58.4573 13.872 58.4027 14.3317 58.0071L18.0047 54.8464Z" fill="#FFB84F"/>
<circle cx="55" cy="150" r="26" fill="#FFB84F"/>
</g>
<defs>
<clipPath id="clip0_126:1025">
<rect width="300" height="300" fill="white"/>
</clipPath>
</defs>
</svg>
