<svg width="300" height="300" viewBox="0 0 300 300" fill="none" xmlns="http://www.w3.org/2000/svg">
<rect width="300" height="300" fill="#3B9644"/>
<circle cx="172.867" cy="149.867" r="77.5" transform="rotate(-30 172.867 149.867)" fill="white"/>
<ellipse cx="190.188" cy="139.867" rx="69.5" ry="68.5" transform="rotate(-30 190.188 139.867)" fill="#3B9644"/>
<path d="M216.53 99.1338C216.001 97.3856 217.899 95.9017 219.468 96.837L230.244 103.262C230.918 103.664 231.766 103.634 232.41 103.185L242.709 96.0209C244.208 94.9778 246.206 96.3248 245.801 98.1058L243.021 110.339C242.847 111.105 243.137 111.902 243.763 112.376L253.759 119.957C255.215 121.06 254.551 123.377 252.732 123.542L240.238 124.678C239.456 124.75 238.788 125.272 238.53 126.013L234.41 137.863C233.81 139.588 231.402 139.673 230.682 137.994L225.741 126.463C225.431 125.741 224.728 125.267 223.943 125.251L211.4 124.994C209.574 124.956 208.75 122.692 210.124 121.489L219.564 113.226C220.155 112.709 220.388 111.894 220.161 111.142L216.53 99.1338Z" fill="white"/>
<rect width="45" height="300" fill="white"/>
</svg>
