<svg width="300" height="300" viewBox="0 0 300 300" fill="none" xmlns="http://www.w3.org/2000/svg">
<g clip-path="url(#clip0)">
<rect width="300" height="300" fill="white"/>
<path d="M0 0L300 0.000122392L300 300L-9.44166e-05 300L0 0Z" fill="#FF4A4A"/>
<path d="M46.2221 23.8647L48.5 16.8541L50.7779 23.8647C51.1126 24.8948 52.0725 25.5922 53.1555 25.5922L60.527 25.5922L54.5634 29.925C53.6871 30.5616 53.3205 31.6901 53.6552 32.7201L55.9331 39.7307L49.9695 35.3979C49.0932 34.7613 47.9068 34.7613 47.0305 35.3979L41.0669 39.7307L43.3448 32.7201C43.6795 31.69 43.3129 30.5616 42.4366 29.925L41.555 31.1385L42.4366 29.925L36.473 25.5922L43.8445 25.5922C44.9275 25.5922 45.8874 24.8948 46.2221 23.8647Z" stroke="#FFB84F" stroke-width="3"/>
<path d="M37.5574 53.8794L26.4639 64.4485L32.3733 70.3639L37.4861 65.2222C47.4501 75.3391 55.1907 83.2064 64.8099 92.9781C67.4733 95.7394 72.1105 91.9783 69.1379 88.7885C58.9718 78.874 51.9327 71.7208 41.3385 61.3302L47.6166 55.0101L37.5574 53.8794Z" fill="#FFB84F" stroke="#FFB84F" stroke-width="1.6" stroke-linecap="round" stroke-linejoin="round"/>
<path d="M38.2681 83.7193C58.1129 102.156 90.276 68.9248 49.1715 44.8467C79.7531 78.8632 50.3961 89.2895 39.7663 78.7917L39.2312 78.3514C38.7913 78.8394 38.3632 79.3273 37.9233 79.8153C37.1029 79.0417 35.8187 78.8036 35.4263 80.1367C33.8093 80.0296 32.8581 80.9222 32.43 82.6004C29.4218 84.6 26.1639 86.3496 24.2852 89.4799C23.2151 92.8006 25.3315 94.2408 27.7215 93.967C31.6453 92.3364 32.8581 88.8015 34.9626 85.8974C36.4489 85.4213 37.7093 84.7904 37.9352 83.4336" fill="#FFB84F"/>
<path d="M38.2681 83.7193C58.1129 102.156 90.276 68.9248 49.1715 44.8467C79.7531 78.8632 50.3961 89.2895 39.7663 78.7917L39.2312 78.3514C38.7913 78.8394 38.3632 79.3273 37.9233 79.8153C37.1029 79.0417 35.8187 78.8036 35.4263 80.1367C33.8093 80.0296 32.8581 80.9222 32.43 82.6004C29.4218 84.6 26.1639 86.3496 24.2852 89.4799C23.2151 92.8006 25.3315 94.2408 27.7215 93.967C31.6453 92.3364 32.8581 88.8015 34.9626 85.8974C36.4489 85.4213 37.7093 84.7904 37.9352 83.4336" stroke="#FFB84F" stroke-width="1.6" stroke-linecap="round" stroke-linejoin="round"/>
<rect y="110" width="300" height="79.9999" fill="#3B9644"/>
</g>
<defs>
<clipPath id="clip0">
<rect width="300" height="300" fill="white"/>
</clipPath>
</defs>
</svg>
