<svg width="300" height="300" viewBox="0 0 300 300" fill="none" xmlns="http://www.w3.org/2000/svg">
<g clip-path="url(#clip0_114:834)">
<rect width="300" height="300" fill="white"/>
<rect x="-53" width="179" height="300" fill="#4DBB58"/>
<rect x="126" width="321" height="300" fill="#D94141"/>
<circle cx="126" cy="150" r="77.5" stroke="#FFB84F" stroke-width="11"/>
<rect x="120.5" y="75" width="11" height="153" fill="#FFB84F"/>
<rect x="120.5" y="75" width="11" height="153" fill="#FFB84F"/>
<path d="M183.983 201.705L176.204 209.483C176.204 209.483 148.3 170.74 126.722 149.279C105.728 128.399 68.017 101.296 68.017 101.296L75.7952 93.5179C75.7952 93.5179 113.506 120.621 134.5 141.501C156.078 162.962 183.983 201.705 183.983 201.705Z" fill="#FFB84F"/>
<path d="M201.516 125.073L203.471 132.367C203.471 132.367 156.588 139.482 127.206 147.414C98.6201 155.131 55.6844 171.967 55.6844 171.967L53.7298 164.672C53.7298 164.672 96.6655 147.836 125.252 140.12C154.633 132.188 201.516 125.073 201.516 125.073Z" fill="#FFB84F"/>
<path d="M58.9545 186.894L56.9999 179.599C56.9999 179.599 103.883 172.484 133.265 164.553C161.851 156.836 204.787 140 204.787 140L206.741 147.295C206.741 147.295 163.805 164.13 135.219 171.847C105.838 179.779 58.9545 186.894 58.9545 186.894Z" fill="#FFB84F"/>
<mask id="path-10-inside-1_114:834" fill="white">
<path fill-rule="evenodd" clip-rule="evenodd" d="M167 96H85V162C85 184.644 103.356 203 126 203C148.644 203 167 184.644 167 162V96Z"/>
</mask>
<path fill-rule="evenodd" clip-rule="evenodd" d="M167 96H85V162C85 184.644 103.356 203 126 203C148.644 203 167 184.644 167 162V96Z" fill="#D94141"/>
<path d="M85 96V94H83V96H85ZM167 96H169V94H167V96ZM85 98H167V94H85V98ZM87 162V96H83V162H87ZM126 201C104.461 201 87 183.539 87 162H83C83 185.748 102.252 205 126 205V201ZM165 162C165 183.539 147.539 201 126 201V205C149.748 205 169 185.748 169 162H165ZM165 96V162H169V96H165Z" fill="white" mask="url(#path-10-inside-1_114:834)"/>
<path fill-rule="evenodd" clip-rule="evenodd" d="M153.411 114H99V157.794C99 172.82 111.18 185 126.206 185C141.231 185 153.411 172.82 153.411 157.794V114Z" fill="white"/>
<path fill-rule="evenodd" clip-rule="evenodd" d="M145 140.566H134.005V149.416C134.005 149.416 134.005 149.416 134.005 149.416C134.005 152.452 136.467 154.913 139.503 154.913C142.539 154.913 145 152.452 145 149.416C145 149.416 145 149.416 145 149.416V140.566Z" fill="#003EBA"/>
<path fill-rule="evenodd" clip-rule="evenodd" d="M131.497 140.566H120.503V149.416C120.503 149.416 120.503 149.416 120.503 149.416C120.503 152.452 122.964 154.913 126 154.913C129.036 154.913 131.497 152.452 131.497 149.416C131.497 149.416 131.497 149.416 131.497 149.416V140.566Z" fill="#003EBA"/>
<path fill-rule="evenodd" clip-rule="evenodd" d="M117.995 140.566H107V149.416C107 149.416 107 149.416 107 149.416C107 152.452 109.461 154.913 112.497 154.913C115.533 154.913 117.995 152.452 117.995 149.416C117.995 149.416 117.995 149.416 117.995 149.416V140.566Z" fill="#003EBA"/>
<path fill-rule="evenodd" clip-rule="evenodd" d="M131.497 122H120.503V130.849C120.503 130.849 120.503 130.849 120.503 130.849C120.503 133.885 122.964 136.347 126 136.347C129.036 136.347 131.497 133.885 131.497 130.849C131.497 130.849 131.497 130.849 131.497 130.849V122Z" fill="#003EBA"/>
<path fill-rule="evenodd" clip-rule="evenodd" d="M121.899 110.285L130 110.285L130 103.765C130 103.765 130 103.765 130 103.765C130 101.528 128.187 99.7146 125.95 99.7146C123.713 99.7146 121.899 101.528 121.899 103.765C121.899 103.765 121.899 103.765 121.899 103.765C121.899 103.766 121.899 103.767 121.899 103.768L121.899 110.285Z" fill="#FFB84F"/>
<path fill-rule="evenodd" clip-rule="evenodd" d="M155 110.57L163.101 110.57L163.101 104.05C163.101 104.05 163.101 104.05 163.101 104.05C163.101 101.813 161.287 99.9998 159.05 99.9998C156.813 99.9998 155 101.813 155 104.05C155 104.05 155 104.05 155 104.05C155 104.051 155 104.052 155 104.053L155 110.57Z" fill="#FFB84F"/>
<path fill-rule="evenodd" clip-rule="evenodd" d="M89 110.57L97.1008 110.57L97.1008 104.05C97.1008 104.05 97.1008 104.05 97.1008 104.05C97.1008 101.813 95.2874 99.9998 93.0504 99.9998C90.8134 99.9998 89 101.813 89 104.05C89 104.05 89 104.05 89 104.05C89 104.051 89 104.052 89 104.053L89 110.57Z" fill="#FFB84F"/>
<path fill-rule="evenodd" clip-rule="evenodd" d="M155 110.57L163.101 110.57L163.101 104.05C163.101 104.05 163.101 104.05 163.101 104.05C163.101 101.813 161.287 99.9998 159.05 99.9998C156.813 99.9998 155 101.813 155 104.05C155 104.05 155 104.05 155 104.05C155 104.051 155 104.052 155 104.053L155 110.57Z" fill="#FFB84F"/>
<path fill-rule="evenodd" clip-rule="evenodd" d="M146 180.475L151.728 186.203L156.338 181.593C156.338 181.593 156.338 181.593 156.338 181.593C157.92 180.011 157.92 177.446 156.338 175.865C154.757 174.283 152.192 174.283 150.61 175.865C150.61 175.865 150.61 175.865 150.61 175.865C150.61 175.865 150.609 175.866 150.608 175.867L146 180.475Z" fill="#FFB84F"/>
<path fill-rule="evenodd" clip-rule="evenodd" d="M106.203 180.475L100.475 186.203L95.8642 181.593C95.8642 181.593 95.8642 181.593 95.8641 181.593C94.2824 180.011 94.2824 177.446 95.8642 175.865C97.4459 174.283 100.011 174.283 101.592 175.865C101.592 175.865 101.592 175.865 101.592 175.865C101.593 175.865 101.594 175.866 101.594 175.867L106.203 180.475Z" fill="#FFB84F"/>
<path fill-rule="evenodd" clip-rule="evenodd" d="M89 110.57L97.1008 110.57L97.1008 104.05C97.1008 104.05 97.1008 104.05 97.1008 104.05C97.1008 101.813 95.2874 99.9998 93.0504 99.9998C90.8134 99.9998 89 101.813 89 104.05C89 104.05 89 104.05 89 104.05C89 104.051 89 104.052 89 104.053L89 110.57Z" fill="#FFB84F"/>
<path fill-rule="evenodd" clip-rule="evenodd" d="M155 146.57L163.101 146.57L163.101 140.05C163.101 140.05 163.101 140.05 163.101 140.05C163.101 137.813 161.287 136 159.05 136C156.813 136 155 137.813 155 140.05C155 140.05 155 140.05 155 140.05C155 140.051 155 140.052 155 140.053L155 146.57Z" fill="#FFB84F"/>
<path fill-rule="evenodd" clip-rule="evenodd" d="M89 146.57L97.1008 146.57L97.1008 140.05C97.1008 140.05 97.1008 140.05 97.1008 140.05C97.1008 137.813 95.2874 136 93.0504 136C90.8134 136 89 137.813 89 140.05C89 140.05 89 140.05 89 140.05C89 140.051 89 140.052 89 140.053L89 146.57Z" fill="#FFB84F"/>
<path fill-rule="evenodd" clip-rule="evenodd" d="M131.497 159.133H120.503V167.982C120.503 167.982 120.503 167.982 120.503 167.982C120.503 171.018 122.964 173.479 126 173.479C129.036 173.479 131.497 171.018 131.497 167.982C131.497 167.982 131.497 167.982 131.497 167.982V159.133Z" fill="#003EBA"/>
</g>
<defs>
<clipPath id="clip0_114:834">
<rect width="300" height="300" fill="white"/>
</clipPath>
</defs>
</svg>
