<svg width="300" height="300" viewBox="0 0 300 300" fill="none" xmlns="http://www.w3.org/2000/svg">
<g clip-path="url(#clip0_118:1503)">
<rect width="300" height="300" fill="#8A1538"/>
<rect width="300" height="300" fill="#8A1538"/>
<rect width="60" height="300" fill="white"/>
<path d="M123.579 13.0418C125.703 13.4833 125.703 16.5167 123.579 16.9582L60.407 30.0882C59.1653 30.3463 58 29.3983 58 28.13L58 1.86997C58 0.601728 59.1653 -0.34626 60.407 -0.0881758L123.579 13.0418Z" fill="white"/>
<path d="M123.844 43.5441C125.954 43.9948 125.954 47.0052 123.844 47.4559L60.4178 61.005C59.1731 61.2709 58 60.3219 58 59.0491L58 31.9509C58 30.6781 59.1731 29.7291 60.4178 29.995L123.844 43.5441Z" fill="white"/>
<path d="M123.579 73.0418C125.703 73.4833 125.703 76.5167 123.579 76.9582L60.407 90.0882C59.1653 90.3463 58 89.3983 58 88.13L58 61.87C58 60.6017 59.1653 59.6537 60.407 59.9118L123.579 73.0418Z" fill="white"/>
<path d="M123.579 103.042C125.703 103.483 125.703 106.517 123.579 106.958L60.407 120.088C59.1653 120.346 58 119.398 58 118.13L58 91.87C58 90.6017 59.1653 89.6537 60.407 89.9118L123.579 103.042Z" fill="white"/>
<path d="M123.844 132.544C125.954 132.995 125.954 136.005 123.844 136.456L60.4178 150.005C59.1731 150.271 58 149.322 58 148.049L58 120.951C58 119.678 59.1731 118.729 60.4178 118.995L123.844 132.544Z" fill="white"/>
<path d="M123.579 163.042C125.703 163.483 125.703 166.517 123.579 166.958L60.407 180.088C59.1653 180.346 58 179.398 58 178.13L58 151.87C58 150.602 59.1653 149.654 60.407 149.912L123.579 163.042Z" fill="white"/>
<path d="M123.844 192.544C125.954 192.995 125.954 196.005 123.844 196.456L60.4178 210.005C59.1731 210.271 58 209.322 58 208.049L58 180.951C58 179.678 59.1731 178.729 60.4178 178.995L123.844 192.544Z" fill="white"/>
<path d="M123.844 222.544C125.954 222.995 125.954 226.005 123.844 226.456L60.4178 240.005C59.1731 240.271 58 239.322 58 238.049L58 210.951C58 209.678 59.1731 208.729 60.4178 208.995L123.844 222.544Z" fill="white"/>
<path d="M123.579 252.042C125.703 252.483 125.703 255.517 123.579 255.958L60.407 269.088C59.1653 269.346 58 268.398 58 267.13L58 240.87C58 239.602 59.1653 238.654 60.407 238.912L123.579 252.042Z" fill="white"/>
<path d="M123.844 282.544C125.954 282.995 125.954 286.005 123.844 286.456L60.4178 300.005C59.1731 300.271 58 299.322 58 298.049L58 270.951C58 269.678 59.1731 268.729 60.4178 268.995L123.844 282.544Z" fill="white"/>
</g>
<defs>
<clipPath id="clip0_118:1503">
<rect width="300" height="300" fill="white"/>
</clipPath>
</defs>
</svg>
