<svg width="300" height="300" viewBox="0 0 300 300" fill="none" xmlns="http://www.w3.org/2000/svg">
<g clip-path="url(#clip0_123:19)">
<rect width="300" height="300" fill="#003EBA"/>
<rect width="300" height="100" fill="#FF4A4A"/>
<rect y="200" width="300" height="100" fill="white"/>
<path d="M47.5 102.5H144.5V179C144.5 205.786 122.786 227.5 96 227.5C69.2142 227.5 47.5 205.786 47.5 179V102.5Z" fill="#FF4A4A" stroke="white" stroke-width="3"/>
<path d="M57.5843 98.5C58.869 79.5077 74.6819 64.5 94 64.5L97 64.5C116.318 64.5 132.131 79.5077 133.416 98.5L57.5843 98.5Z" stroke="#FFB84F" stroke-width="5"/>
<rect x="99" y="69" width="6" height="23" rx="2.5" transform="rotate(-180 99 69)" fill="#FFB84F"/>
<rect x="99" y="99" width="6" height="35" rx="2.5" transform="rotate(-180 99 99)" fill="#FFB84F"/>
<rect x="116" y="99" width="6" height="33" rx="2.5" transform="rotate(-180 116 99)" fill="#FFB84F"/>
<rect x="82" y="98" width="6" height="31" rx="2.5" transform="rotate(-180 82 98)" fill="#FFB84F"/>
<rect x="94" y="96.5" width="4" height="4" rx="2" fill="#3661F6"/>
<rect x="111" y="96.5" width="4" height="4" rx="2" fill="#FF4A4A"/>
<rect x="77" y="96.5" width="4" height="4" rx="2" fill="#FF4A4A"/>
<rect x="131.5" y="96.5" width="4" height="4" rx="2" fill="#3661F6"/>
<rect x="55.5" y="96.5" width="4" height="4" rx="2" fill="#3661F6"/>
<path fill-rule="evenodd" clip-rule="evenodd" d="M96.489 204.999C96.7839 204.95 97.286 205.012 97.6627 204.716C98.1663 204.321 97.9674 202.725 97.9222 201.717C97.6895 196.561 97.4779 187.883 97.2155 175.695C96.7867 175.637 96.4721 175.666 96.1787 175.712C95.8839 175.666 95.5707 175.637 95.1405 175.695C94.8781 187.883 94.6665 196.561 94.4352 201.717C94.3901 202.725 94.1912 204.321 94.6933 204.716C95.0714 205.012 95.5722 204.95 95.8684 204.999H96.489Z" fill="white" stroke="#631717" stroke-width="1.6" stroke-miterlimit="22.926"/>
<path fill-rule="evenodd" clip-rule="evenodd" d="M99.7219 204.853C99.4228 204.832 98.9291 204.94 98.5257 204.678C97.9896 204.331 97.9445 202.7 97.8994 201.69C97.6624 196.536 97.1842 187.899 96.342 175.738C96.7652 175.639 97.0798 175.642 97.376 175.659C97.4226 175.647 97.4705 175.638 97.5171 175.626C99.4581 187.657 100.19 196.192 101.519 201.339C101.702 202.05 102.097 203.832 101.484 204.41C101.134 204.739 100.63 204.722 100.338 204.798L99.7219 204.853Z" fill="white" stroke="#631717" stroke-width="1.6" stroke-miterlimit="22.926"/>
<path fill-rule="evenodd" clip-rule="evenodd" d="M103.521 204.311C103.22 204.317 102.739 204.468 102.313 204.245C101.748 203.947 101.77 202.318 101.518 201.34C100.189 196.191 99.4567 187.655 97.5158 175.62C97.9277 175.485 98.2409 175.458 98.5385 175.448L98.5808 175.434C101.666 187.132 102.591 195.38 104.987 200.474C105.208 201.179 105.812 203.054 105.235 203.707C104.916 204.068 104.412 204.097 104.13 204.198L103.521 204.311Z" fill="white" stroke="#631717" stroke-width="1.6" stroke-miterlimit="22.926"/>
<path fill-rule="evenodd" clip-rule="evenodd" d="M107.347 203.23C107.048 203.265 106.544 203.544 106.098 203.364C105.506 203.122 105.413 201.382 104.987 200.473C102.58 195.355 101.658 187.057 98.5388 175.273C98.9351 175.098 99.2455 175.04 99.5403 175.002C99.8097 174.878 99.7589 174.814 100.189 174.751C103.813 186.39 104.991 194.485 108.41 199.509C108.963 200.32 109.367 201.943 108.991 202.462C108.711 202.852 108.213 202.931 107.941 203.059L107.347 203.23Z" fill="white" stroke="#631717" stroke-width="1.6" stroke-miterlimit="22.926"/>
<path fill-rule="evenodd" clip-rule="evenodd" d="M92.6335 204.853C92.9326 204.832 93.4249 204.94 93.8283 204.678C94.3657 204.331 94.4095 202.7 94.456 201.69C94.693 196.536 95.1712 187.899 96.0133 175.738C95.5902 175.639 95.2756 175.642 94.9779 175.659C94.9328 175.647 94.8848 175.638 94.8383 175.626C92.8973 187.657 92.1652 196.192 90.8365 201.339C90.6517 202.05 90.2581 203.832 90.8718 204.41C91.2216 204.739 91.7252 204.722 92.0158 204.798L92.6335 204.853Z" fill="white" stroke="#631717" stroke-width="1.6" stroke-miterlimit="22.926"/>
<path fill-rule="evenodd" clip-rule="evenodd" d="M88.8344 204.311C89.1349 204.317 89.6159 204.468 90.0405 204.245C90.6076 203.947 90.585 202.318 90.8375 201.34C92.1663 196.191 92.8984 187.655 94.8393 175.62C94.4274 175.485 94.1143 175.458 93.8166 175.448L93.7743 175.434C90.6879 187.132 89.7638 195.38 87.3686 200.474C87.1471 201.179 86.542 203.054 87.1203 203.707C87.4391 204.068 87.9427 204.097 88.2249 204.198L88.8344 204.311Z" fill="white" stroke="#631717" stroke-width="1.6" stroke-miterlimit="22.926"/>
<path fill-rule="evenodd" clip-rule="evenodd" d="M85.0058 203.231C85.3048 203.266 85.8085 203.544 86.2542 203.364C86.8467 203.122 86.9398 201.382 87.3658 200.473C89.7723 195.355 90.6948 187.057 93.8151 175.273C93.4173 175.098 93.1084 175.04 92.8136 175.002C92.5427 174.878 92.5935 174.814 92.1647 174.751C88.5394 186.39 87.3615 194.485 83.9421 199.509C83.3906 200.32 82.9857 201.943 83.3609 202.462C83.6416 202.852 84.1396 202.931 84.4118 203.059L85.0058 203.231Z" fill="white" stroke="#631717" stroke-width="1.6" stroke-miterlimit="22.926"/>
<path fill-rule="evenodd" clip-rule="evenodd" d="M105.325 194.437C105.052 194.454 104.64 194.62 104.212 194.416C103.642 194.145 103.271 192.572 102.965 191.594C100.537 186.808 98.3223 178.308 94.6884 166.494C95.0411 166.347 95.3218 166.309 95.5912 166.289C95.8297 166.183 96.0906 166.087 96.4827 166.052C100.397 177.742 102.154 186.196 105.979 190.852C106.611 191.621 107.081 193.297 106.78 193.782C106.555 194.147 106.1 194.195 105.861 194.304L105.325 194.437Z" fill="white" stroke="#631717" stroke-width="1.6" stroke-miterlimit="22.926"/>
<path fill-rule="evenodd" clip-rule="evenodd" d="M102.23 195.045C101.955 195.039 101.527 195.172 101.124 194.935C100.588 194.619 100.397 193.025 100.207 192.027C99.2291 186.933 97.4236 178.384 94.8617 166.382C95.2285 166.264 95.512 166.248 95.7828 166.249C96.0339 166.163 96.3033 166.089 96.6983 166.084C99.727 178.011 100.428 186.942 103.293 191.528C103.815 192.363 104.107 194.05 103.753 194.508C103.485 194.855 103.028 194.865 102.777 194.956L102.23 195.045Z" fill="white" stroke="#631717" stroke-width="1.6" stroke-miterlimit="22.926"/>
<path fill-rule="evenodd" clip-rule="evenodd" d="M99.0766 195.401C98.8043 195.374 98.3628 195.473 97.989 195.205C97.4925 194.846 97.4868 193.245 97.412 192.237C97.0255 187.088 96.2143 178.435 95.0463 166.284C95.4257 166.195 95.7093 166.202 95.9787 166.226C96.2382 166.16 96.5161 166.108 96.9083 166.136C98.5489 178.248 99.5025 187.019 100.541 191.987C100.748 192.976 101.061 194.561 100.655 194.99C100.35 195.313 99.8933 195.286 99.6323 195.357L99.0766 195.401Z" fill="white" stroke="#631717" stroke-width="1.6" stroke-miterlimit="22.926"/>
<path fill-rule="evenodd" clip-rule="evenodd" d="M87.0311 194.437C87.3047 194.454 87.7152 194.62 88.144 194.415C88.7139 194.145 89.0864 192.573 89.3911 191.596C91.8187 186.808 94.0334 178.309 97.6686 166.494C97.3159 166.346 97.0352 166.309 96.7643 166.288C96.5259 166.183 96.2664 166.087 95.8742 166.052C91.9598 177.743 90.2021 186.197 86.3765 190.852C85.746 191.621 85.2762 193.297 85.5767 193.784C85.8024 194.149 86.2566 194.195 86.4964 194.305L87.0311 194.437Z" fill="white" stroke="#631717" stroke-width="1.6" stroke-miterlimit="22.926"/>
<path fill-rule="evenodd" clip-rule="evenodd" d="M90.1248 195.044C90.3984 195.04 90.8272 195.172 91.2307 194.935C91.7667 194.619 91.9572 193.024 92.1476 192.028C93.1252 186.933 94.9294 178.385 97.4927 166.383C97.1259 166.263 96.8424 166.249 96.5701 166.25C96.3204 166.164 96.051 166.089 95.656 166.085C92.6273 178.012 91.9262 186.943 89.0613 191.529C88.5393 192.364 88.2459 194.051 88.6014 194.509C88.868 194.855 89.3264 194.865 89.5776 194.956L90.1248 195.044Z" fill="white" stroke="#631717" stroke-width="1.6" stroke-miterlimit="22.926"/>
<path fill-rule="evenodd" clip-rule="evenodd" d="M93.2798 195.4C93.5506 195.373 93.9921 195.472 94.3674 195.204C94.8639 194.847 94.8682 193.244 94.9443 192.236C95.3309 187.088 96.1406 178.434 97.3101 166.284C96.9306 166.194 96.6456 166.202 96.3762 166.225C96.1167 166.159 95.8402 166.106 95.4466 166.135C93.806 178.247 92.8524 187.017 91.8142 191.986C91.6082 192.976 91.2936 194.56 91.6999 194.989C92.006 195.312 92.4616 195.287 92.7226 195.356L93.2798 195.4Z" fill="white" stroke="#631717" stroke-width="1.6" stroke-miterlimit="22.926"/>
<path fill-rule="evenodd" clip-rule="evenodd" d="M96.457 195.508C96.7236 195.458 97.175 195.522 97.5164 195.224C97.9706 194.829 97.79 193.234 97.7505 192.224C97.5404 187.07 97.3499 178.391 97.1144 166.202C96.725 166.144 96.4429 166.174 96.1777 166.219C95.9125 166.174 95.629 166.144 95.241 166.202C95.0054 178.391 94.8136 187.069 94.6048 192.224C94.5639 193.234 94.3848 194.829 94.839 195.224C95.1804 195.522 95.6318 195.458 95.8984 195.508H96.457Z" fill="white" stroke="#631717" stroke-width="1.6" stroke-miterlimit="22.926"/>
<path fill-rule="evenodd" clip-rule="evenodd" d="M103.184 187.349C102.975 187.365 102.661 187.531 102.332 187.326C101.895 187.056 101.61 185.484 101.376 184.507C99.5178 179.72 97.8209 171.22 95.0379 159.405C95.3073 159.258 95.5217 159.22 95.7291 159.2C95.9125 159.096 96.1114 158.998 96.4118 158.963C99.4094 170.654 100.755 179.108 103.686 183.763C104.169 184.532 104.53 186.209 104.3 186.695C104.127 187.06 103.778 187.106 103.595 187.217L103.184 187.349Z" fill="white" stroke="#631717" stroke-width="1.6" stroke-miterlimit="22.926"/>
<path fill-rule="evenodd" clip-rule="evenodd" d="M100.812 187.959C100.603 187.954 100.274 188.088 99.9654 187.849C99.5549 187.535 99.4096 185.939 99.2629 184.942C98.5138 179.848 97.1328 171.3 95.1678 159.298C95.4499 159.178 95.6671 159.162 95.8745 159.164C96.0664 159.079 96.2737 159.004 96.5756 159C98.8961 170.927 99.4321 179.858 101.627 184.442C102.026 185.277 102.251 186.964 101.978 187.424C101.775 187.77 101.424 187.78 101.232 187.87L100.812 187.959Z" fill="white" stroke="#631717" stroke-width="1.6" stroke-miterlimit="22.926"/>
<path fill-rule="evenodd" clip-rule="evenodd" d="M98.4001 188.314C98.1913 188.286 97.8528 188.385 97.5678 188.117C97.1855 187.76 97.1827 186.157 97.1249 185.149C96.8287 180.001 96.208 171.347 95.3136 159.197C95.6028 159.107 95.8215 159.115 96.0274 159.138C96.2263 159.073 96.4379 159.021 96.7398 159.048C97.9966 171.161 98.7273 179.931 99.5229 184.899C99.6809 185.889 99.9207 187.473 99.609 187.902C99.3748 188.225 99.025 188.2 98.8261 188.27L98.4001 188.314Z" fill="white" stroke="#631717" stroke-width="1.6" stroke-miterlimit="22.926"/>
<path fill-rule="evenodd" clip-rule="evenodd" d="M89.172 187.347C89.3808 187.364 89.6968 187.531 90.0255 187.326C90.4614 187.054 90.7463 185.483 90.9805 184.505C92.8397 179.719 94.5352 171.218 97.3199 159.404C97.0491 159.256 96.8346 159.219 96.6287 159.2C96.4453 159.094 96.245 158.998 95.9445 158.963C92.9469 170.654 91.6012 179.108 88.6713 183.763C88.1875 184.53 87.8277 186.208 88.0577 186.693C88.2298 187.058 88.5782 187.106 88.7616 187.215L89.172 187.347Z" fill="white" stroke="#631717" stroke-width="1.6" stroke-miterlimit="22.926"/>
<path fill-rule="evenodd" clip-rule="evenodd" d="M91.5418 187.955C91.752 187.951 92.0807 188.084 92.3882 187.847C92.7987 187.531 92.944 185.937 93.0907 184.94C93.8397 179.844 95.2222 171.296 97.1857 159.294C96.9036 159.174 96.6864 159.16 96.479 159.162C96.2872 159.076 96.0798 159.001 95.778 158.998C93.4589 170.924 92.9214 179.856 90.7265 184.44C90.3273 185.275 90.1031 186.961 90.3739 187.421C90.5798 187.766 90.9297 187.776 91.1215 187.867L91.5418 187.955Z" fill="white" stroke="#631717" stroke-width="1.6" stroke-miterlimit="22.926"/>
<path fill-rule="evenodd" clip-rule="evenodd" d="M93.9568 188.316C94.1642 188.288 94.5041 188.387 94.7891 188.119C95.1713 187.762 95.1742 186.159 95.232 185.152C95.5282 180.002 96.1489 171.349 97.0432 159.198C96.7526 159.109 96.5354 159.116 96.3294 159.14C96.1305 159.074 95.9175 159.022 95.6171 159.05C94.3602 171.163 93.6295 179.933 92.8339 184.901C92.6759 185.892 92.4361 187.476 92.7479 187.905C92.982 188.228 93.3305 188.201 93.5308 188.271L93.9568 188.316Z" fill="white" stroke="#631717" stroke-width="1.6" stroke-miterlimit="22.926"/>
<path fill-rule="evenodd" clip-rule="evenodd" d="M96.395 188.418C96.5996 188.369 96.9452 188.431 97.2077 188.135C97.5547 187.74 97.4165 186.144 97.3854 185.134C97.226 179.979 97.0793 171.302 96.8973 159.114C96.601 159.054 96.3838 159.084 96.1806 159.129C95.9775 159.084 95.7616 159.054 95.4639 159.114C95.2834 171.302 95.1366 179.978 94.9772 185.134C94.9447 186.144 94.8065 187.74 95.155 188.135C95.416 188.431 95.7616 188.369 95.9676 188.418H96.395Z" fill="white" stroke="#631717" stroke-width="1.6" stroke-miterlimit="22.926"/>
<path fill-rule="evenodd" clip-rule="evenodd" d="M81.9149 174.448C81.2631 174.477 80.4633 174.849 78.1259 176.875C77.1046 178.957 76.0762 181.052 74.6587 182.857C74.1748 183.176 73.7954 183.399 73.4117 183.524C73.0125 183.657 70.0643 183.559 69.9923 183.435C69.0754 182.604 67.6733 183.197 68.1416 184.074C67.779 184.419 68.5789 185.678 69.2221 185.156C69.8118 184.675 71.8671 185.129 72.5512 184.881C72.2917 185.498 70.4353 185.898 69.1375 185.993C67.9526 186.044 68.0316 187.226 68.5196 188.133C69.0755 188.487 68.6198 188.04 68.8215 188.298C69.3519 189.085 70.4875 188.982 70.5255 188.213C70.565 187.417 73.3341 186.381 73.7488 185.77C73.241 186.979 72.0702 188.107 71.489 189.289C70.8641 189.916 70.4861 190.041 71.2929 191.305C72.1887 191.204 72.2409 190.965 72.7925 191.487C74.0169 191.353 74.2158 190.989 74.0169 190.02C73.8067 188.996 74.6629 187.145 74.9493 186.622C75.2117 186.14 75.2765 185.639 75.5319 185.337C75.9762 184.811 78.0922 183.76 78.6338 184.049C79.6326 184.579 80.3929 184.259 80.5184 183.293C80.1968 183.045 80.4394 181.674 79.7482 181.614C79.184 181.568 78.8497 181.741 78.3305 182.164C77.5138 182.832 77.0948 183.186 76.8254 183.112C76.1892 182.936 77.9793 182.059 79.6086 179.923C81.8656 176.963 82.0208 175.461 81.915 174.448L81.9149 174.448Z" fill="#631717" stroke="#631717" stroke-width="1.6" stroke-miterlimit="22.926" stroke-linejoin="round"/>
<path fill-rule="evenodd" clip-rule="evenodd" d="M68.2809 184.616C67.4627 184.138 66.9944 184.157 66.677 184.512C66.502 184.708 66.2806 184.607 66.4104 184.299C66.9534 183.015 67.8196 182.856 68.5983 183.457C68.8155 183.659 68.9904 183.832 69.1653 184.006C69.0355 184.199 68.3866 184.468 68.2809 184.616L68.2809 184.616Z" fill="#EDB92E" stroke="#631717" stroke-width="1.6" stroke-miterlimit="22.926"/>
<path fill-rule="evenodd" clip-rule="evenodd" d="M79.9813 183.471C80.8502 182.882 81.6627 182.766 82.1085 183.098C82.3526 183.28 82.5952 183.148 82.3794 182.847C81.4794 181.581 80.4256 181.518 79.63 182.23C79.4142 182.464 79.2421 182.663 79.07 182.863C79.3437 183.161 79.9446 183.497 79.9813 183.471L79.9813 183.471Z" fill="#EDB92E" stroke="#631717" stroke-width="1.6" stroke-miterlimit="22.926"/>
<path fill-rule="evenodd" clip-rule="evenodd" d="M73.1502 190.717C72.6184 191.77 72.3377 192.49 72.569 193.055C72.703 193.385 72.5507 193.688 72.2164 193.4C70.8608 192.238 70.858 190.905 71.7255 189.999C72.0147 189.697 72.3236 189.503 72.5987 189.283C72.9514 189.613 73.177 190.667 73.1502 190.717L73.1502 190.717Z" fill="#631717" stroke="#631717" stroke-width="1.6" stroke-miterlimit="22.926"/>
<path fill-rule="evenodd" clip-rule="evenodd" d="M69.766 187.952C68.9591 188.285 68.6827 188.71 68.7109 189.265C68.7278 189.572 68.5261 189.686 68.4132 189.33C67.4272 187.044 68.4499 186.616 69.9268 186.7C70.01 187.097 69.8013 187.937 69.766 187.952L69.766 187.952Z" fill="#EDB92E" stroke="#631717" stroke-width="1.6" stroke-miterlimit="22.926"/>
<path d="M76.7024 182.861C76.172 182.552 76.141 182.209 76.2792 181.979C76.5741 181.491 76.8703 181.727 77.4261 182.177" stroke="#631717" stroke-width="1.6" stroke-miterlimit="22.926"/>
<path d="M77.3909 182.114C76.8605 181.805 76.8295 181.462 76.9677 181.232C77.2625 180.745 77.5588 180.98 78.1146 181.43" stroke="#631717" stroke-width="1.6" stroke-miterlimit="22.926"/>
<path d="M78.1625 181.405C77.577 181.005 77.5418 180.559 77.6955 180.258C78.02 179.625 78.3472 179.93 78.9595 180.515" stroke="#631717" stroke-width="1.6" stroke-miterlimit="22.926"/>
<path d="M78.994 180.513C78.3734 180.059 78.3353 179.557 78.4989 179.217C78.8431 178.5 79.1915 178.846 79.8418 179.507" stroke="#631717" stroke-width="1.6" stroke-miterlimit="22.926"/>
<path d="M79.8695 179.567C79.2912 179.086 79.1106 178.61 79.3744 178.191C79.7877 177.535 80.067 177.797 80.7173 178.5" stroke="#631717" stroke-width="1.6" stroke-miterlimit="22.926"/>
<path fill-rule="evenodd" clip-rule="evenodd" d="M87.7105 128.143C87.2958 128.504 85.9275 128.509 84.0541 128.629C81.0354 128.735 79.2878 127.825 78.8999 125.895C80.034 127.243 81.384 127.91 82.9188 127.53C84.9882 127.018 86.1731 126.652 86.6457 126.742C86.9631 126.855 87.4272 127.43 87.7107 128.143L87.7105 128.143Z" fill="#EDB92E" stroke="#631717" stroke-width="1.6" stroke-miterlimit="22.926" stroke-linejoin="round"/>
<path fill-rule="evenodd" clip-rule="evenodd" d="M94.6986 169.282C94.6817 170.147 94.6718 171.116 94.6648 172.112L94.6563 172.115L92.4995 172.562C92.4939 173.545 94.9258 183.833 96.1785 183.833C97.4311 183.833 99.8615 173.538 99.8575 172.555L97.7007 172.115L97.6922 172.112C97.6852 171.116 97.6739 170.147 97.6584 169.282C97.2056 169.659 96.7048 170.314 96.1786 170.906C95.651 170.314 95.1517 169.659 94.6989 169.282L94.6986 169.282Z" fill="white" stroke="#631717" stroke-width="1.6" stroke-miterlimit="22.926"/>
<path fill-rule="evenodd" clip-rule="evenodd" d="M92.1997 173.653L90.2672 172.56C89.4546 173.142 88.8523 175.307 90.2418 177.076C91.974 179.281 92.6751 180.879 93.0983 182.664C94.3594 181.051 94.7939 179.356 93.9926 177.701C92.9135 175.469 92.2096 174.211 92.1997 173.653L92.1997 173.653Z" fill="white" stroke="#631717" stroke-width="1.6" stroke-miterlimit="22.926" stroke-linejoin="round"/>
<path fill-rule="evenodd" clip-rule="evenodd" d="M93.7794 172.108L91.8469 171.014C91.033 171.597 89.3346 173.694 90.724 175.463C92.4563 177.667 94.2548 179.334 94.6781 181.119C95.9392 179.506 96.4767 177.811 95.6755 176.156C94.5963 173.926 93.7894 172.668 93.7796 172.108L93.7794 172.108Z" fill="white" stroke="#631717" stroke-width="1.6" stroke-miterlimit="22.926" stroke-linejoin="round"/>
<path fill-rule="evenodd" clip-rule="evenodd" d="M100.155 173.65L102.087 172.557C102.901 173.141 103.502 175.306 102.113 177.075C100.382 179.28 99.6794 180.877 99.2562 182.662C97.9951 181.05 97.5621 179.353 98.3633 177.7C99.4424 175.468 100.145 174.21 100.155 173.65L100.155 173.65Z" fill="white" stroke="#631717" stroke-width="1.6" stroke-miterlimit="22.926" stroke-linejoin="round"/>
<path fill-rule="evenodd" clip-rule="evenodd" d="M98.5748 172.105L100.509 171.013C101.321 171.596 103.021 173.692 101.632 175.461C99.8994 177.666 98.1009 179.333 97.6761 181.118C96.4164 179.505 95.879 177.81 96.6802 176.155C97.7594 173.924 98.5662 172.665 98.5747 172.105L98.5748 172.105Z" fill="white" stroke="#631717" stroke-width="1.6" stroke-miterlimit="22.926" stroke-linejoin="round"/>
<path fill-rule="evenodd" clip-rule="evenodd" d="M89.5124 171.325L87.5799 170.232C86.7674 170.816 86.165 172.981 87.5559 174.75C89.2867 176.955 89.9893 178.553 90.4124 180.338C91.6721 178.725 92.1066 177.028 91.3054 175.375C90.2248 173.143 89.5223 171.885 89.5125 171.325L89.5124 171.325Z" fill="white" stroke="#631717" stroke-width="1.6" stroke-miterlimit="22.926" stroke-linejoin="round"/>
<path fill-rule="evenodd" clip-rule="evenodd" d="M102.842 171.322L104.776 170.229C105.588 170.813 106.189 172.977 104.8 174.747C103.067 176.952 102.366 178.549 101.943 180.333C100.683 178.722 100.249 177.025 101.05 175.371C102.129 173.139 102.833 171.881 102.842 171.322L102.842 171.322Z" fill="white" stroke="#631717" stroke-width="1.6" stroke-miterlimit="22.926" stroke-linejoin="round"/>
<path fill-rule="evenodd" clip-rule="evenodd" d="M80.5636 150.957C80.6003 152.722 80.2871 164.491 80.1884 166.154C80.0911 167.81 79.3561 168.938 78.5718 169.586C77.8538 168.6 77.425 167.269 77.3234 165.689C77.2698 164.885 77.4193 153.749 77.4814 151.459C78.8017 147.971 79.7807 147.838 80.5636 150.957Z" fill="white" stroke="#631717" stroke-width="1.6" stroke-miterlimit="22.926"/>
<path fill-rule="evenodd" clip-rule="evenodd" d="M72.9004 148.078L72.401 164.26C72.243 165.696 74.1149 174.237 75.1376 175.923C77.6711 174.841 78.2057 169.046 77.7289 163.399C77.2536 157.751 77.8093 152.875 78.1959 151.861C78.2297 150.583 78.0153 149.25 78.0026 147.919C76.3888 148.017 74.5141 147.982 72.9003 148.079L72.9004 148.078Z" fill="white" stroke="#631717" stroke-width="1.6" stroke-miterlimit="22.926"/>
<path fill-rule="evenodd" clip-rule="evenodd" d="M69.8994 150.723L70.2422 166.91C70.1604 168.351 72.4752 176.78 73.5854 178.405C76.1542 176.416 75.6379 168.278 75.2443 165.817C74.46 160.911 74.5926 155.227 74.8634 154.304C74.831 153.026 74.7971 151.497 74.7153 150.168C73.11 150.353 71.5047 150.538 69.8994 150.723L69.8994 150.723Z" fill="white" stroke="#631717" stroke-width="1.6" stroke-miterlimit="22.926"/>
<path fill-rule="evenodd" clip-rule="evenodd" d="M67.6713 154.558L71.9315 154.449C71.569 156.215 71.8581 161.7 72.5931 165.879C73.2829 169.8 74.2449 179.965 70.1569 182.405C67.6234 177.042 69.5531 171.83 68.2751 167.172C67.2778 162.222 67.0817 158.089 67.6714 154.558L67.6713 154.558Z" fill="white" stroke="#631717" stroke-width="1.6" stroke-miterlimit="22.926"/>
<path fill-rule="evenodd" clip-rule="evenodd" d="M83.958 147.985C83.941 149.751 83.271 161.504 83.1229 163.163C82.9733 164.815 82.2045 165.919 81.4019 166.54C80.7135 165.533 80.3256 164.19 80.2706 162.609C80.2438 161.802 80.7304 150.675 80.8616 148.388C82.2864 144.943 83.2696 144.842 83.958 147.985V147.985Z" fill="white" stroke="#631717" stroke-width="1.6" stroke-miterlimit="22.926"/>
<path fill-rule="evenodd" clip-rule="evenodd" d="M76.3891 138.397C76.2749 142.187 76.21 150.415 76.234 151.114C76.2876 152.695 76.9125 154.707 77.6009 155.715C78.4035 155.095 79.1709 153.99 79.3204 152.337C79.4417 150.98 79.4855 144.309 79.5052 140.966C78.6476 140.414 77.7603 139.725 77.0451 138.99C77.0451 138.99 76.4145 138.43 76.3891 138.397L76.3891 138.397Z" fill="white" stroke="#631717" stroke-width="1.6" stroke-miterlimit="22.926"/>
<path fill-rule="evenodd" clip-rule="evenodd" d="M79.4295 140.841C79.3533 144.926 79.3985 151.361 79.4168 151.883C79.4704 153.465 79.8583 154.809 80.5467 155.818C81.3493 155.195 82.1971 154.052 82.3452 152.4C82.4369 151.383 82.7205 147.023 82.7459 143.675C81.6667 143.334 80.3041 141.566 79.4295 140.841V140.841Z" fill="white" stroke="#631717" stroke-width="1.6" stroke-miterlimit="22.926"/>
<path fill-rule="evenodd" clip-rule="evenodd" d="M76.811 138.055L73.9108 133.881C73.3254 135.941 72.6102 150.711 73.4495 151.922C73.5031 153.503 74.0745 154.842 74.7628 155.85C75.5655 155.228 76.7645 154.11 76.4175 152.438C76.0719 150.766 76.4598 139.779 76.811 138.055Z" fill="white" stroke="#631717" stroke-width="1.6" stroke-miterlimit="22.926"/>
<path fill-rule="evenodd" clip-rule="evenodd" d="M70.8673 147.345C70.7361 149.63 70.643 151.178 70.6712 151.984C70.7248 153.565 71.1128 154.909 71.8011 155.918C72.6038 155.296 73.6265 154.194 73.5207 152.538C73.1158 146.142 73.8169 140.117 74.6323 134.326C73.9439 133.821 72.7843 133.277 72.096 132.772C70.7206 140.572 70.2607 145.413 70.8673 147.346L70.8673 147.345Z" fill="white" stroke="#631717" stroke-width="1.6" stroke-miterlimit="22.926"/>
<path fill-rule="evenodd" clip-rule="evenodd" d="M67.964 151.532L68.7511 154.507C68.8047 156.088 69.7837 157.394 70.4707 158.403C71.2733 157.779 72.0026 156.758 71.7981 155.113C70.6216 145.665 71.042 139.415 73.0267 131.715C68.538 134.775 66.4577 141.229 67.964 151.532Z" fill="white" stroke="#631717" stroke-width="1.6" stroke-miterlimit="22.926" stroke-linejoin="round"/>
<path fill-rule="evenodd" clip-rule="evenodd" d="M68.195 154.457L64.0761 153.092C63.5527 157.204 64.3582 162.368 65.4684 169.179C66.4205 175.026 65.9198 179.654 65.1919 182.623C69.586 182.023 71.4436 176.366 69.2404 165.727C68.6634 162.942 68.0837 159.384 68.1951 154.457L68.195 154.457Z" fill="white" stroke="#631717" stroke-width="1.6" stroke-miterlimit="22.926"/>
<path d="M68.0709 174.356C68.1669 171.633 67.7098 168.659 67.1921 166.154C66.4797 162.719 66.1144 159.426 66.0918 155.967" stroke="#631717" stroke-width="1.6" stroke-miterlimit="22.926" stroke-linecap="round"/>
<path fill-rule="evenodd" clip-rule="evenodd" d="M68.0326 130.269L70.7354 130.723C70.6028 131.302 69.9172 134.853 69.7916 135.459C68.7816 140.394 68.1144 146.21 68.879 152.589C69.1625 154.956 69.6647 156.892 70.4025 158.388C67.4373 158.051 65.5371 155.161 65.7827 150.119C65.2664 144.23 65.4935 139.547 66.4485 136.026C66.7278 134.993 67.6277 131.103 68.0326 130.269Z" fill="white" stroke="#631717" stroke-width="1.6" stroke-miterlimit="22.926" stroke-linejoin="round"/>
<path fill-rule="evenodd" clip-rule="evenodd" d="M66.3928 130.909L67.7202 132.421C67.3435 132.69 67.9825 133.85 67.6384 136.103C67.4169 137.381 66.6537 138.889 66.4971 140.521C65.9738 145.927 65.9724 152.699 67.6003 157.028C64.6351 156.691 63.6167 154.008 63.5207 148.961C63.4417 144.787 63.4276 139.866 64.4771 134.186C64.6901 132.858 65.3291 131.799 66.3927 130.909L66.3928 130.909Z" fill="white" stroke="#631717" stroke-width="1.6" stroke-miterlimit="22.926"/>
<path fill-rule="evenodd" clip-rule="evenodd" d="M73.8007 134.89L71.0641 134.571C70.5605 137.154 70.1768 138.981 70.0823 139.9C69.8989 141.706 70.4476 143.361 71.074 144.594C72.084 143.986 72.5523 142.658 72.9769 140.799C73.4015 138.93 73.5086 136.895 73.8007 134.89Z" fill="white" stroke="#631717" stroke-width="1.6" stroke-miterlimit="22.926"/>
<path fill-rule="evenodd" clip-rule="evenodd" d="M80.9016 140.708L78.4725 140.733C78.3893 142.962 78.33 144.47 78.3695 145.256C78.4471 146.796 78.8322 148.101 79.491 149.077C80.2287 148.463 80.927 147.379 81.037 145.768C81.147 144.15 80.9171 142.428 80.9016 140.708Z" fill="white" stroke="#631717" stroke-width="1.6" stroke-miterlimit="22.926"/>
<path fill-rule="evenodd" clip-rule="evenodd" d="M83.5173 141.858L81.0896 141.969C81.0853 144.199 81.0769 145.709 81.1446 146.491C81.2758 148.028 81.706 149.32 82.3986 150.272C83.1139 149.632 83.774 148.526 83.829 146.912C83.8826 145.29 83.592 143.577 83.5173 141.858L83.5173 141.858Z" fill="white" stroke="#631717" stroke-width="1.6" stroke-miterlimit="22.926"/>
<path fill-rule="evenodd" clip-rule="evenodd" d="M78.4281 139.456L76.006 139.285C75.7422 141.5 75.5603 142.998 75.5348 143.784C75.4883 145.325 75.7662 146.657 76.3431 147.684C77.1288 147.131 77.9117 146.109 78.1529 144.512C78.3942 142.908 78.3039 141.171 78.4281 139.456Z" fill="white" stroke="#631717" stroke-width="1.6" stroke-miterlimit="22.926"/>
<path fill-rule="evenodd" clip-rule="evenodd" d="M76.1565 136.845L73.4989 135.743C73.0475 137.537 72.4339 143.442 73.5229 145.936C74.4073 145.336 75.3003 144.209 75.5979 142.433C75.897 140.65 75.9859 138.754 76.1565 136.844L76.1565 136.845Z" fill="white" stroke="#631717" stroke-width="1.6" stroke-miterlimit="22.926"/>
<path fill-rule="evenodd" clip-rule="evenodd" d="M72.6434 133.915L68.3959 134.292C67.4184 136.725 66.7779 138.882 66.4662 140.837C68.4354 140.489 69.863 139.523 70.3749 137.759C71.0661 135.381 72.2821 134.336 72.6432 133.916L72.6434 133.915Z" fill="white" stroke="#631717" stroke-width="1.6" stroke-miterlimit="22.926" stroke-linecap="round" stroke-linejoin="round"/>
<path fill-rule="evenodd" clip-rule="evenodd" d="M111.793 150.957C111.757 152.722 112.068 164.491 112.167 166.154C112.266 167.81 113.001 168.939 113.785 169.586C114.503 168.6 114.932 167.27 115.033 165.69C115.086 164.886 114.938 153.749 114.876 151.46C113.555 147.971 112.576 147.839 111.793 150.957Z" fill="white" stroke="#631717" stroke-width="1.6" stroke-miterlimit="22.926"/>
<path fill-rule="evenodd" clip-rule="evenodd" d="M119.456 148.079L119.957 164.26C120.115 165.696 118.242 174.237 117.219 175.923C114.685 174.841 114.151 169.046 114.628 163.4C115.104 157.752 114.549 152.875 114.162 151.861C114.128 150.583 114.343 149.25 114.355 147.92C115.969 148.017 117.844 147.982 119.456 148.079L119.456 148.079Z" fill="white" stroke="#631717" stroke-width="1.6" stroke-miterlimit="22.926"/>
<path fill-rule="evenodd" clip-rule="evenodd" d="M122.457 150.723L122.113 166.91C122.196 168.352 119.88 176.78 118.771 178.405C116.202 176.416 116.719 168.279 117.112 165.817C117.896 160.911 117.764 155.227 117.493 154.305C117.525 153.027 117.558 151.498 117.64 150.169C119.245 150.354 120.85 150.539 122.457 150.723L122.457 150.723Z" fill="white" stroke="#631717" stroke-width="1.6" stroke-miterlimit="22.926"/>
<path fill-rule="evenodd" clip-rule="evenodd" d="M124.685 154.558L120.427 154.45C120.789 156.216 120.499 161.7 119.764 165.88C119.075 169.8 118.113 179.965 122.2 182.406C124.735 177.042 122.805 171.83 124.083 167.172C125.079 162.222 125.276 158.088 124.685 154.558V154.558Z" fill="white" stroke="#631717" stroke-width="1.6" stroke-miterlimit="22.926"/>
<path fill-rule="evenodd" clip-rule="evenodd" d="M108.399 147.985C108.414 149.751 109.086 161.505 109.234 163.164C109.383 164.815 110.152 165.92 110.955 166.541C111.643 165.533 112.031 164.191 112.085 162.609C112.113 161.802 111.626 150.676 111.495 148.389C110.07 144.944 109.087 144.842 108.399 147.985V147.985Z" fill="white" stroke="#631717" stroke-width="1.6" stroke-miterlimit="22.926"/>
<path fill-rule="evenodd" clip-rule="evenodd" d="M115.968 138.397C116.082 142.188 116.147 150.416 116.123 151.114C116.068 152.695 115.444 154.707 114.756 155.716C113.953 155.095 113.185 153.991 113.037 152.337C112.915 150.98 112.871 144.31 112.85 140.966C113.709 140.415 114.595 139.725 115.31 138.99C115.31 138.99 115.942 138.43 115.968 138.398L115.968 138.397Z" fill="white" stroke="#631717" stroke-width="1.6" stroke-miterlimit="22.926"/>
<path fill-rule="evenodd" clip-rule="evenodd" d="M112.923 140.841C112.998 144.927 112.954 151.362 112.936 151.884C112.882 153.465 112.494 154.809 111.806 155.818C111.003 155.196 110.156 154.052 110.007 152.4C109.916 151.383 109.632 147.023 109.605 143.676C110.685 143.334 112.049 141.567 112.923 140.842V140.841Z" fill="white" stroke="#631717" stroke-width="1.6" stroke-miterlimit="22.926"/>
<path fill-rule="evenodd" clip-rule="evenodd" d="M115.542 138.056L118.44 133.882C119.027 135.941 119.742 150.712 118.903 151.922C118.849 153.503 118.277 154.842 117.588 155.851C116.786 155.229 115.588 154.11 115.935 152.438C116.281 150.767 115.893 139.78 115.542 138.056Z" fill="white" stroke="#631717" stroke-width="1.6" stroke-miterlimit="22.926"/>
<path fill-rule="evenodd" clip-rule="evenodd" d="M121.489 147.346C121.619 149.631 121.713 151.178 121.685 151.984C121.632 153.565 121.244 154.91 120.555 155.918C119.753 155.296 118.73 154.195 118.834 152.539C119.239 146.143 118.54 140.118 117.724 134.326C118.413 133.821 119.572 133.278 120.26 132.773C121.636 140.572 122.096 145.413 121.489 147.346L121.489 147.346Z" fill="white" stroke="#631717" stroke-width="1.6" stroke-miterlimit="22.926"/>
<path fill-rule="evenodd" clip-rule="evenodd" d="M124.389 151.532L123.602 154.507C123.547 156.089 122.569 157.395 121.882 158.403C121.078 157.78 120.35 156.759 120.555 155.114C121.731 145.666 121.311 139.415 119.325 131.716C123.815 134.775 125.895 141.229 124.389 151.532L124.389 151.532Z" fill="white" stroke="#631717" stroke-width="1.6" stroke-miterlimit="22.926" stroke-linejoin="round"/>
<path fill-rule="evenodd" clip-rule="evenodd" d="M124.158 154.458L128.277 153.092C128.802 157.204 127.995 162.368 126.886 169.179C125.934 175.026 126.435 179.655 127.162 182.624C122.768 182.023 120.911 176.366 123.114 165.727C123.69 162.943 124.269 159.384 124.158 154.458L124.158 154.458Z" fill="white" stroke="#631717" stroke-width="1.6" stroke-miterlimit="22.926"/>
<path d="M124.285 174.356C124.189 171.633 124.645 168.659 125.164 166.154C125.875 162.719 126.242 159.426 126.264 155.967" stroke="#631717" stroke-width="1.6" stroke-miterlimit="22.926" stroke-linecap="round"/>
<path fill-rule="evenodd" clip-rule="evenodd" d="M124.324 130.269L121.62 130.723C121.754 131.301 122.44 134.853 122.564 135.458C123.575 140.394 124.242 146.21 123.478 152.589C123.194 154.956 122.691 156.891 121.954 158.388C124.92 158.051 126.82 155.16 126.574 150.119C127.089 144.23 126.863 139.546 125.908 136.026C125.629 134.993 124.729 131.103 124.324 130.269L124.324 130.269Z" fill="white" stroke="#631717" stroke-width="1.6" stroke-miterlimit="22.926" stroke-linejoin="round"/>
<path fill-rule="evenodd" clip-rule="evenodd" d="M125.964 130.908L124.636 132.42C125.014 132.69 124.375 133.849 124.717 136.102C124.94 137.38 125.702 138.888 125.86 140.52C126.383 145.927 126.385 152.698 124.757 157.027C127.722 156.69 128.74 154.007 128.836 148.96C128.915 144.786 128.93 139.866 127.88 134.185C127.667 132.858 127.028 131.798 125.964 130.908L125.964 130.908Z" fill="white" stroke="#631717" stroke-width="1.6" stroke-miterlimit="22.926"/>
<path fill-rule="evenodd" clip-rule="evenodd" d="M118.556 134.888L121.292 134.569C121.796 137.152 122.18 138.979 122.273 139.9C122.456 141.704 121.909 143.359 121.283 144.592C120.273 143.984 119.804 142.657 119.38 140.797C118.954 138.928 118.848 136.893 118.556 134.888L118.556 134.888Z" fill="white" stroke="#631717" stroke-width="1.6" stroke-miterlimit="22.926"/>
<path fill-rule="evenodd" clip-rule="evenodd" d="M111.453 140.705L113.882 140.73C113.965 142.959 114.026 144.467 113.987 145.251C113.909 146.792 113.524 148.097 112.865 149.074C112.127 148.46 111.429 147.376 111.319 145.765C111.209 144.147 111.439 142.424 111.453 140.705L111.453 140.705Z" fill="white" stroke="#631717" stroke-width="1.6" stroke-miterlimit="22.926"/>
<path fill-rule="evenodd" clip-rule="evenodd" d="M108.84 141.857L111.267 141.967C111.271 144.197 111.279 145.707 111.212 146.491C111.081 148.026 110.651 149.318 109.958 150.27C109.242 149.631 108.583 148.524 108.528 146.91C108.474 145.289 108.765 143.575 108.84 141.857L108.84 141.857Z" fill="white" stroke="#631717" stroke-width="1.6" stroke-miterlimit="22.926"/>
<path fill-rule="evenodd" clip-rule="evenodd" d="M113.928 139.454L116.351 139.282C116.614 141.498 116.797 142.996 116.821 143.782C116.869 145.322 116.59 146.655 116.013 147.682C115.228 147.129 114.444 146.107 114.204 144.51C113.962 142.906 114.052 141.169 113.928 139.454Z" fill="white" stroke="#631717" stroke-width="1.6" stroke-miterlimit="22.926"/>
<path fill-rule="evenodd" clip-rule="evenodd" d="M116.199 136.842L118.856 135.74C119.309 137.534 119.921 143.439 118.834 145.933C117.948 145.333 117.056 144.206 116.757 142.43C116.46 140.647 116.369 138.75 116.199 136.842Z" fill="white" stroke="#631717" stroke-width="1.6" stroke-miterlimit="22.926"/>
<path fill-rule="evenodd" clip-rule="evenodd" d="M119.713 133.913L123.959 134.291C124.938 136.723 125.578 138.879 125.89 140.835C123.919 140.488 122.492 139.52 121.979 137.758C121.288 135.378 120.074 134.333 119.712 133.912L119.713 133.913Z" fill="white" stroke="#631717" stroke-width="1.6" stroke-miterlimit="22.926" stroke-linecap="round" stroke-linejoin="round"/>
<path fill-rule="evenodd" clip-rule="evenodd" d="M107.222 139.956C107.547 139.888 107.877 139.795 108.211 139.678C106.657 138.705 105.369 137.527 103.835 135.18C102.266 132.775 104.523 128.479 105.449 126.201C107.384 124.771 109.207 122.668 109.787 119.896C110.015 118.405 105.897 118.943 103.065 120.279C99.6031 121.913 99.132 121.46 97.8977 121.735C97.4576 123.855 98.3773 124.033 99.2603 123.93C97.3532 126.985 96.5576 130.027 96.1767 134.401C95.7959 130.027 95.0003 126.985 93.0931 123.93C93.9762 124.033 94.8945 123.855 94.4557 121.735C93.2214 121.46 92.7503 121.913 89.2872 120.279C86.456 118.943 82.3369 118.405 82.5669 119.896C83.1467 122.668 84.9692 124.771 86.9031 126.201C87.8299 128.479 90.0869 132.775 88.5183 135.18C86.985 137.527 85.6957 138.705 84.1413 139.678C84.477 139.795 84.8071 139.888 85.1302 139.956C84.896 140.276 82.8802 140.904 82.6432 140.738C81.1014 139.647 79.5977 137.087 78.2857 135.6C74.5703 131.388 72.7152 128.138 73.371 125.515C74.3048 122.691 77.6339 119.521 73.2229 120.07C68.8134 120.618 65.1568 126.664 63.9832 133.937C63.5473 136.635 63.2948 138.894 63 140.743C65.4079 139.884 66.4744 139.029 67.1134 137.973C66.827 138.977 66.6112 139.929 66.4659 140.838C68.4352 140.489 69.8641 139.523 70.376 137.76C70.582 137.046 70.8373 136.452 71.1011 135.96C71.7077 136.174 72.492 136.161 73.4456 135.929C73.8081 136.792 76.5221 139.812 77.9793 142.031C79.6255 144.536 82.0996 146.45 82.9135 146.556C83.3226 146.608 83.4481 145.704 83.3578 144.457C87.6601 144.487 91.9598 144.512 96.1761 144.369C100.392 144.512 104.692 144.487 108.994 144.457C108.904 145.704 109.03 146.608 109.437 146.556C110.253 146.45 112.727 144.536 114.372 142.031C115.83 139.812 118.544 136.792 118.905 135.929C119.86 136.161 120.645 136.174 121.25 135.96C121.515 136.452 121.769 137.046 121.976 137.76C122.488 139.523 123.917 140.489 125.886 140.838C125.741 139.929 125.525 138.977 125.237 137.973C125.878 139.029 126.944 139.884 129.351 140.743C129.057 138.894 128.805 136.635 128.369 133.937C127.195 126.663 123.539 120.617 119.128 120.07C114.718 119.522 118.047 122.691 118.981 125.515C119.637 128.138 117.782 131.388 114.067 135.6C112.753 137.087 111.251 139.647 109.708 140.738C109.472 140.904 107.456 140.276 107.221 139.956H107.222Z" fill="white" stroke="#631717" stroke-width="1.6" stroke-miterlimit="22.926" stroke-linejoin="round"/>
<path fill-rule="evenodd" clip-rule="evenodd" d="M104.646 128.139C105.06 128.502 106.429 128.507 108.302 128.627C111.321 128.732 113.068 127.822 113.456 125.892C112.324 127.241 110.974 127.908 109.437 127.528C107.368 127.016 106.183 126.648 105.711 126.74C105.393 126.853 104.929 127.427 104.645 128.139L104.646 128.139Z" fill="#EDB92E" stroke="#631717" stroke-width="1.6" stroke-miterlimit="22.926" stroke-linejoin="round"/>
<path fill-rule="evenodd" clip-rule="evenodd" d="M111.707 120.21C115.091 120.575 114.929 122.787 111.765 125.912C111.16 126.51 110.951 126.492 110.822 125.869C110.597 124.783 109.392 124.141 108.76 124.97C108.33 125.532 108.426 125.855 106.993 125.655C105.183 127.172 103.709 128.238 106.079 128.15C107.12 128.111 107.922 128.718 109.281 128.664C108.879 129.443 108.807 129.533 108.589 129.599C107.273 129.859 105.887 129.038 104.559 129.282C101.649 129.818 109.22 121.427 109.127 121.095C108.887 120.251 110.947 118.737 111.707 120.21L111.707 120.21Z" fill="#EDB92E" stroke="#631717" stroke-width="1.6" stroke-miterlimit="22.926"/>
<path d="M111.627 120.137C111.347 120.934 110.812 121.664 110.022 122.332" stroke="#631717" stroke-width="1.6" stroke-miterlimit="22.926" stroke-linecap="round"/>
<path fill-rule="evenodd" clip-rule="evenodd" d="M112.349 121.759C112.328 121.608 112.184 121.497 112.029 121.514C111.873 121.529 111.764 121.666 111.787 121.82C111.808 121.971 111.952 122.082 112.107 122.065C112.263 122.05 112.372 121.913 112.349 121.759Z" fill="#631717"/>
<path d="M83.4325 121.057C84.341 121.009 85.272 121.407 86.4809 121.844C86.8209 121.968 88.0044 122.434 88.3641 122.379" stroke="#631717" stroke-width="1.6" stroke-miterlimit="22.926" stroke-linecap="round"/>
<path d="M93.1436 123.94C92.1561 123.778 91.613 123.651 91.1489 123.521" stroke="#631717" stroke-width="1.6" stroke-miterlimit="22.926" stroke-linecap="round"/>
<path d="M84.1537 121.123C84.536 121.822 84.9888 122.77 85.7928 123.22C86.398 123.558 87.0708 123.024 87.5618 122.105" stroke="#631717" stroke-width="1.6" stroke-miterlimit="22.926"/>
<path fill-rule="evenodd" clip-rule="evenodd" d="M85.4713 122.882L85.0256 122.436C84.8083 122.161 84.9339 121.796 85.4036 121.339C85.7464 121.487 86.0201 121.601 86.2952 121.716C86.1132 122.333 85.8381 122.723 85.4714 122.882" fill="#631717"/>
<path d="M108.203 121.124C107.821 121.822 107.369 122.77 106.565 123.22C105.96 123.56 105.287 123.024 104.796 122.107" stroke="#631717" stroke-width="1.6" stroke-miterlimit="22.926"/>
<path fill-rule="evenodd" clip-rule="evenodd" d="M106.882 122.882L107.328 122.436C107.546 122.161 107.421 121.796 106.951 121.339C106.607 121.487 106.333 121.601 106.06 121.716C106.242 122.333 106.517 122.723 106.882 122.882" fill="#631717"/>
<path d="M108.926 121.058C108.017 121.008 107.086 121.407 105.879 121.845C105.537 121.967 104.355 122.433 103.994 122.379" stroke="#631717" stroke-width="1.6" stroke-miterlimit="22.926" stroke-linecap="round"/>
<path d="M99.2085 123.941C100.199 123.78 100.74 123.652 101.205 123.523" stroke="#631717" stroke-width="1.6" stroke-miterlimit="22.926" stroke-linecap="round"/>
<path d="M84.1436 139.678C86.0747 140.355 87.8211 140.221 89.1301 138.932C89.3375 138.729 89.535 138.534 89.7198 138.349" stroke="#631717" stroke-width="1.6" stroke-miterlimit="22.926" stroke-linecap="round" stroke-linejoin="round"/>
<path d="M89.9539 137.172C89.7747 138.474 89.4418 139.512 88.9819 140.543C90.3432 140.189 91.4195 139.565 92.0768 138.626" stroke="#631717" stroke-width="1.6" stroke-miterlimit="22.926" stroke-linecap="round" stroke-linejoin="round"/>
<path d="M96.1539 141.166C95.0917 139.876 94.4386 138.385 94.3652 136.714" stroke="#631717" stroke-width="1.6" stroke-miterlimit="22.926" stroke-linecap="round" stroke-linejoin="round"/>
<path d="M91.8062 136.98C91.9261 138.284 92.2985 139.398 92.9036 140.261C93.5581 139.766 94.1929 138.956 94.4835 137.797" stroke="#631717" stroke-width="1.6" stroke-miterlimit="22.926" stroke-linecap="round" stroke-linejoin="round"/>
<path d="M108.211 139.678C106.28 140.355 104.535 140.221 103.225 138.932C103.019 138.729 102.821 138.534 102.637 138.349" stroke="#631717" stroke-width="1.6" stroke-miterlimit="22.926" stroke-linecap="round" stroke-linejoin="round"/>
<path d="M102.401 137.172C102.58 138.474 102.915 139.512 103.375 140.543C102.012 140.189 100.937 139.565 100.28 138.626" stroke="#631717" stroke-width="1.6" stroke-miterlimit="22.926" stroke-linecap="round" stroke-linejoin="round"/>
<path d="M100.545 136.98C100.426 138.284 100.054 139.398 99.4489 140.261C98.7929 139.766 98.1596 138.956 97.869 137.797" stroke="#631717" stroke-width="1.6" stroke-miterlimit="22.926" stroke-linecap="round" stroke-linejoin="round"/>
<path d="M96.2011 141.166C97.2633 139.876 97.9164 138.385 97.9897 136.714" stroke="#631717" stroke-width="1.6" stroke-miterlimit="22.926" stroke-linecap="round" stroke-linejoin="round"/>
<path d="M71.0439 129.413C69.5134 130.506 66.6921 138.42 66.475 140.742C65.9729 146.112 65.994 152.759 67.5993 157.029" stroke="#631717" stroke-width="1.6" stroke-miterlimit="22.926" stroke-linecap="round"/>
<path d="M121.308 129.413C122.84 130.506 125.661 138.42 125.878 140.742C126.379 146.112 126.359 152.759 124.754 157.029" stroke="#631717" stroke-width="1.6" stroke-miterlimit="22.926" stroke-linecap="round"/>
<path fill-rule="evenodd" clip-rule="evenodd" d="M80.65 120.21C77.2645 120.575 77.4268 122.787 80.5908 125.912C81.196 126.51 81.4047 126.492 81.5331 125.869C81.7588 124.783 82.9635 124.141 83.5954 124.97C84.0257 125.532 83.9297 125.855 85.3629 125.655C87.1742 127.172 88.6483 128.238 86.2784 128.15C85.236 128.111 84.4319 128.718 83.0749 128.664C83.4769 129.443 83.5489 129.533 83.7661 129.599C85.0822 129.859 86.4689 129.038 87.7977 129.282C90.7078 129.818 83.1356 121.427 83.2288 121.095C83.4686 120.251 81.4091 118.737 80.6502 120.21L80.65 120.21Z" fill="#EDB92E" stroke="#631717" stroke-width="1.6" stroke-miterlimit="22.926" stroke-linejoin="round"/>
<path d="M80.7295 120.137C81.0088 120.934 81.5448 121.664 82.3334 122.332" stroke="#631717" stroke-width="1.6" stroke-miterlimit="22.926" stroke-linecap="round"/>
<path fill-rule="evenodd" clip-rule="evenodd" d="M80.0075 121.759C80.0301 121.608 80.174 121.497 80.3291 121.514C80.4857 121.529 80.5943 121.666 80.5718 121.82C80.5506 121.971 80.4067 122.082 80.2516 122.065C80.095 122.05 79.9864 121.913 80.0075 121.759Z" fill="#631717"/>
<path fill-rule="evenodd" clip-rule="evenodd" d="M82.9343 173.363L83.0119 171.144C82.1204 170.693 79.9212 171.157 78.9928 173.205C77.8347 175.76 76.7401 177.12 75.3519 178.317C77.3649 178.692 79.0689 178.295 80.1677 176.822C81.6502 174.834 82.4416 173.631 82.9339 173.363L82.9343 173.363Z" fill="white" stroke="#631717" stroke-width="1.6" stroke-miterlimit="22.926" stroke-linejoin="round"/>
<path fill-rule="evenodd" clip-rule="evenodd" d="M84.5672 173.657L82.1663 172.647C81.1817 174.651 80.5117 176.004 80.2323 176.739C79.6864 178.181 79.5369 179.539 79.7894 180.713C80.7641 180.463 81.8898 179.769 82.6516 178.343C83.4147 176.91 83.8858 175.237 84.5671 173.657L84.5672 173.657Z" fill="white" stroke="#631717" stroke-width="1.6" stroke-miterlimit="22.926"/>
<path fill-rule="evenodd" clip-rule="evenodd" d="M85.2617 173.655L82.6874 173.262C82.2219 175.445 81.9017 176.922 81.8114 177.702C81.6322 179.234 81.8185 180.587 82.3502 181.664C83.2361 181.185 84.1572 180.236 84.5479 178.667C84.9387 177.09 84.9866 175.352 85.2617 173.656L85.2617 173.655Z" fill="white" stroke="#631717" stroke-width="1.6" stroke-miterlimit="22.926"/>
<path fill-rule="evenodd" clip-rule="evenodd" d="M85.6413 170.155L87.176 170.144C88.0732 170.589 89.0141 172.628 87.9265 174.597C86.5708 177.052 86.135 178.743 86.0038 180.571C84.5015 179.182 83.8004 177.578 84.3252 175.816C85.0333 173.441 85.7217 170.71 85.6413 170.155L85.6413 170.155Z" fill="white" stroke="#631717" stroke-width="1.6" stroke-miterlimit="22.926" stroke-linejoin="round"/>
<path fill-rule="evenodd" clip-rule="evenodd" d="M86.3283 169.086L83.8738 168.215C83.0062 170.272 82.4152 171.661 82.1782 172.412C81.7141 173.883 81.6422 175.246 81.9624 176.403C82.9216 176.101 84.1376 175.473 84.8147 174.004C85.496 172.53 85.7386 170.702 86.3283 169.086L86.3283 169.086Z" fill="white" stroke="#631717" stroke-width="1.6" stroke-miterlimit="22.926"/>
<path fill-rule="evenodd" clip-rule="evenodd" d="M84.6598 167.375L84.1223 164.04C83.5567 163.886 82.8076 165.205 82.0741 165.974C81.9062 166.152 81.7116 166.318 81.5635 166.535C81.256 166.992 81.0063 167.537 80.868 168.153C80.2544 170.89 79.3601 172.313 78.2459 173.769C80.2927 173.727 81.8796 172.99 82.6553 171.325C83.702 169.076 84.2324 167.737 84.6598 167.375L84.6598 167.375Z" fill="white" stroke="#631717" stroke-width="1.6" stroke-miterlimit="22.926" stroke-linejoin="round"/>
<path fill-rule="evenodd" clip-rule="evenodd" d="M110.439 174.446C111.09 174.473 111.892 174.847 114.228 176.872C115.249 178.954 116.277 181.048 117.695 182.854C118.179 183.172 118.558 183.395 118.942 183.522C119.343 183.655 122.289 183.556 122.361 183.433C123.278 182.602 124.68 183.195 124.213 184.072C124.576 184.417 123.776 185.676 123.133 185.153C122.542 184.673 120.488 185.126 119.802 184.878C120.062 185.494 121.918 185.895 123.216 185.989C124.402 186.04 124.323 187.224 123.834 188.129C123.278 188.483 123.735 188.038 123.533 188.296C123.002 189.083 121.866 188.98 121.828 188.211C121.789 187.416 119.019 186.379 118.605 185.768C119.113 186.977 120.283 188.104 120.865 189.287C121.489 189.914 121.868 190.039 121.061 191.303C120.166 191.2 120.113 190.963 119.563 191.484C118.337 191.35 118.139 190.987 118.337 190.018C118.547 188.994 117.691 187.143 117.404 186.62C117.142 186.138 117.077 185.637 116.822 185.334C116.377 184.809 114.261 183.758 113.72 184.047C112.722 184.577 111.961 184.257 111.835 183.291C112.157 183.043 111.916 181.67 112.605 181.612C113.17 181.566 113.505 181.739 114.023 182.162C114.84 182.828 115.259 183.184 115.528 183.109C116.164 182.934 114.374 182.057 112.745 179.921C110.488 176.961 110.334 175.459 110.439 174.446L110.439 174.446Z" fill="#631717" stroke="#631717" stroke-width="1.6" stroke-miterlimit="22.926" stroke-linejoin="round"/>
<path fill-rule="evenodd" clip-rule="evenodd" d="M124.077 184.621C124.893 184.141 125.364 184.161 125.68 184.516C125.855 184.712 126.077 184.611 125.947 184.303C125.404 183.02 124.536 182.86 123.759 183.461C123.542 183.663 123.367 183.836 123.192 184.009C123.322 184.202 123.972 184.473 124.077 184.621L124.077 184.621Z" fill="#EDB92E" stroke="#631717" stroke-width="1.6" stroke-miterlimit="22.926"/>
<path fill-rule="evenodd" clip-rule="evenodd" d="M112.374 183.468C111.506 182.88 110.694 182.764 110.248 183.096C110.002 183.278 109.761 183.147 109.977 182.845C110.876 181.579 111.931 181.514 112.726 182.228C112.941 182.462 113.114 182.661 113.285 182.86C113.013 183.159 112.412 183.495 112.374 183.468L112.374 183.468Z" fill="#EDB92E" stroke="#631717" stroke-width="1.6" stroke-miterlimit="22.926"/>
<path fill-rule="evenodd" clip-rule="evenodd" d="M119.209 190.717C119.741 191.768 120.022 192.489 119.792 193.053C119.656 193.383 119.809 193.687 120.143 193.399C121.498 192.237 121.503 190.904 120.635 189.998C120.345 189.696 120.036 189.501 119.762 189.281C119.408 189.611 119.184 190.665 119.209 190.717L119.209 190.717Z" fill="#631717" stroke="#631717" stroke-width="1.6" stroke-miterlimit="22.926"/>
<path fill-rule="evenodd" clip-rule="evenodd" d="M122.592 187.948C123.397 188.282 123.675 188.706 123.646 189.261C123.63 189.567 123.832 189.682 123.945 189.326C124.931 187.041 123.908 186.612 122.431 186.695C122.347 187.093 122.557 187.932 122.592 187.948L122.592 187.948Z" fill="#EDB92E" stroke="#631717" stroke-width="1.6" stroke-miterlimit="22.926"/>
<path d="M115.652 182.858C116.182 182.551 116.215 182.208 116.075 181.978C115.78 181.49 115.484 181.725 114.928 182.175" stroke="#631717" stroke-width="1.6" stroke-miterlimit="22.926"/>
<path d="M114.966 182.115C115.496 181.806 115.529 181.463 115.391 181.233C115.094 180.746 114.798 180.98 114.242 181.43" stroke="#631717" stroke-width="1.6" stroke-miterlimit="22.926"/>
<path d="M114.193 181.405C114.778 181.005 114.814 180.559 114.66 180.258C114.335 179.625 114.008 179.93 113.396 180.515" stroke="#631717" stroke-width="1.6" stroke-miterlimit="22.926"/>
<path d="M113.362 180.513C113.982 180.059 114.02 179.557 113.858 179.217C113.512 178.5 113.165 178.846 112.515 179.507" stroke="#631717" stroke-width="1.6" stroke-miterlimit="22.926"/>
<path d="M112.487 179.567C113.065 179.086 113.246 178.61 112.984 178.191C112.57 177.535 112.291 177.797 111.641 178.5" stroke="#631717" stroke-width="1.6" stroke-miterlimit="22.926"/>
<path fill-rule="evenodd" clip-rule="evenodd" d="M109.422 173.365L109.343 171.146C110.236 170.695 112.435 171.159 113.363 173.207C114.52 175.762 115.616 177.122 117.004 178.319C114.991 178.695 113.287 178.298 112.188 176.824C110.706 174.836 109.913 173.633 109.422 173.365L109.422 173.365Z" fill="white" stroke="#631717" stroke-width="1.6" stroke-miterlimit="22.926" stroke-linejoin="round"/>
<path fill-rule="evenodd" clip-rule="evenodd" d="M107.785 173.655L110.186 172.645C111.17 174.65 111.84 176.003 112.12 176.738C112.667 178.179 112.817 179.538 112.563 180.711C111.588 180.462 110.462 179.768 109.702 178.342C108.937 176.908 108.466 175.234 107.785 173.655L107.785 173.655Z" fill="white" stroke="#631717" stroke-width="1.6" stroke-miterlimit="22.926"/>
<path fill-rule="evenodd" clip-rule="evenodd" d="M107.095 173.654L109.669 173.261C110.135 175.444 110.455 176.921 110.545 177.701C110.724 179.233 110.538 180.586 110.006 181.663C109.12 181.184 108.198 180.235 107.809 178.666C107.418 177.089 107.37 175.353 107.095 173.655L107.095 173.654Z" fill="white" stroke="#631717" stroke-width="1.6" stroke-miterlimit="22.926"/>
<path fill-rule="evenodd" clip-rule="evenodd" d="M106.709 170.154L105.175 170.143C104.279 170.587 103.337 172.627 104.424 174.596C105.78 177.051 106.216 178.742 106.347 180.572C107.849 179.182 108.55 177.577 108.026 175.815C107.317 173.44 106.629 170.709 106.709 170.154L106.709 170.154Z" fill="white" stroke="#631717" stroke-width="1.6" stroke-miterlimit="22.926" stroke-linejoin="round"/>
<path fill-rule="evenodd" clip-rule="evenodd" d="M106.028 169.087L108.482 168.217C109.351 170.272 109.942 171.663 110.179 172.413C110.643 173.885 110.714 175.247 110.394 176.404C109.435 176.101 108.22 175.474 107.541 174.006C106.86 172.53 106.618 170.702 106.028 169.087L106.028 169.087Z" fill="white" stroke="#631717" stroke-width="1.6" stroke-miterlimit="22.926"/>
<path fill-rule="evenodd" clip-rule="evenodd" d="M107.698 167.375L108.235 164.039C108.801 163.886 109.55 165.204 110.282 165.973C110.451 166.15 110.646 166.317 110.794 166.535C111.102 166.991 111.351 167.536 111.49 168.153C112.103 170.889 112.998 172.312 114.112 173.768C112.065 173.726 110.478 172.989 109.703 171.323C108.656 169.076 108.126 167.736 107.698 167.375L107.698 167.375Z" fill="white" stroke="#631717" stroke-width="1.6" stroke-miterlimit="22.926" stroke-linejoin="round"/>
<path d="M109.831 141.407V163.481C109.831 167.428 108.297 171.012 105.824 173.609C103.352 176.205 99.9381 177.815 96.1786 177.815H96.1772C92.418 177.815 89.0055 176.205 86.5327 173.609C84.0599 171.012 82.5266 167.428 82.5266 163.481V141.407H109.831Z" fill="#FF4A4A" stroke="#631717" stroke-width="1.6" stroke-miterlimit="22.926"/>
<path d="M109.829 154.946V160.635H99.0204V177.5C98.1021 177.706 97.1513 177.815 96.1766 177.815H96.1752C95.2019 177.815 94.2497 177.706 93.3328 177.5V160.635H82.5244V154.946H93.3328V141.407H99.0203V154.946H109.829Z" fill="white"/>
<path d="M109.831 141.407V163.481C109.831 167.428 108.297 171.012 105.824 173.609C103.352 176.205 99.9381 177.815 96.1786 177.815H96.1772C92.418 177.815 89.0055 176.205 86.5327 173.609C84.0599 171.012 82.5266 167.428 82.5266 163.481V141.407H109.831Z" stroke="#631717" stroke-width="1.6" stroke-miterlimit="22.926"/>
<rect x="87" y="139.9" width="18" height="1" fill="#631717"/>
</g>
<defs>
<clipPath id="clip0_123:19">
<rect width="300" height="300" fill="white"/>
</clipPath>
</defs>
</svg>
