<svg width="300" height="300" viewBox="0 0 300 300" fill="none" xmlns="http://www.w3.org/2000/svg">
<g clip-path="url(#clip0_118:1073)">
<rect width="300" height="300" fill="white"/>
<path d="M300 150L-3.05176e-05 150L-1.74042e-05 -2.62268e-05L300 0L300 150Z" fill="#EF4B4B"/>
<circle cx="87" cy="75" r="53" fill="white"/>
<circle cx="101" cy="75" r="49" fill="#EF4B4B"/>
<path d="M108.553 39.7986C108.859 38.8927 110.141 38.8927 110.447 39.7986L112.076 44.6124C112.214 45.0185 112.595 45.2918 113.024 45.2918H118.206C119.185 45.2918 119.581 46.5522 118.779 47.112L114.657 49.9869C114.292 50.2413 114.139 50.7063 114.282 51.1276L115.872 55.8277C116.182 56.7419 115.145 57.5207 114.353 56.9685L110.072 53.9826C109.728 53.7429 109.272 53.7429 108.928 53.9826L104.647 56.9685C103.855 57.5207 102.818 56.7419 103.128 55.8277L104.718 51.1276C104.861 50.7063 104.708 50.2413 104.343 49.9869L100.221 47.112C99.4188 46.5522 99.815 45.2918 100.794 45.2918H105.976C106.405 45.2918 106.786 45.0185 106.924 44.6124L108.553 39.7986Z" fill="white"/>
<path d="M126.049 92.9271C126.348 92.0057 127.652 92.0057 127.951 92.9271L129.47 97.6008C129.604 98.0128 129.987 98.2918 130.421 98.2918H135.335C136.304 98.2918 136.706 99.5314 135.923 100.101L131.947 102.989C131.597 103.244 131.45 103.695 131.584 104.107L133.102 108.781C133.402 109.702 132.347 110.469 131.564 109.899L127.588 107.011C127.237 106.756 126.763 106.756 126.412 107.011L122.436 109.899C121.653 110.469 120.598 109.702 120.898 108.781L122.416 104.107C122.55 103.695 122.403 103.244 122.053 102.989L118.077 100.101C117.294 99.5314 117.696 98.2918 118.665 98.2918H123.579C124.013 98.2918 124.396 98.0128 124.53 97.6008L126.049 92.9271Z" fill="white"/>
<path d="M91.0489 92.9271C91.3483 92.0057 92.6517 92.0057 92.9511 92.9271L94.4697 97.6008C94.6035 98.0128 94.9875 98.2918 95.4207 98.2918H100.335C101.304 98.2918 101.706 99.5314 100.923 100.101L96.947 102.989C96.5966 103.244 96.4499 103.695 96.5838 104.107L98.1024 108.781C98.4017 109.702 97.3472 110.469 96.5635 109.899L92.5878 107.011C92.2373 106.756 91.7627 106.756 91.4122 107.011L87.4365 109.899C86.6528 110.469 85.5983 109.702 85.8976 108.781L87.4162 104.107C87.5501 103.695 87.4034 103.244 87.053 102.989L83.0772 100.101C82.2935 99.5314 82.6963 98.2918 83.665 98.2918H88.5793C89.0125 98.2918 89.3965 98.0128 89.5303 97.6008L91.0489 92.9271Z" fill="white"/>
<path d="M137.049 58.9271C137.348 58.0057 138.652 58.0057 138.951 58.9271L140.47 63.6008C140.604 64.0128 140.987 64.2918 141.421 64.2918H146.335C147.304 64.2918 147.706 65.5314 146.923 66.1008L142.947 68.9894C142.597 69.244 142.45 69.6954 142.584 70.1074L144.102 74.7812C144.402 75.7025 143.347 76.4686 142.564 75.8992L138.588 73.0106C138.237 72.756 137.763 72.756 137.412 73.0106L133.436 75.8992C132.653 76.4686 131.598 75.7025 131.898 74.7812L133.416 70.1074C133.55 69.6954 133.403 69.244 133.053 68.9894L129.077 66.1008C128.294 65.5314 128.696 64.2918 129.665 64.2918H134.579C135.013 64.2918 135.396 64.0128 135.53 63.6008L137.049 58.9271Z" fill="white"/>
<path d="M80.0489 58.9271C80.3483 58.0057 81.6517 58.0057 81.9511 58.9271L83.4697 63.6008C83.6035 64.0128 83.9875 64.2918 84.4207 64.2918H89.335C90.3037 64.2918 90.7065 65.5314 89.9228 66.1008L85.947 68.9894C85.5966 69.244 85.4499 69.6954 85.5838 70.1074L87.1024 74.7812C87.4017 75.7025 86.3472 76.4686 85.5635 75.8992L81.5878 73.0106C81.2373 72.756 80.7627 72.756 80.4122 73.0106L76.4365 75.8992C75.6528 76.4686 74.5983 75.7025 74.8976 74.7812L76.4162 70.1074C76.5501 69.6954 76.4034 69.244 76.053 68.9894L72.0772 66.1008C71.2935 65.5314 71.6963 64.2918 72.665 64.2918H77.5793C78.0125 64.2918 78.3965 64.0128 78.5303 63.6008L80.0489 58.9271Z" fill="white"/>
</g>
<defs>
<clipPath id="clip0_118:1073">
<rect width="300" height="300" fill="white"/>
</clipPath>
</defs>
</svg>
