<svg width="300" height="300" viewBox="0 0 300 300" fill="none" xmlns="http://www.w3.org/2000/svg">
<g clip-path="url(#clip0_118:978)">
<rect width="300" height="300" fill="white"/>
<rect x="500" y="300" width="500" height="300" transform="rotate(-180 500 300)" fill="white"/>
<rect x="500" y="300" width="500" height="100" transform="rotate(-180 500 300)" fill="#3B9644"/>
<rect x="500" y="200" width="500" height="100" transform="rotate(-180 500 200)" fill="white"/>
<rect x="500" y="100" width="500" height="100" transform="rotate(-180 500 100)" fill="#252525"/>
<path d="M-125.868 362.132L-338 150L-125.868 -62.1323L160 150L-125.868 362.132Z" fill="#FF4A4A"/>
<circle cx="215" cy="150" r="39" fill="#FF4A4A"/>
<ellipse cx="232.5" cy="149.5" rx="43.5" ry="44.5" fill="white"/>
<path d="M221.034 122.203C221.199 121.777 221.801 121.777 221.966 122.203L228.587 139.285C228.658 139.468 228.829 139.593 229.025 139.603L247.317 140.621C247.773 140.647 247.959 141.22 247.605 141.508L233.405 153.083C233.253 153.207 233.187 153.409 233.238 153.599L237.922 171.31C238.039 171.751 237.551 172.105 237.168 171.858L221.771 161.93C221.606 161.823 221.394 161.823 221.229 161.93L205.832 171.858C205.449 172.105 204.961 171.751 205.078 171.31L209.762 153.599C209.813 153.409 209.747 153.207 209.595 153.083L195.395 141.508C195.041 141.22 195.227 140.647 195.683 140.621L213.975 139.603C214.171 139.593 214.342 139.468 214.413 139.285L221.034 122.203Z" fill="#FF4A4A"/>
</g>
<defs>
<clipPath id="clip0_118:978">
<rect width="300" height="300" fill="white"/>
</clipPath>
</defs>
</svg>
