<svg width="300" height="300" viewBox="0 0 300 300" fill="none" xmlns="http://www.w3.org/2000/svg">
<g clip-path="url(#clip0_118:885)">
<rect width="300" height="300" fill="#3661F6"/>
<rect x="300" y="300" width="300" height="100" transform="rotate(-180 300 300)" fill="#FF4A4A"/>
<rect x="300" y="100" width="300" height="100" transform="rotate(-180 300 100)" fill="white"/>
<path d="M136 46.5L144.501 48.6984C145.383 48.9267 146 49.723 146 50.6347V123.066C146 149.539 124.539 171 98.0661 171H96.9339C70.4607 171 49 149.539 49 123.066V50.6145C49 49.7122 49.6041 48.9217 50.4747 48.6847L58.5 46.5" stroke="#FF4A4A" stroke-width="8"/>
<path d="M49 46.4769C49 45.599 49.5628 44.8277 50.4053 44.5806C56.4574 42.8052 80.749 36 97.5 36C114.251 36 138.543 42.8052 144.595 44.5806C145.437 44.8277 146 45.599 146 46.4769V123.066C146 149.539 124.539 171 98.0661 171H96.9339C70.4607 171 49 149.539 49 123.066V46.4769Z" fill="#3661F6"/>
<mask id="mask0_118:885" style="mask-type:alpha" maskUnits="userSpaceOnUse" x="51" y="36" width="93" height="131">
<path d="M51 46.205C51 45.3296 51.5571 44.5607 52.3964 44.3118C58.2799 42.5668 81.4846 36 97.5 36C113.515 36 136.72 42.5668 142.604 44.3118C143.443 44.5607 144 45.3296 144 46.205V120.5C144 146.181 123.181 167 97.5 167C71.8188 167 51 146.181 51 120.5V46.205Z" fill="#3661F6"/>
</mask>
<g mask="url(#mask0_118:885)">
<path d="M52 56.205C52 55.3296 52.5571 54.5607 53.3964 54.3118C59.2799 52.5668 82.4846 46 98.5 46C114.515 46 137.72 52.5668 143.604 54.3118C144.443 54.5607 145 55.3296 145 56.205V130.5C145 156.181 124.181 177 98.5 177C72.8188 177 52 156.181 52 130.5V56.205Z" fill="#3661F6"/>
<path d="M97.1232 69.5989C97.5028 68.9066 98.4972 68.9066 98.8768 69.5988L100.037 71.7138C100.212 72.0327 100.546 72.2315 100.909 72.233L103.262 72.2429C104.017 72.2461 104.496 73.0524 104.138 73.717L102.895 76.0259C102.736 76.3219 102.736 76.6781 102.895 76.9741L104.138 79.283C104.496 79.9476 104.017 80.7539 103.262 80.7571L100.909 80.767C100.546 80.7685 100.212 80.9673 100.037 81.2862L98.8768 83.4011C98.4972 84.0934 97.5028 84.0934 97.1232 83.4011L95.9633 81.2862C95.7885 80.9673 95.4544 80.7685 95.0908 80.767L92.7379 80.7571C91.9831 80.7539 91.5038 79.9476 91.8616 79.283L93.1048 76.9741C93.2641 76.6781 93.2641 76.3219 93.1048 76.0259L91.8616 73.717C91.5038 73.0524 91.9831 72.2461 92.7379 72.2429L95.0908 72.233C95.4544 72.2315 95.7885 72.0327 95.9633 71.7138L97.1232 69.5989Z" fill="#FFB84F"/>
<path d="M79.636 45.4829C80.0217 44.8208 80.9783 44.8208 81.364 45.4829L82.677 47.7362C82.8554 48.0425 83.1826 48.2314 83.537 48.2328L86.145 48.2432C86.9113 48.2462 87.3895 49.0746 87.009 49.7397L85.714 52.0035C85.5381 52.3111 85.5381 52.6889 85.714 52.9965L87.009 55.2603C87.3895 55.9254 86.9113 56.7538 86.145 56.7568L83.537 56.7672C83.1826 56.7686 82.8554 56.9575 82.677 57.2638L81.364 59.5171C80.9783 60.1792 80.0217 60.1792 79.636 59.5171L78.323 57.2638C78.1446 56.9575 77.8174 56.7686 77.463 56.7672L74.855 56.7568C74.0887 56.7538 73.6105 55.9254 73.991 55.2603L75.286 52.9965C75.4619 52.6889 75.4619 52.3111 75.286 52.0035L73.991 49.7397C73.6105 49.0746 74.0887 48.2462 74.855 48.2432L77.463 48.2328C77.8174 48.2314 78.1446 48.0425 78.323 47.7362L79.636 45.4829Z" fill="#FFB84F"/>
<path d="M113.636 45.4829C114.022 44.8208 114.978 44.8208 115.364 45.4829L116.677 47.7362C116.855 48.0425 117.183 48.2314 117.537 48.2328L120.145 48.2432C120.911 48.2462 121.39 49.0746 121.009 49.7397L119.714 52.0035C119.538 52.3111 119.538 52.6889 119.714 52.9965L121.009 55.2603C121.39 55.9254 120.911 56.7538 120.145 56.7568L117.537 56.7672C117.183 56.7686 116.855 56.9575 116.677 57.2638L115.364 59.5171C114.978 60.1792 114.022 60.1792 113.636 59.5171L112.323 57.2638C112.145 56.9575 111.817 56.7686 111.463 56.7672L108.855 56.7568C108.089 56.7538 107.61 55.9254 107.991 55.2603L109.286 52.9965C109.462 52.6889 109.462 52.3111 109.286 52.0035L107.991 49.7397C107.61 49.0746 108.089 48.2462 108.855 48.2432L111.463 48.2328C111.817 48.2314 112.145 48.0425 112.323 47.7362L113.636 45.4829Z" fill="#FFB84F"/>
<path d="M72.6734 117.014C64.2848 127.311 49.2703 145.865 46.4394 149.833C46.1638 150.219 46.2675 150.711 46.6403 151.004L92.4393 187.059C92.7747 187.323 93.2409 187.345 93.5998 187.113L145.625 153.564C146.103 153.256 146.228 152.613 145.902 152.149L121.363 117.227C120.952 116.644 120.08 116.665 119.699 117.268L115.367 124.127C114.97 124.757 114.048 124.746 113.664 124.107L98.86 99.4333C98.471 98.785 97.531 98.7862 97.1437 99.4356L81.7835 125.186C81.414 125.806 80.5302 125.842 80.111 125.255L74.2612 117.066C73.8779 116.529 73.0899 116.503 72.6734 117.014Z" fill="white"/>
<path d="M46.4394 149.833L48.0674 150.994H48.0674L46.4394 149.833ZM72.6734 117.014L71.1228 115.751L71.1228 115.751L72.6734 117.014ZM74.2612 117.066L75.8886 115.903V115.903L74.2612 117.066ZM80.111 125.255L78.4835 126.418L80.111 125.255ZM81.7835 125.186L80.0659 124.162V124.162L81.7835 125.186ZM97.1437 99.4356L95.4261 98.411L95.4261 98.411L97.1437 99.4356ZM98.86 99.4333L97.145 100.462V100.462L98.86 99.4333ZM113.664 124.107L115.379 123.078V123.078L113.664 124.107ZM115.367 124.127L117.058 125.195L115.367 124.127ZM119.699 117.268L121.39 118.336V118.336L119.699 117.268ZM121.363 117.227L119.726 118.377L119.726 118.377L121.363 117.227ZM145.902 152.149L147.538 150.999L147.538 150.999L145.902 152.149ZM145.625 153.564L146.709 155.245L146.709 155.245L145.625 153.564ZM93.5998 187.113L94.6837 188.794L93.5998 187.113ZM92.4393 187.059L93.6764 185.487H93.6764L92.4393 187.059ZM46.6403 151.004L47.8774 149.433L47.8774 149.433L46.6403 151.004ZM48.0674 150.994C50.8501 147.095 65.8042 128.612 74.2239 118.277L71.1228 115.751C62.7654 126.009 47.6906 144.636 44.8114 148.671L48.0674 150.994ZM72.6337 118.228L78.4835 126.418L81.7385 124.093L75.8886 115.903L72.6337 118.228ZM83.5012 126.211L98.8613 100.46L95.4261 98.411L80.0659 124.162L83.5012 126.211ZM97.145 100.462L111.949 125.136L115.379 123.078L100.575 98.4044L97.145 100.462ZM117.058 125.195L121.39 118.336L118.008 116.2L113.676 123.059L117.058 125.195ZM119.726 118.377L144.265 153.298L147.538 150.999L122.999 116.078L119.726 118.377ZM144.542 151.883L92.5159 185.432L94.6837 188.794L146.709 155.245L144.542 151.883ZM93.6764 185.487L47.8774 149.433L45.4032 152.576L91.2021 188.63L93.6764 185.487ZM92.5159 185.432C92.8747 185.201 93.3409 185.223 93.6764 185.487L91.2021 188.63C92.2086 189.422 93.6072 189.488 94.6837 188.794L92.5159 185.432ZM144.265 153.298C143.939 152.834 144.064 152.191 144.542 151.883L146.709 155.245C148.141 154.321 148.518 152.393 147.538 150.999L144.265 153.298ZM121.39 118.336C121.009 118.94 120.136 118.961 119.726 118.377L122.999 116.078C121.768 114.326 119.151 114.39 118.008 116.2L121.39 118.336ZM111.949 125.136C113.099 127.052 115.865 127.084 117.058 125.195L113.676 123.059C114.074 122.429 114.996 122.44 115.379 123.078L111.949 125.136ZM98.8613 100.46C98.474 101.109 97.534 101.111 97.145 100.462L100.575 98.4044C99.408 96.4594 96.588 96.4631 95.4261 98.411L98.8613 100.46ZM78.4835 126.418C79.7412 128.179 82.3927 128.069 83.5012 126.211L80.0659 124.162C80.4354 123.542 81.3192 123.506 81.7385 124.093L78.4835 126.418ZM74.2239 118.277C73.8046 118.792 73.0148 118.762 72.6337 118.228L75.8886 115.903C74.7409 114.296 72.3752 114.214 71.1228 115.751L74.2239 118.277ZM44.8114 148.671C43.8337 150.041 44.3066 151.712 45.4032 152.576L47.8774 149.433C48.0467 149.566 48.2083 149.789 48.264 150.093C48.3225 150.412 48.247 150.743 48.0674 150.994L44.8114 148.671Z" fill="white"/>
<path d="M98 146C98 146 81.6583 142 71 142C60.3417 142 44 146 44 146" stroke="#3661F6" stroke-width="5" stroke-linecap="round"/>
<path d="M98 146C98 146 114.342 150 125 150C135.658 150 152 146 152 146" stroke="#3661F6" stroke-width="5" stroke-linecap="round"/>
<path d="M98 157C98 157 81.6583 153 71 153C60.3417 153 44 157 44 157" stroke="#3661F6" stroke-width="5" stroke-linecap="round"/>
<path d="M98 157C98 157 114.342 161 125 161C135.658 161 152 157 152 157" stroke="#3661F6" stroke-width="5" stroke-linecap="round"/>
</g>
</g>
<defs>
<clipPath id="clip0_118:885">
<rect width="300" height="300" fill="white"/>
</clipPath>
</defs>
</svg>
