<svg width="300" height="300" viewBox="0 0 300 300" fill="none" xmlns="http://www.w3.org/2000/svg">
<rect width="300" height="300" fill="#3661F6"/>
<path d="M146.671 94.2447C147.719 91.0201 152.281 91.0201 153.329 94.2447L164.032 127.186C164.501 128.629 165.845 129.605 167.361 129.605H201.998C205.388 129.605 206.798 133.944 204.055 135.936L176.033 156.296C174.806 157.187 174.293 158.767 174.762 160.209L185.465 193.15C186.513 196.375 182.822 199.056 180.079 197.064L152.057 176.704C150.831 175.813 149.169 175.813 147.943 176.704L119.921 197.064C117.178 199.056 113.487 196.375 114.535 193.15L125.238 160.209C125.707 158.767 125.194 157.187 123.967 156.296L95.9449 135.936C93.2019 133.944 94.6116 129.605 98.0022 129.605H132.639C134.155 129.605 135.499 128.629 135.968 127.186L146.671 94.2447Z" fill="white"/>
</svg>
