<svg width="300" height="300" viewBox="0 0 300 300" fill="none" xmlns="http://www.w3.org/2000/svg">
<g clip-path="url(#clip0_118:1083)">
<rect width="300" height="300" fill="white"/>
<rect x="500" y="300" width="500" height="300" transform="rotate(-180 500 300)" fill="white"/>
<rect x="300" y="300" width="300" height="72" transform="rotate(-180 300 300)" fill="#3B9644"/>
<rect x="300" y="72" width="300" height="72" transform="rotate(-180 300 72)" fill="#3B9644"/>
<rect x="300" y="228" width="300" height="156" transform="rotate(-180 300 228)" fill="#FFB84F"/>
<path d="M-125.868 362.132L-338 150L-125.868 -62.1323L160 150L-125.868 362.132Z" fill="#FF4A4A"/>
<path d="M260.101 124.609C260.596 123.331 262.404 123.331 262.899 124.609L268.354 138.684C268.567 139.233 269.081 139.607 269.669 139.639L284.741 140.478C286.109 140.554 286.667 142.273 285.605 143.138L273.905 152.676C273.448 153.048 273.252 153.653 273.403 154.222L277.262 168.815C277.613 170.14 276.15 171.202 274.999 170.46L262.313 162.279C261.818 161.96 261.182 161.96 260.687 162.279L248.001 170.46C246.85 171.202 245.387 170.14 245.738 168.815L249.597 154.222C249.748 153.653 249.552 153.048 249.095 152.676L237.395 143.138C236.333 142.273 236.891 140.554 238.259 140.478L253.331 139.639C253.919 139.607 254.433 139.233 254.646 138.684L260.101 124.609Z" fill="#252525"/>
<path d="M189.101 124.609C189.596 123.331 191.404 123.331 191.899 124.609L197.354 138.684C197.567 139.233 198.081 139.607 198.669 139.639L213.741 140.478C215.109 140.554 215.667 142.273 214.605 143.138L202.905 152.676C202.448 153.048 202.252 153.653 202.403 154.222L206.262 168.815C206.613 170.14 205.15 171.202 203.999 170.46L191.313 162.279C190.818 161.96 190.182 161.96 189.687 162.279L177.001 170.46C175.85 171.202 174.387 170.14 174.738 168.815L178.597 154.222C178.748 153.653 178.552 153.048 178.095 152.676L166.395 143.138C165.333 142.273 165.891 140.554 167.259 140.478L182.331 139.639C182.919 139.607 183.433 139.233 183.646 138.684L189.101 124.609Z" fill="#252525"/>
</g>
<defs>
<clipPath id="clip0_118:1083">
<rect width="300" height="300" fill="white"/>
</clipPath>
</defs>
</svg>
