<svg width="300" height="300" viewBox="0 0 300 300" fill="none" xmlns="http://www.w3.org/2000/svg">
<g clip-path="url(#clip0_121:68)">
<rect width="300" height="300" fill="white"/>
<rect x="500" y="300" width="500" height="300" transform="rotate(-180 500 300)" fill="white"/>
<rect width="300" height="100" fill="#FF4A4A"/>
<rect y="100" width="300" height="100" fill="white"/>
<rect y="200" width="300" height="100" fill="#252525"/>
<path d="M98.2027 128.217C99.1928 125.663 102.807 125.663 103.797 128.217L107.631 138.108C108.056 139.206 109.085 139.954 110.261 140.019L120.852 140.608C123.588 140.761 124.704 144.198 122.581 145.929L114.359 152.631C113.446 153.375 113.053 154.585 113.354 155.724L116.067 165.978C116.767 168.627 113.843 170.751 111.541 169.267L102.626 163.518C101.636 162.88 100.364 162.88 99.3742 163.518L90.4595 169.267C88.157 170.751 85.2329 168.627 85.9334 165.978L88.6457 155.724C88.9469 154.585 88.5538 153.375 87.6409 152.631L79.419 145.929C77.2955 144.198 78.4124 140.761 81.1478 140.608L91.7388 140.019C92.9148 139.954 93.9438 139.206 94.3694 138.108L98.2027 128.217Z" fill="#3B9644"/>
<path d="M196.203 128.217C197.193 125.663 200.807 125.663 201.797 128.217L205.631 138.108C206.056 139.206 207.085 139.954 208.261 140.019L218.852 140.608C221.588 140.761 222.704 144.198 220.581 145.929L212.359 152.631C211.446 153.375 211.053 154.585 211.354 155.724L214.067 165.978C214.767 168.627 211.843 170.751 209.541 169.267L200.626 163.518C199.636 162.88 198.364 162.88 197.374 163.518L188.459 169.267C186.157 170.751 183.233 168.627 183.933 165.978L186.646 155.724C186.947 154.585 186.554 153.375 185.641 152.631L177.419 145.929C175.296 144.198 176.412 140.761 179.148 140.608L189.739 140.019C190.915 139.954 191.944 139.206 192.369 138.108L196.203 128.217Z" fill="#3B9644"/>
</g>
<defs>
<clipPath id="clip0_121:68">
<rect width="300" height="300" fill="white"/>
</clipPath>
</defs>
</svg>
