<svg width="300" height="300" viewBox="0 0 300 300" fill="none" xmlns="http://www.w3.org/2000/svg">
<g clip-path="url(#clip0_118:1115)">
<rect width="300" height="300" fill="white"/>
<rect x="300" y="300" width="300" height="300" transform="rotate(-180 300 300)" fill="#FF4A4A"/>
<path d="M-125.868 362.132L-338 150L-125.868 -62.1324L215 150L-125.868 362.132Z" fill="#FFB84F"/>
<path d="M-125.868 362.132L-338 150L-125.868 -62.1323L160 150L-125.868 362.132Z" fill="#1F1F1F"/>
<path d="M48.2365 116.42C49.3916 113.44 53.6084 113.44 54.7635 116.42L61.1734 132.959C61.67 134.24 62.8704 135.112 64.2424 135.188L81.9523 136.174C85.1436 136.352 86.4467 140.362 83.9693 142.382L70.2209 153.588C69.1558 154.457 68.6973 155.868 69.0487 157.196L73.584 174.344C74.4013 177.434 70.9898 179.912 68.3036 178.18L53.3967 168.568C52.2419 167.823 50.7581 167.823 49.6033 168.568L34.6964 178.18C32.0102 179.912 28.5987 177.434 29.416 174.344L33.9513 157.196C34.3027 155.868 33.8442 154.457 32.7791 153.588L19.0307 142.382C16.5533 140.362 17.8564 136.352 21.0477 136.174L38.7576 135.188C40.1296 135.112 41.33 134.24 41.8266 132.959L48.2365 116.42Z" fill="white"/>
</g>
<defs>
<clipPath id="clip0_118:1115">
<rect width="300" height="300" fill="white"/>
</clipPath>
</defs>
</svg>
