<svg width="300" height="300" viewBox="0 0 300 300" fill="none" xmlns="http://www.w3.org/2000/svg">
<rect width="300" height="300" fill="#EB5757"/>
<circle cx="139.5" cy="150.5" r="77.5" fill="white"/>
<ellipse cx="167" cy="150.5" rx="62" ry="61.5" fill="#EB5757"/>
<path d="M202.679 128.395C203.096 126.617 205.482 126.281 206.373 127.875L212.493 138.827C212.876 139.513 213.624 139.91 214.407 139.844L226.908 138.789C228.728 138.635 229.784 140.801 228.543 142.141L220.019 151.345C219.485 151.921 219.338 152.756 219.643 153.48L224.51 165.043C225.218 166.727 223.485 168.401 221.827 167.635L210.439 162.372C209.726 162.042 208.887 162.16 208.293 162.674L198.799 170.876C197.417 172.07 195.29 170.939 195.506 169.125L196.992 156.668C197.085 155.888 196.713 155.126 196.041 154.72L185.307 148.226C183.745 147.28 184.163 144.907 185.954 144.553L198.261 142.117C199.031 141.964 199.641 141.375 199.82 140.611L202.679 128.395Z" fill="white"/>
</svg>
