<svg width="300" height="300" viewBox="0 0 300 300" fill="none" xmlns="http://www.w3.org/2000/svg">
<g clip-path="url(#clip0)">
<rect width="300" height="300" fill="#EF4B4B"/>
<rect x="300" y="300" width="300" height="300" transform="rotate(-180 300 300)" fill="#EF4B4B"/>
<rect x="150" y="150" width="150" height="150" transform="rotate(-180 150 150)" fill="#3661F6"/>
<path d="M74.5211 36.689C74.7426 35.6281 76.2574 35.6281 76.4789 36.689L79.7977 52.5862C79.9724 53.4233 81.0492 53.669 81.5699 52.9906L91.4575 40.1077C92.1173 39.248 93.4822 39.9053 93.2214 40.9572L89.314 56.72C89.1083 57.5501 89.9717 58.2387 90.7352 57.8534L105.233 50.5364C106.201 50.0481 107.145 51.2325 106.454 52.067L96.0943 64.5735C95.5488 65.2321 96.028 66.2272 96.883 66.2113L113.12 65.9094C114.204 65.8892 114.541 67.3661 113.556 67.8181L98.7957 74.5911C98.0184 74.9478 98.0184 76.0522 98.7957 76.4089L113.556 83.1819C114.541 83.6339 114.204 85.1108 113.12 85.0906L96.883 84.7887C96.028 84.7728 95.5488 85.7679 96.0943 86.4265L106.454 98.933C107.145 99.7675 106.201 100.952 105.233 100.464L90.7352 93.1466C89.9717 92.7613 89.1083 93.4499 89.314 94.28L93.2214 110.043C93.4822 111.095 92.1173 111.752 91.4575 110.892L81.5699 98.0094C81.0492 97.331 79.9724 97.5767 79.7977 98.4138L76.4789 114.311C76.2574 115.372 74.7426 115.372 74.5211 114.311L71.2023 98.4138C71.0276 97.5767 69.9508 97.331 69.4301 98.0094L59.5425 110.892C58.8827 111.752 57.5178 111.095 57.7786 110.043L61.686 94.28C61.8917 93.4499 61.0283 92.7613 60.2648 93.1466L45.7666 100.464C44.7992 100.952 43.8547 99.7675 44.546 98.933L54.9057 86.4265C55.4512 85.7679 54.972 84.7728 54.117 84.7887L37.8799 85.0906C36.7963 85.1108 36.4592 83.6339 37.4442 83.1819L52.2043 76.4089C52.9816 76.0522 52.9816 74.9478 52.2043 74.5911L37.4442 67.8181C36.4592 67.3661 36.7963 65.8892 37.8799 65.9094L54.117 66.2113C54.972 66.2272 55.4512 65.2321 54.9057 64.5735L44.546 52.067C43.8547 51.2325 44.7992 50.0481 45.7666 50.5364L60.2648 57.8534C61.0283 58.2387 61.8917 57.5501 61.686 56.72L57.7786 40.9572C57.5178 39.9053 58.8827 39.248 59.5425 40.1077L69.4301 52.9906C69.9508 53.669 71.0276 53.4233 71.2023 52.5862L74.5211 36.689Z" fill="white"/>
<circle cx="75" cy="75" r="17.6" stroke="#3661F6" stroke-width="2.8"/>
</g>
<defs>
<clipPath id="clip0">
<rect width="300" height="300" fill="white"/>
</clipPath>
</defs>
</svg>
