<svg width="300" height="300" viewBox="0 0 300 300" fill="none" xmlns="http://www.w3.org/2000/svg">
<g clip-path="url(#clip0_114:747)">
<rect width="300" height="300" fill="white"/>
<rect x="500" y="33" width="335" height="33" transform="rotate(-180 500 33)" fill="white"/>
<rect x="500" y="66" width="335" height="33" transform="rotate(-180 500 66)" fill="#3661F6"/>
<rect x="500" y="99" width="335" height="33" transform="rotate(-180 500 99)" fill="white"/>
<rect x="500" y="132" width="335" height="33" transform="rotate(-180 500 132)" fill="#3661F6"/>
<rect x="500" y="165" width="335" height="33" transform="rotate(-180 500 165)" fill="white"/>
<rect x="500" y="198.333" width="500" height="33.3333" transform="rotate(-180 500 198.333)" fill="#3661F6"/>
<rect x="500" y="231" width="503" height="33" transform="rotate(-180 500 231)" fill="white"/>
<rect x="500" y="265.333" width="500" height="33.3333" transform="rotate(-180 500 265.333)" fill="#3661F6"/>
<rect x="500" y="300.333" width="500" height="33.3333" transform="rotate(-180 500 300.333)" fill="white"/>
<path d="M106.345 29.7831C107.692 28.2026 110.257 29.4682 109.822 31.4989L102.708 64.7482C102.448 65.9671 103.353 67.125 104.599 67.1656L138.583 68.274C140.658 68.3417 141.268 71.1365 139.41 72.0629L108.979 87.2315C107.863 87.7875 107.522 89.2174 108.267 90.2168L128.589 117.477C129.831 119.142 128.026 121.362 126.143 120.486L95.3102 106.152C94.1799 105.626 92.8495 106.252 92.5327 107.457L83.89 140.342C83.3621 142.351 80.5016 142.324 80.012 140.305L71.9953 107.262C71.7015 106.051 70.3832 105.4 69.2432 105.904L38.1439 119.651C36.2445 120.49 34.4822 118.237 35.7548 116.596L56.5908 89.7261C57.3546 88.7411 57.0411 87.3049 55.9363 86.7278L25.7989 70.9841C23.9582 70.0226 24.6212 67.2399 26.6977 67.2116L60.6964 66.7488C61.9428 66.7318 62.8702 65.5913 62.6326 64.3677L56.151 30.9893C55.7552 28.9507 58.3442 27.734 59.6609 29.3399L81.2207 55.6326C82.011 56.5964 83.4809 56.6104 84.2894 55.6617L106.345 29.7831Z" fill="#DAA75B"/>
<path d="M80.5609 24.6737C81.0697 22.6603 83.9303 22.6603 84.439 24.6737L92.7691 57.6394C93.0745 58.8479 94.3989 59.4857 95.5341 58.9709L126.501 44.9299C128.393 44.0723 130.176 46.3088 128.919 47.9619L108.34 75.0284C107.585 76.0206 107.912 77.4537 109.022 78.0203L139.308 93.4771C141.158 94.4211 140.521 97.21 138.445 97.258L104.452 98.0437C103.206 98.0725 102.29 99.2217 102.539 100.443L109.337 133.758C109.752 135.793 107.175 137.034 105.843 135.441L84.0344 109.354C83.235 108.398 81.765 108.398 80.9656 109.354L59.1571 135.441C57.8252 137.034 55.2479 135.793 55.6631 133.758L62.4612 100.443C62.7104 99.2217 61.7939 98.0725 60.5478 98.0437L26.555 97.258C24.4789 97.21 23.8423 94.4212 25.692 93.4771L55.9776 78.0203C57.0878 77.4537 57.4149 76.0206 56.6605 75.0284L36.0806 47.9619C34.8237 46.3088 36.6072 44.0723 38.4985 44.9299L69.4659 58.9709C70.6011 59.4857 71.9255 58.8479 72.2309 57.6394L80.5609 24.6737Z" fill="#F0F359"/>
</g>
<defs>
<clipPath id="clip0_114:747">
<rect width="300" height="300" fill="white"/>
</clipPath>
</defs>
</svg>
