<svg width="300" height="300" viewBox="0 0 300 300" fill="none" xmlns="http://www.w3.org/2000/svg">
<g clip-path="url(#clip0_118:1034)">
<rect width="300" height="300" fill="white"/>
<rect x="300" y="94" width="300" height="94" transform="rotate(-180 300 94)" fill="#59AFFF"/>
<rect x="300" y="300" width="300" height="94" transform="rotate(-180 300 300)" fill="#3B9644"/>
<rect width="300" height="6.00003" transform="matrix(-1 -8.74228e-08 -8.74228e-08 1 300 200)" fill="#EF4B4B"/>
<rect width="300" height="6.00003" transform="matrix(-1 -8.74228e-08 -8.74228e-08 1 300 94)" fill="#EF4B4B"/>
<circle cx="63" cy="48" r="39" fill="white"/>
<ellipse cx="80.5" cy="47.5" rx="43.5" ry="44.5" fill="#59AFFF"/>
<path d="M73.0489 63.927C73.3483 63.0057 74.6517 63.0057 74.9511 63.9271L76.0206 67.2188C76.1545 67.6309 76.5385 67.9098 76.9717 67.9098H80.4329C81.4016 67.9098 81.8044 69.1494 81.0207 69.7188L78.2205 71.7533C77.87 72.0079 77.7234 72.4593 77.8572 72.8713L78.9268 76.1631C79.2261 77.0844 78.1717 77.8506 77.388 77.2812L74.5878 75.2467C74.2373 74.9921 73.7627 74.9921 73.4122 75.2467L70.612 77.2812C69.8283 77.8506 68.7739 77.0844 69.0732 76.1631L70.1428 72.8713C70.2766 72.4593 70.13 72.0079 69.7795 71.7533L66.9793 69.7188C66.1956 69.1494 66.5984 67.9098 67.5671 67.9098H71.0283C71.4615 67.9098 71.8455 67.6309 71.9794 67.2188L73.0489 63.927Z" fill="white"/>
<path d="M93.0489 63.927C93.3483 63.0057 94.6517 63.0057 94.9511 63.9271L96.0206 67.2188C96.1545 67.6309 96.5385 67.9098 96.9717 67.9098H100.433C101.402 67.9098 101.804 69.1494 101.021 69.7188L98.2205 71.7533C97.87 72.0079 97.7234 72.4593 97.8572 72.8713L98.9268 76.1631C99.2261 77.0844 98.1717 77.8506 97.388 77.2812L94.5878 75.2467C94.2373 74.9921 93.7627 74.9921 93.4122 75.2467L90.612 77.2812C89.8283 77.8506 88.7739 77.0844 89.0732 76.1631L90.1428 72.8713C90.2766 72.4593 90.13 72.0079 89.7795 71.7533L86.9793 69.7188C86.1956 69.1494 86.5984 67.9098 87.5671 67.9098H91.0283C91.4615 67.9098 91.8455 67.6309 91.9794 67.2188L93.0489 63.927Z" fill="white"/>
<path d="M93.0489 40.927C93.3483 40.0057 94.6517 40.0057 94.9511 40.9271L96.0206 44.2188C96.1545 44.6309 96.5385 44.9098 96.9717 44.9098H100.433C101.402 44.9098 101.804 46.1494 101.021 46.7188L98.2205 48.7533C97.87 49.0079 97.7234 49.4593 97.8572 49.8713L98.9268 53.1631C99.2261 54.0844 98.1717 54.8506 97.388 54.2812L94.5878 52.2467C94.2373 51.9921 93.7627 51.9921 93.4122 52.2467L90.612 54.2812C89.8283 54.8506 88.7739 54.0844 89.0732 53.1631L90.1428 49.8713C90.2766 49.4593 90.13 49.0079 89.7795 48.7533L86.9793 46.7188C86.1956 46.1494 86.5984 44.9098 87.5671 44.9098H91.0283C91.4615 44.9098 91.8455 44.6309 91.9794 44.2188L93.0489 40.927Z" fill="white"/>
<path d="M113.049 63.927C113.348 63.0057 114.652 63.0057 114.951 63.9271L116.021 67.2188C116.155 67.6309 116.538 67.9098 116.972 67.9098H120.433C121.402 67.9098 121.804 69.1494 121.021 69.7188L118.22 71.7533C117.87 72.0079 117.723 72.4593 117.857 72.8713L118.927 76.1631C119.226 77.0844 118.172 77.8506 117.388 77.2812L114.588 75.2467C114.237 74.9921 113.763 74.9921 113.412 75.2467L110.612 77.2812C109.828 77.8506 108.774 77.0844 109.073 76.1631L110.143 72.8713C110.277 72.4593 110.13 72.0079 109.78 71.7533L106.979 69.7188C106.196 69.1494 106.598 67.9098 107.567 67.9098H111.028C111.462 67.9098 111.845 67.6309 111.979 67.2188L113.049 63.927Z" fill="white"/>
<path d="M113.049 40.927C113.348 40.0057 114.652 40.0057 114.951 40.9271L116.021 44.2188C116.155 44.6309 116.538 44.9098 116.972 44.9098H120.433C121.402 44.9098 121.804 46.1494 121.021 46.7188L118.22 48.7533C117.87 49.0079 117.723 49.4593 117.857 49.8713L118.927 53.1631C119.226 54.0844 118.172 54.8506 117.388 54.2812L114.588 52.2467C114.237 51.9921 113.763 51.9921 113.412 52.2467L110.612 54.2812C109.828 54.8506 108.774 54.0844 109.073 53.1631L110.143 49.8713C110.277 49.4593 110.13 49.0079 109.78 48.7533L106.979 46.7188C106.196 46.1494 106.598 44.9098 107.567 44.9098H111.028C111.462 44.9098 111.845 44.6309 111.979 44.2188L113.049 40.927Z" fill="white"/>
<path d="M113.049 18.927C113.348 18.0057 114.652 18.0057 114.951 18.9271L116.021 22.2188C116.155 22.6309 116.538 22.9098 116.972 22.9098H120.433C121.402 22.9098 121.804 24.1494 121.021 24.7188L118.22 26.7533C117.87 27.0079 117.723 27.4593 117.857 27.8713L118.927 31.1631C119.226 32.0844 118.172 32.8506 117.388 32.2812L114.588 30.2467C114.237 29.9921 113.763 29.9921 113.412 30.2467L110.612 32.2812C109.828 32.8506 108.774 32.0844 109.073 31.1631L110.143 27.8713C110.277 27.4593 110.13 27.0079 109.78 26.7533L106.979 24.7188C106.196 24.1494 106.598 22.9098 107.567 22.9098H111.028C111.462 22.9098 111.845 22.6309 111.979 22.2188L113.049 18.927Z" fill="white"/>
<path d="M133.049 63.927C133.348 63.0057 134.652 63.0057 134.951 63.9271L136.021 67.2188C136.155 67.6309 136.538 67.9098 136.972 67.9098H140.433C141.402 67.9098 141.804 69.1494 141.021 69.7188L138.22 71.7533C137.87 72.0079 137.723 72.4593 137.857 72.8713L138.927 76.1631C139.226 77.0844 138.172 77.8506 137.388 77.2812L134.588 75.2467C134.237 74.9921 133.763 74.9921 133.412 75.2467L130.612 77.2812C129.828 77.8506 128.774 77.0844 129.073 76.1631L130.143 72.8713C130.277 72.4593 130.13 72.0079 129.78 71.7533L126.979 69.7188C126.196 69.1494 126.598 67.9098 127.567 67.9098H131.028C131.462 67.9098 131.845 67.6309 131.979 67.2188L133.049 63.927Z" fill="white"/>
<path d="M133.049 40.927C133.348 40.0057 134.652 40.0057 134.951 40.9271L136.021 44.2188C136.155 44.6309 136.538 44.9098 136.972 44.9098H140.433C141.402 44.9098 141.804 46.1494 141.021 46.7188L138.22 48.7533C137.87 49.0079 137.723 49.4593 137.857 49.8713L138.927 53.1631C139.226 54.0844 138.172 54.8506 137.388 54.2812L134.588 52.2467C134.237 51.9921 133.763 51.9921 133.412 52.2467L130.612 54.2812C129.828 54.8506 128.774 54.0844 129.073 53.1631L130.143 49.8713C130.277 49.4593 130.13 49.0079 129.78 48.7533L126.979 46.7188C126.196 46.1494 126.598 44.9098 127.567 44.9098H131.028C131.462 44.9098 131.845 44.6309 131.979 44.2188L133.049 40.927Z" fill="white"/>
<path d="M133.049 18.927C133.348 18.0057 134.652 18.0057 134.951 18.9271L136.021 22.2188C136.155 22.6309 136.538 22.9098 136.972 22.9098H140.433C141.402 22.9098 141.804 24.1494 141.021 24.7188L138.22 26.7533C137.87 27.0079 137.723 27.4593 137.857 27.8713L138.927 31.1631C139.226 32.0844 138.172 32.8506 137.388 32.2812L134.588 30.2467C134.237 29.9921 133.763 29.9921 133.412 30.2467L130.612 32.2812C129.828 32.8506 128.774 32.0844 129.073 31.1631L130.143 27.8713C130.277 27.4593 130.13 27.0079 129.78 26.7533L126.979 24.7188C126.196 24.1494 126.598 22.9098 127.567 22.9098H131.028C131.462 22.9098 131.845 22.6309 131.979 22.2188L133.049 18.927Z" fill="white"/>
<path d="M153.049 63.927C153.348 63.0057 154.652 63.0057 154.951 63.9271L156.021 67.2188C156.155 67.6309 156.538 67.9098 156.972 67.9098H160.433C161.402 67.9098 161.804 69.1494 161.021 69.7188L158.22 71.7533C157.87 72.0079 157.723 72.4593 157.857 72.8713L158.927 76.1631C159.226 77.0844 158.172 77.8506 157.388 77.2812L154.588 75.2467C154.237 74.9921 153.763 74.9921 153.412 75.2467L150.612 77.2812C149.828 77.8506 148.774 77.0844 149.073 76.1631L150.143 72.8713C150.277 72.4593 150.13 72.0079 149.78 71.7533L146.979 69.7188C146.196 69.1494 146.598 67.9098 147.567 67.9098H151.028C151.462 67.9098 151.845 67.6309 151.979 67.2188L153.049 63.927Z" fill="white"/>
<path d="M153.049 40.927C153.348 40.0057 154.652 40.0057 154.951 40.9271L156.021 44.2188C156.155 44.6309 156.538 44.9098 156.972 44.9098H160.433C161.402 44.9098 161.804 46.1494 161.021 46.7188L158.22 48.7533C157.87 49.0079 157.723 49.4593 157.857 49.8713L158.927 53.1631C159.226 54.0844 158.172 54.8506 157.388 54.2812L154.588 52.2467C154.237 51.9921 153.763 51.9921 153.412 52.2467L150.612 54.2812C149.828 54.8506 148.774 54.0844 149.073 53.1631L150.143 49.8713C150.277 49.4593 150.13 49.0079 149.78 48.7533L146.979 46.7188C146.196 46.1494 146.598 44.9098 147.567 44.9098H151.028C151.462 44.9098 151.845 44.6309 151.979 44.2188L153.049 40.927Z" fill="white"/>
<path d="M153.049 18.927C153.348 18.0057 154.652 18.0057 154.951 18.9271L156.021 22.2188C156.155 22.6309 156.538 22.9098 156.972 22.9098H160.433C161.402 22.9098 161.804 24.1494 161.021 24.7188L158.22 26.7533C157.87 27.0079 157.723 27.4593 157.857 27.8713L158.927 31.1631C159.226 32.0844 158.172 32.8506 157.388 32.2812L154.588 30.2467C154.237 29.9921 153.763 29.9921 153.412 30.2467L150.612 32.2812C149.828 32.8506 148.774 32.0844 149.073 31.1631L150.143 27.8713C150.277 27.4593 150.13 27.0079 149.78 26.7533L146.979 24.7188C146.196 24.1494 146.598 22.9098 147.567 22.9098H151.028C151.462 22.9098 151.845 22.6309 151.979 22.2188L153.049 18.927Z" fill="white"/>
</g>
<defs>
<clipPath id="clip0_118:1034">
<rect width="300" height="300" fill="white"/>
</clipPath>
</defs>
</svg>
