<svg width="300" height="300" viewBox="0 0 300 300" fill="none" xmlns="http://www.w3.org/2000/svg">
<g clip-path="url(#clip0_118:864)">
<rect width="300" height="300" fill="white"/>
<rect x="500" y="300" width="500" height="300" transform="rotate(-180 500 300)" fill="white"/>
<rect width="300" height="100" fill="#FFB84F"/>
<rect y="100" width="300" height="100" fill="#3661F6"/>
<rect y="200" width="300" height="100" fill="#EF4B4B"/>
<path d="M149.219 113.927C149.518 113.006 150.822 113.006 151.121 113.927L153.16 120.202C153.294 120.614 153.678 120.893 154.111 120.893H160.709C161.677 120.893 162.08 122.133 161.297 122.702L155.959 126.58C155.608 126.835 155.462 127.286 155.595 127.698L157.634 133.973C157.934 134.895 156.879 135.661 156.095 135.091L150.758 131.213C150.407 130.958 149.933 130.958 149.582 131.213L144.244 135.091C143.461 135.661 142.406 134.895 142.705 133.973L144.744 127.698C144.878 127.286 144.731 126.835 144.381 126.58L139.043 122.702C138.259 122.133 138.662 120.893 139.631 120.893H146.229C146.662 120.893 147.046 120.614 147.18 120.202L149.219 113.927Z" fill="white"/>
<path d="M99.3663 163.78C99.6656 162.858 100.969 162.858 101.268 163.78L103.307 170.055C103.441 170.467 103.825 170.746 104.258 170.746H110.856C111.825 170.746 112.228 171.985 111.444 172.555L106.106 176.433C105.756 176.687 105.609 177.139 105.743 177.551L107.782 183.826C108.081 184.747 107.027 185.513 106.243 184.944L100.905 181.066C100.555 180.811 100.08 180.811 99.7295 181.066L94.3917 184.944C93.608 185.513 92.5535 184.747 92.8529 183.826L94.8917 177.551C95.0256 177.139 94.879 176.687 94.5285 176.433L89.1906 172.555C88.4069 171.985 88.8097 170.746 89.7784 170.746H96.3763C96.8096 170.746 97.1935 170.467 97.3274 170.055L99.3663 163.78Z" fill="white"/>
<path d="M199.071 163.78C199.37 162.858 200.674 162.858 200.973 163.78L203.012 170.055C203.146 170.467 203.53 170.746 203.963 170.746H210.561C211.53 170.746 211.933 171.985 211.149 172.555L205.811 176.433C205.461 176.687 205.314 177.139 205.448 177.551L207.487 183.826C207.786 184.747 206.731 185.513 205.948 184.944L200.61 181.066C200.259 180.811 199.785 180.811 199.434 181.066L194.097 184.944C193.313 185.513 192.258 184.747 192.558 183.826L194.597 177.551C194.73 177.139 194.584 176.687 194.233 176.433L188.895 172.555C188.112 171.985 188.515 170.746 189.483 170.746H196.081C196.514 170.746 196.898 170.467 197.032 170.055L199.071 163.78Z" fill="white"/>
<path d="M202.732 143.725C203.679 143.523 204.331 144.652 203.683 145.372L199.268 150.275C198.978 150.597 198.928 151.069 199.145 151.444L202.444 157.158C202.928 157.997 202.056 158.966 201.171 158.572L195.144 155.888C194.748 155.712 194.284 155.811 193.994 156.133L189.579 161.036C188.931 161.756 187.74 161.225 187.841 160.262L188.531 153.7C188.576 153.269 188.339 152.858 187.943 152.682L181.916 149.999C181.031 149.605 181.167 148.308 182.115 148.107L188.568 146.735C188.992 146.645 189.31 146.292 189.355 145.862L190.045 139.3C190.146 138.336 191.421 138.065 191.905 138.904L195.204 144.618C195.421 144.993 195.854 145.186 196.278 145.096L202.732 143.725Z" fill="white"/>
<path d="M179.967 121.657C180.687 121.008 181.816 121.66 181.615 122.608L180.243 129.061C180.153 129.485 180.346 129.919 180.721 130.135L186.435 133.434C187.274 133.919 187.003 135.193 186.04 135.295L179.478 135.984C179.047 136.03 178.694 136.347 178.604 136.771L177.232 143.225C177.031 144.172 175.735 144.309 175.341 143.424L172.657 137.396C172.481 137 172.07 136.763 171.639 136.808L165.077 137.498C164.114 137.599 163.584 136.409 164.304 135.76L169.207 131.345C169.529 131.056 169.627 130.591 169.451 130.196L166.768 124.168C166.374 123.283 167.342 122.411 168.181 122.895L173.895 126.194C174.27 126.411 174.742 126.361 175.064 126.071L179.967 121.657Z" fill="white"/>
<path d="M111.868 139.904C112.588 139.255 113.716 139.907 113.515 140.855L112.143 147.308C112.053 147.732 112.246 148.166 112.621 148.382L118.335 151.681C119.174 152.166 118.903 153.441 117.94 153.542L111.378 154.231C110.947 154.277 110.594 154.594 110.504 155.018L109.133 161.472C108.931 162.419 107.635 162.556 107.241 161.671L104.557 155.643C104.381 155.247 103.97 155.01 103.539 155.055L96.9774 155.745C96.014 155.846 95.4839 154.656 96.2038 154.007L101.107 149.593C101.429 149.303 101.528 148.838 101.351 148.443L98.6678 142.415C98.2738 141.53 99.2424 140.658 100.081 141.142L105.795 144.441C106.17 144.658 106.642 144.608 106.964 144.318L111.868 139.904Z" fill="white"/>
<path d="M134.632 125.478C135.58 125.276 136.231 126.405 135.583 127.125L131.168 132.028C130.878 132.35 130.829 132.822 131.045 133.197L134.344 138.911C134.829 139.75 133.957 140.719 133.072 140.325L127.044 137.641C126.648 137.465 126.184 137.564 125.894 137.885L121.479 142.789C120.831 143.509 119.64 142.978 119.742 142.015L120.431 135.453C120.477 135.022 120.239 134.611 119.844 134.435L113.816 131.752C112.931 131.358 113.067 130.061 114.015 129.86L120.469 128.488C120.892 128.398 121.21 128.045 121.255 127.614L121.945 121.053C122.046 120.089 123.321 119.818 123.805 120.657L127.104 126.371C127.321 126.746 127.755 126.939 128.178 126.849L134.632 125.478Z" fill="white"/>
</g>
<defs>
<clipPath id="clip0_118:864">
<rect width="300" height="300" fill="white"/>
</clipPath>
</defs>
</svg>
