<svg width="300" height="300" viewBox="0 0 300 300" fill="none" xmlns="http://www.w3.org/2000/svg">
<rect width="300" height="300" fill="#EF4B4B"/>
<path d="M146.196 95.7082C147.393 92.023 152.607 92.023 153.804 95.7082L163.92 126.841C164.455 128.489 165.991 129.605 167.724 129.605H200.459C204.334 129.605 205.945 134.563 202.81 136.841L176.327 156.082C174.925 157.101 174.338 158.906 174.874 160.554L184.99 191.687C186.187 195.372 181.969 198.437 178.834 196.159L152.351 176.918C150.949 175.899 149.051 175.899 147.649 176.918L121.166 196.159C118.031 198.437 113.813 195.372 115.01 191.687L125.126 160.554C125.662 158.906 125.075 157.101 123.673 156.082L97.1899 136.841C94.055 134.563 95.6661 129.605 99.541 129.605H132.276C134.009 129.605 135.545 128.489 136.08 126.841L146.196 95.7082Z" fill="#FFB84F"/>
</svg>
