<svg width="300" height="300" viewBox="0 0 300 300" fill="none" xmlns="http://www.w3.org/2000/svg">
<g clip-path="url(#clip0_118:1095)">
<rect width="300" height="300" fill="white"/>
<rect x="300" y="300" width="300" height="300" transform="rotate(-180 300 300)" fill="#EF4B4B"/>
<rect x="150" y="150" width="150" height="150" transform="rotate(-180 150 150)" fill="#003EBA"/>
<path d="M73.5734 112.391C74.0224 111.009 75.9776 111.009 76.4266 112.391L78.929 120.092C79.1298 120.71 79.7057 121.129 80.3556 121.129H88.4536C89.9066 121.129 90.5108 122.988 89.3352 123.842L82.7838 128.602C82.2581 128.984 82.0381 129.661 82.2389 130.279L84.7413 137.981C85.1904 139.363 83.6086 140.512 82.4331 139.658L75.8817 134.898C75.3559 134.516 74.6441 134.516 74.1183 134.898L67.5669 139.658C66.3914 140.512 64.8096 139.363 65.2587 137.981L67.7611 130.279C67.9619 129.661 67.7419 128.984 67.2162 128.602L60.6648 123.842C59.4892 122.988 60.0934 121.129 61.5465 121.129H69.6444C70.2943 121.129 70.8702 120.71 71.071 120.092L73.5734 112.391Z" fill="white"/>
<path d="M73.5734 18.3906C74.0224 17.0086 75.9776 17.0086 76.4266 18.3906L78.929 26.0922C79.1298 26.7102 79.7057 27.1287 80.3556 27.1287H88.4536C89.9066 27.1287 90.5108 28.9881 89.3352 29.8422L82.7838 34.6021C82.2581 34.984 82.0381 35.6611 82.2389 36.2791L84.7413 43.9808C85.1904 45.3627 83.6086 46.5119 82.4331 45.6578L75.8817 40.8979C75.3559 40.516 74.6441 40.516 74.1183 40.8979L67.5669 45.6578C66.3914 46.5119 64.8096 45.3627 65.2587 43.9807L67.7611 36.2791C67.9619 35.6611 67.7419 34.984 67.2162 34.6021L60.6648 29.8422C59.4892 28.9881 60.0934 27.1287 61.5465 27.1287H69.6444C70.2943 27.1287 70.8702 26.7102 71.071 26.0922L73.5734 18.3906Z" fill="white"/>
<path d="M115.573 46.3906C116.022 45.0086 117.978 45.0086 118.427 46.3906L120.929 54.0922C121.13 54.7102 121.706 55.1287 122.356 55.1287H130.454C131.907 55.1287 132.511 56.9881 131.335 57.8422L124.784 62.6021C124.258 62.984 124.038 63.6611 124.239 64.2791L126.741 71.9808C127.19 73.3627 125.609 74.5119 124.433 73.6578L117.882 68.8979C117.356 68.516 116.644 68.516 116.118 68.8979L109.567 73.6578C108.391 74.5119 106.81 73.3627 107.259 71.9807L109.761 64.2791C109.962 63.6611 109.742 62.984 109.216 62.6021L102.665 57.8422C101.489 56.9881 102.093 55.1287 103.546 55.1287H111.644C112.294 55.1287 112.87 54.7102 113.071 54.0922L115.573 46.3906Z" fill="white"/>
<path d="M35.5734 56.3906C36.0224 55.0086 37.9776 55.0086 38.4266 56.3906L40.929 64.0922C41.1298 64.7102 41.7057 65.1287 42.3556 65.1287H50.4536C51.9066 65.1287 52.5108 66.9881 51.3352 67.8422L44.7838 72.6021C44.2581 72.984 44.0381 73.6611 44.2389 74.2791L46.7413 81.9808C47.1904 83.3627 45.6086 84.5119 44.4331 83.6578L37.8817 78.8979C37.3559 78.516 36.6441 78.516 36.1183 78.8979L29.5669 83.6578C28.3914 84.5119 26.8096 83.3627 27.2587 81.9807L29.7611 74.2791C29.9619 73.6611 29.7419 72.984 29.2162 72.6021L22.6648 67.8422C21.4892 66.9881 22.0934 65.1287 23.5465 65.1287H31.6444C32.2943 65.1287 32.8702 64.7102 33.071 64.0922L35.5734 56.3906Z" fill="white"/>
<path d="M92.5734 84.3906C93.0224 83.0086 94.9776 83.0086 95.4266 84.3906L96.8064 88.6373C97.0072 89.2553 97.5832 89.6738 98.233 89.6738H102.698C104.151 89.6738 104.756 91.5332 103.58 92.3873L99.9675 95.0119C99.4417 95.3939 99.2218 96.0709 99.4226 96.689L100.802 100.936C101.251 102.318 99.6697 103.467 98.4941 102.613L94.8817 99.9881C94.3559 99.6061 93.6441 99.6061 93.1183 99.9881L89.5059 102.613C88.3303 103.467 86.7486 102.318 87.1976 100.936L88.5774 96.6889C88.7782 96.0709 88.5583 95.3939 88.0325 95.0119L84.4201 92.3873C83.2445 91.5332 83.8486 89.6738 85.3017 89.6738H89.767C90.4168 89.6738 90.9928 89.2553 91.1936 88.6373L92.5734 84.3906Z" fill="white"/>
</g>
<defs>
<clipPath id="clip0_118:1095">
<rect width="300" height="300" fill="white"/>
</clipPath>
</defs>
</svg>
