<svg width="300" height="300" viewBox="0 0 300 300" fill="none" xmlns="http://www.w3.org/2000/svg">
<rect width="300" height="300" fill="#3661F6"/>
<path d="M150.272 102.819C151.834 104.808 154.108 106.509 152.906 108.734C152.033 110.349 149.751 109.655 148.695 110.838C155.271 109.916 158.538 111.745 163.947 114.645C165.004 115.211 165.271 116.621 166.58 116.223C166.58 116.223 166.785 114.777 167.369 114.124C168.949 112.359 171.201 115.258 172.635 117.143C173.906 118.811 173.59 120.272 174.214 122.273C174.822 124.223 173.767 126.959 175.791 127.262C177.202 127.472 177.525 125.298 178.946 125.425C180.921 125.602 180.761 127.956 181.579 129.76C182.781 132.412 181.637 134.675 183.41 136.986C185.256 139.392 187.548 139.293 190.255 140.666C190.973 141.031 191.332 141.344 192.099 141.588C193.862 142.149 195.291 140.304 196.831 141.328C199.307 142.974 194.675 145.593 194.465 148.555C194.32 150.609 193.688 152.202 194.986 153.804C196.445 155.602 198.568 154.416 200.774 155.127C202.136 155.566 202.783 156.212 204.197 156.436C206.355 156.777 208.119 154.033 209.717 155.521C210.902 156.625 209.525 158.301 210.506 159.588C211.479 160.865 212.606 161.119 214.182 161.433C216.91 161.976 218.359 158.673 221.027 159.462C223.392 160.162 224.54 161.652 225.49 163.924C227.058 167.672 224.7 170.435 222.604 173.916C221.159 176.315 218.783 176.615 218.263 179.248C218.159 179.774 218.232 180.089 218.125 180.615C217.767 182.373 215.759 184.556 215.759 184.556C215.759 184.556 214.094 186.173 213.393 187.454C212.072 189.869 214.389 192.569 212.351 194.421C211.134 195.527 209.98 195.432 208.393 195.87C207.067 196.237 205.833 195.529 204.94 196.574C203.986 197.691 204.509 198.943 204.985 200.332C205.739 202.53 209.45 204.273 209.45 204.273C209.45 204.273 211.002 205.254 210.592 206.647C210.312 207.599 204.68 210.27 202.872 207.819C202.41 207.192 202.579 206.59 202.084 205.989C201.125 204.827 199.692 204.016 198.408 204.806C197.345 205.46 197.352 207.818 197.352 207.818C197.352 207.818 197.258 208.907 196.831 209.395C195.853 210.51 194.605 208.235 193.141 208.48C190.956 208.845 190.3 210.63 189.198 212.547C187.614 215.3 187.74 217.399 187.887 220.57C187.93 221.497 188.279 222.016 188.141 222.934C187.606 226.484 181.395 226.097 178.944 223.468C177.648 222.078 178.155 220.302 177.367 218.866C176.578 217.544 175.734 216.106 174.212 214.785C172.853 213.605 171.966 212.983 170.255 212.42C164.627 210.569 162.073 216.723 156.848 219.514C153.968 221.052 149.482 223.468 149.482 223.468C149.482 223.468 148.417 223.974 143.433 226.874C141.722 227.536 141.462 230.815 141.462 230.815C141.462 230.815 141.462 235.684 143.694 237.261C144.616 239.231 143.22 239.587 142.905 241.075C142.753 241.795 142.511 242.918 142.511 242.918C142.511 242.918 142.137 243.945 141.722 244.494C141.286 245.072 140.905 245.277 140.342 245.732C138.828 246.955 137.936 247.598 136.067 248.294C134.801 248.766 134.017 248.837 132.671 248.956C131.538 249.055 131.202 248.956 129.758 248.956C127.652 248.956 127.363 247.704 126.469 246.324C125.286 244.496 125.019 242.918 125.681 240.807C127.391 239.498 130.279 238.569 129.49 235.811C127.652 233.587 127.837 230.769 126.469 227.663C125.572 225.625 124.645 224.66 123.97 222.54C123.199 220.122 123.97 218.205 123.047 216.108C122.653 214.392 121.604 212.816 121.604 210.845C118.71 209.142 118.576 204.667 114.499 204.273C111.605 204.273 110.3 202.695 108.19 200.853C107.589 200.328 107.392 199.875 106.739 199.417C104.387 197.766 101.803 201.217 99.3804 199.67C96.3077 197.708 98.7574 196.977 97.5462 190.53C96.335 184.083 97.3303 189.445 97.1412 188.763C96.6379 186.948 95.3035 184.302 95.3035 184.302C95.3035 184.302 94.6392 182.906 94.1205 182.064C91.655 178.064 83.638 178.831 84.91 174.31C85.2277 173.18 86.0687 172.814 86.3608 171.678C86.8535 169.762 85.9901 168.596 85.4381 166.696C85.1666 165.761 85.0911 165.195 84.6266 164.339C84.2589 163.661 83.9789 163.318 83.4664 162.741C81.6514 160.701 78.1726 162.043 77.2838 159.462C77.015 158.682 76.961 158.188 77.0236 157.365C77.1856 155.235 78.5835 154.316 80.1782 152.89C81.635 151.588 82.5815 150.678 84.5163 150.392C86.112 150.156 87.0512 150.581 88.5932 151.054C90.4593 151.625 91.141 152.951 93.0643 153.284C94.6366 153.556 95.7298 153.759 97.1417 153.017C99.1353 151.969 98.2165 149.517 99.775 147.893C100.74 146.888 101.416 146.421 102.662 145.796C104.943 144.653 106.606 145.224 109.113 144.741C110.348 144.503 111.009 144.103 112.267 144.087C113.738 144.067 114.482 144.966 115.95 144.875C118.553 144.713 120.682 144.481 121.605 141.328C122.654 139.224 118.711 138.436 118.971 136.592C118.316 134.488 119.894 133.44 120.682 131.997C121.604 131.603 122.654 131.076 123.837 131.336C126.865 130.287 124.498 124.109 129.364 126.347C129.364 127.002 129.097 127.789 129.491 127.923C131.202 127.923 131.465 125.951 132.653 125.292C133.174 123.455 131.991 121.218 133.569 119.775C134.357 119.641 135.019 119.381 135.54 118.719C135.54 117.277 134.751 116.489 133.569 115.567C133.174 116.223 132.273 116.176 131.465 115.961C129.861 115.535 130.9 113.423 130.28 111.887C129.962 111.1 129.437 110.761 129.364 109.916C129.218 108.208 130.771 107.554 132.125 106.498C133.464 105.453 134.539 105.399 136.068 104.659C139.46 103.02 140.871 100.603 144.617 100.192C145.74 100.068 146.44 99.8304 147.511 100.192C148.922 100.668 149.353 101.649 150.272 102.819Z" fill="#FFB84F" stroke="#FFB84F" stroke-width="3"/>
<path d="M164.601 54.6086C165.096 53.3314 166.904 53.3314 167.399 54.6086L169.189 59.2279C169.402 59.777 169.916 60.1507 170.504 60.1835L175.451 60.4587C176.818 60.5348 177.377 62.2536 176.315 63.1191L172.475 66.2492C172.019 66.6212 171.822 67.226 171.973 67.7954L173.239 72.5847C173.59 73.909 172.128 74.9712 170.976 74.2289L166.813 71.5442C166.318 71.225 165.682 71.225 165.187 71.5442L161.024 74.2289C159.872 74.9712 158.41 73.909 158.761 72.5847L160.027 67.7954C160.178 67.226 159.981 66.6212 159.525 66.2492L155.685 63.1191C154.623 62.2536 155.182 60.5348 156.549 60.4587L161.496 60.1835C162.084 60.1507 162.598 59.777 162.811 59.2279L164.601 54.6086Z" fill="white"/>
<path d="M192.601 62.6086C193.096 61.3314 194.904 61.3314 195.399 62.6086L197.189 67.2279C197.402 67.777 197.916 68.1507 198.504 68.1835L203.451 68.4587C204.818 68.5348 205.377 70.2536 204.315 71.1191L200.475 74.2492C200.019 74.6212 199.822 75.226 199.973 75.7954L201.239 80.5847C201.59 81.909 200.128 82.9712 198.976 82.2289L194.813 79.5442C194.318 79.225 193.682 79.225 193.187 79.5442L189.024 82.2289C187.872 82.9712 186.41 81.909 186.761 80.5847L188.027 75.7954C188.178 75.226 187.981 74.6212 187.525 74.2492L183.685 71.1191C182.623 70.2536 183.182 68.5348 184.549 68.4587L189.496 68.1835C190.084 68.1507 190.598 67.777 190.811 67.2279L192.601 62.6086Z" fill="white"/>
<path d="M220.601 71.6086C221.096 70.3314 222.904 70.3314 223.399 71.6086L225.189 76.2279C225.402 76.777 225.916 77.1507 226.504 77.1835L231.451 77.4587C232.818 77.5348 233.377 79.2536 232.315 80.1191L228.475 83.2492C228.019 83.6212 227.822 84.226 227.973 84.7954L229.239 89.5847C229.59 90.909 228.128 91.9712 226.976 91.2289L222.813 88.5442C222.318 88.225 221.682 88.225 221.187 88.5442L217.024 91.2289C215.872 91.9712 214.41 90.909 214.761 89.5847L216.027 84.7954C216.178 84.226 215.981 83.6212 215.525 83.2492L211.685 80.1191C210.623 79.2536 211.182 77.5348 212.549 77.4587L217.496 77.1835C218.084 77.1507 218.598 76.777 218.811 76.2279L220.601 71.6086Z" fill="white"/>
<path d="M135.399 54.6086C134.904 53.3314 133.096 53.3314 132.601 54.6086L130.811 59.2279C130.598 59.777 130.084 60.1507 129.496 60.1835L124.549 60.4587C123.182 60.5348 122.623 62.2536 123.685 63.1191L127.525 66.2492C127.981 66.6212 128.178 67.226 128.027 67.7954L126.761 72.5847C126.41 73.909 127.872 74.9712 129.024 74.2289L133.187 71.5442C133.682 71.225 134.318 71.225 134.813 71.5442L138.976 74.2289C140.128 74.9712 141.59 73.909 141.239 72.5847L139.973 67.7954C139.822 67.226 140.019 66.6212 140.475 66.2492L144.315 63.1191C145.377 62.2536 144.818 60.5348 143.451 60.4587L138.504 60.1835C137.916 60.1507 137.402 59.777 137.189 59.2279L135.399 54.6086Z" fill="white"/>
<path d="M107.399 62.6086C106.904 61.3314 105.096 61.3314 104.601 62.6086L102.811 67.2279C102.598 67.777 102.084 68.1507 101.496 68.1835L96.5494 68.4587C95.1817 68.5348 94.6233 70.2536 95.685 71.1191L99.5249 74.2492C99.9814 74.6212 100.178 75.226 100.027 75.7954L98.7606 80.5847C98.4103 81.909 99.8724 82.9712 101.024 82.2289L105.187 79.5442C105.682 79.225 106.318 79.225 106.813 79.5442L110.976 82.2289C112.128 82.9712 113.59 81.909 113.239 80.5847L111.973 75.7954C111.822 75.226 112.019 74.6212 112.475 74.2492L116.315 71.1191C117.377 70.2536 116.818 68.5348 115.451 68.4587L110.504 68.1835C109.916 68.1507 109.402 67.777 109.189 67.2279L107.399 62.6086Z" fill="white"/>
<path d="M79.3986 71.6086C78.9036 70.3314 77.0964 70.3314 76.6014 71.6086L74.8111 76.2279C74.5983 76.777 74.0838 77.1507 73.4958 77.1835L68.5494 77.4587C67.1817 77.5348 66.6233 79.2536 67.685 80.1191L71.5249 83.2492C71.9814 83.6212 72.1779 84.226 72.0273 84.7954L70.7606 89.5847C70.4103 90.909 71.8724 91.9712 73.0236 91.2289L77.1871 88.5442C77.682 88.225 78.318 88.225 78.8129 88.5442L82.9764 91.2289C84.1276 91.9712 85.5897 90.909 85.2394 89.5847L83.9727 84.7954C83.8221 84.226 84.0186 83.6212 84.4751 83.2492L88.315 80.1191C89.3767 79.2536 88.8183 77.5348 87.4506 77.4587L82.5042 77.1835C81.9162 77.1507 81.4017 76.777 81.1889 76.2279L79.3986 71.6086Z" fill="white"/>
</svg>
