<svg width="185" height="134" viewBox="0 0 185 134" fill="none" xmlns="http://www.w3.org/2000/svg">
<path d="M5.5475 53V18.44H19.2515C21.5875 18.44 23.4995 18.912 24.9875 19.856C26.4915 20.784 27.6035 21.976 28.3235 23.432C29.0595 24.888 29.4275 26.392 29.4275 27.944C29.4275 29.848 28.9715 31.464 28.0595 32.792C27.1635 34.12 25.9395 35.016 24.3875 35.48V34.28C26.5635 34.776 28.2115 35.808 29.3315 37.376C30.4675 38.944 31.0355 40.728 31.0355 42.728C31.0355 44.776 30.6435 46.568 29.8595 48.104C29.0755 49.64 27.9075 50.84 26.3555 51.704C24.8195 52.568 22.9155 53 20.6435 53H5.5475ZM11.4035 47.552H19.9235C20.9315 47.552 21.8355 47.352 22.6355 46.952C23.4355 46.536 24.0595 45.96 24.5075 45.224C24.9715 44.472 25.2035 43.584 25.2035 42.56C25.2035 41.632 25.0035 40.8 24.6035 40.064C24.2035 39.328 23.6195 38.744 22.8515 38.312C22.0835 37.864 21.1635 37.64 20.0915 37.64H11.4035V47.552ZM11.4035 32.24H19.1795C20.0115 32.24 20.7555 32.08 21.4115 31.76C22.0675 31.44 22.5875 30.968 22.9715 30.344C23.3555 29.72 23.5475 28.952 23.5475 28.04C23.5475 26.84 23.1635 25.84 22.3955 25.04C21.6275 24.24 20.5555 23.84 19.1795 23.84H11.4035V32.24ZM45.5488 53.744C43.6288 53.744 42.0448 53.424 40.7968 52.784C39.5488 52.144 38.5568 51.328 37.8208 50.336C37.0848 49.344 36.5408 48.288 36.1888 47.168C35.8368 46.048 35.6048 44.992 35.4928 44C35.3968 42.992 35.3488 42.176 35.3488 41.552V27.08H41.2048V39.56C41.2048 40.36 41.2608 41.264 41.3728 42.272C41.4848 43.264 41.7408 44.224 42.1408 45.152C42.5568 46.064 43.1648 46.816 43.9648 47.408C44.7808 48 45.8768 48.296 47.2528 48.296C47.9888 48.296 48.7168 48.176 49.4368 47.936C50.1568 47.696 50.8048 47.288 51.3808 46.712C51.9728 46.12 52.4448 45.312 52.7968 44.288C53.1488 43.264 53.3248 41.968 53.3248 40.4L56.7568 41.864C56.7568 44.072 56.3248 46.072 55.4608 47.864C54.6128 49.656 53.3568 51.088 51.6928 52.16C50.0288 53.216 47.9808 53.744 45.5488 53.744ZM54.0208 53V44.96H53.3248V27.08H59.1328V53H54.0208ZM65.8756 53V27.08H70.9876V33.392L70.3636 32.576C70.6836 31.712 71.1076 30.928 71.6356 30.224C72.1796 29.504 72.8276 28.912 73.5796 28.448C74.2196 28.016 74.9236 27.68 75.6916 27.44C76.4756 27.184 77.2756 27.032 78.0916 26.984C78.9076 26.92 79.6996 26.952 80.4676 27.08V32.48C79.6996 32.256 78.8116 32.184 77.8036 32.264C76.8116 32.344 75.9156 32.624 75.1156 33.104C74.3156 33.536 73.6596 34.088 73.1476 34.76C72.6516 35.432 72.2836 36.2 72.0436 37.064C71.8036 37.912 71.6836 38.832 71.6836 39.824V53H65.8756ZM102.976 53V40.52C102.976 39.704 102.92 38.8 102.808 37.808C102.696 36.816 102.432 35.864 102.016 34.952C101.616 34.024 101.008 33.264 100.192 32.672C99.3915 32.08 98.3035 31.784 96.9275 31.784C96.1915 31.784 95.4635 31.904 94.7435 32.144C94.0235 32.384 93.3675 32.8 92.7755 33.392C92.1995 33.968 91.7355 34.768 91.3835 35.792C91.0315 36.8 90.8555 38.096 90.8555 39.68L87.4235 38.216C87.4235 36.008 87.8475 34.008 88.6955 32.216C89.5595 30.424 90.8235 29 92.4875 27.944C94.1515 26.872 96.1995 26.336 98.6315 26.336C100.552 26.336 102.136 26.656 103.384 27.296C104.632 27.936 105.624 28.752 106.359 29.744C107.095 30.736 107.64 31.792 107.992 32.912C108.344 34.032 108.568 35.096 108.664 36.104C108.776 37.096 108.832 37.904 108.832 38.528V53H102.976ZM84.9995 53V27.08H90.1595V35.12H90.8555V53H84.9995ZM115.574 23.144V17.84H121.358V23.144H115.574ZM115.574 53V27.08H121.358V53H115.574ZM146.476 53V40.52C146.476 39.704 146.42 38.8 146.308 37.808C146.196 36.816 145.932 35.864 145.516 34.952C145.116 34.024 144.508 33.264 143.692 32.672C142.892 32.08 141.804 31.784 140.428 31.784C139.692 31.784 138.964 31.904 138.244 32.144C137.524 32.384 136.868 32.8 136.276 33.392C135.7 33.968 135.236 34.768 134.884 35.792C134.532 36.8 134.356 38.096 134.356 39.68L130.924 38.216C130.924 36.008 131.348 34.008 132.196 32.216C133.06 30.424 134.324 29 135.988 27.944C137.652 26.872 139.7 26.336 142.132 26.336C144.052 26.336 145.636 26.656 146.884 27.296C148.132 27.936 149.124 28.752 149.859 29.744C150.595 30.736 151.14 31.792 151.492 32.912C151.844 34.032 152.068 35.096 152.164 36.104C152.276 37.096 152.332 37.904 152.332 38.528V53H146.476ZM128.5 53V27.08H133.66V35.12H134.356V53H128.5ZM169.49 65.24C168.05 65.24 166.666 65.016 165.338 64.568C164.026 64.12 162.842 63.472 161.786 62.624C160.73 61.792 159.866 60.784 159.194 59.6L164.522 56.96C165.018 57.904 165.714 58.6 166.61 59.048C167.522 59.512 168.49 59.744 169.514 59.744C170.714 59.744 171.786 59.528 172.73 59.096C173.674 58.68 174.402 58.056 174.914 57.224C175.442 56.408 175.69 55.384 175.658 54.152V46.784H176.378V27.08H181.442V54.248C181.442 54.904 181.41 55.528 181.346 56.12C181.298 56.728 181.21 57.32 181.082 57.896C180.698 59.576 179.962 60.952 178.874 62.024C177.786 63.112 176.434 63.92 174.818 64.448C173.218 64.976 171.442 65.24 169.49 65.24ZM168.986 53.72C166.602 53.72 164.522 53.12 162.746 51.92C160.97 50.72 159.594 49.088 158.618 47.024C157.642 44.96 157.154 42.632 157.154 40.04C157.154 37.416 157.642 35.08 158.618 33.032C159.61 30.968 161.01 29.344 162.818 28.16C164.626 26.96 166.754 26.36 169.202 26.36C171.666 26.36 173.73 26.96 175.394 28.16C177.074 29.344 178.346 30.968 179.21 33.032C180.074 35.096 180.506 37.432 180.506 40.04C180.506 42.616 180.074 44.944 179.21 47.024C178.346 49.088 177.058 50.72 175.346 51.92C173.634 53.12 171.514 53.72 168.986 53.72ZM169.874 48.536C171.426 48.536 172.674 48.184 173.618 47.48C174.578 46.76 175.274 45.76 175.706 44.48C176.154 43.2 176.378 41.72 176.378 40.04C176.378 38.344 176.154 36.864 175.706 35.6C175.274 34.32 174.594 33.328 173.666 32.624C172.738 31.904 171.538 31.544 170.066 31.544C168.514 31.544 167.234 31.928 166.226 32.696C165.218 33.448 164.474 34.472 163.994 35.768C163.514 37.048 163.274 38.472 163.274 40.04C163.274 41.624 163.506 43.064 163.97 44.36C164.45 45.64 165.178 46.656 166.154 47.408C167.13 48.16 168.37 48.536 169.874 48.536ZM35.7067 119.72C33.1787 119.72 30.8987 119.28 28.8667 118.4C26.8507 117.52 25.1867 116.264 23.8747 114.632C22.5787 112.984 21.7547 111.032 21.4027 108.776L27.4027 107.864C27.9147 109.912 28.9627 111.496 30.5467 112.616C32.1467 113.736 33.9867 114.296 36.0667 114.296C37.2987 114.296 38.4587 114.104 39.5467 113.72C40.6347 113.336 41.5147 112.776 42.1867 112.04C42.8747 111.304 43.2187 110.4 43.2187 109.328C43.2187 108.848 43.1387 108.408 42.9787 108.008C42.8187 107.592 42.5787 107.224 42.2587 106.904C41.9547 106.584 41.5547 106.296 41.0587 106.04C40.5787 105.768 40.0187 105.536 39.3787 105.344L30.4507 102.704C29.6827 102.48 28.8507 102.184 27.9547 101.816C27.0747 101.432 26.2347 100.912 25.4347 100.256C24.6507 99.584 24.0027 98.736 23.4907 97.712C22.9947 96.672 22.7467 95.392 22.7467 93.872C22.7467 91.648 23.3067 89.784 24.4267 88.28C25.5627 86.76 27.0827 85.624 28.9867 84.872C30.9067 84.12 33.0347 83.752 35.3707 83.768C37.7387 83.784 39.8507 84.192 41.7067 84.992C43.5627 85.776 45.1147 86.92 46.3627 88.424C47.6107 89.928 48.4907 91.744 49.0027 93.872L42.7867 94.952C42.5307 93.736 42.0347 92.704 41.2987 91.856C40.5787 90.992 39.6907 90.336 38.6347 89.888C37.5947 89.44 36.4827 89.2 35.2987 89.168C34.1467 89.152 33.0747 89.328 32.0827 89.696C31.1067 90.048 30.3147 90.56 29.7067 91.232C29.1147 91.904 28.8187 92.688 28.8187 93.584C28.8187 94.432 29.0747 95.128 29.5867 95.672C30.0987 96.2 30.7307 96.624 31.4827 96.944C32.2507 97.248 33.0267 97.504 33.8107 97.712L40.0027 99.44C40.8507 99.664 41.8027 99.968 42.8587 100.352C43.9147 100.736 44.9307 101.272 45.9067 101.96C46.8827 102.648 47.6827 103.552 48.3067 104.672C48.9467 105.792 49.2667 107.216 49.2667 108.944C49.2667 110.736 48.8907 112.312 48.1387 113.672C47.4027 115.016 46.4027 116.136 45.1387 117.032C43.8747 117.928 42.4267 118.6 40.7947 119.048C39.1787 119.496 37.4827 119.72 35.7067 119.72ZM66.2456 119.72C63.6216 119.72 61.3176 119.152 59.3336 118.016C57.3496 116.88 55.7976 115.304 54.6776 113.288C53.5736 111.272 53.0216 108.952 53.0216 106.328C53.0216 103.496 53.5656 101.04 54.6536 98.96C55.7416 96.864 57.2536 95.24 59.1896 94.088C61.1256 92.936 63.3656 92.36 65.9096 92.36C68.5976 92.36 70.8776 92.992 72.7496 94.256C74.6376 95.504 76.0376 97.272 76.9496 99.56C77.8616 101.848 78.2056 104.544 77.9816 107.648H72.2456V105.536C72.2296 102.72 71.7336 100.664 70.7576 99.368C69.7816 98.072 68.2456 97.424 66.1496 97.424C63.7816 97.424 62.0216 98.16 60.8696 99.632C59.7176 101.088 59.1416 103.224 59.1416 106.04C59.1416 108.664 59.7176 110.696 60.8696 112.136C62.0216 113.576 63.7016 114.296 65.9096 114.296C67.3336 114.296 68.5576 113.984 69.5816 113.36C70.6216 112.72 71.4216 111.8 71.9816 110.6L77.6936 112.328C76.7016 114.664 75.1656 116.48 73.0856 117.776C71.0216 119.072 68.7416 119.72 66.2456 119.72ZM57.3176 107.648V103.28H75.1496V107.648H57.3176ZM83.3366 119V93.08H88.4486V99.392L87.8246 98.576C88.1446 97.712 88.5686 96.928 89.0966 96.224C89.6406 95.504 90.2886 94.912 91.0406 94.448C91.6806 94.016 92.3846 93.68 93.1526 93.44C93.9366 93.184 94.7366 93.032 95.5526 92.984C96.3686 92.92 97.1606 92.952 97.9286 93.08V98.48C97.1606 98.256 96.2726 98.184 95.2646 98.264C94.2726 98.344 93.3766 98.624 92.5766 99.104C91.7766 99.536 91.1206 100.088 90.6086 100.76C90.1126 101.432 89.7446 102.2 89.5046 103.064C89.2646 103.912 89.1446 104.832 89.1446 105.824V119H83.3366ZM102.988 89.144V83.84H108.772V89.144H102.988ZM102.988 119V93.08H108.772V119H102.988ZM127.746 119.72C125.122 119.72 122.818 119.152 120.834 118.016C118.85 116.88 117.298 115.304 116.178 113.288C115.074 111.272 114.522 108.952 114.522 106.328C114.522 103.496 115.066 101.04 116.154 98.96C117.242 96.864 118.754 95.24 120.69 94.088C122.626 92.936 124.866 92.36 127.41 92.36C130.098 92.36 132.378 92.992 134.25 94.256C136.138 95.504 137.538 97.272 138.45 99.56C139.362 101.848 139.706 104.544 139.482 107.648H133.746V105.536C133.73 102.72 133.234 100.664 132.258 99.368C131.282 98.072 129.746 97.424 127.65 97.424C125.282 97.424 123.522 98.16 122.37 99.632C121.218 101.088 120.642 103.224 120.642 106.04C120.642 108.664 121.218 110.696 122.37 112.136C123.522 113.576 125.202 114.296 127.41 114.296C128.834 114.296 130.058 113.984 131.082 113.36C132.122 112.72 132.922 111.8 133.482 110.6L139.194 112.328C138.202 114.664 136.666 116.48 134.586 117.776C132.522 119.072 130.242 119.72 127.746 119.72ZM118.818 107.648V103.28H136.65V107.648H118.818ZM154.845 119.72C151.645 119.72 149.045 119 147.045 117.56C145.045 116.12 143.829 114.096 143.397 111.488L149.301 110.576C149.605 111.856 150.277 112.864 151.317 113.6C152.357 114.336 153.669 114.704 155.253 114.704C156.645 114.704 157.717 114.432 158.469 113.888C159.237 113.328 159.621 112.568 159.621 111.608C159.621 111.016 159.477 110.544 159.189 110.192C158.917 109.824 158.309 109.472 157.365 109.136C156.421 108.8 154.973 108.376 153.021 107.864C150.845 107.288 149.117 106.672 147.837 106.016C146.557 105.344 145.637 104.552 145.077 103.64C144.517 102.728 144.237 101.624 144.237 100.328C144.237 98.712 144.661 97.304 145.509 96.104C146.357 94.904 147.541 93.984 149.061 93.344C150.581 92.688 152.373 92.36 154.437 92.36C156.453 92.36 158.237 92.672 159.789 93.296C161.357 93.92 162.621 94.808 163.581 95.96C164.541 97.112 165.133 98.464 165.357 100.016L159.453 101.072C159.309 99.968 158.805 99.096 157.941 98.456C157.093 97.816 155.957 97.456 154.533 97.376C153.173 97.296 152.077 97.504 151.245 98C150.413 98.48 149.997 99.16 149.997 100.04C149.997 100.536 150.165 100.96 150.501 101.312C150.837 101.664 151.509 102.016 152.517 102.368C153.541 102.72 155.061 103.152 157.077 103.664C159.141 104.192 160.789 104.8 162.021 105.488C163.269 106.16 164.165 106.968 164.709 107.912C165.269 108.856 165.549 110 165.549 111.344C165.549 113.952 164.597 116 162.693 117.488C160.805 118.976 158.189 119.72 154.845 119.72Z" fill="black"/>
<mask id="path-2-outside-1_21_4" maskUnits="userSpaceOnUse" x="2" y="14" width="179" height="105" fill="black">
<rect fill="white" x="2" y="14" width="179" height="105"/>
<path d="M3.5475 51V16.44H17.2515C19.5875 16.44 21.4995 16.912 22.9875 17.856C24.4915 18.784 25.6035 19.976 26.3235 21.432C27.0595 22.888 27.4275 24.392 27.4275 25.944C27.4275 27.848 26.9715 29.464 26.0595 30.792C25.1635 32.12 23.9395 33.016 22.3875 33.48V32.28C24.5635 32.776 26.2115 33.808 27.3315 35.376C28.4675 36.944 29.0355 38.728 29.0355 40.728C29.0355 42.776 28.6435 44.568 27.8595 46.104C27.0755 47.64 25.9075 48.84 24.3555 49.704C22.8195 50.568 20.9155 51 18.6435 51H3.5475ZM9.4035 45.552H17.9235C18.9315 45.552 19.8355 45.352 20.6355 44.952C21.4355 44.536 22.0595 43.96 22.5075 43.224C22.9715 42.472 23.2035 41.584 23.2035 40.56C23.2035 39.632 23.0035 38.8 22.6035 38.064C22.2035 37.328 21.6195 36.744 20.8515 36.312C20.0835 35.864 19.1635 35.64 18.0915 35.64H9.4035V45.552ZM9.4035 30.24H17.1795C18.0115 30.24 18.7555 30.08 19.4115 29.76C20.0675 29.44 20.5875 28.968 20.9715 28.344C21.3555 27.72 21.5475 26.952 21.5475 26.04C21.5475 24.84 21.1635 23.84 20.3955 23.04C19.6275 22.24 18.5555 21.84 17.1795 21.84H9.4035V30.24ZM33.7067 117.72C31.1787 117.72 28.8987 117.28 26.8667 116.4C24.8507 115.52 23.1867 114.264 21.8747 112.632C20.5787 110.984 19.7547 109.032 19.4027 106.776L25.4027 105.864C25.9147 107.912 26.9627 109.496 28.5467 110.616C30.1467 111.736 31.9867 112.296 34.0667 112.296C35.2987 112.296 36.4587 112.104 37.5467 111.72C38.6347 111.336 39.5147 110.776 40.1867 110.04C40.8747 109.304 41.2187 108.4 41.2187 107.328C41.2187 106.848 41.1387 106.408 40.9787 106.008C40.8187 105.592 40.5787 105.224 40.2587 104.904C39.9547 104.584 39.5547 104.296 39.0587 104.04C38.5787 103.768 38.0187 103.536 37.3787 103.344L28.4507 100.704C27.6827 100.48 26.8507 100.184 25.9547 99.816C25.0747 99.432 24.2347 98.912 23.4347 98.256C22.6507 97.584 22.0027 96.736 21.4907 95.712C20.9947 94.672 20.7467 93.392 20.7467 91.872C20.7467 89.648 21.3067 87.784 22.4267 86.28C23.5627 84.76 25.0827 83.624 26.9867 82.872C28.9067 82.12 31.0347 81.752 33.3707 81.768C35.7387 81.784 37.8507 82.192 39.7067 82.992C41.5627 83.776 43.1147 84.92 44.3627 86.424C45.6107 87.928 46.4907 89.744 47.0027 91.872L40.7867 92.952C40.5307 91.736 40.0347 90.704 39.2987 89.856C38.5787 88.992 37.6907 88.336 36.6347 87.888C35.5947 87.44 34.4827 87.2 33.2987 87.168C32.1467 87.152 31.0747 87.328 30.0827 87.696C29.1067 88.048 28.3147 88.56 27.7067 89.232C27.1147 89.904 26.8187 90.688 26.8187 91.584C26.8187 92.432 27.0747 93.128 27.5867 93.672C28.0987 94.2 28.7307 94.624 29.4827 94.944C30.2507 95.248 31.0267 95.504 31.8107 95.712L38.0027 97.44C38.8507 97.664 39.8027 97.968 40.8587 98.352C41.9147 98.736 42.9307 99.272 43.9067 99.96C44.8827 100.648 45.6827 101.552 46.3067 102.672C46.9467 103.792 47.2667 105.216 47.2667 106.944C47.2667 108.736 46.8907 110.312 46.1387 111.672C45.4027 113.016 44.4027 114.136 43.1387 115.032C41.8747 115.928 40.4267 116.6 38.7947 117.048C37.1787 117.496 35.4827 117.72 33.7067 117.72Z"/>
<path d="M43.5488 51.744C41.6288 51.744 40.0448 51.424 38.7968 50.784C37.5488 50.144 36.5568 49.328 35.8208 48.336C35.0848 47.344 34.5408 46.288 34.1888 45.168C33.8368 44.048 33.6048 42.992 33.4928 42C33.3968 40.992 33.3488 40.176 33.3488 39.552V25.08H39.2048V37.56C39.2048 38.36 39.2608 39.264 39.3728 40.272C39.4848 41.264 39.7408 42.224 40.1408 43.152C40.5568 44.064 41.1648 44.816 41.9648 45.408C42.7808 46 43.8768 46.296 45.2528 46.296C45.9888 46.296 46.7168 46.176 47.4368 45.936C48.1568 45.696 48.8048 45.288 49.3808 44.712C49.9728 44.12 50.4448 43.312 50.7968 42.288C51.1488 41.264 51.3248 39.968 51.3248 38.4L54.7568 39.864C54.7568 42.072 54.3248 44.072 53.4608 45.864C52.6128 47.656 51.3568 49.088 49.6928 50.16C48.0288 51.216 45.9808 51.744 43.5488 51.744ZM52.0208 51V42.96H51.3248V25.08H57.1328V51H52.0208ZM63.8756 51V25.08H68.9876V31.392L68.3636 30.576C68.6836 29.712 69.1076 28.928 69.6356 28.224C70.1796 27.504 70.8276 26.912 71.5796 26.448C72.2196 26.016 72.9236 25.68 73.6916 25.44C74.4756 25.184 75.2756 25.032 76.0916 24.984C76.9076 24.92 77.6996 24.952 78.4676 25.08V30.48C77.6996 30.256 76.8116 30.184 75.8036 30.264C74.8116 30.344 73.9156 30.624 73.1156 31.104C72.3156 31.536 71.6596 32.088 71.1476 32.76C70.6516 33.432 70.2836 34.2 70.0436 35.064C69.8036 35.912 69.6836 36.832 69.6836 37.824V51H63.8756ZM100.976 51V38.52C100.976 37.704 100.92 36.8 100.808 35.808C100.696 34.816 100.432 33.864 100.016 32.952C99.6155 32.024 99.0075 31.264 98.1915 30.672C97.3915 30.08 96.3035 29.784 94.9275 29.784C94.1915 29.784 93.4635 29.904 92.7435 30.144C92.0235 30.384 91.3675 30.8 90.7755 31.392C90.1995 31.968 89.7355 32.768 89.3835 33.792C89.0315 34.8 88.8555 36.096 88.8555 37.68L85.4235 36.216C85.4235 34.008 85.8475 32.008 86.6955 30.216C87.5595 28.424 88.8235 27 90.4875 25.944C92.1515 24.872 94.1995 24.336 96.6315 24.336C98.5515 24.336 100.136 24.656 101.384 25.296C102.632 25.936 103.624 26.752 104.359 27.744C105.095 28.736 105.64 29.792 105.992 30.912C106.344 32.032 106.568 33.096 106.664 34.104C106.776 35.096 106.832 35.904 106.832 36.528V51H100.976ZM82.9995 51V25.08H88.1595V33.12H88.8555V51H82.9995ZM113.574 21.144V15.84H119.358V21.144H113.574ZM113.574 51V25.08H119.358V51H113.574ZM144.476 51V38.52C144.476 37.704 144.42 36.8 144.308 35.808C144.196 34.816 143.932 33.864 143.516 32.952C143.116 32.024 142.508 31.264 141.692 30.672C140.892 30.08 139.804 29.784 138.428 29.784C137.692 29.784 136.964 29.904 136.244 30.144C135.524 30.384 134.868 30.8 134.276 31.392C133.7 31.968 133.236 32.768 132.884 33.792C132.532 34.8 132.356 36.096 132.356 37.68L128.924 36.216C128.924 34.008 129.348 32.008 130.196 30.216C131.06 28.424 132.324 27 133.988 25.944C135.652 24.872 137.7 24.336 140.132 24.336C142.052 24.336 143.636 24.656 144.884 25.296C146.132 25.936 147.124 26.752 147.859 27.744C148.595 28.736 149.14 29.792 149.492 30.912C149.844 32.032 150.068 33.096 150.164 34.104C150.276 35.096 150.332 35.904 150.332 36.528V51H144.476ZM126.5 51V25.08H131.66V33.12H132.356V51H126.5ZM167.49 63.24C166.05 63.24 164.666 63.016 163.338 62.568C162.026 62.12 160.842 61.472 159.786 60.624C158.73 59.792 157.866 58.784 157.194 57.6L162.522 54.96C163.018 55.904 163.714 56.6 164.61 57.048C165.522 57.512 166.49 57.744 167.514 57.744C168.714 57.744 169.786 57.528 170.73 57.096C171.674 56.68 172.402 56.056 172.914 55.224C173.442 54.408 173.69 53.384 173.658 52.152V44.784H174.378V25.08H179.442V52.248C179.442 52.904 179.41 53.528 179.346 54.12C179.298 54.728 179.21 55.32 179.082 55.896C178.698 57.576 177.962 58.952 176.874 60.024C175.786 61.112 174.434 61.92 172.818 62.448C171.218 62.976 169.442 63.24 167.49 63.24ZM166.986 51.72C164.602 51.72 162.522 51.12 160.746 49.92C158.97 48.72 157.594 47.088 156.618 45.024C155.642 42.96 155.154 40.632 155.154 38.04C155.154 35.416 155.642 33.08 156.618 31.032C157.61 28.968 159.01 27.344 160.818 26.16C162.626 24.96 164.754 24.36 167.202 24.36C169.666 24.36 171.73 24.96 173.394 26.16C175.074 27.344 176.346 28.968 177.21 31.032C178.074 33.096 178.506 35.432 178.506 38.04C178.506 40.616 178.074 42.944 177.21 45.024C176.346 47.088 175.058 48.72 173.346 49.92C171.634 51.12 169.514 51.72 166.986 51.72ZM167.874 46.536C169.426 46.536 170.674 46.184 171.618 45.48C172.578 44.76 173.274 43.76 173.706 42.48C174.154 41.2 174.378 39.72 174.378 38.04C174.378 36.344 174.154 34.864 173.706 33.6C173.274 32.32 172.594 31.328 171.666 30.624C170.738 29.904 169.538 29.544 168.066 29.544C166.514 29.544 165.234 29.928 164.226 30.696C163.218 31.448 162.474 32.472 161.994 33.768C161.514 35.048 161.274 36.472 161.274 38.04C161.274 39.624 161.506 41.064 161.97 42.36C162.45 43.64 163.178 44.656 164.154 45.408C165.13 46.16 166.37 46.536 167.874 46.536Z"/>
<path d="M64.2456 117.72C61.6216 117.72 59.3176 117.152 57.3336 116.016C55.3496 114.88 53.7976 113.304 52.6776 111.288C51.5736 109.272 51.0216 106.952 51.0216 104.328C51.0216 101.496 51.5656 99.04 52.6536 96.96C53.7416 94.864 55.2536 93.24 57.1896 92.088C59.1256 90.936 61.3656 90.36 63.9096 90.36C66.5976 90.36 68.8776 90.992 70.7496 92.256C72.6376 93.504 74.0376 95.272 74.9496 97.56C75.8616 99.848 76.2056 102.544 75.9816 105.648H70.2456V103.536C70.2296 100.72 69.7336 98.664 68.7576 97.368C67.7816 96.072 66.2456 95.424 64.1496 95.424C61.7816 95.424 60.0216 96.16 58.8696 97.632C57.7176 99.088 57.1416 101.224 57.1416 104.04C57.1416 106.664 57.7176 108.696 58.8696 110.136C60.0216 111.576 61.7016 112.296 63.9096 112.296C65.3336 112.296 66.5576 111.984 67.5816 111.36C68.6216 110.72 69.4216 109.8 69.9816 108.6L75.6936 110.328C74.7016 112.664 73.1656 114.48 71.0856 115.776C69.0216 117.072 66.7416 117.72 64.2456 117.72ZM55.3176 105.648V101.28H73.1496V105.648H55.3176ZM81.3366 117V91.08H86.4486V97.392L85.8246 96.576C86.1446 95.712 86.5686 94.928 87.0966 94.224C87.6406 93.504 88.2886 92.912 89.0406 92.448C89.6806 92.016 90.3846 91.68 91.1526 91.44C91.9366 91.184 92.7366 91.032 93.5526 90.984C94.3686 90.92 95.1606 90.952 95.9286 91.08V96.48C95.1606 96.256 94.2726 96.184 93.2646 96.264C92.2726 96.344 91.3766 96.624 90.5766 97.104C89.7766 97.536 89.1206 98.088 88.6086 98.76C88.1126 99.432 87.7446 100.2 87.5046 101.064C87.2646 101.912 87.1446 102.832 87.1446 103.824V117H81.3366ZM100.988 87.144V81.84H106.772V87.144H100.988ZM100.988 117V91.08H106.772V117H100.988ZM125.746 117.72C123.122 117.72 120.818 117.152 118.834 116.016C116.85 114.88 115.298 113.304 114.178 111.288C113.074 109.272 112.522 106.952 112.522 104.328C112.522 101.496 113.066 99.04 114.154 96.96C115.242 94.864 116.754 93.24 118.69 92.088C120.626 90.936 122.866 90.36 125.41 90.36C128.098 90.36 130.378 90.992 132.25 92.256C134.138 93.504 135.538 95.272 136.45 97.56C137.362 99.848 137.706 102.544 137.482 105.648H131.746V103.536C131.73 100.72 131.234 98.664 130.258 97.368C129.282 96.072 127.746 95.424 125.65 95.424C123.282 95.424 121.522 96.16 120.37 97.632C119.218 99.088 118.642 101.224 118.642 104.04C118.642 106.664 119.218 108.696 120.37 110.136C121.522 111.576 123.202 112.296 125.41 112.296C126.834 112.296 128.058 111.984 129.082 111.36C130.122 110.72 130.922 109.8 131.482 108.6L137.194 110.328C136.202 112.664 134.666 114.48 132.586 115.776C130.522 117.072 128.242 117.72 125.746 117.72ZM116.818 105.648V101.28H134.65V105.648H116.818ZM152.845 117.72C149.645 117.72 147.045 117 145.045 115.56C143.045 114.12 141.829 112.096 141.397 109.488L147.301 108.576C147.605 109.856 148.277 110.864 149.317 111.6C150.357 112.336 151.669 112.704 153.253 112.704C154.645 112.704 155.717 112.432 156.469 111.888C157.237 111.328 157.621 110.568 157.621 109.608C157.621 109.016 157.477 108.544 157.189 108.192C156.917 107.824 156.309 107.472 155.365 107.136C154.421 106.8 152.973 106.376 151.021 105.864C148.845 105.288 147.117 104.672 145.837 104.016C144.557 103.344 143.637 102.552 143.077 101.64C142.517 100.728 142.237 99.624 142.237 98.328C142.237 96.712 142.661 95.304 143.509 94.104C144.357 92.904 145.541 91.984 147.061 91.344C148.581 90.688 150.373 90.36 152.437 90.36C154.453 90.36 156.237 90.672 157.789 91.296C159.357 91.92 160.621 92.808 161.581 93.96C162.541 95.112 163.133 96.464 163.357 98.016L157.453 99.072C157.309 97.968 156.805 97.096 155.941 96.456C155.093 95.816 153.957 95.456 152.533 95.376C151.173 95.296 150.077 95.504 149.245 96C148.413 96.48 147.997 97.16 147.997 98.04C147.997 98.536 148.165 98.96 148.501 99.312C148.837 99.664 149.509 100.016 150.517 100.368C151.541 100.72 153.061 101.152 155.077 101.664C157.141 102.192 158.789 102.8 160.021 103.488C161.269 104.16 162.165 104.968 162.709 105.912C163.269 106.856 163.549 108 163.549 109.344C163.549 111.952 162.597 114 160.693 115.488C158.805 116.976 156.189 117.72 152.845 117.72Z"/>
</mask>
<path d="M3.5475 51V16.44H17.2515C19.5875 16.44 21.4995 16.912 22.9875 17.856C24.4915 18.784 25.6035 19.976 26.3235 21.432C27.0595 22.888 27.4275 24.392 27.4275 25.944C27.4275 27.848 26.9715 29.464 26.0595 30.792C25.1635 32.12 23.9395 33.016 22.3875 33.48V32.28C24.5635 32.776 26.2115 33.808 27.3315 35.376C28.4675 36.944 29.0355 38.728 29.0355 40.728C29.0355 42.776 28.6435 44.568 27.8595 46.104C27.0755 47.64 25.9075 48.84 24.3555 49.704C22.8195 50.568 20.9155 51 18.6435 51H3.5475ZM9.4035 45.552H17.9235C18.9315 45.552 19.8355 45.352 20.6355 44.952C21.4355 44.536 22.0595 43.96 22.5075 43.224C22.9715 42.472 23.2035 41.584 23.2035 40.56C23.2035 39.632 23.0035 38.8 22.6035 38.064C22.2035 37.328 21.6195 36.744 20.8515 36.312C20.0835 35.864 19.1635 35.64 18.0915 35.64H9.4035V45.552ZM9.4035 30.24H17.1795C18.0115 30.24 18.7555 30.08 19.4115 29.76C20.0675 29.44 20.5875 28.968 20.9715 28.344C21.3555 27.72 21.5475 26.952 21.5475 26.04C21.5475 24.84 21.1635 23.84 20.3955 23.04C19.6275 22.24 18.5555 21.84 17.1795 21.84H9.4035V30.24ZM33.7067 117.72C31.1787 117.72 28.8987 117.28 26.8667 116.4C24.8507 115.52 23.1867 114.264 21.8747 112.632C20.5787 110.984 19.7547 109.032 19.4027 106.776L25.4027 105.864C25.9147 107.912 26.9627 109.496 28.5467 110.616C30.1467 111.736 31.9867 112.296 34.0667 112.296C35.2987 112.296 36.4587 112.104 37.5467 111.72C38.6347 111.336 39.5147 110.776 40.1867 110.04C40.8747 109.304 41.2187 108.4 41.2187 107.328C41.2187 106.848 41.1387 106.408 40.9787 106.008C40.8187 105.592 40.5787 105.224 40.2587 104.904C39.9547 104.584 39.5547 104.296 39.0587 104.04C38.5787 103.768 38.0187 103.536 37.3787 103.344L28.4507 100.704C27.6827 100.48 26.8507 100.184 25.9547 99.816C25.0747 99.432 24.2347 98.912 23.4347 98.256C22.6507 97.584 22.0027 96.736 21.4907 95.712C20.9947 94.672 20.7467 93.392 20.7467 91.872C20.7467 89.648 21.3067 87.784 22.4267 86.28C23.5627 84.76 25.0827 83.624 26.9867 82.872C28.9067 82.12 31.0347 81.752 33.3707 81.768C35.7387 81.784 37.8507 82.192 39.7067 82.992C41.5627 83.776 43.1147 84.92 44.3627 86.424C45.6107 87.928 46.4907 89.744 47.0027 91.872L40.7867 92.952C40.5307 91.736 40.0347 90.704 39.2987 89.856C38.5787 88.992 37.6907 88.336 36.6347 87.888C35.5947 87.44 34.4827 87.2 33.2987 87.168C32.1467 87.152 31.0747 87.328 30.0827 87.696C29.1067 88.048 28.3147 88.56 27.7067 89.232C27.1147 89.904 26.8187 90.688 26.8187 91.584C26.8187 92.432 27.0747 93.128 27.5867 93.672C28.0987 94.2 28.7307 94.624 29.4827 94.944C30.2507 95.248 31.0267 95.504 31.8107 95.712L38.0027 97.44C38.8507 97.664 39.8027 97.968 40.8587 98.352C41.9147 98.736 42.9307 99.272 43.9067 99.96C44.8827 100.648 45.6827 101.552 46.3067 102.672C46.9467 103.792 47.2667 105.216 47.2667 106.944C47.2667 108.736 46.8907 110.312 46.1387 111.672C45.4027 113.016 44.4027 114.136 43.1387 115.032C41.8747 115.928 40.4267 116.6 38.7947 117.048C37.1787 117.496 35.4827 117.72 33.7067 117.72Z" fill="white"/>
<path d="M43.5488 51.744C41.6288 51.744 40.0448 51.424 38.7968 50.784C37.5488 50.144 36.5568 49.328 35.8208 48.336C35.0848 47.344 34.5408 46.288 34.1888 45.168C33.8368 44.048 33.6048 42.992 33.4928 42C33.3968 40.992 33.3488 40.176 33.3488 39.552V25.08H39.2048V37.56C39.2048 38.36 39.2608 39.264 39.3728 40.272C39.4848 41.264 39.7408 42.224 40.1408 43.152C40.5568 44.064 41.1648 44.816 41.9648 45.408C42.7808 46 43.8768 46.296 45.2528 46.296C45.9888 46.296 46.7168 46.176 47.4368 45.936C48.1568 45.696 48.8048 45.288 49.3808 44.712C49.9728 44.12 50.4448 43.312 50.7968 42.288C51.1488 41.264 51.3248 39.968 51.3248 38.4L54.7568 39.864C54.7568 42.072 54.3248 44.072 53.4608 45.864C52.6128 47.656 51.3568 49.088 49.6928 50.16C48.0288 51.216 45.9808 51.744 43.5488 51.744ZM52.0208 51V42.96H51.3248V25.08H57.1328V51H52.0208ZM63.8756 51V25.08H68.9876V31.392L68.3636 30.576C68.6836 29.712 69.1076 28.928 69.6356 28.224C70.1796 27.504 70.8276 26.912 71.5796 26.448C72.2196 26.016 72.9236 25.68 73.6916 25.44C74.4756 25.184 75.2756 25.032 76.0916 24.984C76.9076 24.92 77.6996 24.952 78.4676 25.08V30.48C77.6996 30.256 76.8116 30.184 75.8036 30.264C74.8116 30.344 73.9156 30.624 73.1156 31.104C72.3156 31.536 71.6596 32.088 71.1476 32.76C70.6516 33.432 70.2836 34.2 70.0436 35.064C69.8036 35.912 69.6836 36.832 69.6836 37.824V51H63.8756ZM100.976 51V38.52C100.976 37.704 100.92 36.8 100.808 35.808C100.696 34.816 100.432 33.864 100.016 32.952C99.6155 32.024 99.0075 31.264 98.1915 30.672C97.3915 30.08 96.3035 29.784 94.9275 29.784C94.1915 29.784 93.4635 29.904 92.7435 30.144C92.0235 30.384 91.3675 30.8 90.7755 31.392C90.1995 31.968 89.7355 32.768 89.3835 33.792C89.0315 34.8 88.8555 36.096 88.8555 37.68L85.4235 36.216C85.4235 34.008 85.8475 32.008 86.6955 30.216C87.5595 28.424 88.8235 27 90.4875 25.944C92.1515 24.872 94.1995 24.336 96.6315 24.336C98.5515 24.336 100.136 24.656 101.384 25.296C102.632 25.936 103.624 26.752 104.359 27.744C105.095 28.736 105.64 29.792 105.992 30.912C106.344 32.032 106.568 33.096 106.664 34.104C106.776 35.096 106.832 35.904 106.832 36.528V51H100.976ZM82.9995 51V25.08H88.1595V33.12H88.8555V51H82.9995ZM113.574 21.144V15.84H119.358V21.144H113.574ZM113.574 51V25.08H119.358V51H113.574ZM144.476 51V38.52C144.476 37.704 144.42 36.8 144.308 35.808C144.196 34.816 143.932 33.864 143.516 32.952C143.116 32.024 142.508 31.264 141.692 30.672C140.892 30.08 139.804 29.784 138.428 29.784C137.692 29.784 136.964 29.904 136.244 30.144C135.524 30.384 134.868 30.8 134.276 31.392C133.7 31.968 133.236 32.768 132.884 33.792C132.532 34.8 132.356 36.096 132.356 37.68L128.924 36.216C128.924 34.008 129.348 32.008 130.196 30.216C131.06 28.424 132.324 27 133.988 25.944C135.652 24.872 137.7 24.336 140.132 24.336C142.052 24.336 143.636 24.656 144.884 25.296C146.132 25.936 147.124 26.752 147.859 27.744C148.595 28.736 149.14 29.792 149.492 30.912C149.844 32.032 150.068 33.096 150.164 34.104C150.276 35.096 150.332 35.904 150.332 36.528V51H144.476ZM126.5 51V25.08H131.66V33.12H132.356V51H126.5ZM167.49 63.24C166.05 63.24 164.666 63.016 163.338 62.568C162.026 62.12 160.842 61.472 159.786 60.624C158.73 59.792 157.866 58.784 157.194 57.6L162.522 54.96C163.018 55.904 163.714 56.6 164.61 57.048C165.522 57.512 166.49 57.744 167.514 57.744C168.714 57.744 169.786 57.528 170.73 57.096C171.674 56.68 172.402 56.056 172.914 55.224C173.442 54.408 173.69 53.384 173.658 52.152V44.784H174.378V25.08H179.442V52.248C179.442 52.904 179.41 53.528 179.346 54.12C179.298 54.728 179.21 55.32 179.082 55.896C178.698 57.576 177.962 58.952 176.874 60.024C175.786 61.112 174.434 61.92 172.818 62.448C171.218 62.976 169.442 63.24 167.49 63.24ZM166.986 51.72C164.602 51.72 162.522 51.12 160.746 49.92C158.97 48.72 157.594 47.088 156.618 45.024C155.642 42.96 155.154 40.632 155.154 38.04C155.154 35.416 155.642 33.08 156.618 31.032C157.61 28.968 159.01 27.344 160.818 26.16C162.626 24.96 164.754 24.36 167.202 24.36C169.666 24.36 171.73 24.96 173.394 26.16C175.074 27.344 176.346 28.968 177.21 31.032C178.074 33.096 178.506 35.432 178.506 38.04C178.506 40.616 178.074 42.944 177.21 45.024C176.346 47.088 175.058 48.72 173.346 49.92C171.634 51.12 169.514 51.72 166.986 51.72ZM167.874 46.536C169.426 46.536 170.674 46.184 171.618 45.48C172.578 44.76 173.274 43.76 173.706 42.48C174.154 41.2 174.378 39.72 174.378 38.04C174.378 36.344 174.154 34.864 173.706 33.6C173.274 32.32 172.594 31.328 171.666 30.624C170.738 29.904 169.538 29.544 168.066 29.544C166.514 29.544 165.234 29.928 164.226 30.696C163.218 31.448 162.474 32.472 161.994 33.768C161.514 35.048 161.274 36.472 161.274 38.04C161.274 39.624 161.506 41.064 161.97 42.36C162.45 43.64 163.178 44.656 164.154 45.408C165.13 46.16 166.37 46.536 167.874 46.536Z" fill="url(#paint0_linear_21_4)"/>
<path d="M64.2456 117.72C61.6216 117.72 59.3176 117.152 57.3336 116.016C55.3496 114.88 53.7976 113.304 52.6776 111.288C51.5736 109.272 51.0216 106.952 51.0216 104.328C51.0216 101.496 51.5656 99.04 52.6536 96.96C53.7416 94.864 55.2536 93.24 57.1896 92.088C59.1256 90.936 61.3656 90.36 63.9096 90.36C66.5976 90.36 68.8776 90.992 70.7496 92.256C72.6376 93.504 74.0376 95.272 74.9496 97.56C75.8616 99.848 76.2056 102.544 75.9816 105.648H70.2456V103.536C70.2296 100.72 69.7336 98.664 68.7576 97.368C67.7816 96.072 66.2456 95.424 64.1496 95.424C61.7816 95.424 60.0216 96.16 58.8696 97.632C57.7176 99.088 57.1416 101.224 57.1416 104.04C57.1416 106.664 57.7176 108.696 58.8696 110.136C60.0216 111.576 61.7016 112.296 63.9096 112.296C65.3336 112.296 66.5576 111.984 67.5816 111.36C68.6216 110.72 69.4216 109.8 69.9816 108.6L75.6936 110.328C74.7016 112.664 73.1656 114.48 71.0856 115.776C69.0216 117.072 66.7416 117.72 64.2456 117.72ZM55.3176 105.648V101.28H73.1496V105.648H55.3176ZM81.3366 117V91.08H86.4486V97.392L85.8246 96.576C86.1446 95.712 86.5686 94.928 87.0966 94.224C87.6406 93.504 88.2886 92.912 89.0406 92.448C89.6806 92.016 90.3846 91.68 91.1526 91.44C91.9366 91.184 92.7366 91.032 93.5526 90.984C94.3686 90.92 95.1606 90.952 95.9286 91.08V96.48C95.1606 96.256 94.2726 96.184 93.2646 96.264C92.2726 96.344 91.3766 96.624 90.5766 97.104C89.7766 97.536 89.1206 98.088 88.6086 98.76C88.1126 99.432 87.7446 100.2 87.5046 101.064C87.2646 101.912 87.1446 102.832 87.1446 103.824V117H81.3366ZM100.988 87.144V81.84H106.772V87.144H100.988ZM100.988 117V91.08H106.772V117H100.988ZM125.746 117.72C123.122 117.72 120.818 117.152 118.834 116.016C116.85 114.88 115.298 113.304 114.178 111.288C113.074 109.272 112.522 106.952 112.522 104.328C112.522 101.496 113.066 99.04 114.154 96.96C115.242 94.864 116.754 93.24 118.69 92.088C120.626 90.936 122.866 90.36 125.41 90.36C128.098 90.36 130.378 90.992 132.25 92.256C134.138 93.504 135.538 95.272 136.45 97.56C137.362 99.848 137.706 102.544 137.482 105.648H131.746V103.536C131.73 100.72 131.234 98.664 130.258 97.368C129.282 96.072 127.746 95.424 125.65 95.424C123.282 95.424 121.522 96.16 120.37 97.632C119.218 99.088 118.642 101.224 118.642 104.04C118.642 106.664 119.218 108.696 120.37 110.136C121.522 111.576 123.202 112.296 125.41 112.296C126.834 112.296 128.058 111.984 129.082 111.36C130.122 110.72 130.922 109.8 131.482 108.6L137.194 110.328C136.202 112.664 134.666 114.48 132.586 115.776C130.522 117.072 128.242 117.72 125.746 117.72ZM116.818 105.648V101.28H134.65V105.648H116.818ZM152.845 117.72C149.645 117.72 147.045 117 145.045 115.56C143.045 114.12 141.829 112.096 141.397 109.488L147.301 108.576C147.605 109.856 148.277 110.864 149.317 111.6C150.357 112.336 151.669 112.704 153.253 112.704C154.645 112.704 155.717 112.432 156.469 111.888C157.237 111.328 157.621 110.568 157.621 109.608C157.621 109.016 157.477 108.544 157.189 108.192C156.917 107.824 156.309 107.472 155.365 107.136C154.421 106.8 152.973 106.376 151.021 105.864C148.845 105.288 147.117 104.672 145.837 104.016C144.557 103.344 143.637 102.552 143.077 101.64C142.517 100.728 142.237 99.624 142.237 98.328C142.237 96.712 142.661 95.304 143.509 94.104C144.357 92.904 145.541 91.984 147.061 91.344C148.581 90.688 150.373 90.36 152.437 90.36C154.453 90.36 156.237 90.672 157.789 91.296C159.357 91.92 160.621 92.808 161.581 93.96C162.541 95.112 163.133 96.464 163.357 98.016L157.453 99.072C157.309 97.968 156.805 97.096 155.941 96.456C155.093 95.816 153.957 95.456 152.533 95.376C151.173 95.296 150.077 95.504 149.245 96C148.413 96.48 147.997 97.16 147.997 98.04C147.997 98.536 148.165 98.96 148.501 99.312C148.837 99.664 149.509 100.016 150.517 100.368C151.541 100.72 153.061 101.152 155.077 101.664C157.141 102.192 158.789 102.8 160.021 103.488C161.269 104.16 162.165 104.968 162.709 105.912C163.269 106.856 163.549 108 163.549 109.344C163.549 111.952 162.597 114 160.693 115.488C158.805 116.976 156.189 117.72 152.845 117.72Z" fill="url(#paint1_linear_21_4)"/>
<path d="M3.5475 51H2.5475V52H3.5475V51ZM3.5475 16.44V15.44H2.5475V16.44H3.5475ZM22.9875 17.856L22.4518 18.7005L22.4624 18.707L22.9875 17.856ZM26.3235 21.432L25.4271 21.8753L25.431 21.8831L26.3235 21.432ZM26.0595 30.792L25.2351 30.2259L25.2305 30.2327L26.0595 30.792ZM22.3875 33.48H21.3875V34.8227L22.6739 34.4381L22.3875 33.48ZM22.3875 32.28L22.6097 31.305L21.3875 31.0264V32.28H22.3875ZM27.3315 35.376L26.5177 35.9573L26.5217 35.9627L27.3315 35.376ZM27.8595 46.104L26.9688 45.6494L26.9688 45.6494L27.8595 46.104ZM24.3555 49.704L23.8691 48.8303L23.8652 48.8324L24.3555 49.704ZM9.4035 45.552H8.4035V46.552H9.4035V45.552ZM20.6355 44.952L21.0827 45.8464L21.0898 45.8429L21.0969 45.8392L20.6355 44.952ZM22.5075 43.224L21.6564 42.6989L21.6533 42.7041L22.5075 43.224ZM22.6035 38.064L21.7249 38.5415L21.7249 38.5415L22.6035 38.064ZM20.8515 36.312L20.3476 37.1758L20.3544 37.1797L20.3612 37.1836L20.8515 36.312ZM9.4035 35.64V34.64H8.4035V35.64H9.4035ZM9.4035 30.24H8.4035V31.24H9.4035V30.24ZM20.9715 28.344L20.1198 27.8199L20.1198 27.8199L20.9715 28.344ZM20.3955 23.04L21.1169 22.3475L21.1169 22.3475L20.3955 23.04ZM9.4035 21.84V20.84H8.4035V21.84H9.4035ZM4.5475 51V16.44H2.5475V51H4.5475ZM3.5475 17.44H17.2515V15.44H3.5475V17.44ZM17.2515 17.44C19.4582 17.44 21.1683 17.8861 22.4518 18.7004L23.5232 17.0116C21.8307 15.9379 19.7168 15.44 17.2515 15.44V17.44ZM22.4624 18.707C23.8214 19.5456 24.7975 20.602 25.4271 21.8753L27.2199 20.9887C26.4095 19.35 25.1616 18.0224 23.5126 17.005L22.4624 18.707ZM25.431 21.8831C26.1001 23.2066 26.4275 24.5568 26.4275 25.944H28.4275C28.4275 24.2272 28.0189 22.5694 27.216 20.9809L25.431 21.8831ZM26.4275 25.944C26.4275 27.6835 26.0132 29.093 25.2352 30.2259L26.8838 31.3581C27.9298 29.835 28.4275 28.0125 28.4275 25.944H26.4275ZM25.2305 30.2327C24.4654 31.3667 23.4343 32.1233 22.1011 32.5219L22.6739 34.4381C24.4447 33.9087 25.8616 32.8733 26.8885 31.3513L25.2305 30.2327ZM23.3875 33.48V32.28H21.3875V33.48H23.3875ZM22.1653 33.255C24.1427 33.7057 25.5623 34.6196 26.5178 35.9572L28.1452 34.7948C26.8607 32.9964 24.9843 31.8463 22.6097 31.305L22.1653 33.255ZM26.5217 35.9627C27.5298 37.3541 28.0355 38.9313 28.0355 40.728H30.0355C30.0355 38.5247 29.4052 36.5339 28.1413 34.7893L26.5217 35.9627ZM28.0355 40.728C28.0355 42.6474 27.6687 44.2783 26.9688 45.6494L28.7502 46.5586C29.6183 44.8577 30.0355 42.9046 30.0355 40.728H28.0355ZM26.9688 45.6494C26.2778 47.0031 25.2533 48.0597 23.8691 48.8303L24.8419 50.5777C26.5617 49.6203 27.8732 48.2769 28.7502 46.5586L26.9688 45.6494ZM23.8652 48.8324C22.5161 49.5913 20.7922 50 18.6435 50V52C21.0388 52 23.1229 51.5447 24.8458 50.5756L23.8652 48.8324ZM18.6435 50H3.5475V52H18.6435V50ZM9.4035 46.552H17.9235V44.552H9.4035V46.552ZM17.9235 46.552C19.0669 46.552 20.1271 46.3242 21.0827 45.8464L20.1883 44.0576C19.5439 44.3798 18.7961 44.552 17.9235 44.552V46.552ZM21.0969 45.8392C22.051 45.3431 22.8142 44.6434 23.3617 43.7439L21.6533 42.7041C21.3048 43.2766 20.82 43.7289 20.1741 44.0648L21.0969 45.8392ZM23.3585 43.7491C23.9346 42.8156 24.2035 41.7395 24.2035 40.56H22.2035C22.2035 41.4285 22.0084 42.1284 21.6565 42.6989L23.3585 43.7491ZM24.2035 40.56C24.2035 39.4835 23.9701 38.4844 23.4821 37.5865L21.7249 38.5415C22.0369 39.1156 22.2035 39.7805 22.2035 40.56H24.2035ZM23.4821 37.5865C22.9875 36.6765 22.2648 35.9596 21.3418 35.4404L20.3612 37.1836C20.9742 37.5284 21.4195 37.9795 21.7249 38.5415L23.4821 37.5865ZM21.3554 35.4482C20.4058 34.8943 19.3041 34.64 18.0915 34.64V36.64C19.0229 36.64 19.7612 36.8337 20.3476 37.1758L21.3554 35.4482ZM18.0915 34.64H9.4035V36.64H18.0915V34.64ZM8.4035 35.64V45.552H10.4035V35.64H8.4035ZM9.4035 31.24H17.1795V29.24H9.4035V31.24ZM17.1795 31.24C18.1421 31.24 19.0394 31.0541 19.8499 30.6588L18.9731 28.8612C18.4716 29.1059 17.8809 29.24 17.1795 29.24V31.24ZM19.8499 30.6588C20.6771 30.2553 21.3401 29.653 21.8232 28.8681L20.1198 27.8199C19.8349 28.283 19.4579 28.6247 18.9731 28.8612L19.8499 30.6588ZM21.8232 28.8681C22.3253 28.0521 22.5475 27.092 22.5475 26.04H20.5475C20.5475 26.812 20.3857 27.3879 20.1198 27.8199L21.8232 28.8681ZM22.5475 26.04C22.5475 24.6051 22.0791 23.3498 21.1169 22.3475L19.6741 23.7325C20.2479 24.3302 20.5475 25.0749 20.5475 26.04H22.5475ZM21.1169 22.3475C20.1169 21.3058 18.7579 20.84 17.1795 20.84V22.84C18.3531 22.84 19.1381 23.1742 19.6741 23.7325L21.1169 22.3475ZM17.1795 20.84H9.4035V22.84H17.1795V20.84ZM8.4035 21.84V30.24H10.4035V21.84H8.4035ZM38.7968 50.784L38.3404 51.6738L38.3404 51.6738L38.7968 50.784ZM35.8208 48.336L35.0177 48.9318L35.0177 48.9318L35.8208 48.336ZM33.4928 42L32.4973 42.0948L32.4981 42.1035L32.4991 42.1122L33.4928 42ZM33.3488 25.08V24.08H32.3488V25.08H33.3488ZM39.2048 25.08H40.2048V24.08H39.2048V25.08ZM39.3728 40.272L38.3789 40.3824L38.3791 40.3842L39.3728 40.272ZM40.1408 43.152L39.2224 43.5478L39.2266 43.5575L39.2309 43.567L40.1408 43.152ZM41.9648 45.408L41.3699 46.2119L41.3775 46.2174L41.9648 45.408ZM47.4368 45.936L47.1205 44.9873L47.1205 44.9873L47.4368 45.936ZM50.7968 42.288L51.7424 42.6131L51.7424 42.6131L50.7968 42.288ZM51.3248 38.4L51.7171 37.4802L50.3248 36.8862V38.4H51.3248ZM54.7568 39.864H55.7568V39.2034L55.1491 38.9442L54.7568 39.864ZM53.4608 45.864L52.56 45.4297L52.5568 45.4363L53.4608 45.864ZM49.6928 50.16L50.2286 51.0043L50.2343 51.0007L49.6928 50.16ZM52.0208 51H51.0208V52H52.0208V51ZM52.0208 42.96H53.0208V41.96H52.0208V42.96ZM51.3248 42.96H50.3248V43.96H51.3248V42.96ZM51.3248 25.08V24.08H50.3248V25.08H51.3248ZM57.1328 25.08H58.1328V24.08H57.1328V25.08ZM57.1328 51V52H58.1328V51H57.1328ZM43.5488 50.744C41.7319 50.744 40.3176 50.4401 39.2531 49.8942L38.3404 51.6738C39.7719 52.4079 41.5256 52.744 43.5488 52.744V50.744ZM39.2531 49.8942C38.1231 49.3147 37.2567 48.5931 36.6238 47.7402L35.0177 48.9318C35.8568 50.0629 36.9744 50.9733 38.3404 51.6738L39.2531 49.8942ZM36.6238 47.7402C35.9508 46.833 35.4596 45.8763 35.1427 44.8682L33.2348 45.4678C33.6219 46.6997 34.2187 47.855 35.0177 48.9318L36.6238 47.7402ZM35.1427 44.8682C34.8067 43.7989 34.5901 42.8062 34.4864 41.8878L32.4991 42.1122C32.6194 43.1778 32.8668 44.2971 33.2348 45.4678L35.1427 44.8682ZM34.4882 41.9052C34.3936 40.9119 34.3488 40.1311 34.3488 39.552H32.3488C32.3488 40.2209 32.3999 41.0721 32.4973 42.0948L34.4882 41.9052ZM34.3488 39.552V25.08H32.3488V39.552H34.3488ZM33.3488 26.08H39.2048V24.08H33.3488V26.08ZM38.2048 25.08V37.56H40.2048V25.08H38.2048ZM38.2048 37.56C38.2048 38.4051 38.2638 39.347 38.3789 40.3824L40.3666 40.1616C40.2577 39.181 40.2048 38.3149 40.2048 37.56H38.2048ZM38.3791 40.3842C38.5022 41.4751 38.784 42.5306 39.2224 43.5478L41.0591 42.7562C40.6975 41.9174 40.4673 41.0529 40.3664 40.1598L38.3791 40.3842ZM39.2309 43.567C39.7167 44.6321 40.4326 45.5183 41.3699 46.2118L42.5596 44.6042C41.8969 44.1137 41.3968 43.4959 41.0506 42.737L39.2309 43.567ZM41.3775 46.2174C42.4166 46.9713 43.7413 47.296 45.2528 47.296V45.296C44.0122 45.296 43.1449 45.0287 42.552 44.5986L41.3775 46.2174ZM45.2528 47.296C46.0996 47.296 46.9342 47.1576 47.753 46.8847L47.1205 44.9873C46.4993 45.1944 45.8779 45.296 45.2528 45.296V47.296ZM47.753 46.8847C48.6309 46.592 49.4103 46.0967 50.0879 45.4191L48.6736 44.0049C48.1992 44.4793 47.6826 44.8 47.1205 44.9873L47.753 46.8847ZM50.0879 45.4191C50.8142 44.6928 51.355 43.7402 51.7424 42.6131L49.8511 41.9629C49.5345 42.8838 49.1313 43.5472 48.6736 44.0049L50.0879 45.4191ZM51.7424 42.6131C52.1426 41.449 52.3248 40.0335 52.3248 38.4H50.3248C50.3248 39.9025 50.1549 41.079 49.8511 41.9629L51.7424 42.6131ZM50.9324 39.3198L54.3644 40.7838L55.1491 38.9442L51.7171 37.4802L50.9324 39.3198ZM53.7568 39.864C53.7568 41.9383 53.3518 43.7874 52.56 45.4297L54.3615 46.2983C55.2977 44.3566 55.7568 42.2057 55.7568 39.864H53.7568ZM52.5568 45.4363C51.7886 47.0598 50.658 48.3486 49.1512 49.3193L50.2343 51.0007C52.0555 49.8274 53.4369 48.2522 54.3647 46.2917L52.5568 45.4363ZM49.1569 49.3157C47.6869 50.2485 45.8354 50.744 43.5488 50.744V52.744C46.1261 52.744 48.3706 52.1835 50.2286 51.0043L49.1569 49.3157ZM53.0208 51V42.96H51.0208V51H53.0208ZM52.0208 41.96H51.3248V43.96H52.0208V41.96ZM52.3248 42.96V25.08H50.3248V42.96H52.3248ZM51.3248 26.08H57.1328V24.08H51.3248V26.08ZM56.1328 25.08V51H58.1328V25.08H56.1328ZM57.1328 50H52.0208V52H57.1328V50ZM63.8756 51H62.8756V52H63.8756V51ZM63.8756 25.08V24.08H62.8756V25.08H63.8756ZM68.9876 25.08H69.9876V24.08H68.9876V25.08ZM68.9876 31.392L68.1933 31.9994L69.9876 34.3459V31.392H68.9876ZM68.3636 30.576L67.4259 30.2287L67.2344 30.7456L67.5693 31.1834L68.3636 30.576ZM69.6356 28.224L68.8378 27.6212L68.8356 27.624L69.6356 28.224ZM71.5796 26.448L72.1047 27.299L72.1221 27.2883L72.1391 27.2768L71.5796 26.448ZM73.6916 25.44L73.9899 26.3946L74.002 26.3906L73.6916 25.44ZM76.0916 24.984L76.1503 25.9823L76.1601 25.9817L76.1698 25.9809L76.0916 24.984ZM78.4676 25.08H79.4676V24.2329L78.632 24.0936L78.4676 25.08ZM78.4676 30.48L78.1876 31.44L79.4676 31.8133V30.48H78.4676ZM75.8036 30.264L75.7245 29.2671L75.7232 29.2672L75.8036 30.264ZM73.1156 31.104L73.5908 31.9839L73.6107 31.9731L73.6301 31.9615L73.1156 31.104ZM71.1476 32.76L70.3522 32.154L70.3476 32.16L70.3431 32.1661L71.1476 32.76ZM70.0436 35.064L71.0058 35.3363L71.0071 35.3316L70.0436 35.064ZM69.6836 51V52H70.6836V51H69.6836ZM64.8756 51V25.08H62.8756V51H64.8756ZM63.8756 26.08H68.9876V24.08H63.8756V26.08ZM67.9876 25.08V31.392H69.9876V25.08H67.9876ZM69.782 30.7845L69.158 29.9685L67.5693 31.1834L68.1933 31.9994L69.782 30.7845ZM69.3014 30.9233C69.5895 30.1455 69.9682 29.4473 70.4356 28.824L68.8356 27.624C68.2471 28.4087 67.7778 29.2785 67.4259 30.2287L69.3014 30.9233ZM70.4335 28.8268C70.9044 28.2036 71.4605 27.6965 72.1047 27.299L71.0545 25.597C70.1947 26.1275 69.4549 26.8044 68.8378 27.6212L70.4335 28.8268ZM72.1391 27.2768C72.6953 26.9014 73.3107 26.6067 73.9899 26.3945L73.3934 24.4855C72.5366 24.7533 71.744 25.1306 71.0202 25.6192L72.1391 27.2768ZM74.002 26.3906C74.7053 26.161 75.4207 26.0252 76.1503 25.9823L76.0329 23.9857C75.1305 24.0388 74.246 24.207 73.3812 24.4894L74.002 26.3906ZM76.1698 25.9809C76.909 25.923 77.6194 25.9524 78.3032 26.0664L78.632 24.0936C77.7799 23.9516 76.9063 23.917 76.0134 23.9871L76.1698 25.9809ZM77.4676 25.08V30.48H79.4676V25.08H77.4676ZM78.7476 29.52C77.8369 29.2544 76.8229 29.18 75.7245 29.2671L75.8827 31.2609C76.8004 31.188 77.5623 31.2576 78.1876 31.44L78.7476 29.52ZM75.7232 29.2672C74.5882 29.3588 73.5419 29.682 72.6011 30.2465L73.6301 31.9615C74.2893 31.566 75.035 31.3292 75.884 31.2608L75.7232 29.2672ZM72.6405 30.2241C71.7251 30.7184 70.9567 31.3605 70.3522 32.154L71.9431 33.366C72.3625 32.8155 72.9061 32.3536 73.5908 31.9839L72.6405 30.2241ZM70.3431 32.1661C69.7694 32.9433 69.3503 33.8235 69.0801 34.7964L71.0071 35.3316C71.2169 34.5765 71.5338 33.9207 71.9522 33.3539L70.3431 32.1661ZM69.0814 34.7917C68.8134 35.7386 68.6836 36.7513 68.6836 37.824H70.6836C70.6836 36.9127 70.7938 36.0854 71.0058 35.3363L69.0814 34.7917ZM68.6836 37.824V51H70.6836V37.824H68.6836ZM69.6836 50H63.8756V52H69.6836V50ZM100.976 51H99.9755V52H100.976V51ZM100.808 35.808L101.801 35.6958L101.801 35.6958L100.808 35.808ZM100.016 32.952L99.0972 33.3478L99.1013 33.3575L99.1057 33.367L100.016 32.952ZM98.1915 30.672L97.5966 31.4759L97.6043 31.4814L98.1915 30.672ZM92.7435 30.144L93.0597 31.0927L93.0597 31.0927L92.7435 30.144ZM90.7755 31.392L90.0684 30.6849L90.0684 30.6849L90.7755 31.392ZM89.3835 33.792L90.3276 34.1217L90.3292 34.1171L89.3835 33.792ZM88.8555 37.68L88.4631 38.5998L89.8555 39.1938V37.68H88.8555ZM85.4235 36.216H84.4235V36.8766L85.0311 37.1358L85.4235 36.216ZM86.6955 30.216L85.7947 29.7817L85.7916 29.7883L86.6955 30.216ZM90.4875 25.944L91.0233 26.7883L91.0291 26.7847L90.4875 25.944ZM101.384 25.296L101.84 24.4062L101.84 24.4062L101.384 25.296ZM104.359 27.744L103.556 28.3398L103.556 28.3398L104.359 27.744ZM105.992 30.912L106.945 30.6122L106.945 30.6122L105.992 30.912ZM106.664 34.104L105.668 34.1988L105.669 34.2075L105.67 34.2162L106.664 34.104ZM106.832 51V52H107.832V51H106.832ZM82.9995 51H81.9995V52H82.9995V51ZM82.9995 25.08V24.08H81.9995V25.08H82.9995ZM88.1595 25.08H89.1595V24.08H88.1595V25.08ZM88.1595 33.12H87.1595V34.12H88.1595V33.12ZM88.8555 33.12H89.8555V32.12H88.8555V33.12ZM88.8555 51V52H89.8555V51H88.8555ZM101.976 51V38.52H99.9755V51H101.976ZM101.976 38.52C101.976 37.6593 101.917 36.7172 101.801 35.6958L99.8138 35.9202C99.9225 36.8828 99.9755 37.7487 99.9755 38.52H101.976ZM101.801 35.6958C101.677 34.5986 101.385 33.5445 100.925 32.537L99.1057 33.367C99.4781 34.1835 99.7137 35.0334 99.8138 35.9202L101.801 35.6958ZM100.934 32.5562C100.463 31.4635 99.7406 30.5604 98.7787 29.8626L97.6043 31.4814C98.2744 31.9676 98.7682 32.5845 99.0972 33.3478L100.934 32.5562ZM98.7863 29.8682C97.7593 29.1081 96.4375 28.784 94.9275 28.784V30.784C96.1695 30.784 97.0237 31.0519 97.5967 31.4758L98.7863 29.8682ZM94.9275 28.784C94.0807 28.784 93.246 28.9224 92.4273 29.1953L93.0597 31.0927C93.681 30.8856 94.3023 30.784 94.9275 30.784V28.784ZM92.4273 29.1953C91.5453 29.4893 90.7587 29.9946 90.0684 30.6849L91.4826 32.0991C91.9763 31.6054 92.5017 31.2787 93.0597 31.0927L92.4273 29.1953ZM90.0684 30.6849C89.3555 31.3978 88.8237 32.3443 88.4378 33.4669L90.3292 34.1171C90.6473 33.1917 91.0435 32.5382 91.4826 32.0991L90.0684 30.6849ZM88.4394 33.4623C88.0371 34.6143 87.8555 36.0327 87.8555 37.68H89.8555C89.8555 36.1593 90.0259 34.9857 90.3276 34.1217L88.4394 33.4623ZM89.2479 36.7602L85.8159 35.2962L85.0311 37.1358L88.4631 38.5998L89.2479 36.7602ZM86.4235 36.216C86.4235 34.139 86.8216 32.2875 87.5994 30.6437L85.7916 29.7883C84.8734 31.7285 84.4235 33.877 84.4235 36.216H86.4235ZM87.5963 30.6503C88.3801 29.0247 89.5184 27.7434 91.0233 26.7883L89.9517 25.0997C88.1286 26.2566 86.7389 27.8233 85.7947 29.7817L87.5963 30.6503ZM91.0291 26.7847C92.4982 25.8382 94.3475 25.336 96.6315 25.336V23.336C94.0515 23.336 91.8048 23.9058 89.9459 25.1033L91.0291 26.7847ZM96.6315 25.336C98.4484 25.336 99.8627 25.6399 100.927 26.1858L101.84 24.4062C100.408 23.6721 98.6546 23.336 96.6315 23.336V25.336ZM100.927 26.1858C102.057 26.7653 102.924 27.4869 103.556 28.3398L105.163 27.1482C104.323 26.0171 103.206 25.1067 101.84 24.4062L100.927 26.1858ZM103.556 28.3398C104.229 29.247 104.721 30.2037 105.038 31.2118L106.945 30.6122C106.558 29.3803 105.962 28.225 105.163 27.1482L103.556 28.3398ZM105.038 31.2118C105.372 32.2754 105.58 33.2704 105.668 34.1988L107.659 34.0092C107.555 32.9216 107.315 31.7886 106.945 30.6122L105.038 31.2118ZM105.67 34.2162C105.78 35.1902 105.832 35.9568 105.832 36.528H107.832C107.832 35.8512 107.771 35.0018 107.657 33.9918L105.67 34.2162ZM105.832 36.528V51H107.832V36.528H105.832ZM106.832 50H100.976V52H106.832V50ZM83.9995 51V25.08H81.9995V51H83.9995ZM82.9995 26.08H88.1595V24.08H82.9995V26.08ZM87.1595 25.08V33.12H89.1595V25.08H87.1595ZM88.1595 34.12H88.8555V32.12H88.1595V34.12ZM87.8555 33.12V51H89.8555V33.12H87.8555ZM88.8555 50H82.9995V52H88.8555V50ZM113.574 21.144H112.574V22.144H113.574V21.144ZM113.574 15.84V14.84H112.574V15.84H113.574ZM119.358 15.84H120.358V14.84H119.358V15.84ZM119.358 21.144V22.144H120.358V21.144H119.358ZM113.574 51H112.574V52H113.574V51ZM113.574 25.08V24.08H112.574V25.08H113.574ZM119.358 25.08H120.358V24.08H119.358V25.08ZM119.358 51V52H120.358V51H119.358ZM114.574 21.144V15.84H112.574V21.144H114.574ZM113.574 16.84H119.358V14.84H113.574V16.84ZM118.358 15.84V21.144H120.358V15.84H118.358ZM119.358 20.144H113.574V22.144H119.358V20.144ZM114.574 51V25.08H112.574V51H114.574ZM113.574 26.08H119.358V24.08H113.574V26.08ZM118.358 25.08V51H120.358V25.08H118.358ZM119.358 50H113.574V52H119.358V50ZM144.476 51H143.476V52H144.476V51ZM144.308 35.808L145.301 35.6958L145.301 35.6958L144.308 35.808ZM143.516 32.952L142.597 33.3478L142.601 33.3575L142.606 33.367L143.516 32.952ZM141.692 30.672L141.097 31.4759L141.104 31.4814L141.692 30.672ZM136.244 30.144L136.56 31.0927L136.56 31.0927L136.244 30.144ZM134.276 31.392L133.568 30.6849L133.568 30.6849L134.276 31.392ZM132.884 33.792L133.828 34.1217L133.829 34.1171L132.884 33.792ZM132.356 37.68L131.963 38.5998L133.356 39.1938V37.68H132.356ZM128.924 36.216H127.924V36.8766L128.531 37.1358L128.924 36.216ZM130.196 30.216L129.295 29.7817L129.292 29.7883L130.196 30.216ZM133.988 25.944L134.523 26.7883L134.529 26.7847L133.988 25.944ZM144.884 25.296L145.34 24.4062L145.34 24.4062L144.884 25.296ZM147.859 27.744L147.056 28.3398L147.056 28.3398L147.859 27.744ZM149.492 30.912L150.445 30.6122L150.445 30.6122L149.492 30.912ZM150.164 34.104L149.168 34.1988L149.169 34.2075L149.17 34.2162L150.164 34.104ZM150.332 51V52H151.332V51H150.332ZM126.5 51H125.5V52H126.5V51ZM126.5 25.08V24.08H125.5V25.08H126.5ZM131.66 25.08H132.66V24.08H131.66V25.08ZM131.66 33.12H130.66V34.12H131.66V33.12ZM132.356 33.12H133.356V32.12H132.356V33.12ZM132.356 51V52H133.356V51H132.356ZM145.476 51V38.52H143.476V51H145.476ZM145.476 38.52C145.476 37.6593 145.417 36.7172 145.301 35.6958L143.314 35.9202C143.422 36.8828 143.476 37.7487 143.476 38.52H145.476ZM145.301 35.6958C145.177 34.5986 144.885 33.5445 144.425 32.537L142.606 33.367C142.978 34.1835 143.214 35.0334 143.314 35.9202L145.301 35.6958ZM144.434 32.5562C143.963 31.4635 143.241 30.5604 142.279 29.8626L141.104 31.4814C141.774 31.9676 142.268 32.5845 142.597 33.3478L144.434 32.5562ZM142.286 29.8682C141.259 29.1081 139.937 28.784 138.428 28.784V30.784C139.67 30.784 140.524 31.0519 141.097 31.4758L142.286 29.8682ZM138.428 28.784C137.581 28.784 136.746 28.9224 135.927 29.1953L136.56 31.0927C137.181 30.8856 137.802 30.784 138.428 30.784V28.784ZM135.927 29.1953C135.045 29.4893 134.259 29.9946 133.568 30.6849L134.983 32.0991C135.476 31.6054 136.002 31.2787 136.56 31.0927L135.927 29.1953ZM133.568 30.6849C132.855 31.3978 132.324 32.3443 131.938 33.4669L133.829 34.1171C134.147 33.1917 134.544 32.5382 134.983 32.0991L133.568 30.6849ZM131.939 33.4623C131.537 34.6143 131.356 36.0327 131.356 37.68H133.356C133.356 36.1593 133.526 34.9857 133.828 34.1217L131.939 33.4623ZM132.748 36.7602L129.316 35.2962L128.531 37.1358L131.963 38.5998L132.748 36.7602ZM129.924 36.216C129.924 34.139 130.322 32.2875 131.099 30.6437L129.292 29.7883C128.373 31.7285 127.924 33.877 127.924 36.216H129.924ZM131.096 30.6503C131.88 29.0247 133.018 27.7434 134.523 26.7883L133.452 25.0997C131.629 26.2566 130.239 27.8233 129.295 29.7817L131.096 30.6503ZM134.529 26.7847C135.998 25.8382 137.847 25.336 140.132 25.336V23.336C137.552 23.336 135.305 23.9058 133.446 25.1033L134.529 26.7847ZM140.132 25.336C141.948 25.336 143.363 25.6399 144.427 26.1858L145.34 24.4062C143.908 23.6721 142.155 23.336 140.132 23.336V25.336ZM144.427 26.1858C145.557 26.7653 146.424 27.4869 147.056 28.3398L148.663 27.1482C147.823 26.0171 146.706 25.1067 145.34 24.4062L144.427 26.1858ZM147.056 28.3398C147.729 29.247 148.221 30.2037 148.538 31.2118L150.445 30.6122C150.058 29.3803 149.462 28.225 148.663 27.1482L147.056 28.3398ZM148.538 31.2118C148.872 32.2754 149.08 33.2704 149.168 34.1988L151.159 34.0092C151.055 32.9216 150.815 31.7886 150.445 30.6122L148.538 31.2118ZM149.17 34.2162C149.28 35.1902 149.332 35.9568 149.332 36.528H151.332C151.332 35.8512 151.271 35.0018 151.157 33.9918L149.17 34.2162ZM149.332 36.528V51H151.332V36.528H149.332ZM150.332 50H144.476V52H150.332V50ZM127.5 51V25.08H125.5V51H127.5ZM126.5 26.08H131.66V24.08H126.5V26.08ZM130.66 25.08V33.12H132.66V25.08H130.66ZM131.66 34.12H132.356V32.12H131.66V34.12ZM131.356 33.12V51H133.356V33.12H131.356ZM132.356 50H126.5V52H132.356V50ZM163.338 62.568L163.015 63.5144L163.019 63.5155L163.338 62.568ZM159.786 60.624L160.413 59.8443L160.405 59.8385L159.786 60.624ZM157.194 57.6L156.75 56.704L155.803 57.1736L156.325 58.0936L157.194 57.6ZM162.522 54.96L163.408 54.4949L162.953 53.6304L162.078 54.064L162.522 54.96ZM164.61 57.048L165.064 56.1567L165.058 56.1536L164.61 57.048ZM170.73 57.096L170.327 56.1808L170.314 56.1867L170.73 57.096ZM172.914 55.224L172.075 54.6807L172.069 54.6903L172.063 54.6999L172.914 55.224ZM173.658 52.152H172.658V52.165L172.659 52.178L173.658 52.152ZM173.658 44.784V43.784H172.658V44.784H173.658ZM174.378 44.784V45.784H175.378V44.784H174.378ZM174.378 25.08V24.08H173.378V25.08H174.378ZM179.442 25.08H180.442V24.08H179.442V25.08ZM179.346 54.12L178.352 54.0125L178.351 54.0269L178.349 54.0413L179.346 54.12ZM179.082 55.896L180.057 56.1188L180.059 56.1129L179.082 55.896ZM176.874 60.024L176.173 59.3117L176.167 59.3169L176.874 60.024ZM172.818 62.448L172.508 61.4974L172.505 61.4984L172.818 62.448ZM160.746 49.92L161.306 49.0914L161.306 49.0914L160.746 49.92ZM156.618 45.024L155.714 45.4515L155.714 45.4515L156.618 45.024ZM156.618 31.032L155.717 30.5988L155.716 30.6018L156.618 31.032ZM160.818 26.16L161.366 26.9966L161.371 26.9932L160.818 26.16ZM173.394 26.16L172.809 26.9711L172.818 26.9774L173.394 26.16ZM177.21 45.024L178.133 45.4101L178.134 45.4076L177.21 45.024ZM173.346 49.92L173.92 50.7389L173.92 50.7389L173.346 49.92ZM171.618 45.48L172.216 46.2816L172.218 46.28L171.618 45.48ZM173.706 42.48L172.762 42.1496L172.759 42.1602L173.706 42.48ZM173.706 33.6L172.759 33.9198L172.761 33.9269L172.764 33.9341L173.706 33.6ZM171.666 30.624L171.053 31.4141L171.062 31.4207L171.666 30.624ZM164.226 30.696L164.824 31.4976L164.832 31.4914L164.226 30.696ZM161.994 33.768L162.931 34.1191L162.932 34.1153L161.994 33.768ZM161.97 42.36L161.029 42.6971L161.031 42.7041L161.034 42.7111L161.97 42.36ZM164.154 45.408L163.544 46.2001L163.544 46.2001L164.154 45.408ZM167.49 62.24C166.156 62.24 164.88 62.0328 163.658 61.6205L163.019 63.5155C164.453 63.9992 165.945 64.24 167.49 64.24V62.24ZM163.662 61.6217C162.457 61.2103 161.376 60.6178 160.413 59.8443L159.16 61.4037C160.309 62.3262 161.596 63.0297 163.015 63.5144L163.662 61.6217ZM160.405 59.8385C159.452 59.0877 158.673 58.1792 158.064 57.1064L156.325 58.0936C157.06 59.3888 158.008 60.4963 159.168 61.4095L160.405 59.8385ZM157.638 58.496L162.966 55.856L162.078 54.064L156.75 56.704L157.638 58.496ZM161.637 55.4251C162.224 56.5419 163.067 57.3945 164.163 57.9424L165.058 56.1536C164.361 55.8055 163.813 55.2661 163.408 54.4949L161.637 55.4251ZM164.157 57.9393C165.209 58.4748 166.333 58.744 167.514 58.744V56.744C166.648 56.744 165.835 56.5492 165.064 56.1567L164.157 57.9393ZM167.514 58.744C168.836 58.744 170.053 58.5057 171.146 58.0053L170.314 56.1867C169.52 56.5503 168.593 56.744 167.514 56.744V58.744ZM171.134 58.0111C172.252 57.5181 173.142 56.7629 173.766 55.7481L172.063 54.6999C171.663 55.3492 171.096 55.8419 170.327 56.1809L171.134 58.0111ZM173.754 55.7673C174.418 54.7417 174.694 53.5056 174.658 52.126L172.659 52.178C172.687 53.2624 172.467 54.0743 172.075 54.6807L173.754 55.7673ZM174.658 52.152V44.784H172.658V52.152H174.658ZM173.658 45.784H174.378V43.784H173.658V45.784ZM175.378 44.784V25.08H173.378V44.784H175.378ZM174.378 26.08H179.442V24.08H174.378V26.08ZM178.442 25.08V52.248H180.442V25.08H178.442ZM178.442 52.248C178.442 52.8717 178.412 53.4596 178.352 54.0125L180.341 54.2275C180.409 53.5964 180.442 52.9363 180.442 52.248H178.442ZM178.349 54.0413C178.305 54.6044 178.224 55.1501 178.106 55.6791L180.059 56.1129C180.197 55.4899 180.292 54.8516 180.343 54.1987L178.349 54.0413ZM178.108 55.6732C177.76 57.1919 177.108 58.3901 176.173 59.3117L177.576 60.7363C178.817 59.5139 179.636 57.9601 180.057 56.1188L178.108 55.6732ZM176.167 59.3169C175.202 60.2824 173.99 61.0131 172.508 61.4975L173.129 63.3985C174.879 62.8269 176.371 61.9416 177.581 60.7311L176.167 59.3169ZM172.505 61.4984C171.021 61.9882 169.352 62.24 167.49 62.24V64.24C169.532 64.24 171.416 63.9638 173.132 63.3976L172.505 61.4984ZM166.986 50.72C164.779 50.72 162.899 50.1673 161.306 49.0914L160.187 50.7486C162.146 52.0727 164.426 52.72 166.986 52.72V50.72ZM161.306 49.0914C159.689 47.9984 158.427 46.5093 157.522 44.5965L155.714 45.4515C156.762 47.6667 158.252 49.4416 160.187 50.7486L161.306 49.0914ZM157.522 44.5965C156.618 42.6832 156.154 40.5042 156.154 38.04H154.154C154.154 40.7598 154.667 43.2368 155.714 45.4515L157.522 44.5965ZM156.154 38.04C156.154 35.5416 156.618 33.3563 157.521 31.4622L155.716 30.6018C154.666 32.8037 154.154 35.2904 154.154 38.04H156.154ZM157.52 31.4652C158.438 29.5551 159.72 28.0748 161.366 26.9966L160.271 25.3234C158.301 26.6132 156.783 28.3809 155.717 30.5988L157.52 31.4652ZM161.371 26.9932C162.995 25.9155 164.925 25.36 167.202 25.36V23.36C164.584 23.36 162.258 24.0045 160.265 25.3268L161.371 26.9932ZM167.202 25.36C169.5 25.36 171.348 25.917 172.809 26.9711L173.979 25.3489C172.113 24.003 169.833 23.36 167.202 23.36V25.36ZM172.818 26.9774C174.331 28.0435 175.49 29.5116 176.288 31.4181L178.133 30.6459C177.203 28.4244 175.818 26.6445 173.97 25.3426L172.818 26.9774ZM176.288 31.4181C177.093 33.3413 177.506 35.5429 177.506 38.04H179.506C179.506 35.3211 179.056 32.8507 178.133 30.6459L176.288 31.4181ZM177.506 38.04C177.506 40.5031 177.094 42.6982 176.287 44.6404L178.134 45.4076C179.055 43.1898 179.506 40.7289 179.506 38.04H177.506ZM176.288 44.6379C175.492 46.5404 174.319 48.0172 172.772 49.1011L173.92 50.7389C175.798 49.4228 177.201 47.6356 178.133 45.4101L176.288 44.6379ZM172.772 49.1011C171.261 50.1604 169.353 50.72 166.986 50.72V52.72C169.676 52.72 172.008 52.0796 173.92 50.7389L172.772 49.1011ZM167.874 47.536C169.574 47.536 171.052 47.15 172.216 46.2816L171.021 44.6784C170.297 45.218 169.279 45.536 167.874 45.536V47.536ZM172.218 46.28C173.36 45.4238 174.166 44.2463 174.654 42.7998L172.759 42.1602C172.383 43.2737 171.797 44.0962 171.018 44.68L172.218 46.28ZM174.65 42.8103C175.143 41.4023 175.378 39.8067 175.378 38.04H173.378C173.378 39.6333 173.166 40.9977 172.763 42.1496L174.65 42.8103ZM175.378 38.04C175.378 36.259 175.143 34.6613 174.649 33.2659L172.764 33.9341C173.165 35.0667 173.378 36.429 173.378 38.04H175.378ZM174.654 33.2802C174.168 31.8416 173.383 30.6708 172.271 29.8273L171.062 31.4207C171.806 31.9852 172.38 32.7984 172.759 33.9198L174.654 33.2802ZM172.279 29.8339C171.136 28.9465 169.703 28.544 168.066 28.544V30.544C169.374 30.544 170.341 30.8615 171.053 31.4141L172.279 29.8339ZM168.066 28.544C166.346 28.544 164.839 28.9723 163.62 29.9006L164.832 31.4914C165.63 30.8837 166.683 30.544 168.066 30.544V28.544ZM163.628 29.8945C162.451 30.7732 161.597 31.9623 161.057 33.4207L162.932 34.1153C163.352 32.9817 163.986 32.1228 164.824 31.4975L163.628 29.8945ZM161.058 33.4169C160.53 34.8244 160.274 36.3695 160.274 38.04H162.274C162.274 36.5745 162.499 35.2716 162.931 34.1191L161.058 33.4169ZM160.274 38.04C160.274 39.7218 160.521 41.278 161.029 42.6971L162.912 42.0229C162.492 40.85 162.274 39.5262 162.274 38.04H160.274ZM161.034 42.7111C161.572 44.1459 162.405 45.3222 163.544 46.2001L164.765 44.6159C163.952 43.9898 163.329 43.1341 162.907 42.0089L161.034 42.7111ZM163.544 46.2001C164.731 47.1145 166.2 47.536 167.874 47.536V45.536C166.541 45.536 165.53 45.2055 164.765 44.6159L163.544 46.2001ZM26.8667 116.4L26.4666 117.316L26.4693 117.318L26.8667 116.4ZM21.8747 112.632L21.0886 113.25L21.0953 113.259L21.8747 112.632ZM19.4027 106.776L19.2524 105.787L18.2599 105.938L18.4146 106.93L19.4027 106.776ZM25.4027 105.864L26.3728 105.621L26.1521 104.739L25.2524 104.875L25.4027 105.864ZM28.5467 110.616L27.9694 111.433L27.9732 111.435L28.5467 110.616ZM37.5467 111.72L37.8795 112.663L37.8795 112.663L37.5467 111.72ZM40.1867 110.04L39.4561 109.357L39.4482 109.366L40.1867 110.04ZM40.9787 106.008L40.0453 106.367L40.0502 106.379L40.9787 106.008ZM40.2587 104.904L39.5337 105.593L39.5425 105.602L39.5516 105.611L40.2587 104.904ZM39.0587 104.04L38.5657 104.91L38.5827 104.92L38.6 104.929L39.0587 104.04ZM37.3787 103.344L37.666 102.386L37.6623 102.385L37.3787 103.344ZM28.4507 100.704L28.7343 99.745L28.7307 99.744L28.4507 100.704ZM25.9547 99.816L25.5547 100.733L25.5647 100.737L25.5748 100.741L25.9547 99.816ZM23.4347 98.256L22.7839 99.0153L22.7922 99.0224L22.8006 99.0293L23.4347 98.256ZM21.4907 95.712L20.5881 96.1425L20.5921 96.1509L20.5963 96.1592L21.4907 95.712ZM22.4267 86.28L21.6257 85.6813L21.6246 85.6827L22.4267 86.28ZM26.9867 82.872L26.622 81.9409L26.6193 81.9419L26.9867 82.872ZM33.3707 81.768L33.3638 82.768L33.3639 82.768L33.3707 81.768ZM39.7067 82.992L39.3108 83.9103L39.3176 83.9132L39.7067 82.992ZM44.3627 86.424L45.1323 85.7854L45.1323 85.7854L44.3627 86.424ZM47.0027 91.872L47.1739 92.8572L48.2244 92.6747L47.9749 91.6381L47.0027 91.872ZM40.7867 92.952L39.8081 93.158L40.007 94.1025L40.9579 93.9372L40.7867 92.952ZM39.2987 89.856L38.5305 90.4962L38.5369 90.5039L38.5435 90.5115L39.2987 89.856ZM36.6347 87.888L36.2391 88.8064L36.2441 88.8086L36.6347 87.888ZM33.2987 87.168L33.3257 86.1683L33.3126 86.1681L33.2987 87.168ZM30.0827 87.696L30.422 88.6367L30.4305 88.6336L30.0827 87.696ZM27.7067 89.232L26.9651 88.561L26.9563 88.571L27.7067 89.232ZM27.5867 93.672L26.8585 94.3574L26.8636 94.3628L26.8688 94.3681L27.5867 93.672ZM29.4827 94.944L29.0911 95.8642L29.1028 95.8691L29.1146 95.8738L29.4827 94.944ZM31.8107 95.712L32.0795 94.7487L32.0671 94.7454L31.8107 95.712ZM38.0027 97.44L37.7339 98.4033L37.7473 98.4068L38.0027 97.44ZM40.8587 98.352L40.5169 99.2918L40.5169 99.2918L40.8587 98.352ZM46.3067 102.672L45.4331 103.159L45.4384 103.168L46.3067 102.672ZM46.1387 111.672L45.2636 111.188L45.2616 111.192L46.1387 111.672ZM43.1387 115.032L43.717 115.848L43.717 115.848L43.1387 115.032ZM38.7947 117.048L38.53 116.084L38.5275 116.084L38.7947 117.048ZM33.7067 116.72C31.2961 116.72 29.1541 116.301 27.2641 115.482L26.4693 117.318C28.6433 118.259 31.0613 118.72 33.7067 118.72V116.72ZM27.2667 115.484C25.391 114.665 23.8597 113.505 22.6541 112.005L21.0953 113.259C22.5136 115.023 24.3103 116.375 26.4666 117.316L27.2667 115.484ZM22.6607 112.014C21.48 110.512 20.7187 108.724 20.3907 106.622L18.4146 106.93C18.7907 109.34 19.6773 111.456 21.0886 113.25L22.6607 112.014ZM19.553 107.765L25.553 106.853L25.2524 104.875L19.2524 105.787L19.553 107.765ZM24.4325 106.107C24.9971 108.365 26.1722 110.162 27.9694 111.433L29.124 109.799C27.7532 108.83 26.8323 107.459 26.3728 105.621L24.4325 106.107ZM27.9732 111.435C29.7525 112.681 31.7956 113.296 34.0667 113.296V111.296C32.1778 111.296 30.5409 110.791 29.1202 109.797L27.9732 111.435ZM34.0667 113.296C35.4043 113.296 36.6776 113.087 37.8795 112.663L37.2139 110.777C36.2398 111.121 35.193 111.296 34.0667 111.296V113.296ZM37.8795 112.663C39.0982 112.233 40.1258 111.59 40.9252 110.714L39.4482 109.366C38.9036 109.962 38.1712 110.439 37.2139 110.777L37.8795 112.663ZM40.9172 110.723C41.7902 109.789 42.2187 108.636 42.2187 107.328H40.2187C40.2187 108.164 39.9592 108.819 39.4562 109.357L40.9172 110.723ZM42.2187 107.328C42.2187 106.735 42.1195 106.167 41.9072 105.637L40.0502 106.379C40.1579 106.649 40.2187 106.961 40.2187 107.328H42.2187ZM41.912 105.649C41.701 105.1 41.3832 104.614 40.9658 104.197L39.5516 105.611C39.7742 105.834 39.9364 106.084 40.0453 106.367L41.912 105.649ZM40.9837 104.215C40.5854 103.796 40.0876 103.446 39.5173 103.151L38.6 104.929C39.0218 105.146 39.324 105.372 39.5337 105.593L40.9837 104.215ZM39.5517 103.17C38.9947 102.854 38.3632 102.595 37.666 102.386L37.0913 104.302C37.6742 104.477 38.1627 104.682 38.5657 104.91L39.5517 103.17ZM37.6623 102.385L28.7342 99.745L28.1671 101.663L37.0951 104.303L37.6623 102.385ZM28.7307 99.744C28.0028 99.5317 27.2045 99.2482 26.3346 98.891L25.5748 100.741C26.4969 101.12 27.3626 101.428 28.1707 101.664L28.7307 99.744ZM26.3546 98.8995C25.5652 98.555 24.8032 98.0849 24.0688 97.4827L22.8006 99.0293C23.6662 99.7391 24.5842 100.309 25.5547 100.733L26.3546 98.8995ZM24.0855 97.4967C23.4132 96.9205 22.844 96.1826 22.3851 95.2648L20.5963 96.1592C21.1614 97.2894 21.8882 98.2475 22.7839 99.0153L24.0855 97.4967ZM22.3933 95.2815C21.9785 94.4117 21.7467 93.2885 21.7467 91.872H19.7467C19.7467 93.4955 20.0109 94.9323 20.5881 96.1425L22.3933 95.2815ZM21.7467 91.872C21.7467 89.8219 22.2599 88.1783 23.2287 86.8773L21.6246 85.6827C20.3535 87.3897 19.7467 89.4741 19.7467 91.872H21.7467ZM23.2277 86.8786C24.2439 85.5189 25.6084 84.4915 27.354 83.8021L26.6193 81.9419C24.557 82.7565 22.8815 84.0011 21.6257 85.6813L23.2277 86.8786ZM27.3514 83.8031C29.1384 83.1032 31.1382 82.7527 33.3638 82.768L33.3775 80.768C30.9312 80.7513 28.675 81.1368 26.622 81.9409L27.3514 83.8031ZM33.3639 82.768C35.6208 82.7832 37.597 83.1716 39.3109 83.9103L40.1025 82.0737C38.1044 81.2124 35.8566 80.7848 33.3774 80.768L33.3639 82.768ZM39.3176 83.9132C41.0307 84.6368 42.4507 85.6858 43.5931 87.0626L45.1323 85.7854C43.7787 84.1542 42.0947 82.9152 40.0958 82.0708L39.3176 83.9132ZM43.5931 87.0626C44.7324 88.4355 45.5499 90.1085 46.0304 92.1059L47.9749 91.6381C47.4315 89.3795 46.489 87.4205 45.1323 85.7854L43.5931 87.0626ZM46.8315 90.8868L40.6155 91.9668L40.9579 93.9372L47.1739 92.8572L46.8315 90.8868ZM41.7652 92.746C41.478 91.3818 40.9129 90.1902 40.0539 89.2005L38.5435 90.5115C39.1565 91.2178 39.5833 92.0902 39.8081 93.158L41.7652 92.746ZM40.0669 89.2158C39.243 88.2271 38.2246 87.4762 37.0252 86.9674L36.2441 88.8086C37.1568 89.1958 37.9144 89.7569 38.5305 90.4962L40.0669 89.2158ZM37.0303 86.9696C35.8684 86.4691 34.6307 86.2036 33.3257 86.1684L33.2717 88.1676C34.3347 88.1964 35.321 88.4109 36.2391 88.8064L37.0303 86.9696ZM33.3126 86.1681C32.0482 86.1505 30.8525 86.3438 29.7349 86.7584L30.4305 88.6336C31.2969 88.3121 32.2452 88.1535 33.2848 88.1679L33.3126 86.1681ZM29.7434 86.7553C28.6358 87.1548 27.6981 87.751 26.9652 88.5611L28.4482 89.9029C28.9312 89.369 29.5776 88.9412 30.422 88.6367L29.7434 86.7553ZM26.9563 88.571C26.2034 89.4257 25.8187 90.4447 25.8187 91.584H27.8187C27.8187 90.9313 28.026 90.3823 28.457 89.893L26.9563 88.571ZM25.8187 91.584C25.8187 92.6496 26.148 93.6025 26.8585 94.3574L28.3149 92.9866C28.0014 92.6535 27.8187 92.2144 27.8187 91.584H25.8187ZM26.8688 94.3681C27.4834 95.0019 28.2302 95.4978 29.0911 95.8642L29.8742 94.0238C29.2312 93.7502 28.714 93.3981 28.3046 92.9759L26.8688 94.3681ZM29.1146 95.8738C29.9184 96.192 30.7317 96.4603 31.5543 96.6786L32.0671 94.7454C31.3217 94.5477 30.583 94.304 29.8507 94.0142L29.1146 95.8738ZM31.5419 96.6752L37.7339 98.4032L38.2715 96.4768L32.0795 94.7488L31.5419 96.6752ZM37.7473 98.4068C38.5594 98.6213 39.4819 98.9154 40.5169 99.2918L41.2004 97.4122C40.1235 97.0206 39.142 96.7067 38.2581 96.4732L37.7473 98.4068ZM40.5169 99.2918C41.4847 99.6437 42.4224 100.137 43.3305 100.777L44.4828 99.1427C43.439 98.4068 42.3447 97.8283 41.2004 97.4122L40.5169 99.2918ZM43.3305 100.777C44.1749 101.373 44.8767 102.16 45.4331 103.159L47.1803 102.185C46.4887 100.944 45.5904 99.9234 44.4828 99.1427L43.3305 100.777ZM45.4384 103.168C45.9677 104.094 46.2667 105.333 46.2667 106.944H48.2667C48.2667 105.099 47.9257 103.49 47.1749 102.176L45.4384 103.168ZM46.2667 106.944C46.2667 108.593 45.9219 109.998 45.2636 111.188L47.0138 112.156C47.8595 110.626 48.2667 108.879 48.2667 106.944H46.2667ZM45.2616 111.192C44.5993 112.401 43.7021 113.407 42.5604 114.216L43.717 115.848C45.1033 114.865 46.2061 113.631 47.0158 112.152L45.2616 111.192ZM42.5604 114.216C41.3999 115.039 40.06 115.664 38.53 116.084L39.0594 118.012C40.7934 117.536 42.3495 116.817 43.717 115.848L42.5604 114.216ZM38.5275 116.084C37.0035 116.507 35.3977 116.72 33.7067 116.72V118.72C35.5676 118.72 37.3539 118.485 39.0618 118.012L38.5275 116.084ZM57.3336 116.016L57.8305 115.148L57.8305 115.148L57.3336 116.016ZM52.6776 111.288L51.8005 111.768L51.8034 111.774L52.6776 111.288ZM52.6536 96.96L53.5397 97.4235L53.5411 97.4207L52.6536 96.96ZM57.1896 92.088L56.6782 91.2286L56.6782 91.2286L57.1896 92.088ZM70.7496 92.256L70.1899 93.0848L70.1981 93.0902L70.7496 92.256ZM74.9496 97.56L74.0206 97.9303L74.0206 97.9303L74.9496 97.56ZM75.9816 105.648V106.648H76.912L76.979 105.72L75.9816 105.648ZM70.2456 105.648H69.2456V106.648H70.2456V105.648ZM70.2456 103.536H71.2456L71.2455 103.53L70.2456 103.536ZM68.7576 97.368L69.5564 96.7664L69.5564 96.7664L68.7576 97.368ZM58.8696 97.632L59.6538 98.2525L59.6571 98.2483L58.8696 97.632ZM58.8696 110.136L58.0887 110.761L58.0887 110.761L58.8696 110.136ZM67.5816 111.36L68.1019 112.214L68.1057 112.212L67.5816 111.36ZM69.9816 108.6L70.2711 107.643L69.4418 107.392L69.0754 108.177L69.9816 108.6ZM75.6936 110.328L76.614 110.719L77.0495 109.693L75.9831 109.371L75.6936 110.328ZM71.0856 115.776L70.5567 114.927L70.5538 114.929L71.0856 115.776ZM55.3176 105.648H54.3176V106.648H55.3176V105.648ZM55.3176 101.28V100.28H54.3176V101.28H55.3176ZM73.1496 101.28H74.1496V100.28H73.1496V101.28ZM73.1496 105.648V106.648H74.1496V105.648H73.1496ZM64.2456 116.72C61.7698 116.72 59.642 116.185 57.8305 115.148L56.8367 116.884C58.9931 118.119 61.4734 118.72 64.2456 118.72V116.72ZM57.8305 115.148C56.0062 114.104 54.584 112.66 53.5517 110.802L51.8034 111.774C53.0111 113.948 54.693 115.656 56.8367 116.884L57.8305 115.148ZM53.5547 110.808C52.5421 108.959 52.0216 106.808 52.0216 104.328H50.0216C50.0216 107.096 50.605 109.585 51.8005 111.768L53.5547 110.808ZM52.0216 104.328C52.0216 101.624 52.5404 99.3338 53.5397 97.4235L51.7675 96.4965C50.5907 98.7462 50.0216 101.368 50.0216 104.328H52.0216ZM53.5411 97.4207C54.5476 95.4817 55.9329 93.9994 57.7009 92.9474L56.6782 91.2286C54.5742 92.4806 52.9355 94.2463 51.766 96.4993L53.5411 97.4207ZM57.7009 92.9474C59.463 91.8989 61.5218 91.36 63.9096 91.36V89.36C61.2093 89.36 58.7881 89.9731 56.6782 91.2286L57.7009 92.9474ZM63.9096 91.36C66.4367 91.36 68.5126 91.9522 70.19 93.0848L71.3092 91.4272C69.2425 90.0318 66.7584 89.36 63.9096 89.36V91.36ZM70.1981 93.0902C71.9008 94.2157 73.1772 95.8142 74.0206 97.9303L75.8785 97.1897C74.8979 94.7298 73.3743 92.7923 71.301 91.4218L70.1981 93.0902ZM74.0206 97.9303C74.864 100.046 75.2001 102.584 74.9842 105.576L76.979 105.72C77.2111 102.504 76.8592 99.6501 75.8785 97.1897L74.0206 97.9303ZM75.9816 104.648H70.2456V106.648H75.9816V104.648ZM71.2456 105.648V103.536H69.2456V105.648H71.2456ZM71.2455 103.53C71.2291 100.641 70.7267 98.3205 69.5564 96.7664L67.9587 97.9696C68.7404 99.0075 69.23 100.799 69.2456 103.542L71.2455 103.53ZM69.5564 96.7664C68.3382 95.1489 66.4592 94.424 64.1496 94.424V96.424C66.032 96.424 67.2249 96.9951 67.9587 97.9696L69.5564 96.7664ZM64.1496 94.424C61.564 94.424 59.4729 95.2386 58.0821 97.0157L59.6571 98.2483C60.5703 97.0814 61.9992 96.424 64.1496 96.424V94.424ZM58.0853 97.0115C56.7376 98.7149 56.1416 101.11 56.1416 104.04H58.1416C58.1416 101.338 58.6975 99.4611 59.6538 98.2525L58.0853 97.0115ZM56.1416 104.04C56.1416 106.797 56.7456 109.082 58.0887 110.761L59.6504 109.511C58.6895 108.31 58.1416 106.531 58.1416 104.04H56.1416ZM58.0887 110.761C59.4685 112.485 61.4644 113.296 63.9096 113.296V111.296C61.9387 111.296 60.5746 110.667 59.6504 109.511L58.0887 110.761ZM63.9096 113.296C65.4824 113.296 66.8939 112.95 68.1019 112.214L67.0612 110.506C66.2212 111.018 65.1847 111.296 63.9096 111.296V113.296ZM68.1057 112.212C69.3263 111.46 70.2523 110.384 70.8877 109.023L69.0754 108.177C68.5908 109.216 67.9168 109.98 67.0575 110.508L68.1057 112.212ZM69.692 109.557L75.404 111.285L75.9831 109.371L70.2711 107.643L69.692 109.557ZM74.7731 109.937C73.8584 112.091 72.4557 113.744 70.5567 114.927L71.6144 116.625C73.8754 115.216 75.5447 113.237 76.614 110.719L74.7731 109.937ZM70.5538 114.929C68.6531 116.123 66.5582 116.72 64.2456 116.72V118.72C66.9249 118.72 69.39 118.021 71.6173 116.623L70.5538 114.929ZM56.3176 105.648V101.28H54.3176V105.648H56.3176ZM55.3176 102.28H73.1496V100.28H55.3176V102.28ZM72.1496 101.28V105.648H74.1496V101.28H72.1496ZM73.1496 104.648H55.3176V106.648H73.1496V104.648ZM81.3366 117H80.3366V118H81.3366V117ZM81.3366 91.08V90.08H80.3366V91.08H81.3366ZM86.4486 91.08H87.4486V90.08H86.4486V91.08ZM86.4486 97.392L85.6542 97.9994L87.4486 100.346V97.392H86.4486ZM85.8246 96.576L84.8868 96.2287L84.6954 96.7456L85.0302 97.1834L85.8246 96.576ZM87.0966 94.224L86.2987 93.6212L86.2966 93.624L87.0966 94.224ZM89.0406 92.448L89.5657 93.299L89.5831 93.2883L89.6 93.2768L89.0406 92.448ZM91.1526 91.44L91.4509 92.3946L91.463 92.3906L91.1526 91.44ZM93.5526 90.984L93.6113 91.9823L93.621 91.9817L93.6308 91.9809L93.5526 90.984ZM95.9286 91.08H96.9286V90.2329L96.093 90.0936L95.9286 91.08ZM95.9286 96.48L95.6486 97.44L96.9286 97.8133V96.48H95.9286ZM93.2646 96.264L93.1854 95.2671L93.1842 95.2672L93.2646 96.264ZM90.5766 97.104L91.0517 97.9839L91.0716 97.9731L91.0911 97.9615L90.5766 97.104ZM88.6086 98.76L87.8131 98.154L87.8085 98.16L87.804 98.1661L88.6086 98.76ZM87.5046 101.064L88.4668 101.336L88.4681 101.332L87.5046 101.064ZM87.1446 117V118H88.1446V117H87.1446ZM82.3366 117V91.08H80.3366V117H82.3366ZM81.3366 92.08H86.4486V90.08H81.3366V92.08ZM85.4486 91.08V97.392H87.4486V91.08H85.4486ZM87.2429 96.7845L86.6189 95.9685L85.0302 97.1834L85.6542 97.9994L87.2429 96.7845ZM86.7623 96.9233C87.0504 96.1455 87.4291 95.4473 87.8966 94.824L86.2966 93.624C85.708 94.4087 85.2387 95.2785 84.8868 96.2287L86.7623 96.9233ZM87.8944 94.8268C88.3653 94.2036 88.9215 93.6965 89.5657 93.299L88.5155 91.597C87.6557 92.1275 86.9158 92.8044 86.2987 93.6212L87.8944 94.8268ZM89.6 93.2768C90.1562 92.9014 90.7716 92.6067 91.4508 92.3945L90.8543 90.4855C89.9975 90.7533 89.2049 91.1306 88.4811 91.6192L89.6 93.2768ZM91.463 92.3906C92.1662 92.161 92.8816 92.0252 93.6113 91.9823L93.4938 89.9857C92.5915 90.0388 91.7069 90.207 90.8422 90.4894L91.463 92.3906ZM93.6308 91.9809C94.3699 91.923 95.0803 91.9524 95.7642 92.0664L96.093 90.0936C95.2408 89.9516 94.3672 89.917 93.4744 89.9871L93.6308 91.9809ZM94.9286 91.08V96.48H96.9286V91.08H94.9286ZM96.2086 95.52C95.2979 95.2544 94.2838 95.18 93.1854 95.2671L93.3437 97.2609C94.2613 97.188 95.0233 97.2576 95.6486 97.44L96.2086 95.52ZM93.1842 95.2672C92.0492 95.3588 91.0029 95.682 90.0621 96.2465L91.0911 97.9615C91.7503 97.566 92.496 97.3292 93.3449 97.2608L93.1842 95.2672ZM90.1014 96.2241C89.1861 96.7184 88.4176 97.3605 87.8131 98.154L89.404 99.366C89.8235 98.8155 90.367 98.3536 91.0517 97.9839L90.1014 96.2241ZM87.804 98.1661C87.2304 98.9433 86.8113 99.8235 86.541 100.796L88.4681 101.332C88.6779 100.576 88.9947 99.9207 89.4131 99.3539L87.804 98.1661ZM86.5424 100.792C86.2744 101.739 86.1446 102.751 86.1446 103.824H88.1446C88.1446 102.913 88.2548 102.085 88.4668 101.336L86.5424 100.792ZM86.1446 103.824V117H88.1446V103.824H86.1446ZM87.1446 116H81.3366V118H87.1446V116ZM100.988 87.144H99.9884V88.144H100.988V87.144ZM100.988 81.84V80.84H99.9884V81.84H100.988ZM106.772 81.84H107.772V80.84H106.772V81.84ZM106.772 87.144V88.144H107.772V87.144H106.772ZM100.988 117H99.9884V118H100.988V117ZM100.988 91.08V90.08H99.9884V91.08H100.988ZM106.772 91.08H107.772V90.08H106.772V91.08ZM106.772 117V118H107.772V117H106.772ZM101.988 87.144V81.84H99.9884V87.144H101.988ZM100.988 82.84H106.772V80.84H100.988V82.84ZM105.772 81.84V87.144H107.772V81.84H105.772ZM106.772 86.144H100.988V88.144H106.772V86.144ZM101.988 117V91.08H99.9884V117H101.988ZM100.988 92.08H106.772V90.08H100.988V92.08ZM105.772 91.08V117H107.772V91.08H105.772ZM106.772 116H100.988V118H106.772V116ZM118.834 116.016L119.33 115.148L119.33 115.148L118.834 116.016ZM114.178 111.288L113.3 111.768L113.303 111.774L114.178 111.288ZM114.154 96.96L115.04 97.4235L115.041 97.4207L114.154 96.96ZM118.69 92.088L118.178 91.2286L118.178 91.2286L118.69 92.088ZM132.25 92.256L131.69 93.0848L131.698 93.0902L132.25 92.256ZM136.45 97.56L135.521 97.9303L135.521 97.9303L136.45 97.56ZM137.482 105.648V106.648H138.412L138.479 105.72L137.482 105.648ZM131.746 105.648H130.746V106.648H131.746V105.648ZM131.746 103.536H132.746L132.746 103.53L131.746 103.536ZM130.258 97.368L131.056 96.7664L131.056 96.7664L130.258 97.368ZM120.37 97.632L121.154 98.2525L121.157 98.2483L120.37 97.632ZM120.37 110.136L119.589 110.761L119.589 110.761L120.37 110.136ZM129.082 111.36L129.602 112.214L129.606 112.212L129.082 111.36ZM131.482 108.6L131.771 107.643L130.942 107.392L130.575 108.177L131.482 108.6ZM137.194 110.328L138.114 110.719L138.549 109.693L137.483 109.371L137.194 110.328ZM132.586 115.776L132.057 114.927L132.054 114.929L132.586 115.776ZM116.818 105.648H115.818V106.648H116.818V105.648ZM116.818 101.28V100.28H115.818V101.28H116.818ZM134.65 101.28H135.65V100.28H134.65V101.28ZM134.65 105.648V106.648H135.65V105.648H134.65ZM125.746 116.72C123.27 116.72 121.142 116.185 119.33 115.148L118.337 116.884C120.493 118.119 122.973 118.72 125.746 118.72V116.72ZM119.33 115.148C117.506 114.104 116.084 112.66 115.052 110.802L113.303 111.774C114.511 113.948 116.193 115.656 118.337 116.884L119.33 115.148ZM115.055 110.808C114.042 108.959 113.522 106.808 113.522 104.328H111.522C111.522 107.096 112.105 109.585 113.3 111.768L115.055 110.808ZM113.522 104.328C113.522 101.624 114.04 99.3338 115.04 97.4235L113.267 96.4965C112.091 98.7462 111.522 101.368 111.522 104.328H113.522ZM115.041 97.4207C116.048 95.4817 117.433 93.9994 119.201 92.9474L118.178 91.2286C116.074 92.4806 114.435 94.2463 113.266 96.4993L115.041 97.4207ZM119.201 92.9474C120.963 91.8989 123.022 91.36 125.41 91.36V89.36C122.709 89.36 120.288 89.9731 118.178 91.2286L119.201 92.9474ZM125.41 91.36C127.937 91.36 130.013 91.9522 131.69 93.0848L132.809 91.4272C130.743 90.0318 128.258 89.36 125.41 89.36V91.36ZM131.698 93.0902C133.401 94.2157 134.677 95.8142 135.521 97.9303L137.378 97.1897C136.398 94.7298 134.874 92.7923 132.801 91.4218L131.698 93.0902ZM135.521 97.9303C136.364 100.046 136.7 102.584 136.484 105.576L138.479 105.72C138.711 102.504 138.359 99.6501 137.378 97.1897L135.521 97.9303ZM137.482 104.648H131.746V106.648H137.482V104.648ZM132.746 105.648V103.536H130.746V105.648H132.746ZM132.746 103.53C132.729 100.641 132.227 98.3205 131.056 96.7664L129.459 97.9696C130.24 99.0075 130.73 100.799 130.746 103.542L132.746 103.53ZM131.056 96.7664C129.838 95.1489 127.959 94.424 125.65 94.424V96.424C127.532 96.424 128.725 96.9951 129.459 97.9696L131.056 96.7664ZM125.65 94.424C123.064 94.424 120.973 95.2386 119.582 97.0157L121.157 98.2483C122.07 97.0814 123.499 96.424 125.65 96.424V94.424ZM119.585 97.0115C118.238 98.7149 117.642 101.11 117.642 104.04H119.642C119.642 101.338 120.198 99.4611 121.154 98.2525L119.585 97.0115ZM117.642 104.04C117.642 106.797 118.246 109.082 119.589 110.761L121.15 109.511C120.19 108.31 119.642 106.531 119.642 104.04H117.642ZM119.589 110.761C120.969 112.485 122.964 113.296 125.41 113.296V111.296C123.439 111.296 122.075 110.667 121.15 109.511L119.589 110.761ZM125.41 113.296C126.982 113.296 128.394 112.95 129.602 112.214L128.561 110.506C127.721 111.018 126.685 111.296 125.41 111.296V113.296ZM129.606 112.212C130.826 111.46 131.752 110.384 132.388 109.023L130.575 108.177C130.091 109.216 129.417 109.98 128.557 110.508L129.606 112.212ZM131.192 109.557L136.904 111.285L137.483 109.371L131.771 107.643L131.192 109.557ZM136.273 109.937C135.358 112.091 133.956 113.744 132.057 114.927L133.114 116.625C135.375 115.216 137.045 113.237 138.114 110.719L136.273 109.937ZM132.054 114.929C130.153 116.123 128.058 116.72 125.746 116.72V118.72C128.425 118.72 130.89 118.021 133.117 116.623L132.054 114.929ZM117.818 105.648V101.28H115.818V105.648H117.818ZM116.818 102.28H134.65V100.28H116.818V102.28ZM133.65 101.28V105.648H135.65V101.28H133.65ZM134.65 104.648H116.818V106.648H134.65V104.648ZM145.045 115.56L144.46 116.372L144.46 116.372L145.045 115.56ZM141.397 109.488L141.244 108.5L140.245 108.654L140.41 109.651L141.397 109.488ZM147.301 108.576L148.273 108.345L148.06 107.447L147.148 107.588L147.301 108.576ZM149.317 111.6L148.739 112.416L148.739 112.416L149.317 111.6ZM156.469 111.888L157.055 112.698L157.058 112.696L156.469 111.888ZM157.189 108.192L156.384 108.786L156.399 108.806L156.415 108.825L157.189 108.192ZM155.365 107.136L155.7 106.194L155.7 106.194L155.365 107.136ZM151.021 105.864L150.765 106.831L150.767 106.831L151.021 105.864ZM145.837 104.016L145.372 104.901L145.38 104.906L145.837 104.016ZM143.077 101.64L143.929 101.117L143.929 101.117L143.077 101.64ZM143.509 94.104L144.325 94.6811L144.325 94.6811L143.509 94.104ZM147.061 91.344L147.449 92.2657L147.457 92.2621L147.061 91.344ZM157.789 91.296L157.416 92.2238L157.419 92.2251L157.789 91.296ZM161.581 93.96L160.812 94.6002L160.812 94.6002L161.581 93.96ZM163.357 98.016L163.533 99.0004L164.484 98.8301L164.346 97.8732L163.357 98.016ZM157.453 99.072L156.461 99.2013L156.597 100.241L157.629 100.056L157.453 99.072ZM155.941 96.456L155.338 97.2542L155.345 97.2596L155.941 96.456ZM152.533 95.376L152.474 96.3743L152.476 96.3744L152.533 95.376ZM149.245 96L149.744 96.8662L149.75 96.8626L149.757 96.8589L149.245 96ZM150.517 100.368L150.187 101.312L150.191 101.314L150.517 100.368ZM155.077 101.664L155.324 100.695L155.323 100.695L155.077 101.664ZM160.021 103.488L159.533 104.361L159.54 104.365L159.546 104.368L160.021 103.488ZM162.709 105.912L161.842 106.411L161.849 106.422L162.709 105.912ZM160.693 115.488L160.077 114.7L160.074 114.703L160.693 115.488ZM152.845 116.72C149.792 116.72 147.414 116.034 145.629 114.748L144.46 116.372C146.675 117.966 149.497 118.72 152.845 118.72V116.72ZM145.629 114.748C143.86 113.475 142.775 111.693 142.383 109.325L140.41 109.651C140.882 112.499 142.229 114.765 144.46 116.372L145.629 114.748ZM141.549 110.476L147.453 109.564L147.148 107.588L141.244 108.5L141.549 110.476ZM146.328 108.807C146.686 110.315 147.493 111.535 148.739 112.416L149.894 110.784C149.06 110.193 148.523 109.397 148.273 108.345L146.328 108.807ZM148.739 112.416C149.985 113.298 151.512 113.704 153.253 113.704V111.704C151.825 111.704 150.728 111.374 149.894 110.784L148.739 112.416ZM153.253 113.704C154.755 113.704 156.066 113.413 157.055 112.698L155.882 111.078C155.367 111.451 154.534 111.704 153.253 111.704V113.704ZM157.058 112.696C158.087 111.946 158.621 110.884 158.621 109.608H156.621C156.621 110.252 156.386 110.71 155.879 111.08L157.058 112.696ZM158.621 109.608C158.621 108.856 158.436 108.137 157.963 107.559L156.415 108.825C156.517 108.951 156.621 109.176 156.621 109.608H158.621ZM157.993 107.598C157.526 106.966 156.655 106.534 155.7 106.194L155.029 108.078C155.962 108.41 156.307 108.682 156.384 108.786L157.993 107.598ZM155.7 106.194C154.714 105.843 153.232 105.41 151.274 104.897L150.767 106.831C152.713 107.342 154.127 107.757 155.029 108.078L155.7 106.194ZM151.276 104.897C149.136 104.331 147.484 103.736 146.293 103.126L145.38 104.906C146.749 105.608 148.554 106.245 150.765 106.831L151.276 104.897ZM146.301 103.131C145.127 102.514 144.367 101.831 143.929 101.117L142.224 102.163C142.906 103.273 143.986 104.174 145.372 104.901L146.301 103.131ZM143.929 101.117C143.484 100.392 143.237 99.4784 143.237 98.328H141.237C141.237 99.7696 141.549 101.064 142.224 102.163L143.929 101.117ZM143.237 98.328C143.237 96.8971 143.608 95.6955 144.325 94.6811L142.692 93.5269C141.713 94.9125 141.237 96.5269 141.237 98.328H143.237ZM144.325 94.6811C145.053 93.6519 146.079 92.8422 147.449 92.2656L146.673 90.4224C145.002 91.1258 143.661 92.1561 142.692 93.5269L144.325 94.6811ZM147.457 92.2621C148.825 91.6717 150.476 91.36 152.437 91.36V89.36C150.269 89.36 148.336 89.7043 146.664 90.4259L147.457 92.2621ZM152.437 91.36C154.35 91.36 156.004 91.6562 157.416 92.2238L158.162 90.3682C156.469 89.6878 154.555 89.36 152.437 89.36V91.36ZM157.419 92.2251C158.852 92.7954 159.972 93.5916 160.812 94.6002L162.349 93.3198C161.269 92.0244 159.861 91.0446 158.158 90.3669L157.419 92.2251ZM160.812 94.6002C161.648 95.6034 162.168 96.7812 162.367 98.1588L164.346 97.8732C164.097 96.1468 163.433 94.6206 162.349 93.3198L160.812 94.6002ZM163.18 97.0316L157.276 98.0876L157.629 100.056L163.533 99.0004L163.18 97.0316ZM158.444 98.9427C158.266 97.5802 157.627 96.4604 156.536 95.6524L155.345 97.2596C155.983 97.7316 156.351 98.3558 156.461 99.2013L158.444 98.9427ZM156.543 95.6578C155.491 94.8638 154.144 94.465 152.589 94.3776L152.476 96.3744C153.769 96.447 154.694 96.7682 155.338 97.2542L156.543 95.6578ZM152.591 94.3777C151.11 94.2906 149.793 94.5086 148.732 95.1411L149.757 96.8589C150.36 96.4994 151.235 96.3014 152.474 96.3743L152.591 94.3777ZM148.745 95.1338C147.638 95.7725 146.997 96.7646 146.997 98.04H148.997C148.997 97.5554 149.187 97.1875 149.744 96.8662L148.745 95.1338ZM146.997 98.04C146.997 98.7876 147.26 99.4605 147.777 100.002L149.224 98.6215C149.069 98.4595 148.997 98.2843 148.997 98.04H146.997ZM147.777 100.002C148.292 100.541 149.167 100.956 150.187 101.312L150.846 99.4239C149.85 99.076 149.382 98.7867 149.224 98.6215L147.777 100.002ZM150.191 101.314C151.255 101.679 152.807 102.119 154.83 102.633L155.323 100.695C153.314 100.185 151.826 99.7606 150.842 99.4223L150.191 101.314ZM154.829 102.633C156.847 103.149 158.404 103.731 159.533 104.361L160.508 102.615C159.173 101.869 157.434 101.235 155.324 100.695L154.829 102.633ZM159.546 104.368C160.679 104.978 161.415 105.67 161.842 106.411L163.575 105.413C162.914 104.266 161.858 103.342 160.495 102.608L159.546 104.368ZM161.849 106.422C162.298 107.181 162.549 108.139 162.549 109.344H164.549C164.549 107.861 164.239 106.531 163.569 105.402L161.849 106.422ZM162.549 109.344C162.549 111.672 161.717 113.418 160.077 114.7L161.308 116.276C163.476 114.582 164.549 112.232 164.549 109.344H162.549ZM160.074 114.703C158.42 116.006 156.05 116.72 152.845 116.72V118.72C156.327 118.72 159.19 117.946 161.312 116.273L160.074 114.703Z" fill="black" mask="url(#path-2-outside-1_21_4)"/>
<defs>
<linearGradient id="paint0_linear_21_4" x1="0" y1="66" x2="183" y2="66" gradientUnits="userSpaceOnUse">
<stop stop-color="white"/>
<stop offset="1" stop-color="#747678"/>
</linearGradient>
<linearGradient id="paint1_linear_21_4" x1="0" y1="66" x2="183" y2="66" gradientUnits="userSpaceOnUse">
<stop stop-color="white"/>
<stop offset="1" stop-color="#747678"/>
</linearGradient>
</defs>
</svg>
