<svg width="300" height="300" viewBox="0 0 300 300" fill="none" xmlns="http://www.w3.org/2000/svg">
<rect width="300" height="300" fill="#595959"/>
<path d="M186.614 89.8932C186.485 89.3629 186.222 87.5092 187.006 87.6418C187.788 87.7751 187.267 87.6418 188.179 88.0395C189.092 88.4372 189.223 87.3782 189.223 87.3782H190.658L192.482 88.8326L192.221 90.025L190.917 90.156C190.266 89.0986 188.961 89.4955 189.223 90.4228C189.483 91.3484 188.571 93.0688 188.051 93.1998C187.529 93.3332 185.83 93.3332 185.964 92.5401C186.093 91.7454 186.614 89.8932 186.614 89.8932ZM185.571 86.316V85.2577C185.571 85.2577 185.437 84.1995 184.788 84.1995C184.138 84.1995 182.963 83.4064 183.222 82.876C183.485 82.3457 181.006 81.817 181.006 81.817C181.006 81.817 178.79 79.6989 179.573 79.9656C180.356 80.2292 179.965 79.0376 179.965 79.0376C179.965 79.0376 178.398 79.302 178.007 79.1709C177.615 79.0376 177.745 77.8468 177.745 77.8468C177.745 77.8468 176.182 77.4498 176.182 77.8468C176.182 78.2445 176.704 78.2445 176.962 79.0368C177.225 79.8307 177.094 81.1549 178.27 81.4193C179.443 81.6844 179.702 81.948 179.835 82.4783C179.965 83.0086 181.398 83.1396 181.398 83.1396L182.442 83.6692L185.571 86.316ZM171.102 71.7592L170.057 71.4972V72.6896L171.489 72.8198L171.102 71.7592ZM171.097 67.2609C169.734 66.2254 172.921 68.0556 172.921 68.0556C173.964 68.0556 174.616 68.8495 174.616 69.248C174.616 69.6442 176.051 69.5124 176.051 69.5124L176.184 68.5844L175.138 67.2609L174.226 66.6012C174.226 66.6012 172.792 66.4678 172.792 66.0709C172.792 65.6747 171.618 67.6587 171.097 67.2609ZM195.087 68.0533C194.705 69.2112 194.566 70.8335 193.913 70.8335C193.262 70.8335 193.521 72.5554 193.521 72.5554C193.521 72.5554 195.219 72.5554 195.741 72.6864C196.26 72.8174 196.26 74.1409 196.26 74.1409C198.218 74.0098 199.001 76.6567 198.739 77.318C198.477 77.9793 199.521 77.9793 199.521 77.9793C199.521 77.9793 199.521 80.0974 199.259 80.6262C199 81.1565 200.955 81.5534 201.476 82.3473C201.998 83.142 201.214 85.7881 200.825 85.9206C200.433 86.054 201.866 86.4494 201.737 87.1115C201.605 87.7744 202.129 87.1115 202.258 88.1705C202.388 89.2296 202.651 91.4787 202.651 91.4787L204.474 91.612C204.736 89.8925 208.099 89.8258 208.648 90.0235C210.865 90.8174 212.562 94.2589 212.562 95.052C212.562 95.8459 211.126 95.98 211.126 95.98L211.388 99.8161C213.604 100.479 215.43 103.656 215.17 104.186C214.909 104.714 216.733 104.583 216.733 104.583C216.996 102.199 219.212 102.994 219.34 103.789C219.474 104.583 219.863 106.304 219.863 106.304L220.515 107.493L221.428 108.42L222.862 108.288L223.254 109.082L224.949 109.348C224.949 109.348 226.385 110.935 226.514 111.333C226.646 111.728 228.601 111.597 229.122 111.728C229.643 111.862 230.427 112.259 230.556 112.921C230.688 113.583 231.471 114.641 231.471 114.641C231.471 114.641 233.034 115.039 233.165 115.567C233.295 116.096 233.949 117.287 233.949 117.287L235.25 118.346L235.381 119.539L236.815 119.671L237.208 121.258L239.553 121.127L240.859 120.2C242.554 119.274 243.728 118.082 243.859 117.552C243.988 117.023 244.249 115.039 245.554 115.436C246.857 115.833 245.946 112.523 245.946 112.523C245.946 112.523 244.121 111.2 244.249 110.537C244.38 109.876 242.425 108.554 242.555 108.023C242.684 107.493 240.859 106.436 240.989 105.906C241.118 105.376 240.077 103.92 240.077 103.92L238.119 102.068L237.858 100.876L236.295 100.745L233.165 96.9065L233.295 95.8467L232.382 95.7149V94.2597L231.471 93.7293L230.035 93.5968L227.167 90.422L226.906 88.9652H225.472L225.732 86.185C226.645 84.9934 226.123 82.7443 226.123 82.7443C226.123 82.7443 224.295 83.67 223.385 83.273C222.47 82.8776 223.775 81.9496 223.775 81.9496V80.8913L222.994 80.0974C222.994 80.0974 220.775 80.3634 220.646 79.9664C220.515 79.5687 220.125 77.8483 220.125 77.8483L219.994 75.5969L219.082 75.2023L218.95 74.4068L217.517 74.5386V72.9508L216.734 72.6864L215.952 72.2895L215.822 70.7001L212.952 70.5691L212.04 69.2457L210.997 67.6571L207.737 67.3927L206.954 66.6004L205.65 66.3337L204.738 65.9367L204.347 66.5996L201.868 66.7306L201.739 67.5253C200.435 68.1866 195.22 67.6563 195.087 68.0533ZM208.784 64.6172C208.577 63.5723 211.394 62.6325 212.045 63.4248C212.698 64.2195 214.523 64.3537 214.784 68.3239C214.876 69.7454 212.436 66.8687 212.436 66.8687L210.479 66.2066C209.436 65.9407 208.913 65.2809 208.784 64.6172H208.784ZM170.535 66.2341L169.822 65.9124L170.346 64.72L171.058 65.0424L170.535 66.2341ZM163.794 53.2344L162.095 51.5133V50.058L161.573 49.527L161.053 47.6756L159.358 47.1461L157.662 47.8066L155.837 48.9982L153.882 49.2649L152.837 50.4542L157.01 50.8496L157.791 52.1754L160.794 52.4397L162.747 54.4245C164.446 54.9548 164.836 54.1601 163.794 53.2344ZM163.535 46.7468C163.248 45.5834 161.577 48.202 163.276 48.7299C164.97 49.2626 166.663 48.7299 166.663 48.7299L167.055 47.9368L173.574 48.0702C174.099 47.5399 174.357 46.746 174.357 46.746C174.357 46.746 175.923 46.2157 176.574 46.48C177.226 46.7468 176.706 44.6287 176.052 44.893C175.401 45.1574 174.098 45.0248 174.098 45.0248H171.749C171.62 44.0991 169.533 44.4953 169.403 45.0248C169.27 45.5543 168.491 45.6861 168.491 45.6861L165.491 45.9521C165.23 46.7468 163.666 47.2755 163.535 46.7468ZM150.622 69.0809C152.627 69.7172 153.36 69.2457 153.493 68.7169C153.622 68.1874 153.751 68.0541 154.534 67.9231C155.316 67.7897 154.403 66.2027 153.622 66.3345C152.838 66.467 152.056 66.0701 151.927 65.4088C151.794 64.7475 150.49 63.0263 150.361 64.3497C150.231 65.6739 149.449 65.6739 149.578 66.6004C149.71 67.5245 150.101 68.9139 150.622 69.0809ZM135.631 70.5715C135.537 70.1031 138.238 70.0427 138.631 70.4381C139.023 70.8358 138.76 71.4972 139.934 71.4972C141.106 71.4972 140.585 72.2918 140.455 72.6896C140.326 73.0857 139.023 72.9539 138.889 72.5578C138.76 72.16 136.803 72.0259 136.803 72.0259C136.803 72.0259 135.76 71.2312 135.631 70.5715ZM178.895 44.1031L179.165 43.8803L180.474 42.8212L179.982 42.2015L178.95 43.0369L178.286 42.3623L177.733 42.9232L178.643 43.8497L178.895 44.1031ZM173 40.5964L174.439 39.6692L174.021 39L172.792 39.7923L171.955 39.2636L171.544 39.9367L172.588 40.5972L172.792 40.7306L173 40.5964ZM168.944 69.059L169.602 68.6346L168.692 67.1809L168.588 67.0193L168.397 67.0005L167.095 66.8632L167.015 67.6555L168.133 67.7677L168.944 69.059ZM125.456 103.92L125.589 105.377H127.543C128.326 105.377 126.892 104.45 126.892 104.45C126.892 104.45 125.327 104.583 125.456 103.92ZM127.943 103.963L128.442 103.351L129.225 104.01L128.725 104.622L127.943 103.963ZM104.182 79.2015L104.737 78.6399L105.519 79.4345L104.965 79.9962L104.182 79.2015ZM141.514 250.844L142.166 250.183L142.547 249.796L142.062 249.547L140.76 248.886L140.409 249.596L141.226 250.008L140.956 250.283L141.514 250.844ZM131.62 241.357L132.075 240.714L131.571 240.347L131.964 240.016L131.466 239.404L130.68 240.066L130.292 240.396L130.704 240.696L131.62 241.357ZM228.937 214.908C228.764 214.234 228.003 213.957 227.918 213.929L227.669 214.684V214.679C227.731 214.703 227.821 214.75 227.912 214.809L228.072 215.496C228.018 215.575 227.961 215.652 227.899 215.725L228.473 216.262C228.891 215.796 229.046 215.344 228.937 214.908ZM228.867 212.315L228.965 211.124L230.238 211.323L230.14 212.409L228.867 212.315ZM260.363 202.09C260.92 201.737 261.634 201.096 261.537 202.587C261.438 204.075 260.852 203.58 260.363 204.075C259.875 204.573 259.581 202.587 260.363 202.09ZM267 196.473C266.989 196.447 266.982 196.355 266.976 196.289C266.959 196.07 266.931 195.772 266.776 195.46L266.077 195.815C266.164 195.992 266.181 196.18 266.196 196.359C266.215 196.591 266.241 196.856 266.463 197.024C266.604 197.13 266.78 197.161 266.991 197.12L266.842 196.351C266.902 196.362 266.981 196.416 267 196.473ZM265.258 197.124C265.399 197.675 265.566 198.219 265.76 198.754L266.494 198.475C266.488 198.468 266.204 197.692 266.016 196.929L265.258 197.124ZM262.411 200.246L261.632 200.168C261.571 200.793 261.72 201.564 262.335 201.69L262.489 200.912C262.495 200.912 262.502 200.916 262.503 200.916C262.441 200.86 262.382 200.54 262.411 200.246ZM258.983 184.455C258.965 184.333 258.917 184.218 258.842 184.12C258.767 184.022 258.668 183.946 258.555 183.898C257.976 183.643 257 184.065 256.522 184.39L256.955 185.05C257.45 184.715 258.1 184.554 258.245 184.627C258.232 184.623 258.214 184.599 258.209 184.584L258.983 184.455ZM222.865 142.171C222.344 142.701 221.171 142.966 221.171 142.966L220.778 144.422L220.127 144.951C220.127 144.951 220.257 145.347 220.127 146.274C219.997 147.2 218.823 147.73 218.823 147.73L218.302 148.392C218.302 148.392 215.158 148.562 214.781 148.392C213.607 147.863 214.39 146.274 215.173 146.407C215.954 146.54 215.041 144.156 215.041 144.156L216.086 144.024C216.086 144.024 216.214 141.641 216.606 141.641C216.999 141.641 216.477 140.848 215.953 140.45C215.432 140.055 214.781 138.731 214.257 138.863C213.736 138.994 211.649 138.863 211.649 138.863L211.258 139.658L209.822 139.921C209.822 139.921 209.946 140.945 209.696 141.245C208.91 142.171 205.913 144.156 207.215 140.848L207.605 140.055V138.863L205.26 138.732C205.26 138.732 204.087 138.334 204.087 137.805C204.087 137.275 203.956 136.615 203.956 136.615L201.216 133.571L197.958 133.174L197.696 132.511L195.742 132.247C193.393 131.057 191.305 132.114 191.698 134.1C192.089 136.087 192.739 136.88 191.438 136.88C190.132 136.88 189.872 135.821 189.872 135.821C189.872 135.821 188.83 135.423 188.83 135.953C188.83 136.483 188.438 137.541 188.83 138.071C189.219 138.599 188.306 139.393 187.915 138.996C187.526 138.599 186.482 137.41 186.744 137.012C187.003 136.615 184.916 134.1 187.003 133.703C189.091 133.306 186.873 132.114 187.657 131.851L188.698 131.321H189.741L190.394 130.791L188.699 130.528L187.657 130.394L185.699 130.263C183.744 131.586 183.354 133.175 183.354 133.175C182.309 135.159 179.833 132.38 180.746 131.322C181.658 130.263 177.877 131.188 177.224 131.718C176.57 132.247 174.615 131.983 174.615 131.983C174.225 133.175 172.399 131.852 172.92 131.057C173.442 130.263 173.442 129.733 173.442 129.733L172.791 129.601L172.009 131.057C170.183 131.057 169.66 132.114 170.051 132.777C170.442 133.437 169.53 132.644 169.268 133.571C169.009 134.497 169.4 134.497 170.183 134.894C170.966 135.292 169.791 135.292 170.313 135.953C170.833 136.615 172.399 135.952 171.487 136.88C170.575 137.805 168.747 137.41 168.747 137.41C168.617 138.599 166.139 138.336 165.88 137.939C165.617 137.542 163.663 135.159 163.663 135.159L161.182 135.027C160.923 133.175 162.357 134.101 162.879 132.644C163.403 131.188 163.663 128.807 163.663 128.807C163.663 128.807 161.574 128.675 161.445 129.336C161.315 129.998 160.011 130.395 160.011 130.395C160.011 130.395 158.967 130.791 159.358 131.321C159.75 131.852 158.575 132.114 158.575 132.114C158.575 132.114 158.779 132.969 158.446 133.306C157.404 134.366 154.793 133.437 154.404 133.041L152.838 132.379L151.272 131.321L149.448 132.113L148.927 132.644H146.97L146.84 134.231L150.361 134.627L150.622 137.903L149.186 137.409H148.273L147.883 136.614L147.1 136.48V139.392L147.883 140.055L148.536 140.714L149.841 140.848L150.102 142.435L153.36 142.569L153.752 143.229L155.709 143.363L159.491 147.199L159.229 148.391L158.576 148.788C158.839 149.715 156.883 149.186 156.883 149.186V149.978L157.793 150.112L158.709 150.64L160.011 148.39C161.446 147.465 162.096 148.788 162.229 149.582C162.358 150.376 161.575 150.243 161.575 150.243V152.098L162.358 152.361C163.664 153.949 161.837 154.877 161.837 154.877L161.445 156.199C161.053 157.391 159.619 157.125 159.619 157.125L159.099 157.92L157.532 158.317L160.628 158.713C160.923 157.654 161.703 157.39 162.095 157.92C162.487 158.45 162.487 159.376 162.487 159.376L163.272 159.508L163.139 160.963L163.923 161.229V165.464L164.835 166.523C166.4 165.862 166.4 166.921 165.617 167.449C164.835 167.977 165.355 170.361 165.355 170.361L164.704 171.021V172.081L163.922 172.611V174.066C162.618 173.404 161.052 173.667 160.66 174.066C159.488 173.271 157.01 173.536 157.01 174.199C157.791 175.258 156.099 175.523 156.099 175.523L155.184 176.582C155.837 177.905 154.534 178.036 154.534 178.036V180.552L152.968 182.008L153.1 185.449C153.1 186.375 155.054 186.507 155.445 185.978C155.837 185.449 157.402 187.037 157.402 187.037H158.574L158.836 184.654L158.053 184.257V180.418L159.357 178.962C160.923 178.433 160.401 182.406 160.401 182.802C160.532 184.257 161.181 184.125 161.835 183.859C163.139 183.33 162.094 185.318 161.053 185.183C160.01 185.052 160.66 186.507 160.66 186.507L161.315 186.773L160.139 187.698L159.098 188.891L157.791 188.492L156.229 188.362L155.707 187.433L154.792 187.302L154.662 189.153L154.011 189.948L152.446 191.538C154.534 191.538 152.184 192.991 151.663 192.991C152.837 193.388 151.534 194.581 148.535 193.655V194.58L147.49 194.713L148.405 195.77L149.446 195.903L149.055 198.152C149.055 199.873 144.753 198.68 144.36 198.285L144.23 200.668L143.447 200.798L143.577 202.388L143.447 204.639L144.881 204.373V205.301L148.404 205.433L153.49 200.005L156.488 199.345C156.748 198.019 158.051 199.61 158.051 199.61C159.357 199.474 159.618 200.402 159.618 200.402L161.314 200.668C162.746 201.066 161.88 201.205 161.965 201.728C162.094 202.52 162.746 202.256 162.746 202.256L163.009 200.536L163.792 200.668L163.009 199.741L161.573 199.078L160.009 198.418C158.964 196.962 160.27 197.227 161.314 197.36H163.008C163.008 197.36 164.966 200.005 164.966 200.668C164.966 201.331 165.879 201.463 165.879 201.463L167.05 201.33L167.442 202.255H168.616L169.008 203.048H171.355L171.485 201.858L169.266 201.463L169.137 200.137L167.574 199.74C167.05 197.492 167.963 196.83 168.616 197.89L169.398 198.019L169.137 196.034L170.049 195.769L169.789 192.989L169.007 192.726V191.799L172.265 191.934C172.006 190.21 172.397 189.417 172.397 189.417H173.309L173.44 190.081L177.429 190.457L180.25 187.222C180.108 186.974 180.534 186.823 180.224 186.506C179.832 186.109 179.309 186.506 178.655 186.109C178.004 185.715 178.655 183.462 178.525 182.934C178.395 182.405 180.745 181.608 180.353 182.801C179.961 183.993 180.353 184.522 180.353 184.522C182.048 182.934 183.482 184.653 183.353 185.051C183.22 185.448 184.264 185.846 184.915 185.448C185.568 185.051 186.351 186.64 186.089 187.433C185.827 188.226 183.482 188.095 183.353 187.3C183.22 186.505 182.827 186.771 182.57 187.169C182.307 187.566 181.136 187.829 180.483 187.432C180.35 187.352 180.287 187.285 180.25 187.221L177.429 190.457L177.612 190.476C179.176 191.404 178.395 192.594 177.875 192.859C177.351 193.123 176.439 193.123 176.439 193.123L176.18 193.653L172.788 193.917L172.526 195.242C170.831 194.975 170.181 196.829 170.571 197.754C170.964 198.68 170.571 199.474 170.571 199.474L172.006 200.137L173.83 199.61C174.093 198.284 175.264 198.019 176.309 197.227C177.351 196.432 179.048 198.68 178.525 199.74C178.004 200.798 178.004 201.195 178.004 201.195L178.132 202.388L176.83 202.916L175.787 203.446L175.654 204.108H172.135L171.484 204.769L169.788 204.905L169.264 205.697L168.093 205.83C168.093 205.83 166.135 206.757 166.919 207.815C167.701 208.875 163.659 208.742 162.744 207.285C162.483 208.607 161.049 207.417 161.049 207.417L159.615 207.019L159.486 205.036C159.225 203.711 156.747 203.711 156.878 204.639C157.008 205.566 152.182 205.036 152.182 205.036L150.617 205.796L149.182 206.625L149.052 207.285L146.704 207.55L145.662 208.08L145.271 207.285H144.228L143.184 208.743C140.447 208.876 137.838 210.463 138.099 211.125C138.36 211.786 137.057 212.451 137.057 212.451L135.882 212.843L135.101 214.036L133.536 214.566L133.273 217.346L132.493 217.874V219.067L131.578 219.33V219.992L130.275 220.125L131.056 222.111L132.102 222.641C133.928 222.904 133.144 225.156 133.144 225.156L134.186 225.286L134.71 226.741L135.751 228.859C136.144 230.45 137.317 230.052 137.838 229.919C138.36 229.789 138.88 231.507 138.88 231.507L144.096 231.64C144.096 231.64 143.837 232.17 144.749 232.434C145.661 232.697 151.661 232.965 151.923 232.568C151.66 231.375 155.181 231.11 156.617 232.169C158.05 233.227 160.006 232.568 160.006 232.568L161.963 234.947L163.269 237.86L165.485 238.52L167.048 238.919L167.572 241.169L168.744 241.301L169.136 242.758C170.571 243.816 168.744 246.067 168.744 246.067V248.977L169.787 249.508L169.656 250.568L171.354 252.286L173.309 252.421L178.265 257.713L182.176 258.904L182.827 261.022L183.872 260.889L184.654 260.229L187.783 260.096L189.349 258.638L191.043 258.376L205.519 246.067L204.213 245.272V242.361C206.56 240.642 206.691 237.595 204.474 237.331C202.792 237.13 203.563 235.346 205.128 235.081L206.039 234.686V233.493L209.039 230.716V228.597L202.52 223.169C199.65 222.112 202.52 215.758 204.474 215.89C206.432 216.021 204.345 206.097 204.345 206.097L203.3 205.569L203.563 202.391H202.129L199.781 205.436L199.13 207.552C198.868 210.335 190.783 209.802 190.391 209.405C189.998 209.007 187.261 207.817 187.261 207.817C187.261 207.817 185.175 206.097 184.784 206.627C184.392 207.158 182.568 205.964 182.568 206.362C182.568 206.76 180.873 205.437 180.873 205.437L178.266 204.51L180.223 204.111L179.831 202.524L183.218 204.245C183.61 204.772 185.305 204.642 185.305 204.642L185.826 205.305C185.826 205.305 186.871 205.17 187.526 205.966C188.177 206.761 191.566 206.099 191.566 206.099L192.478 206.891L193.912 207.421L197.956 207.554L198.086 205.041L198.868 204.246L198.738 202.656L199.651 201.864V200.541L200.434 200.276L200.563 197.366L201.214 197.233V190.88L199.258 189.026C199.13 189.689 197.043 189.689 197.043 189.689C197.043 189.689 196.521 190.614 196.13 190.614C195.74 190.614 196.652 191.804 196.39 192.599C196.13 193.391 195.086 193.391 195.086 193.391L193.128 193.923L192.608 194.585H190.521L190.262 192.865L192.608 192.202L193.911 191.542L194.564 190.216C194.693 188.895 196.259 189.026 196.259 189.026C196.259 189.026 199.258 186.511 199.389 185.322C199.521 184.13 200.563 180.821 202.388 180.821H205.779C207.082 180.29 206.691 178.57 206.691 178.57L208.387 178.307L208.649 179.233C208.649 179.233 210.997 179.498 211.256 179.101C211.518 178.705 212.039 177.777 212.692 178.175C213.344 178.571 215.43 177.248 215.43 177.248C215.56 176.321 218.82 176.718 218.82 176.718L219.212 175.528C219.212 175.528 216.996 172.484 216.605 172.484C216.213 172.484 214.127 170.629 213.865 171.292C211.781 170.763 211.91 167.85 211.91 167.85L211.127 165.999C211.127 164.938 209.173 162.688 208.779 162.955C206.822 161.499 208.258 159.778 208.779 159.645C209.301 159.514 210.607 157.661 210.607 157.661L211.258 155.807L213.474 155.148L213.735 153.426L212.564 153.293C212.564 153.293 213.866 150.911 214.519 150.911C215.172 150.911 219.475 150.911 219.864 150.645C220.256 150.382 221.037 148.264 221.037 147.867C221.037 147.469 222.083 147.337 222.472 147.204C222.863 147.073 223.776 146.013 224.037 145.484C224.298 144.951 223.387 141.642 222.864 142.171H222.865Z" fill="#636363" stroke="#636363" stroke-width="1.2" stroke-linecap="round" stroke-linejoin="round"/>
<path d="M136.6 181.295H153.56V180.447C153.843 162.922 158.365 155.29 170.803 147.516C183.24 139.955 190.59 129.072 190.59 113.455C190.59 91.4062 174.477 75.294 149.602 75.294C126.706 75.294 108.545 89.4276 107.485 113.455H125.293C126.353 96.777 138.013 89.9929 149.602 89.9929C162.888 89.9929 173.629 98.7557 173.629 112.607C173.629 123.843 167.199 131.899 158.931 136.916C145.08 145.326 136.812 153.523 136.6 180.447V181.295ZM145.645 223.131C152.641 223.131 158.365 217.407 158.365 210.411C158.365 203.414 152.641 197.69 145.645 197.69C138.649 197.69 132.925 203.414 132.925 210.411C132.925 217.407 138.649 223.131 145.645 223.131Z" fill="white"/>
<path d="M136.6 181.295H135.3C135.3 182.013 135.882 182.595 136.6 182.595V181.295ZM153.56 181.295V182.595C154.278 182.595 154.86 182.013 154.86 181.295H153.56ZM153.56 180.447L152.26 180.426C152.26 180.433 152.26 180.44 152.26 180.447H153.56ZM170.803 147.516L170.127 146.406C170.123 146.408 170.118 146.411 170.114 146.414L170.803 147.516ZM107.485 113.455L106.186 113.397C106.17 113.752 106.3 114.097 106.545 114.353C106.791 114.61 107.13 114.755 107.485 114.755V113.455ZM125.293 113.455V114.755C125.979 114.755 126.547 114.222 126.59 113.537L125.293 113.455ZM158.931 136.916L158.256 135.805L158.256 135.805L158.931 136.916ZM136.6 180.447L135.3 180.437V180.447H136.6ZM136.6 182.595H153.56V179.995H136.6V182.595ZM154.86 181.295V180.447H152.26V181.295H154.86ZM154.86 180.468C155 171.798 156.189 165.747 158.769 160.939C161.34 156.147 165.372 152.443 171.492 148.619L170.114 146.414C163.796 150.363 159.348 154.362 156.478 159.71C153.616 165.043 152.403 171.571 152.26 180.426L154.86 180.468ZM171.478 148.627C184.25 140.863 191.89 129.586 191.89 113.455H189.29C189.29 128.558 182.231 139.047 170.127 146.406L171.478 148.627ZM191.89 113.455C191.89 102.102 187.735 92.2122 180.32 85.1639C172.908 78.1186 162.325 73.994 149.602 73.994V76.594C161.755 76.594 171.666 80.5255 178.529 87.0484C185.388 93.5684 189.29 102.758 189.29 113.455H191.89ZM149.602 73.994C137.891 73.994 127.309 77.6102 119.503 84.3822C111.683 91.1662 106.731 101.048 106.186 113.397L108.783 113.512C109.299 101.834 113.957 92.6356 121.207 86.3461C128.471 80.0446 138.418 76.594 149.602 76.594V73.994ZM107.485 114.755H125.293V112.155H107.485V114.755ZM126.59 113.537C127.1 105.51 130.142 99.9907 134.336 96.4646C138.553 92.9186 144.05 91.2929 149.602 91.2929V88.6929C143.566 88.6929 137.438 90.4592 132.662 94.4746C127.863 98.51 124.545 104.722 123.995 113.372L126.59 113.537ZM149.602 91.2929C162.299 91.2929 172.329 99.596 172.329 112.607H174.929C174.929 97.9154 163.477 88.6929 149.602 88.6929V91.2929ZM172.329 112.607C172.329 123.265 166.254 130.951 158.256 135.805L159.605 138.028C168.143 132.846 174.929 124.42 174.929 112.607H172.329ZM158.256 135.805C151.28 140.041 145.523 144.329 141.532 151.077C137.544 157.818 135.407 166.857 135.3 180.437L137.9 180.458C138.005 167.113 140.108 158.591 143.769 152.401C147.427 146.217 152.731 142.201 159.605 138.027L158.256 135.805ZM135.3 180.447V181.295H137.9V180.447H135.3ZM145.645 224.431C153.359 224.431 159.665 218.125 159.665 210.411H157.065C157.065 216.689 151.923 221.831 145.645 221.831V224.431ZM159.665 210.411C159.665 202.696 153.359 196.39 145.645 196.39V198.99C151.923 198.99 157.065 204.132 157.065 210.411H159.665ZM145.645 196.39C137.931 196.39 131.625 202.696 131.625 210.411H134.225C134.225 204.132 139.367 198.99 145.645 198.99V196.39ZM131.625 210.411C131.625 218.125 137.931 224.431 145.645 224.431V221.831C139.367 221.831 134.225 216.689 134.225 210.411H131.625Z" fill="white"/>
<path d="M157.242 129.687L157.279 130.623L158.066 130.586L158.023 129.656L157.242 129.687ZM156.098 128.412H157.14V129.206H156.098V128.412ZM155.134 128.271L155.244 127.486L154.329 127.355L154.219 128.134L155.134 128.271ZM153.446 127.868L152.536 127.736L152.647 126.949L153.557 127.081L153.446 127.868ZM145.931 126.819H146.973V127.614H145.931V126.819ZM144.569 128.533L144.68 127.747L143.77 127.616L143.66 128.402L144.569 128.533ZM143.753 129.601L142.708 129.336L142.898 128.566L143.943 128.832L143.753 129.601ZM141.886 130.579L141.757 129.785L142.529 129.655L142.659 130.449L141.886 130.579ZM39.5167 213.507H40.3035L40.1678 211.524L39.1237 211.124V210.463H38.4726V211.786H39.5167V213.507ZM47.6047 219.326L48.5147 219.994L49.4302 221.978L48.9077 222.9L47.4761 221.578L46.4311 220.125L45.9087 218.934L44.9924 216.551L46.9473 217.474L47.6047 219.326ZM78.6419 259.034L77.7257 259.565L77.204 258.772L75.901 258.373L75.7715 257.182L74.7266 255.591L76.294 255.859L77.9846 257.313L78.6419 259.034ZM146.582 138.202H145.148L144.887 135.292L145.67 134.76V133.305H141.104L140.975 131.85L141.628 131.452L140.584 131.056L139.801 132.113L139.542 133.305L138.237 133.571V134.231H137.325V135.951L133.673 138.994L126.371 138.732C125.847 139.922 124.543 138.598 124.543 138.598C124.284 137.804 122.458 138.598 122.458 138.598C122.458 140.055 119.981 137.937 119.981 137.937L115.415 134.627C112.808 132.246 108.896 135.29 108.766 135.951C108.896 137.804 105.767 136.348 105.767 136.348C105.767 136.348 103.159 135.555 102.767 136.614C102.377 137.672 100.679 137.409 100.679 137.409L100.418 137.938L99.113 138.202L98.8541 138.995L97.2883 139.262L101.2 139.129C102.243 138.996 100.807 141.379 100.156 141.247L98.3332 141.379L97.679 142.04H95.9845L95.2023 143.1L92.7257 142.967C92.7257 142.967 91.2901 144.159 91.4219 144.555C91.5522 144.953 91.1607 146.144 90.7685 146.144C90.377 146.144 89.5949 147.334 89.8561 147.731C90.1181 148.129 89.074 149.452 89.074 149.452L88.8143 150.777L88.0322 151.04V154.614L86.4664 155.673V157.261L84.1176 159.776L84.3797 161.893L82.4247 164.011L82.6836 166.129L81.51 166.526L81.2511 167.452L80.7295 170.23L82.0332 170.364C82.6836 170.098 82.5541 172.085 82.0332 172.348C81.51 172.613 80.0752 173.141 80.8597 173.67C81.6426 174.202 78.7729 174.069 78.7729 173.274C78.7729 172.482 77.2071 171.819 76.8172 172.084C76.425 172.347 75.7723 170.893 75.7723 170.893C74.3383 169.438 69.9044 171.025 69.9044 171.025L69.2501 173.142C67.8177 173.408 66.9045 175.79 66.9045 175.79C65.7309 176.188 64.8186 177.641 65.21 178.039C65.6007 178.437 64.5566 178.568 64.5566 178.568V181.481L63.9054 182.407L64.0341 185.582C64.8186 185.582 64.6884 187.04 64.6884 187.04C63.3838 187.172 63.6427 188.893 63.6427 188.893L60.9056 189.819L60.3847 190.613L56.9942 190.479L56.0818 191.406L55.1663 190.479H48.6465L48.3876 189.818L47.083 189.551L46.9512 188.098L44.9963 188.229L44.6056 189.023L42.5181 189.154C42.6483 190.478 40.4314 192.465 40.1725 191.937C39.9082 191.406 38.4749 189.949 39.1284 189.687C39.7811 189.42 41.4771 189.154 41.4771 189.154V188.229L36.6502 188.098L36.1301 188.892L34.172 189.023V191.141L33.2605 191.406C32.607 191.802 33.3891 193.259 33.3891 193.259C34.3023 194.185 33.2605 195.64 33.2605 195.64C32.476 196.434 33.9108 197.892 33.9108 197.892C34.9549 198.155 33.2597 198.949 33.2597 198.949C33.5185 200.272 34.303 200.67 34.303 200.67C33.5186 201.992 34.8263 202.653 34.8263 202.653L34.9549 204.906L35.8681 205.435V206.888L36.389 207.815H38.4757L38.3455 204.507C36.5192 202.389 39.9089 201.86 40.0415 202.652C40.1733 203.447 41.6074 203.844 41.6074 203.844C41.8686 205.831 44.0863 207.02 44.7358 205.037C45.3885 203.049 45.9102 204.242 46.3017 205.167C46.6931 206.095 49.1674 208.345 49.1674 208.345H51.1255L51.3875 210.199C53.6036 210.065 54.254 210.334 55.1671 213.374C56.0818 216.417 58.5584 217.211 58.5584 217.211L60.3847 217.079C60.3847 215.493 62.211 217.346 62.211 218.142C62.211 218.932 65.7309 221.977 65.7309 221.977L69.2509 222.769L72.5143 225.42L74.9902 225.155H76.0351C76.6854 222.903 79.8163 225.285 80.0752 226.081C80.3388 226.874 82.4247 228.199 82.6828 227.535C82.9456 226.874 84.3797 227.272 84.6409 229.255C84.9013 231.243 85.8129 230.846 85.8129 230.846L93.2474 230.713L95.855 228.461L102.507 228.33C105.896 228.198 103.81 223.565 103.16 223.565C101.986 222.639 103.55 218.801 103.55 218.801L94.0304 209.934C91.8134 209.934 93.7691 206.756 93.7691 206.756C95.4636 205.697 93.3769 203.979 93.3769 203.979C93.6389 202.388 92.4637 200.535 92.4637 200.535C90.1181 198.948 90.7692 195.902 90.7692 195.902V193.784C88.8143 191.933 91.5522 191.666 91.5522 191.666C92.4637 190.081 90.8987 188.889 90.8987 188.889L90.7692 187.168L88.6825 186.902L88.4236 180.681L83.7285 173.934C82.8138 173.667 83.4665 172.08 83.4665 172.08C84.6401 171.418 83.2037 169.832 83.2037 169.832L83.0743 166.919L85.8121 166.652L86.4648 165.595H87.7686L87.6392 162.154C88.2903 160.434 89.8546 161.359 89.8546 161.359L91.68 161.493L92.725 159.506L92.9838 157.918L91.5506 157.787C89.9856 156.859 90.7677 153.42 90.7677 153.42C93.2459 149.712 96.1131 151.83 96.1131 151.83L97.941 151.699C100.678 153.551 98.1999 156.992 98.1999 156.992C97.6782 157.787 97.941 160.301 97.941 160.301L98.5921 164.535L96.896 165.992C95.4628 166.787 95.4628 168.639 97.0278 169.036C98.0704 169.167 97.679 171.683 96.1131 169.962C93.7675 169.962 97.4201 172.08 96.3759 171.548C98.7239 172.741 98.1999 170.491 98.1999 170.491L101.332 167.976C102.507 167.05 104.593 169.962 104.593 170.36C104.593 170.756 109.809 170.49 109.809 170.49C111.243 171.416 111.764 173.8 111.764 173.8C113.2 171.945 116.198 173.665 113.982 174.726C116.066 176.049 116.066 177.24 116.066 177.24C117.764 176.711 117.764 178.034 117.764 178.432C117.764 178.829 118.285 176.447 118.285 176.447C116.329 174.99 120.893 174.461 119.59 177.109L118.806 178.301L120.111 179.358L120.24 182.404C123.11 182.137 122.327 178.564 122.327 178.564L123.631 178.3C123.631 177.108 124.543 177.77 124.543 177.77C123.631 173.269 126.631 172.477 126.631 172.477C128.326 172.08 128.456 168.504 128.456 168.504C127.284 167.976 127.933 166.123 129.239 167.713C130.541 169.298 128.456 164.534 128.456 164.534L127.412 163.608L125.979 163.477L125.847 162.021H123.502L123.11 163.874L122.198 164.139L121.935 163.608L121.545 165.064H119.198L119.069 163.477L120.503 163.08L121.024 162.286L121.414 160.168H123.111L125.327 159.506C125.456 157.256 126.631 157.787 126.631 157.787L127.413 158.447L128.587 159.374L128.718 160.166L127.934 160.563L127.805 161.624L128.197 163.079H129.239C129.63 160.961 132.37 160.961 133.152 162.285L133.935 160.432C132.11 159.506 133.901 158.049 134.422 158.712C134.943 159.374 136.152 156.991 136.152 156.991C136.152 156.991 137.064 158.182 136.152 156.594C135.238 155.005 136.803 154.212 136.803 154.212C136.543 152.624 138.499 152.888 138.499 152.888L138.63 150.772L136.802 150.638C136.414 152.491 134.848 150.904 135.63 150.507C136.414 150.109 137.193 149.314 137.193 149.314V147.991L137.977 147.727L138.106 146.403H140.064L141.758 145.609L142.15 144.947L143.975 144.815L146.583 142.432L146.324 141.375C144.759 141.375 146.324 140.182 146.324 140.182L146.581 138.202H146.582Z" fill="#636363" stroke="#636363" stroke-width="1.2" stroke-linecap="round" stroke-linejoin="round"/>
<path d="M94.0295 164.403L91.6816 164.139L91.8134 165.064H92.4645C93.5063 166.918 92.5947 171.417 92.5947 171.417C92.5947 171.417 91.0312 171.548 90.7692 170.756C90.5103 169.962 89.8561 172.477 90.377 172.874C90.8987 173.269 92.7258 172.874 92.856 174.331C92.9846 175.785 94.0295 173.403 94.0295 173.403V164.403Z" fill="#636363" stroke="#636363" stroke-width="1.2" stroke-linecap="round" stroke-linejoin="round"/>
<path d="M94.5474 179.225L94.8117 178.033L93.8963 177.641L94.0249 175.656L94.8117 175.519L94.9412 174.59L92.98 175.919L91.6777 175.126V178.301L93.7668 181.077L94.5474 179.225ZM95.0698 182.668L94.1598 182.799L94.0249 183.859L95.0698 183.99V182.668ZM93.8963 189.417L92.7902 189.548V190.477L93.8963 190.346V189.417ZM95.4339 186.274C95.7398 186.274 95.9853 186.024 95.9853 185.715C95.9863 185.641 95.9727 185.569 95.9455 185.501C95.9182 185.433 95.8778 185.371 95.8265 185.319C95.7753 185.266 95.7142 185.225 95.6468 185.196C95.5794 185.168 95.5071 185.153 95.4339 185.152C95.3606 185.153 95.2881 185.168 95.2206 185.196C95.1532 185.225 95.0919 185.266 95.0406 185.319C94.9892 185.371 94.9486 185.433 94.9212 185.501C94.8938 185.569 94.8801 185.641 94.8808 185.715C94.8808 186.024 95.1287 186.274 95.4339 186.274Z" fill="#636363" stroke="#636363" stroke-width="1.2" stroke-linecap="round" stroke-linejoin="round"/>
<path d="M96.3422 189.055C96.6477 189.055 96.8953 188.804 96.8953 188.494C96.8953 188.184 96.6477 187.933 96.3422 187.933C96.0367 187.933 95.7891 188.184 95.7891 188.494C95.7891 188.804 96.0367 189.055 96.3422 189.055Z" fill="#636363" stroke="#636363" stroke-width="1.2" stroke-linecap="round" stroke-linejoin="round"/>
<path d="M96.3725 173.935C96.678 173.935 96.9256 173.684 96.9256 173.374C96.9256 173.064 96.678 172.812 96.3725 172.812C96.067 172.812 95.8193 173.064 95.8193 173.374C95.8193 173.684 96.067 173.935 96.3725 173.935Z" fill="#636363" stroke="#636363" stroke-width="1.2" stroke-linecap="round" stroke-linejoin="round"/>
<path d="M141.626 157.256V154.743H140.846L140.716 153.813L139.278 153.682L139.019 154.343H138.368L138.233 155.404H139.02L139.149 156.196L138.627 156.726L138.368 157.387L137.324 157.656L134.976 159.907L134.847 160.961L134.196 161.891L133.415 163.874L130.674 164.005L130.152 166.388L130.538 168.372L132.886 169.301L133.151 167.979L133.931 167.579L134.066 166.257L134.582 165.328L135.369 164.404L135.628 163.344L136.93 162.552L138.498 162.284L139.149 161.492L139.413 159.907L139.506 158.716L140.065 157.918L141.626 157.256ZM144.362 162.818V160.965L144.1 159.244L142.146 158.318L140.712 159.642L140.45 161.496V162.686L139.146 162.951L138.884 166.524L137.842 166.922L137.973 168.245L136.539 168.642L135.105 169.039L134.844 170.76L133.802 171.421L133.277 173.009L132.626 176.848C132.626 176.848 133.801 179.098 134.452 178.039C135.105 176.98 136.147 176.848 136.147 176.848L136.539 175.921L140.06 176.053C140.321 174.596 142.016 175.128 142.016 175.789C142.016 176.45 143.321 175.92 143.321 175.92L144.232 174.465H145.666L145.797 172.878L146.449 172.48V170.097C148.537 169.435 148.274 167.451 148.274 167.451L148.799 166.789L148.537 165.864C147.492 165.466 148.013 164.538 148.665 164.803C149.32 165.067 147.753 163.611 147.753 163.611C146.971 164.275 146.321 162.818 146.321 162.818H144.362ZM146.449 178.83C146.32 180.417 144.362 180.948 144.362 180.948L142.928 180.551L142.146 179.889L142.015 178.035L143.188 177.904L143.449 178.699L146.449 178.83ZM153.494 170.365C153.776 171.519 153.753 168.51 154.274 168.644C154.795 168.776 154.406 166.792 154.406 166.792L152.058 168.51C153.232 168.644 153.36 169.836 153.494 170.365ZM160.405 163.477C160.926 164.67 160.797 166.39 162.751 167.713C163.411 168.16 162.359 169.038 161.706 168.639C161.055 168.243 159.232 165.329 159.232 165.329V163.61C159.622 162.552 160.179 162.964 160.405 163.477ZM162.098 203.314L161.317 203.046L160.407 203.712L160.795 204.106L161.183 204.768L162.098 203.314ZM157.142 201.595V203.188V201.595ZM177.045 199.017L176.627 198.349L175.589 199.004L176.001 199.678L177.045 199.017ZM213.742 227.271L214.917 227.799L215.046 230.049C216.612 231.637 221.698 230.314 221.698 229.917C221.698 229.519 221.435 225.021 221.435 225.021L220.782 224.358L220.653 221.047C221.174 219.327 218.174 216.811 217.915 217.344C217.653 217.872 215.958 217.473 215.958 218.004C215.958 218.532 214.916 221.18 215.437 222.107C215.958 223.034 215.045 223.034 214.916 223.96C214.786 224.886 213.481 226.477 213.742 227.271ZM210.871 221.976C210.624 222.979 209.7 223.564 209.178 223.166C208.653 222.768 209.827 223.827 210.089 224.358C210.35 224.886 211.131 224.886 211.394 224.358C211.653 223.826 211.523 222.638 211.786 222.109C212.045 221.578 211.002 221.446 210.871 221.975V221.976ZM204.807 197.696H205.718V200.212H204.807V197.696ZM218.308 172.216C217.739 171.445 220.915 170.098 221.437 171.688C221.958 173.274 221.437 173.011 220.915 172.878C220.392 172.745 219.091 173.275 218.308 172.216ZM220.977 155.267L222.408 155.529L222.549 154.749L221.111 154.487L220.977 155.267ZM217.46 155.853L216.49 156.402L215.641 155.865L215.229 156.532L216.274 157.194L216.471 157.319L216.667 157.206L217.455 156.764L217.553 157.007L218.278 156.713L218.014 156.053L217.848 155.635L217.46 155.853ZM222.348 124.567H220.391C220.391 124.567 221.043 124.831 219.219 123.11C217.391 121.391 216.219 123.508 216.219 123.508L214.133 123.772V125.89L213.088 126.286L213.22 127.611L214.654 127.479C214.654 127.479 214.654 129.067 215.046 128.405C215.438 127.743 218.698 128.536 218.436 130.126C218.33 130.778 221.697 132.507 221.307 134.624C223.001 134.89 222.61 136.611 222.61 136.611L224.826 136.875L225.479 135.552L226.131 135.685V134.89L224.693 134.493L224.435 130.257L223.522 129.595L223.782 128.536L222.74 128.139L223.262 126.419L222.348 124.567ZM228.082 138.068L227.04 137.937L224.689 138.334L223.388 140.848C223.388 140.848 224.039 141.245 224.559 142.171C225.081 143.099 225.343 148.523 223.778 149.451C222.214 150.378 223.91 149.847 223.91 149.847L223.647 152.759C224.039 154.083 224.689 153.423 225.081 152.759C225.476 152.1 225.867 151.966 226.388 151.304C226.91 150.642 227.691 149.451 227.822 148.524C227.951 147.599 228.604 146.143 228.212 145.746C227.822 145.349 228.604 143.496 228.604 143.496C228.604 143.496 229.126 142.436 228.604 141.378C228.083 140.319 228.734 139.127 229.126 138.597L228.082 138.068ZM229.659 143.467L229.793 142.408L230.571 142.509L230.437 143.568L229.659 143.467ZM229.612 147.125L228.914 146.769L229.305 145.976L230.004 146.331L229.612 147.125ZM228.475 136.617L227.951 135.424C227.951 135.424 227.951 134.367 228.212 133.836C228.475 133.307 227.691 132.779 227.301 132.645C226.909 132.512 227.041 131.455 226.909 130.924C226.779 130.396 225.868 129.999 225.868 129.999C225.868 129.999 225.604 128.014 225.604 127.617C225.604 127.22 224.431 126.691 224.823 126.293C225.215 125.896 225.476 125.367 225.868 125.101C226.259 124.837 225.476 122.983 226.127 123.381C226.779 123.779 226.779 124.44 227.041 124.969C227.301 125.498 226.91 127.352 227.562 127.75C228.213 128.145 227.43 129.468 228.475 129.468C229.517 129.468 228.867 131.984 228.867 131.984C228.867 131.984 228.604 133.836 229.255 133.969C229.909 134.102 229.518 137.278 229.518 137.278L228.475 136.617ZM220.002 115.169C220.392 115.698 221.175 116.095 221.175 116.626C221.175 117.155 220.915 117.551 221.698 117.684C222.479 117.816 223.002 117.551 223.262 118.213C223.523 118.874 223.523 119.933 223.394 120.462C223.262 120.993 223.523 121.786 224.174 121.786C224.828 121.786 224.957 121.919 224.957 122.316C224.957 122.712 225.74 120.859 225.74 120.859C225.086 120.331 224.565 119.138 224.565 119.138C224.565 119.138 223.914 117.286 223.914 117.022C223.914 116.757 223.002 116.491 222.611 116.36C222.219 116.226 221.566 115.036 221.566 115.036L220.002 115.17V115.169ZM221.304 113.984C220.912 113.453 220.521 113.057 220 112.793C219.48 112.527 219.088 112.263 218.564 112.263C218.043 112.263 217.523 111.733 217.781 111.072C218.044 110.41 217.389 110.146 217.389 109.615C217.389 109.087 217.781 109.087 218.434 109.484C219.087 109.881 218.956 110.012 219.48 110.676C220 111.337 220.26 111.999 220.78 111.866C221.304 111.733 221.695 113.057 222.216 112.66C222.738 112.263 222.608 113.586 222.608 113.586L221.304 113.984ZM206.046 128.936C206.766 129.668 202.135 129.464 202.135 128.936C202.135 128.408 202.527 126.556 203.698 126.95C204.873 127.349 205.001 124.569 205.001 124.569C205.001 124.569 203.96 124.7 204.873 124.172C205.785 123.643 204.873 122.848 204.48 122.451C204.09 122.053 203.698 121.392 203.698 121.392H205.526C206.309 120.862 206.567 118.348 206.567 118.348C208.131 118.877 208.914 117.818 208.914 117.818C208.914 117.818 209.179 118.612 209.699 119.276C210.221 119.936 208.393 120.201 209.045 120.599C209.7 120.996 209.958 122.186 209.7 122.582C209.437 122.98 208 122.716 208 122.186C208 121.656 207.48 122.848 208 123.51C208.522 124.172 207.349 125.097 207.088 125.097C206.827 125.097 205.135 125.363 206.567 126.156C208 126.95 209.569 126.555 209.569 126.555C209.569 126.555 210.741 126.421 211.132 127.084C211.524 127.746 211.003 127.878 210.351 127.878C209.7 127.878 206.568 127.612 206.568 127.612C206.568 127.612 205.656 128.54 206.046 128.936ZM197.699 130.129C198.354 129.996 199.915 129.863 200.178 130.261C200.44 130.657 199.264 131.186 199.264 131.186L197.699 131.452C197.178 130.789 197.048 130.261 197.699 130.129ZM214.527 119.013C215.569 118.484 217.785 118.484 217.656 117.689C217.526 116.895 218.959 116.63 218.959 116.63L219.351 118.218L220.525 119.012L220.656 120.468C220.656 120.468 221.046 120.204 219.612 120.601C218.177 120.998 219.091 121.659 219.091 121.659L215.961 121.791L215.568 120.467L214.527 119.013ZM209.435 111.866C210.228 111.866 209.176 114.91 211.26 114.646C213.347 114.38 211.393 115.571 212.956 115.704C214.522 115.837 214.13 114.513 214.651 113.587C215.175 112.661 214.914 112.131 214 111.866C213.085 111.602 213.085 111.602 212.827 110.541C212.567 109.484 211.523 109.218 211.523 109.218L211.13 107.631L209.435 108.689L207.741 110.939C207.741 112.661 208.652 111.866 209.435 111.866ZM212.887 123.05L213.279 122.256L213.98 122.612L213.588 123.406L212.887 123.05ZM211.522 121.79H212.305V122.716H211.522V121.79ZM212.18 104.155L212.311 105.346L211.534 105.433L211.402 104.244L212.18 104.155ZM209.961 116.495H210.744V117.157H209.961V116.495ZM207.907 116.481L207.83 115.69L209.135 115.559L209.212 116.35L207.907 116.481ZM197.149 129.209L196.432 128.896L196.824 127.971L197.54 128.283L197.149 129.209ZM193.055 126.8L192.979 126.012L194.285 125.881L194.361 126.669L193.055 126.8ZM167.562 126.687L167.599 127.479L170.462 127.348L170.426 126.556L167.562 126.687ZM165.642 127.705L165.382 126.515L166.147 126.343L166.406 127.532L165.642 127.705ZM165.093 128.525L164.846 127.772L165.237 127.639L165.484 128.393L165.093 128.525ZM171.615 126.293L171.486 127.218L172.918 127.352C172.918 127.352 173.569 127.882 173.569 128.278C173.569 128.675 174.484 129.071 175.005 129.071C175.527 129.071 176.961 128.012 176.961 128.012C176.961 128.012 177.614 126.159 177.093 126.291C176.569 126.423 175.527 127.218 175.398 126.423C175.265 125.629 173.703 126.026 173.703 126.026L171.615 126.293ZM178.134 124.834C178.134 125.23 177.876 125.759 178.655 125.893C179.441 126.024 180.875 125.364 181.005 126.157C181.137 126.951 181.137 127.482 182.178 127.88C183.22 128.275 183.874 128.409 184.657 128.409C185.437 128.409 187.136 128.142 187.136 128.142C187.136 128.142 188.98 128.43 189.351 128.805C190.785 130.26 191.697 130.657 192.089 129.996C192.479 129.333 191.959 127.879 191.829 127.349C191.697 126.818 189.871 124.304 189.219 124.834C188.568 125.364 188.438 124.834 187.263 125.23C186.09 125.627 183.612 125.363 183.482 124.834C183.353 124.303 181.527 124.041 181.527 123.51C181.527 122.98 180.224 122.319 180.353 123.112C180.482 123.906 179.441 124.303 179.176 124.041C178.917 123.775 178.134 124.834 178.134 124.834ZM208.133 107.889L209.048 104.978C207.745 104.713 208.004 103.259 208.004 103.259C207.873 102.066 206.049 100.744 205.396 101.141C204.745 101.537 205.004 98.3605 205.004 98.3605C205.004 98.3605 206.179 97.5682 206.7 97.9644C207.221 98.3605 202.267 91.3472 201.222 92.0086C200.18 92.6707 197.834 91.3472 197.964 90.1548C198.094 88.9648 193.269 84.993 193.269 84.993C193.269 84.993 191.704 83.9363 191.444 84.7302C191.183 85.5233 190.662 86.0536 191.444 86.4489C192.225 86.8475 192.095 85.7884 193.007 86.7133C193.92 87.6398 195.617 88.8314 194.964 89.6261C194.311 90.4216 193.528 90.6852 193.528 90.6852L194.443 91.7442H195.877L196.138 93.9933C196.138 93.9933 197.702 94.788 198.094 95.7145C198.485 96.6401 198.485 97.1705 198.094 97.7008C197.702 98.2295 196.923 99.156 197.051 100.081C197.181 101.007 198.225 101.405 198.225 101.405L199.267 101.538L200.051 101.935V103.657C201.092 103.391 202.788 104.846 202.658 105.774C202.529 106.7 202.917 106.17 204.222 107.097C205.527 108.023 205.136 108.156 206.049 108.818C206.962 109.477 207.745 109.081 208.133 107.889Z" fill="#636363" stroke="#636363" stroke-width="1.2" stroke-linecap="round" stroke-linejoin="round"/>
<path d="M150.622 189.884C150.818 189.688 151.015 190.48 151.405 190.382C151.794 190.282 151.991 191.077 151.601 191.077C151.209 191.077 151.209 191.574 151.209 191.772C151.209 191.971 151.209 192.466 150.915 192.764C150.621 193.062 150.327 192.863 149.935 192.665C149.545 192.467 149.351 192.467 148.86 192.467C148.372 192.467 148.761 193.261 148.761 193.261C148.761 193.261 146.708 193.162 147.099 192.863C147.491 192.568 147.882 192.466 147.59 192.267C147.295 192.068 147.59 191.871 147.59 191.474C147.59 191.076 148.569 191.276 148.273 190.977C147.982 190.679 148.279 189.527 148.761 190.182L149.056 189.486C148.762 189.189 148.959 189.089 148.372 188.893C147.786 188.695 148.273 187.502 148.273 187.502L148.372 186.709C148.568 185.718 150.523 185.617 150.622 186.509C150.718 187.404 150.622 188 150.622 188L151.21 188.197C151.21 188.197 151.11 188.795 150.622 188.795C150.13 188.795 150.622 189.089 150.327 189.389L150.622 189.883V189.884ZM144.166 190.88C144.46 190.284 145.143 187.703 145.927 188.498C146.707 189.293 147.198 188.498 147.198 188.498C147.198 188.498 147.589 188.897 147.393 189.69C147.197 190.483 147.001 191.278 146.511 191.377C146.024 191.477 145.631 191.775 145.047 191.874C144.461 191.974 144.166 190.88 144.166 190.88Z" fill="#636363" stroke="#636363" stroke-width="1.2" stroke-linecap="round" stroke-linejoin="round"/>
</svg>
